<svg width="54" height="35" viewBox="0 0 54 35" fill="none" xmlns="http://www.w3.org/2000/svg">
<rect x="7" y="23" width="40" height="6" rx="2" fill="#D1540E"/>
<g filter="url(#filter0_dd_16_80)">
<path fill-rule="evenodd" clip-rule="evenodd" d="M15 2.7H12H10C7.07289 2.7 4.7 5.07289 4.7 8V21C4.7 23.9271 7.07289 26.3 10 26.3H44C46.9271 26.3 49.3 23.9271 49.3 21V8C49.3 5.07289 46.9271 2.7 44 2.7H39V3H44C46.7614 3 49 5.23857 49 8V21C49 23.7614 46.7614 26 44 26H10C7.23857 26 5 23.7614 5 21V8C5 5.23857 7.23857 3 10 3H12H15V2.7Z" fill="#D1540E"/>
</g>
<path d="M9.36236 24.4736H10.1387C10.2559 24.4736 10.3575 24.486 10.4434 24.5107C10.5294 24.5348 10.6006 24.57 10.6573 24.6162C10.7139 24.6624 10.7559 24.7188 10.7833 24.7852C10.8113 24.8516 10.8253 24.9268 10.8253 25.0107C10.8253 25.0674 10.8184 25.1214 10.8047 25.1729C10.7911 25.2236 10.7699 25.2705 10.7413 25.3135C10.7133 25.3564 10.6778 25.3949 10.6348 25.4287C10.5919 25.4619 10.5414 25.4896 10.4835 25.5117L10.8155 26H10.4366L10.1495 25.5664H10.1407L9.67193 25.5654V26H9.36236V24.4736ZM10.1465 25.2979C10.2051 25.2979 10.2562 25.291 10.2999 25.2773C10.3441 25.2637 10.3809 25.2445 10.4102 25.2197C10.4402 25.195 10.4623 25.165 10.4766 25.1299C10.4916 25.0941 10.4991 25.0544 10.4991 25.0107C10.4991 24.9255 10.4698 24.8597 10.4112 24.8135C10.3526 24.7666 10.2644 24.7432 10.1465 24.7432H9.67193V25.2979H10.1465ZM11.2637 25.5459C11.3106 25.5726 11.3578 25.597 11.4053 25.6191C11.4529 25.6406 11.5017 25.6598 11.5518 25.6768C11.6026 25.693 11.6547 25.707 11.7081 25.7188C11.7621 25.7298 11.8191 25.7376 11.879 25.7422V25.3574C11.8458 25.3613 11.8139 25.3646 11.7833 25.3672C11.7527 25.3698 11.723 25.3711 11.6944 25.3711C11.626 25.3711 11.5603 25.3623 11.4971 25.3447C11.4346 25.3271 11.379 25.3008 11.3301 25.2656C11.282 25.2305 11.2435 25.1865 11.2149 25.1338C11.1863 25.0811 11.1719 25.0195 11.1719 24.9492C11.1719 24.8893 11.1843 24.8304 11.209 24.7725C11.2344 24.7139 11.2751 24.6615 11.3311 24.6152C11.3878 24.5684 11.461 24.5296 11.5508 24.499C11.6407 24.4684 11.7501 24.4508 11.879 24.4463V24.1504H12.1104V24.4521C12.2191 24.4619 12.3233 24.4798 12.4229 24.5059C12.5232 24.5319 12.615 24.5635 12.6983 24.6006L12.5626 24.8506C12.4975 24.8226 12.4271 24.7979 12.3516 24.7764C12.2761 24.7549 12.1957 24.7393 12.1104 24.7295V25.04C12.1417 25.0368 12.1729 25.0342 12.2042 25.0322C12.2354 25.0296 12.266 25.0283 12.296 25.0283C12.3858 25.0283 12.4652 25.0384 12.5342 25.0586C12.6039 25.0788 12.6622 25.1077 12.709 25.1455C12.7559 25.1826 12.7914 25.2279 12.8155 25.2812C12.8396 25.334 12.8516 25.3932 12.8516 25.459C12.8516 25.5404 12.834 25.6139 12.7989 25.6797C12.7644 25.7448 12.7149 25.8011 12.6504 25.8486C12.5866 25.8962 12.5088 25.9342 12.4171 25.9629C12.3259 25.9915 12.2237 26.0098 12.1104 26.0176V26.3145H11.879V26.0186C11.7279 26.0094 11.586 25.9854 11.4532 25.9463C11.321 25.9066 11.2029 25.8568 11.0987 25.7969L11.2637 25.5459ZM11.4962 24.9199C11.4962 24.9655 11.5167 25.0029 11.5577 25.0322C11.5987 25.0609 11.6612 25.0752 11.7452 25.0752C11.7641 25.0752 11.7849 25.0745 11.8077 25.0732C11.8305 25.0713 11.8542 25.069 11.879 25.0664V24.7207C11.8054 24.7233 11.7439 24.7311 11.6944 24.7441C11.6456 24.7572 11.6065 24.7731 11.5772 24.792C11.5479 24.8109 11.5271 24.8317 11.5147 24.8545C11.5023 24.8766 11.4962 24.8984 11.4962 24.9199ZM12.1104 25.7441C12.1846 25.7396 12.2481 25.7301 12.3008 25.7158C12.3536 25.7015 12.3965 25.6836 12.4297 25.6621C12.4636 25.64 12.488 25.6149 12.503 25.5869C12.5186 25.5589 12.5264 25.5293 12.5264 25.498C12.5264 25.4427 12.5033 25.3991 12.4571 25.3672C12.4109 25.3346 12.3396 25.3184 12.2432 25.3184C12.2224 25.3184 12.2006 25.3193 12.1778 25.3213C12.1557 25.3226 12.1332 25.3245 12.1104 25.3271V25.7441Z" fill="white"/>
<path d="M15.0996 27.4299H15.8276V25.4345C15.7319 25.4563 15.6396 25.4851 15.5507 25.5206C15.4632 25.5562 15.3833 25.5992 15.3108 25.6498L14.9909 25.1925C15.1085 25.1187 15.2281 25.0564 15.3498 25.0059C15.4728 24.9539 15.5965 24.9129 15.721 24.8828C15.8467 24.8514 15.9725 24.8288 16.0983 24.8151C16.2255 24.8015 16.3519 24.7946 16.4777 24.7946L16.4757 24.7987H16.4777V27.4299H17.1729V28H15.0996V27.4299ZM17.7615 27.2371C17.8394 27.2768 17.9235 27.3109 18.0137 27.3396C18.1053 27.367 18.199 27.3902 18.2947 27.4094C18.3918 27.4285 18.4888 27.4429 18.5859 27.4524C18.6843 27.4606 18.78 27.4647 18.873 27.4647C19.0371 27.4647 19.1786 27.4531 19.2975 27.4299C19.4178 27.4053 19.5163 27.3711 19.5928 27.3273C19.6708 27.2836 19.7282 27.2316 19.7651 27.1715C19.8034 27.11 19.8225 27.0423 19.8225 26.9685C19.8225 26.8933 19.8027 26.8242 19.7631 26.7613C19.7248 26.6984 19.6667 26.6444 19.5887 26.5993C19.5122 26.5542 19.4151 26.5193 19.2975 26.4947C19.1813 26.4688 19.0453 26.4558 18.8894 26.4558C18.8197 26.4558 18.7411 26.4592 18.6536 26.466C18.5661 26.4715 18.4731 26.4811 18.3747 26.4947C18.2762 26.5084 18.1737 26.5275 18.0671 26.5521C17.9604 26.5754 17.8524 26.6041 17.743 26.6383V24.7946H20.2019V25.3709H18.3439V25.9923C18.4465 25.969 18.5538 25.9499 18.6659 25.9349C18.778 25.9185 18.9031 25.9103 19.0412 25.9103C19.2668 25.9103 19.4684 25.9349 19.6462 25.9841C19.8239 26.0333 19.9736 26.1037 20.0953 26.1953C20.2183 26.2869 20.312 26.3977 20.3762 26.5275C20.4405 26.6561 20.4726 26.8003 20.4726 26.9603C20.4726 27.1257 20.4378 27.2754 20.368 27.4094C20.2997 27.542 20.1978 27.6555 20.0625 27.7498C19.9285 27.8441 19.7631 27.9166 19.5662 27.9672C19.3707 28.0178 19.1458 28.0431 18.8915 28.0431C18.7602 28.0431 18.6297 28.0355 18.4998 28.0205C18.3713 28.0068 18.2462 27.987 18.1245 27.961C18.0028 27.9337 17.8859 27.9009 17.7738 27.8626C17.6631 27.8229 17.5591 27.7785 17.4621 27.7293L17.7615 27.2371ZM21.5759 27.2597C21.6347 27.2938 21.7004 27.3239 21.7728 27.3499C21.8453 27.3759 21.9198 27.3978 21.9964 27.4155C22.0743 27.4319 22.1522 27.4449 22.2301 27.4545C22.3094 27.4627 22.3846 27.4668 22.4557 27.4668C22.6143 27.4668 22.7572 27.4463 22.8843 27.4053C23.0129 27.3643 23.1236 27.3062 23.2166 27.231C23.3095 27.1558 23.3834 27.0662 23.4381 26.9623C23.4941 26.857 23.529 26.7408 23.5426 26.6137C23.4715 26.6697 23.3929 26.7183 23.3068 26.7593C23.2207 26.8003 23.1291 26.8345 23.032 26.8618C22.9363 26.8878 22.8372 26.9076 22.7346 26.9213C22.6335 26.9336 22.5316 26.9397 22.4291 26.9397C22.2295 26.9397 22.0476 26.9158 21.8836 26.868C21.7209 26.8201 21.5814 26.7511 21.4652 26.6608C21.349 26.5706 21.2588 26.4612 21.1945 26.3327C21.1316 26.2028 21.1002 26.0559 21.1002 25.8918C21.1002 25.7305 21.1316 25.5808 21.1945 25.4427C21.2588 25.3046 21.3531 25.185 21.4775 25.0838C21.6019 24.9813 21.7564 24.9013 21.941 24.8438C22.1256 24.7851 22.3395 24.7557 22.5829 24.7557C22.8194 24.7557 23.0354 24.7857 23.2309 24.8459C23.4264 24.9061 23.5939 24.9997 23.7334 25.1269C23.8728 25.254 23.9808 25.416 24.0574 25.6129C24.1353 25.8084 24.1743 26.0422 24.1743 26.3143C24.1743 26.6055 24.1305 26.8598 24.043 27.0771C23.9569 27.2932 23.838 27.4729 23.6862 27.6165C23.5358 27.7601 23.3581 27.8674 23.153 27.9385C22.9479 28.0096 22.7264 28.0451 22.4885 28.0451C22.3887 28.0451 22.2848 28.039 22.1768 28.0267C22.0702 28.0144 21.9642 27.9959 21.859 27.9713C21.7537 27.9467 21.6518 27.9159 21.5534 27.879C21.4563 27.8421 21.3674 27.7997 21.2868 27.7519L21.5759 27.2597ZM21.7503 25.8815C21.7503 25.9485 21.7646 26.0114 21.7933 26.0702C21.822 26.129 21.8665 26.1803 21.9266 26.224C21.9882 26.2664 22.0668 26.3006 22.1625 26.3266C22.2582 26.3512 22.3737 26.3635 22.509 26.3635C22.6225 26.3635 22.7298 26.3546 22.831 26.3368C22.9322 26.319 23.0258 26.2944 23.112 26.263C23.1981 26.2315 23.276 26.1946 23.3458 26.1522C23.4169 26.1099 23.4777 26.0634 23.5283 26.0128C23.4955 25.7886 23.397 25.6197 23.233 25.5063C23.0689 25.3914 22.8536 25.334 22.587 25.334C22.453 25.334 22.334 25.3477 22.2301 25.375C22.1262 25.4023 22.0387 25.4406 21.9676 25.4898C21.8965 25.5377 21.8425 25.5951 21.8056 25.6621C21.7687 25.7291 21.7503 25.8022 21.7503 25.8815Z" fill="white"/>
<path d="M25.4106 26.3451C25.4106 26.3061 25.4189 26.2694 25.4355 26.2353C25.4521 26.2011 25.4751 26.1713 25.5044 26.1459C25.5347 26.1195 25.5708 26.099 25.6128 26.0844C25.6558 26.0697 25.7036 26.0624 25.7563 26.0624C25.813 26.0624 25.8647 26.0717 25.9116 26.0902C25.9595 26.1078 26.0005 26.1337 26.0347 26.1679C26.0688 26.202 26.0952 26.244 26.1138 26.2938C26.1333 26.3427 26.1431 26.3979 26.1431 26.4594C26.1431 26.598 26.0952 26.7309 25.9995 26.8578C25.9048 26.9857 25.7666 27.099 25.585 27.1977L25.4092 26.9486C25.457 26.9232 25.499 26.8979 25.5352 26.8725C25.5713 26.848 25.603 26.8231 25.6304 26.7978C25.6577 26.7724 25.6812 26.746 25.7007 26.7187C25.7212 26.6913 25.7393 26.662 25.7549 26.6308C25.7031 26.6308 25.6558 26.6229 25.6128 26.6073C25.5708 26.5927 25.5347 26.5727 25.5044 26.5473C25.4741 26.5219 25.4507 26.4921 25.4341 26.4579C25.4185 26.4228 25.4106 26.3852 25.4106 26.3451ZM26.9956 26.0712C27.0376 26.0956 27.0845 26.1171 27.1362 26.1356C27.188 26.1542 27.2412 26.1698 27.2959 26.1825C27.3516 26.1942 27.4072 26.2035 27.4629 26.2104C27.5195 26.2162 27.5732 26.2191 27.624 26.2191C27.7373 26.2191 27.8394 26.2045 27.9302 26.1752C28.022 26.1459 28.1011 26.1044 28.1675 26.0507C28.2339 25.997 28.2866 25.933 28.3257 25.8588C28.3657 25.7836 28.3906 25.7006 28.4004 25.6098C28.3496 25.6498 28.2935 25.6845 28.2319 25.7138C28.1704 25.7431 28.105 25.7675 28.0356 25.787C27.9673 25.8056 27.8965 25.8197 27.8232 25.8295C27.751 25.8383 27.6782 25.8427 27.605 25.8427C27.4624 25.8427 27.3325 25.8256 27.2153 25.7914C27.0991 25.7572 26.9995 25.7079 26.9165 25.6435C26.8335 25.579 26.769 25.5009 26.7231 25.4091C26.6782 25.3163 26.6558 25.2113 26.6558 25.0941C26.6558 24.9789 26.6782 24.872 26.7231 24.7733C26.769 24.6747 26.8364 24.5893 26.9253 24.517C27.0142 24.4437 27.1245 24.3866 27.2563 24.3456C27.3882 24.3036 27.541 24.2826 27.7148 24.2826C27.8838 24.2826 28.0381 24.3041 28.1777 24.3471C28.3174 24.39 28.437 24.4569 28.5366 24.5478C28.6362 24.6386 28.7134 24.7543 28.7681 24.8949C28.8237 25.0346 28.8516 25.2016 28.8516 25.3959C28.8516 25.6039 28.8203 25.7855 28.7578 25.9408C28.6963 26.0951 28.6113 26.2235 28.5029 26.3261C28.3955 26.4286 28.2686 26.5053 28.1221 26.5561C27.9756 26.6068 27.8174 26.6322 27.6475 26.6322C27.5762 26.6322 27.502 26.6278 27.4248 26.619C27.3486 26.6103 27.2729 26.5971 27.1978 26.5795C27.1226 26.5619 27.0498 26.5399 26.9795 26.5136C26.9102 26.4872 26.8467 26.4569 26.7891 26.4228L26.9956 26.0712ZM27.1201 25.0868C27.1201 25.1347 27.1304 25.1796 27.1509 25.2216C27.1714 25.2636 27.2031 25.3002 27.2461 25.3314C27.29 25.3617 27.3462 25.3861 27.4146 25.4047C27.4829 25.4223 27.5654 25.4311 27.6621 25.4311C27.7432 25.4311 27.8198 25.4247 27.8921 25.412C27.9644 25.3993 28.0312 25.3817 28.0928 25.3593C28.1543 25.3368 28.21 25.3104 28.2598 25.2802C28.3105 25.2499 28.354 25.2167 28.3901 25.1806C28.3667 25.0204 28.2964 24.8998 28.1792 24.8187C28.062 24.7367 27.9082 24.6957 27.7178 24.6957C27.6221 24.6957 27.5371 24.7055 27.4629 24.725C27.3887 24.7445 27.3262 24.7719 27.2754 24.807C27.2246 24.8412 27.186 24.8822 27.1597 24.9301C27.1333 24.9779 27.1201 25.0302 27.1201 25.0868ZM29.3218 25.4501C29.3218 25.2655 29.3496 25.1 29.4053 24.9535C29.4609 24.807 29.54 24.683 29.6426 24.5814C29.7451 24.4789 29.8696 24.4008 30.0161 24.3471C30.1626 24.2934 30.3267 24.2665 30.5083 24.2665C30.6899 24.2665 30.854 24.2934 31.0005 24.3471C31.147 24.4008 31.2715 24.4789 31.374 24.5814C31.4766 24.683 31.5557 24.807 31.6113 24.9535C31.667 25.1 31.6948 25.2655 31.6948 25.4501C31.6948 25.6347 31.667 25.8002 31.6113 25.9467C31.5557 26.0932 31.4766 26.2172 31.374 26.3187C31.2715 26.4203 31.147 26.4979 31.0005 26.5517C30.854 26.6054 30.6899 26.6322 30.5083 26.6322C30.3267 26.6322 30.1626 26.6054 30.0161 26.5517C29.8696 26.4979 29.7451 26.4203 29.6426 26.3187C29.54 26.2172 29.4609 26.0932 29.4053 25.9467C29.3496 25.8002 29.3218 25.6347 29.3218 25.4501ZM29.7861 25.4486C29.7861 25.5736 29.8027 25.684 29.8359 25.7797C29.8701 25.8754 29.9185 25.956 29.981 26.0214C30.0435 26.0858 30.1191 26.1352 30.208 26.1693C30.2969 26.2025 30.397 26.2191 30.5083 26.2191C30.6196 26.2191 30.7197 26.2025 30.8086 26.1693C30.8975 26.1352 30.9731 26.0858 31.0356 26.0214C31.0981 25.956 31.146 25.8754 31.1792 25.7797C31.2134 25.684 31.2305 25.5736 31.2305 25.4486C31.2305 25.3246 31.2134 25.2152 31.1792 25.1205C31.146 25.0248 31.0981 24.9442 31.0356 24.8788C30.9731 24.8134 30.8975 24.7641 30.8086 24.7309C30.7197 24.6967 30.6196 24.6796 30.5083 24.6796C30.397 24.6796 30.2969 24.6967 30.208 24.7309C30.1191 24.7641 30.0435 24.8134 29.981 24.8788C29.9185 24.9442 29.8701 25.0248 29.8359 25.1205C29.8027 25.2152 29.7861 25.3246 29.7861 25.4486ZM34.4751 24.0072H34.8955L33.5347 27.1186H33.1143L34.4751 24.0072ZM35.4126 24.8715H35.8462V25.018C35.9546 24.9516 36.0601 24.9057 36.1626 24.8803C36.2661 24.8539 36.3672 24.8407 36.4658 24.8407C36.6035 24.8407 36.73 24.8627 36.8452 24.9066C36.9604 24.9506 37.0591 25.017 37.1411 25.1059C37.2046 25.057 37.2671 25.016 37.3286 24.9828C37.3901 24.9486 37.4517 24.9213 37.5132 24.9008C37.5747 24.8793 37.6372 24.8642 37.7007 24.8554C37.7642 24.8456 37.8296 24.8407 37.897 24.8407C38.0386 24.8407 38.167 24.8603 38.2822 24.8993C38.3975 24.9374 38.4956 24.9945 38.5767 25.0707C38.6587 25.1469 38.7217 25.2421 38.7656 25.3563C38.8105 25.4696 38.833 25.601 38.833 25.7504V26.6H38.4009V25.8207C38.4009 25.726 38.3872 25.6415 38.3599 25.5673C38.3335 25.4921 38.2959 25.4291 38.2471 25.3783C38.1992 25.3266 38.1416 25.2875 38.0742 25.2611C38.0078 25.2338 37.9346 25.2201 37.8545 25.2201C37.8105 25.2201 37.7656 25.2245 37.7197 25.2333C37.6738 25.2411 37.6289 25.2538 37.585 25.2714C37.542 25.289 37.5015 25.3114 37.4634 25.3388C37.4253 25.3651 37.3921 25.3964 37.3638 25.4325V26.6H36.9316V25.8207C36.9316 25.726 36.918 25.6415 36.8906 25.5673C36.8643 25.4921 36.8267 25.4291 36.7778 25.3783C36.73 25.3266 36.6719 25.2875 36.6035 25.2611C36.5361 25.2338 36.4619 25.2201 36.3809 25.2201C36.3311 25.2201 36.2808 25.2255 36.23 25.2362C36.1802 25.246 36.1318 25.2602 36.085 25.2787C36.0391 25.2973 35.9956 25.3197 35.9546 25.3461C35.9146 25.3725 35.8784 25.4022 35.8462 25.4354V26.6H35.4126V24.8715ZM39.2974 25.7299C39.2974 25.6127 39.3213 25.5009 39.3691 25.3944C39.417 25.287 39.4858 25.1923 39.5757 25.1103C39.6655 25.0282 39.7754 24.9628 39.9053 24.914C40.0361 24.8651 40.1846 24.8407 40.3506 24.8407C40.5156 24.8407 40.6641 24.8656 40.7959 24.9154C40.9287 24.9643 41.041 25.0316 41.1328 25.1176C41.2256 25.2035 41.2964 25.3046 41.3452 25.4208C41.395 25.537 41.4199 25.6615 41.4199 25.7943C41.4199 25.8109 41.4194 25.829 41.4185 25.8485C41.4185 25.8671 41.4175 25.8842 41.4155 25.8998H39.7808C39.7993 25.9516 39.8291 25.9989 39.8701 26.0419C39.9121 26.0849 39.9644 26.122 40.0269 26.1532C40.0894 26.1845 40.1616 26.2089 40.2437 26.2265C40.3257 26.2431 40.4165 26.2514 40.5161 26.2514C40.6157 26.2514 40.7148 26.2411 40.8135 26.2206C40.9121 26.1991 41.0063 26.1723 41.0962 26.14L41.2427 26.4711C41.186 26.4975 41.1284 26.5209 41.0698 26.5414C41.0122 26.5609 40.9517 26.5775 40.8882 26.5912C40.8257 26.6039 40.7598 26.6137 40.6904 26.6205C40.6221 26.6273 40.5498 26.6308 40.4736 26.6308C40.2793 26.6308 40.1089 26.6073 39.9624 26.5604C39.8159 26.5136 39.6934 26.4496 39.5947 26.3686C39.4961 26.2875 39.4219 26.1923 39.3721 26.0829C39.3223 25.9735 39.2974 25.8559 39.2974 25.7299ZM40.96 25.5614C40.9443 25.5136 40.9199 25.4691 40.8867 25.4281C40.8545 25.3861 40.814 25.35 40.7651 25.3197C40.7163 25.2885 40.6597 25.2641 40.5952 25.2465C40.5308 25.2289 40.46 25.2201 40.3828 25.2201C40.3008 25.2201 40.2261 25.2294 40.1587 25.2479C40.0913 25.2665 40.0322 25.2914 39.9814 25.3227C39.9307 25.3539 39.8882 25.39 39.854 25.4311C39.8208 25.4721 39.7964 25.5155 39.7808 25.5614H40.96ZM39.668 24.3515L40.3579 23.8314L41.0479 24.3515L40.8428 24.621L40.3579 24.2548L39.873 24.621L39.668 24.3515ZM41.9561 26.0697C42.0732 26.14 42.2021 26.1918 42.3428 26.225C42.4834 26.2582 42.6274 26.2748 42.7749 26.2748C42.8745 26.2748 42.9575 26.268 43.0239 26.2543C43.0903 26.2406 43.1436 26.223 43.1836 26.2016C43.2236 26.1801 43.252 26.1557 43.2686 26.1283C43.2852 26.101 43.2935 26.0731 43.2935 26.0448C43.2935 26.0038 43.2754 25.9687 43.2393 25.9394C43.2041 25.9101 43.1455 25.8954 43.0635 25.8954C43.0254 25.8954 42.9844 25.8979 42.9404 25.9027C42.8965 25.9076 42.8501 25.913 42.8013 25.9188C42.7534 25.9237 42.7031 25.9286 42.6504 25.9335C42.5986 25.9384 42.5459 25.9408 42.4922 25.9408C42.375 25.9408 42.2749 25.9281 42.1919 25.9027C42.1099 25.8773 42.043 25.8427 41.9912 25.7987C41.9395 25.7548 41.9019 25.703 41.8784 25.6435C41.855 25.5829 41.8433 25.518 41.8433 25.4486C41.8433 25.3607 41.8638 25.2797 41.9048 25.2055C41.9458 25.1312 42.0044 25.0673 42.0806 25.0136C42.1567 24.9589 42.2485 24.9164 42.356 24.8861C42.4644 24.8559 42.585 24.8407 42.7178 24.8407C42.7871 24.8407 42.8594 24.8451 42.9346 24.8539C43.0107 24.8617 43.0854 24.8725 43.1587 24.8861C43.2319 24.8998 43.3022 24.9159 43.3696 24.9345C43.437 24.952 43.4966 24.9711 43.5483 24.9916L43.4121 25.3285C43.3018 25.2875 43.1914 25.2553 43.0811 25.2318C42.9717 25.2074 42.8589 25.1952 42.7427 25.1952C42.6616 25.1952 42.5928 25.2016 42.5361 25.2143C42.4805 25.226 42.4351 25.2421 42.3999 25.2626C42.3647 25.2821 42.3389 25.3051 42.3223 25.3314C42.3066 25.3568 42.2988 25.3837 42.2988 25.412C42.2988 25.4325 42.3027 25.4511 42.3105 25.4677C42.3193 25.4843 42.333 25.4989 42.3516 25.5116C42.3711 25.5233 42.396 25.5326 42.4263 25.5395C42.4575 25.5453 42.4956 25.5482 42.5405 25.5482C42.5815 25.5482 42.625 25.5458 42.6709 25.5409C42.7168 25.536 42.7646 25.5312 42.8145 25.5263C42.8643 25.5204 42.9155 25.515 42.9683 25.5102C43.022 25.5053 43.0767 25.5028 43.1323 25.5028C43.2358 25.5028 43.3262 25.515 43.4033 25.5395C43.4814 25.5639 43.5459 25.598 43.5967 25.642C43.6475 25.6859 43.6855 25.7377 43.7109 25.7973C43.7363 25.8568 43.749 25.9218 43.749 25.9921C43.749 26.0829 43.728 26.1674 43.686 26.2455C43.644 26.3236 43.5815 26.3915 43.4985 26.4491C43.4155 26.5058 43.312 26.5502 43.188 26.5824C43.0649 26.6146 42.9224 26.6308 42.7603 26.6308C42.6606 26.6308 42.5645 26.6244 42.4717 26.6117C42.3789 26.6 42.2905 26.5839 42.2065 26.5634C42.1226 26.5419 42.0435 26.517 41.9692 26.4887C41.896 26.4604 41.8291 26.4301 41.7686 26.3979L41.9561 26.0697Z" fill="white"/>
<path d="M18.4961 4.50586C18.5859 4.45117 18.6628 4.39388 18.7266 4.33398C18.7917 4.27409 18.8451 4.20768 18.8867 4.13477C18.9284 4.06315 18.959 3.98307 18.9785 3.89453C18.998 3.80469 19.0078 3.70312 19.0078 3.58984V0.947266H19.627V3.47852C19.627 3.61393 19.6211 3.73763 19.6094 3.84961C19.5977 3.96029 19.5781 4.06185 19.5508 4.1543C19.5247 4.24805 19.4889 4.33398 19.4434 4.41211C19.3991 4.49023 19.3438 4.56445 19.2773 4.63477C19.2122 4.70508 19.1348 4.77279 19.0449 4.83789C18.9564 4.90299 18.8535 4.96875 18.7363 5.03516L18.4961 4.50586ZM20.3477 1.69336H20.9238V2.81836C20.9238 2.92513 20.9355 3.02279 20.959 3.11133C20.9824 3.19857 21.0221 3.27344 21.0781 3.33594C21.1354 3.39844 21.2109 3.44727 21.3047 3.48242C21.3997 3.51628 21.5176 3.5332 21.6582 3.5332C21.7246 3.5332 21.7917 3.52604 21.8594 3.51172C21.9284 3.4974 21.9941 3.47786 22.0566 3.45312C22.1191 3.42708 22.1771 3.39648 22.2305 3.36133C22.2852 3.32617 22.332 3.28776 22.3711 3.24609V1.69336H22.9492V4H22.3711V3.80273C22.2292 3.88737 22.0866 3.94792 21.9434 3.98438C21.8001 4.02083 21.6641 4.03906 21.5352 4.03906C21.3242 4.03906 21.1432 4.01367 20.9922 3.96289C20.8424 3.91211 20.7194 3.83854 20.623 3.74219C20.528 3.64453 20.4583 3.52539 20.4141 3.38477C20.3698 3.24284 20.3477 3.08138 20.3477 2.90039V1.69336ZM20.8711 1.01562L22.2109 0.388672L22.4277 0.835938L21.0645 1.41992L20.8711 1.01562ZM24.2461 4.94141H23.668V1.69531H24.2461V1.91211C24.2969 1.87695 24.3568 1.84375 24.4258 1.8125C24.4948 1.78125 24.569 1.75391 24.6484 1.73047C24.7279 1.70703 24.8099 1.6888 24.8945 1.67578C24.9792 1.66146 25.0638 1.6543 25.1484 1.6543C25.3438 1.6543 25.5228 1.68294 25.6855 1.74023C25.8496 1.79753 25.9902 1.87826 26.1074 1.98242C26.2246 2.08659 26.3158 2.21159 26.3809 2.35742C26.4473 2.50195 26.4805 2.66211 26.4805 2.83789C26.4805 3.02148 26.446 3.1875 26.377 3.33594C26.3079 3.48307 26.2122 3.60938 26.0898 3.71484C25.9688 3.81901 25.8242 3.89974 25.6562 3.95703C25.4896 4.01302 25.3086 4.04102 25.1133 4.04102C25.0299 4.04102 24.9473 4.03581 24.8652 4.02539C24.7845 4.01497 24.7064 4.00065 24.6309 3.98242C24.5566 3.96419 24.4863 3.94271 24.4199 3.91797C24.3548 3.89193 24.2969 3.86393 24.2461 3.83398V4.94141ZM24.2461 3.27539C24.3047 3.32227 24.3665 3.36198 24.4316 3.39453C24.4967 3.42708 24.5632 3.45378 24.6309 3.47461C24.6986 3.49544 24.7669 3.51107 24.8359 3.52148C24.9049 3.5306 24.972 3.53516 25.0371 3.53516C25.1699 3.53516 25.2878 3.51758 25.3906 3.48242C25.4948 3.44596 25.582 3.39648 25.6523 3.33398C25.724 3.27148 25.7786 3.19792 25.8164 3.11328C25.8542 3.02865 25.873 2.93685 25.873 2.83789C25.873 2.74544 25.8542 2.6582 25.8164 2.57617C25.7799 2.49414 25.7266 2.42253 25.6562 2.36133C25.5872 2.29883 25.5033 2.25 25.4043 2.21484C25.3066 2.17839 25.1966 2.16016 25.0742 2.16016C24.9961 2.16016 24.918 2.16797 24.8398 2.18359C24.7617 2.19792 24.6862 2.21875 24.6133 2.24609C24.5417 2.27344 24.474 2.30664 24.4102 2.3457C24.3477 2.38477 24.293 2.42839 24.2461 2.47656V3.27539ZM27.332 1.38086C27.2747 1.38086 27.2227 1.37305 27.1758 1.35742C27.1302 1.34049 27.0911 1.31836 27.0586 1.29102C27.026 1.26237 27.0007 1.22982 26.9824 1.19336C26.9655 1.1556 26.957 1.11589 26.957 1.07422C26.957 1.03125 26.9655 0.991536 26.9824 0.955078C27.0007 0.917318 27.026 0.884766 27.0586 0.857422C27.0911 0.830078 27.1302 0.808594 27.1758 0.792969C27.2227 0.776042 27.2747 0.767578 27.332 0.767578C27.3906 0.767578 27.4427 0.776042 27.4883 0.792969C27.5352 0.808594 27.5749 0.830078 27.6074 0.857422C27.64 0.884766 27.6647 0.917318 27.6816 0.955078C27.6999 0.991536 27.709 1.03125 27.709 1.07422C27.709 1.11589 27.6999 1.1556 27.6816 1.19336C27.6647 1.22982 27.64 1.26237 27.6074 1.29102C27.5749 1.31836 27.5352 1.34049 27.4883 1.35742C27.4427 1.37305 27.3906 1.38086 27.332 1.38086ZM27.043 1.69531H27.6211V4H27.043V1.69531ZM28.7109 2.12891H28.1543V1.69531H28.7109V0.978516H29.2891V1.69531H29.8457V2.12891H29.2891V4H28.7109V2.12891ZM30.25 2.83984C30.25 2.68359 30.2819 2.53451 30.3457 2.39258C30.4095 2.24935 30.5013 2.12305 30.6211 2.01367C30.7409 1.9043 30.8874 1.81706 31.0605 1.75195C31.235 1.68685 31.4329 1.6543 31.6543 1.6543C31.8743 1.6543 32.0723 1.6875 32.248 1.75391C32.4251 1.81901 32.5749 1.90885 32.6973 2.02344C32.821 2.13802 32.9154 2.27279 32.9805 2.42773C33.0469 2.58268 33.0801 2.7487 33.0801 2.92578C33.0801 2.94792 33.0794 2.97201 33.0781 2.99805C33.0781 3.02279 33.0768 3.04557 33.0742 3.06641H30.8945C30.9193 3.13542 30.959 3.19857 31.0137 3.25586C31.0697 3.31315 31.1393 3.36263 31.2227 3.4043C31.306 3.44596 31.4023 3.47852 31.5117 3.50195C31.6211 3.52409 31.7422 3.53516 31.875 3.53516C32.0078 3.53516 32.14 3.52148 32.2715 3.49414C32.403 3.46549 32.5286 3.42969 32.6484 3.38672L32.8438 3.82812C32.7682 3.86328 32.6914 3.89453 32.6133 3.92188C32.5365 3.94792 32.4557 3.97005 32.3711 3.98828C32.2878 4.00521 32.1999 4.01823 32.1074 4.02734C32.0163 4.03646 31.9199 4.04102 31.8184 4.04102C31.5592 4.04102 31.332 4.00977 31.1367 3.94727C30.9414 3.88477 30.778 3.79948 30.6465 3.69141C30.515 3.58333 30.416 3.45638 30.3496 3.31055C30.2832 3.16471 30.25 3.00781 30.25 2.83984ZM32.4668 2.61523C32.446 2.55143 32.4134 2.49219 32.3691 2.4375C32.3262 2.38151 32.2721 2.33333 32.207 2.29297C32.1419 2.2513 32.0664 2.21875 31.9805 2.19531C31.8945 2.17188 31.8001 2.16016 31.6973 2.16016C31.5879 2.16016 31.4883 2.17253 31.3984 2.19727C31.3086 2.22201 31.2298 2.25521 31.1621 2.29688C31.0944 2.33854 31.0378 2.38672 30.9922 2.44141C30.9479 2.49609 30.9154 2.55404 30.8945 2.61523H32.4668ZM33.7031 1.69531H34.2812V2.02734C34.4089 1.93229 34.5436 1.85026 34.6855 1.78125C34.8275 1.71224 34.9688 1.65951 35.1094 1.62305L35.2793 2.15234C35.0566 2.17448 34.8607 2.22461 34.6914 2.30273C34.5234 2.37956 34.3867 2.48828 34.2812 2.62891V4H33.7031V1.69531Z" fill="white"/>
<path d="M15.8438 10.2295H9.62988V8.31543H19.125L13.5537 19H11.0928L15.8438 10.2295ZM20.2871 13.6338C20.2871 12.7725 20.417 12 20.6768 11.3164C20.9365 10.6328 21.3057 10.054 21.7842 9.58008C22.2627 9.10156 22.8438 8.73698 23.5273 8.48633C24.2109 8.23568 24.9766 8.11035 25.8242 8.11035C26.6719 8.11035 27.4375 8.23568 28.1211 8.48633C28.8047 8.73698 29.3857 9.10156 29.8643 9.58008C30.3428 10.054 30.7119 10.6328 30.9717 11.3164C31.2314 12 31.3613 12.7725 31.3613 13.6338C31.3613 14.4951 31.2314 15.2676 30.9717 15.9512C30.7119 16.6348 30.3428 17.2135 29.8643 17.6875C29.3857 18.1615 28.8047 18.5238 28.1211 18.7744C27.4375 19.0251 26.6719 19.1504 25.8242 19.1504C24.9766 19.1504 24.2109 19.0251 23.5273 18.7744C22.8438 18.5238 22.2627 18.1615 21.7842 17.6875C21.3057 17.2135 20.9365 16.6348 20.6768 15.9512C20.417 15.2676 20.2871 14.4951 20.2871 13.6338ZM22.4541 13.627C22.4541 14.2103 22.5316 14.7253 22.6865 15.1719C22.846 15.6185 23.0716 15.9945 23.3633 16.2998C23.6549 16.6006 24.0081 16.8307 24.4229 16.9902C24.8376 17.1452 25.3047 17.2227 25.8242 17.2227C26.3438 17.2227 26.8109 17.1452 27.2256 16.9902C27.6403 16.8307 27.9935 16.6006 28.2852 16.2998C28.5768 15.9945 28.8001 15.6185 28.9551 15.1719C29.1146 14.7253 29.1943 14.2103 29.1943 13.627C29.1943 13.0482 29.1146 12.5378 28.9551 12.0957C28.8001 11.6491 28.5768 11.2731 28.2852 10.9678C27.9935 10.6624 27.6403 10.4323 27.2256 10.2773C26.8109 10.1178 26.3438 10.0381 25.8242 10.0381C25.3047 10.0381 24.8376 10.1178 24.4229 10.2773C24.0081 10.4323 23.6549 10.6624 23.3633 10.9678C23.0716 11.2731 22.846 11.6491 22.6865 12.0957C22.5316 12.5378 22.4541 13.0482 22.4541 13.627ZM33.1387 13.6338C33.1387 12.7725 33.2686 12 33.5283 11.3164C33.7881 10.6328 34.1572 10.054 34.6357 9.58008C35.1143 9.10156 35.6953 8.73698 36.3789 8.48633C37.0625 8.23568 37.8281 8.11035 38.6758 8.11035C39.5234 8.11035 40.2891 8.23568 40.9727 8.48633C41.6562 8.73698 42.2373 9.10156 42.7158 9.58008C43.1943 10.054 43.5635 10.6328 43.8232 11.3164C44.083 12 44.2129 12.7725 44.2129 13.6338C44.2129 14.4951 44.083 15.2676 43.8232 15.9512C43.5635 16.6348 43.1943 17.2135 42.7158 17.6875C42.2373 18.1615 41.6562 18.5238 40.9727 18.7744C40.2891 19.0251 39.5234 19.1504 38.6758 19.1504C37.8281 19.1504 37.0625 19.0251 36.3789 18.7744C35.6953 18.5238 35.1143 18.1615 34.6357 17.6875C34.1572 17.2135 33.7881 16.6348 33.5283 15.9512C33.2686 15.2676 33.1387 14.4951 33.1387 13.6338ZM35.3057 13.627C35.3057 14.2103 35.3831 14.7253 35.5381 15.1719C35.6976 15.6185 35.9232 15.9945 36.2148 16.2998C36.5065 16.6006 36.8597 16.8307 37.2744 16.9902C37.6891 17.1452 38.1562 17.2227 38.6758 17.2227C39.1953 17.2227 39.6624 17.1452 40.0771 16.9902C40.4919 16.8307 40.8451 16.6006 41.1367 16.2998C41.4284 15.9945 41.6517 15.6185 41.8066 15.1719C41.9661 14.7253 42.0459 14.2103 42.0459 13.627C42.0459 13.0482 41.9661 12.5378 41.8066 12.0957C41.6517 11.6491 41.4284 11.2731 41.1367 10.9678C40.8451 10.6624 40.4919 10.4323 40.0771 10.2773C39.6624 10.1178 39.1953 10.0381 38.6758 10.0381C38.1562 10.0381 37.6891 10.1178 37.2744 10.2773C36.8597 10.4323 36.5065 10.6624 36.2148 10.9678C35.9232 11.2731 35.6976 11.6491 35.5381 12.0957C35.3831 12.5378 35.3057 13.0482 35.3057 13.627Z" fill="#FFE2E2"/>
<circle cx="43.5" cy="18.5" r="2.5" fill="#D1540E"/>
<path d="M41.8027 17.7736H42.1123L42.667 18.3303L43.2217 17.7736H43.5312V19.3H43.2217V18.2023L42.667 18.7365L42.1123 18.2023V19.3H41.8027V17.7736ZM43.9219 17.6799H44.2109V18.2561C44.2363 18.2385 44.2663 18.2219 44.3008 18.2063C44.3353 18.1906 44.3724 18.177 44.4121 18.1652C44.4518 18.1535 44.4928 18.1444 44.5352 18.1379C44.5775 18.1307 44.6198 18.1272 44.6621 18.1272C44.7598 18.1272 44.8493 18.1415 44.9307 18.1701C45.0127 18.1988 45.083 18.2391 45.1416 18.2912C45.2002 18.3433 45.2458 18.4058 45.2783 18.4787C45.3115 18.551 45.3281 18.6311 45.3281 18.7189C45.3281 18.8107 45.3109 18.8938 45.2764 18.968C45.2419 19.0415 45.194 19.1047 45.1328 19.1574C45.0723 19.2095 45 19.2499 44.916 19.2785C44.8327 19.3065 44.7422 19.3205 44.6445 19.3205C44.6029 19.3205 44.5615 19.3179 44.5205 19.3127C44.4801 19.3075 44.4411 19.3003 44.4033 19.2912C44.3662 19.2821 44.3311 19.2714 44.2979 19.259C44.2653 19.246 44.2363 19.232 44.2109 19.217V19.3H43.9219V17.6799ZM44.2109 18.9377C44.2402 18.9611 44.2712 18.981 44.3037 18.9973C44.3363 19.0135 44.3695 19.0269 44.4033 19.0373C44.4372 19.0477 44.4714 19.0555 44.5059 19.0607C44.5404 19.0653 44.5739 19.0676 44.6064 19.0676C44.6729 19.0676 44.7318 19.0588 44.7832 19.0412C44.8353 19.023 44.8789 18.9982 44.9141 18.967C44.9499 18.9357 44.9772 18.899 44.9961 18.8566C45.015 18.8143 45.0244 18.7684 45.0244 18.7189C45.0244 18.6727 45.015 18.6291 44.9961 18.5881C44.9779 18.5471 44.9512 18.5113 44.916 18.4807C44.8815 18.4494 44.8395 18.425 44.79 18.4074C44.7412 18.3892 44.6862 18.3801 44.625 18.3801C44.5859 18.3801 44.5469 18.384 44.5078 18.3918C44.4688 18.399 44.431 18.4094 44.3945 18.423C44.3587 18.4367 44.3249 18.4533 44.293 18.4729C44.2617 18.4924 44.2344 18.5142 44.2109 18.5383V18.9377Z" fill="white"/>
<defs>
<filter id="filter0_dd_16_80" x="0.699997" y="2.7" width="52.6" height="31.6" filterUnits="userSpaceOnUse" color-interpolation-filters="sRGB">
<feFlood flood-opacity="0" result="BackgroundImageFix"/>
<feColorMatrix in="SourceAlpha" type="matrix" values="0 0 0 0 0 0 0 0 0 0 0 0 0 0 0 0 0 0 127 0" result="hardAlpha"/>
<feOffset dy="4"/>
<feGaussianBlur stdDeviation="2"/>
<feComposite in2="hardAlpha" operator="out"/>
<feColorMatrix type="matrix" values="0 0 0 0 0 0 0 0 0 0 0 0 0 0 0 0 0 0 0.25 0"/>
<feBlend mode="normal" in2="BackgroundImageFix" result="effect1_dropShadow_16_80"/>
<feColorMatrix in="SourceAlpha" type="matrix" values="0 0 0 0 0 0 0 0 0 0 0 0 0 0 0 0 0 0 127 0" result="hardAlpha"/>
<feOffset dy="4"/>
<feGaussianBlur stdDeviation="2"/>
<feComposite in2="hardAlpha" operator="out"/>
<feColorMatrix type="matrix" values="0 0 0 0 0 0 0 0 0 0 0 0 0 0 0 0 0 0 0.25 0"/>
<feBlend mode="normal" in2="effect1_dropShadow_16_80" result="effect2_dropShadow_16_80"/>
<feBlend mode="normal" in="SourceGraphic" in2="effect2_dropShadow_16_80" result="shape"/>
</filter>
</defs>
</svg>
