<svg width="54" height="35" viewBox="0 0 54 35" fill="none" xmlns="http://www.w3.org/2000/svg">
<rect x="7" y="23" width="40" height="6" rx="2" fill="#D1540E"/>
<g filter="url(#filter0_dd_16_92)">
<path fill-rule="evenodd" clip-rule="evenodd" d="M14.8633 2.7H11.9973H9.99602C7.06891 2.7 4.69602 5.0729 4.69602 8V21C4.69602 23.9271 7.06891 26.3 9.99602 26.3H44.004C46.9311 26.3 49.304 23.9271 49.304 21V8C49.304 5.0729 46.9311 2.7 44.004 2.7H38.5447V3H44.004C46.7654 3 49.004 5.23858 49.004 8V21C49.004 23.7614 46.7654 26 44.004 26H9.99602C7.2346 26 4.99602 23.7614 4.99602 21V8C4.99602 5.23858 7.23459 3 9.99602 3H11.9973H14.8633V2.7Z" fill="#D1540E"/>
</g>
<path d="M24.3264 17.0996H26.7531V10.4482C26.4341 10.5212 26.1265 10.6169 25.8303 10.7354C25.5386 10.8538 25.272 10.9974 25.0305 11.166L23.9641 9.6416C24.356 9.39551 24.7548 9.18815 25.1604 9.01953C25.5705 8.84635 25.9829 8.70964 26.3977 8.60938C26.8169 8.50456 27.2362 8.42936 27.6555 8.38379C28.0793 8.33822 28.5008 8.31543 28.9201 8.31543L28.9133 8.3291H28.9201V17.0996H31.2375V19H24.3264V17.0996Z" fill="white"/>
<path d="M19.4355 0.947266H20.0547L21.1641 2.06055L22.2734 0.947266H22.8926V4H22.2734V1.80469L21.1641 2.87305L20.0547 1.80469V4H19.4355V0.947266ZM23.5801 3.27344C23.5801 3.16276 23.6042 3.06185 23.6523 2.9707C23.7005 2.87956 23.7728 2.80143 23.8691 2.73633C23.9655 2.66992 24.0853 2.61914 24.2285 2.58398C24.373 2.54753 24.541 2.5293 24.7324 2.5293C24.8743 2.5293 25.0234 2.53971 25.1797 2.56055C25.3372 2.58138 25.4993 2.61328 25.666 2.65625C25.6595 2.58333 25.6374 2.51628 25.5996 2.45508C25.5618 2.39258 25.5091 2.33919 25.4414 2.29492C25.375 2.24935 25.2943 2.21419 25.1992 2.18945C25.1055 2.16471 24.9987 2.15234 24.8789 2.15234C24.8138 2.15234 24.7422 2.15625 24.6641 2.16406C24.5859 2.17188 24.5052 2.18359 24.4219 2.19922C24.3385 2.21484 24.2559 2.23438 24.1738 2.25781C24.0931 2.28125 24.0176 2.30924 23.9473 2.3418L23.7715 1.86719C23.8587 1.83594 23.9518 1.80729 24.0508 1.78125C24.151 1.75521 24.2533 1.73307 24.3574 1.71484C24.4616 1.69531 24.5658 1.68034 24.6699 1.66992C24.7741 1.65951 24.875 1.6543 24.9727 1.6543C25.4036 1.6543 25.724 1.76432 25.9336 1.98438C26.1432 2.20443 26.248 2.54167 26.248 2.99609V4H25.6699V3.7832C25.61 3.81836 25.5443 3.85156 25.4727 3.88281C25.4023 3.91406 25.3255 3.94141 25.2422 3.96484C25.1589 3.98828 25.069 4.00651 24.9727 4.01953C24.8776 4.03385 24.7767 4.04102 24.6699 4.04102C24.4902 4.04102 24.332 4.02148 24.1953 3.98242C24.0599 3.94336 23.9466 3.88932 23.8555 3.82031C23.7643 3.7513 23.6953 3.67057 23.6484 3.57812C23.6029 3.48438 23.5801 3.38281 23.5801 3.27344ZM24.1895 3.25391C24.1895 3.29167 24.1992 3.32812 24.2188 3.36328C24.2383 3.39714 24.2695 3.42773 24.3125 3.45508C24.3555 3.48112 24.4102 3.5026 24.4766 3.51953C24.5443 3.53516 24.6257 3.54297 24.7207 3.54297C24.8223 3.54297 24.9206 3.53385 25.0156 3.51562C25.1107 3.4974 25.1992 3.47331 25.2812 3.44336C25.3633 3.41341 25.4375 3.37891 25.5039 3.33984C25.5703 3.30078 25.6257 3.26042 25.6699 3.21875V3.11719C25.5814 3.09245 25.4935 3.07161 25.4062 3.05469C25.3203 3.03776 25.2376 3.02474 25.1582 3.01562C25.0801 3.00521 25.0059 2.99805 24.9355 2.99414C24.8665 2.99023 24.806 2.98828 24.7539 2.98828C24.6458 2.98828 24.556 2.99544 24.4844 3.00977C24.4128 3.02409 24.3548 3.04362 24.3105 3.06836C24.2663 3.0918 24.235 3.11979 24.2168 3.15234C24.1986 3.1849 24.1895 3.21875 24.1895 3.25391ZM27.0137 1.69531H27.5918V2.02734C27.7194 1.93229 27.8542 1.85026 27.9961 1.78125C28.138 1.71224 28.2793 1.65951 28.4199 1.62305L28.5898 2.15234C28.3672 2.17448 28.1712 2.22461 28.002 2.30273C27.834 2.37956 27.6973 2.48828 27.5918 2.62891V4H27.0137V1.69531ZM29.3691 2.12891H28.8125V1.69531H29.3691V0.978516H29.9473V1.69531H30.5039V2.12891H29.9473V4H29.3691V2.12891ZM30.9082 2.83984C30.9082 2.68359 30.9401 2.53451 31.0039 2.39258C31.0677 2.24935 31.1595 2.12305 31.2793 2.01367C31.3991 1.9043 31.5456 1.81706 31.7188 1.75195C31.8932 1.68685 32.0911 1.6543 32.3125 1.6543C32.5326 1.6543 32.7305 1.6875 32.9062 1.75391C33.0833 1.81901 33.2331 1.90885 33.3555 2.02344C33.4792 2.13802 33.5736 2.27279 33.6387 2.42773C33.7051 2.58268 33.7383 2.7487 33.7383 2.92578C33.7383 2.94792 33.7376 2.97201 33.7363 2.99805C33.7363 3.02279 33.735 3.04557 33.7324 3.06641H31.5527C31.5775 3.13542 31.6172 3.19857 31.6719 3.25586C31.7279 3.31315 31.7975 3.36263 31.8809 3.4043C31.9642 3.44596 32.0605 3.47852 32.1699 3.50195C32.2793 3.52409 32.4004 3.53516 32.5332 3.53516C32.666 3.53516 32.7982 3.52148 32.9297 3.49414C33.0612 3.46549 33.1868 3.42969 33.3066 3.38672L33.502 3.82812C33.4264 3.86328 33.3496 3.89453 33.2715 3.92188C33.1947 3.94792 33.1139 3.97005 33.0293 3.98828C32.946 4.00521 32.8581 4.01823 32.7656 4.02734C32.6745 4.03646 32.5781 4.04102 32.4766 4.04102C32.2174 4.04102 31.9902 4.00977 31.7949 3.94727C31.5996 3.88477 31.4362 3.79948 31.3047 3.69141C31.1732 3.58333 31.0742 3.45638 31.0078 3.31055C30.9414 3.16471 30.9082 3.00781 30.9082 2.83984ZM33.125 2.61523C33.1042 2.55143 33.0716 2.49219 33.0273 2.4375C32.9844 2.38151 32.9303 2.33333 32.8652 2.29297C32.8001 2.2513 32.7246 2.21875 32.6387 2.19531C32.5527 2.17188 32.4583 2.16016 32.3555 2.16016C32.2461 2.16016 32.1465 2.17253 32.0566 2.19727C31.9668 2.22201 31.888 2.25521 31.8203 2.29688C31.7526 2.33854 31.696 2.38672 31.6504 2.44141C31.6061 2.49609 31.5736 2.55404 31.5527 2.61523H33.125Z" fill="white"/>
<ellipse cx="32.875" cy="17.5" rx="2.53409" ry="2.5" fill="#D1540E"/>
<path d="M31.1543 17.5227C31.1543 17.4152 31.1745 17.315 31.2148 17.2219C31.2552 17.1281 31.3141 17.0467 31.3916 16.9777C31.4691 16.9087 31.5641 16.8544 31.6768 16.8147C31.79 16.7749 31.9196 16.7551 32.0654 16.7551C32.1182 16.7551 32.1709 16.758 32.2236 16.7639C32.277 16.7691 32.3294 16.7775 32.3809 16.7893C32.4329 16.801 32.4834 16.816 32.5322 16.8342C32.5817 16.8518 32.6286 16.8729 32.6729 16.8977L32.5303 17.132C32.5036 17.1164 32.4733 17.1024 32.4395 17.09C32.4056 17.077 32.3691 17.0663 32.3301 17.0578C32.2917 17.0487 32.2516 17.0419 32.21 17.0373C32.1689 17.0328 32.1276 17.0305 32.0859 17.0305C31.9896 17.0305 31.9036 17.0428 31.8281 17.0676C31.7526 17.0917 31.6888 17.1258 31.6367 17.1701C31.5846 17.2137 31.5449 17.2661 31.5176 17.3273C31.4902 17.3885 31.4766 17.4556 31.4766 17.5285C31.4766 17.604 31.4909 17.6734 31.5195 17.7365C31.5482 17.7997 31.5889 17.854 31.6416 17.8996C31.6943 17.9452 31.7581 17.981 31.833 18.007C31.9079 18.0324 31.9915 18.0451 32.084 18.0451C32.1576 18.0451 32.2249 18.037 32.2861 18.0207C32.3473 18.0038 32.4007 17.98 32.4463 17.9494C32.4919 17.9188 32.529 17.882 32.5576 17.8391C32.5863 17.7954 32.6051 17.7466 32.6143 17.6926H32.0811V17.4377H32.8926V17.4387L32.8936 17.4377C32.9098 17.5158 32.9147 17.592 32.9082 17.6662C32.9023 17.7398 32.8854 17.8094 32.8574 17.8752C32.8301 17.9403 32.7923 18.0002 32.7441 18.0549C32.696 18.1096 32.6383 18.1568 32.5713 18.1965C32.5042 18.2355 32.4281 18.2661 32.3428 18.2883C32.2575 18.3098 32.1641 18.3205 32.0625 18.3205C31.9206 18.3205 31.7933 18.2997 31.6807 18.258C31.5687 18.2163 31.4736 18.1594 31.3955 18.0871C31.3174 18.0148 31.2575 17.9302 31.2158 17.8332C31.1748 17.7362 31.1543 17.6327 31.1543 17.5227ZM33.2148 16.6799H33.5039V17.2561C33.5293 17.2385 33.5592 17.2219 33.5937 17.2063C33.6283 17.1906 33.6654 17.177 33.7051 17.1652C33.7448 17.1535 33.7858 17.1444 33.8281 17.1379C33.8704 17.1307 33.9128 17.1272 33.9551 17.1272C34.0527 17.1272 34.1423 17.1415 34.2236 17.1701C34.3057 17.1988 34.376 17.2391 34.4346 17.2912C34.4932 17.3433 34.5387 17.4058 34.5713 17.4787C34.6045 17.551 34.6211 17.6311 34.6211 17.7189C34.6211 17.8107 34.6038 17.8938 34.5693 17.968C34.5348 18.0415 34.487 18.1047 34.4258 18.1574C34.3652 18.2095 34.293 18.2499 34.209 18.2785C34.1257 18.3065 34.0352 18.3205 33.9375 18.3205C33.8958 18.3205 33.8545 18.3179 33.8135 18.3127C33.7731 18.3075 33.734 18.3003 33.6963 18.2912C33.6592 18.2821 33.624 18.2714 33.5908 18.259C33.5583 18.246 33.5293 18.232 33.5039 18.217V18.3H33.2148V16.6799ZM33.5039 17.9377C33.5332 17.9611 33.5641 17.981 33.5967 17.9973C33.6292 18.0135 33.6624 18.0269 33.6963 18.0373C33.7301 18.0477 33.7643 18.0555 33.7988 18.0607C33.8333 18.0653 33.8669 18.0676 33.8994 18.0676C33.9658 18.0676 34.0247 18.0588 34.0762 18.0412C34.1283 18.023 34.1719 17.9982 34.207 17.967C34.2428 17.9357 34.2702 17.899 34.2891 17.8566C34.3079 17.8143 34.3174 17.7684 34.3174 17.7189C34.3174 17.6727 34.3079 17.6291 34.2891 17.5881C34.2708 17.5471 34.2441 17.5113 34.209 17.4807C34.1745 17.4494 34.1325 17.425 34.083 17.4074C34.0342 17.3892 33.9792 17.3801 33.918 17.3801C33.8789 17.3801 33.8398 17.384 33.8008 17.3918C33.7617 17.399 33.724 17.4094 33.6875 17.423C33.6517 17.4367 33.6178 17.4533 33.5859 17.4729C33.5547 17.4924 33.5273 17.5142 33.5039 17.5383V17.9377Z" fill="white"/>
<path d="M9.44501 24.4736H10.2214C10.3386 24.4736 10.4401 24.486 10.5261 24.5107C10.612 24.5348 10.6833 24.57 10.7399 24.6162C10.7966 24.6624 10.8386 24.7188 10.8659 24.7852C10.8939 24.8516 10.9079 24.9268 10.9079 25.0107C10.9079 25.0674 10.9011 25.1214 10.8874 25.1729C10.8737 25.2236 10.8526 25.2705 10.8239 25.3135C10.7959 25.3564 10.7604 25.3949 10.7175 25.4287C10.6745 25.4619 10.624 25.4896 10.5661 25.5117L10.8981 26H10.5192L10.2321 25.5664H10.2233L9.75458 25.5654V26H9.44501V24.4736ZM10.2292 25.2979C10.2878 25.2979 10.3389 25.291 10.3825 25.2773C10.4268 25.2637 10.4636 25.2445 10.4929 25.2197C10.5228 25.195 10.5449 25.165 10.5593 25.1299C10.5742 25.0941 10.5817 25.0544 10.5817 25.0107C10.5817 24.9255 10.5524 24.8597 10.4938 24.8135C10.4352 24.7666 10.347 24.7432 10.2292 24.7432H9.75458V25.2979H10.2292ZM11.3464 25.5459C11.3932 25.5726 11.4404 25.597 11.488 25.6191C11.5355 25.6406 11.5843 25.6598 11.6345 25.6768C11.6852 25.693 11.7373 25.707 11.7907 25.7188C11.8447 25.7298 11.9017 25.7376 11.9616 25.7422V25.3574C11.9284 25.3613 11.8965 25.3646 11.8659 25.3672C11.8353 25.3698 11.8057 25.3711 11.777 25.3711C11.7087 25.3711 11.6429 25.3623 11.5798 25.3447C11.5173 25.3271 11.4616 25.3008 11.4128 25.2656C11.3646 25.2305 11.3262 25.1865 11.2975 25.1338C11.2689 25.0811 11.2546 25.0195 11.2546 24.9492C11.2546 24.8893 11.2669 24.8304 11.2917 24.7725C11.3171 24.7139 11.3578 24.6615 11.4138 24.6152C11.4704 24.5684 11.5436 24.5296 11.6335 24.499C11.7233 24.4684 11.8327 24.4508 11.9616 24.4463V24.1504H12.1931V24.4521C12.3018 24.4619 12.4059 24.4798 12.5056 24.5059C12.6058 24.5319 12.6976 24.5635 12.7809 24.6006L12.6452 24.8506C12.5801 24.8226 12.5098 24.7979 12.4343 24.7764C12.3587 24.7549 12.2783 24.7393 12.1931 24.7295V25.04C12.2243 25.0368 12.2556 25.0342 12.2868 25.0322C12.3181 25.0296 12.3487 25.0283 12.3786 25.0283C12.4684 25.0283 12.5479 25.0384 12.6169 25.0586C12.6865 25.0788 12.7448 25.1077 12.7917 25.1455C12.8386 25.1826 12.874 25.2279 12.8981 25.2812C12.9222 25.334 12.9343 25.3932 12.9343 25.459C12.9343 25.5404 12.9167 25.6139 12.8815 25.6797C12.847 25.7448 12.7975 25.8011 12.7331 25.8486C12.6693 25.8962 12.5915 25.9342 12.4997 25.9629C12.4085 25.9915 12.3063 26.0098 12.1931 26.0176V26.3145H11.9616V26.0186C11.8106 26.0094 11.6686 25.9854 11.5358 25.9463C11.4037 25.9066 11.2855 25.8568 11.1813 25.7969L11.3464 25.5459ZM11.5788 24.9199C11.5788 24.9655 11.5993 25.0029 11.6403 25.0322C11.6813 25.0609 11.7438 25.0752 11.8278 25.0752C11.8467 25.0752 11.8675 25.0745 11.8903 25.0732C11.9131 25.0713 11.9369 25.069 11.9616 25.0664V24.7207C11.888 24.7233 11.8265 24.7311 11.777 24.7441C11.7282 24.7572 11.6891 24.7731 11.6598 24.792C11.6306 24.8109 11.6097 24.8317 11.5973 24.8545C11.585 24.8766 11.5788 24.8984 11.5788 24.9199ZM12.1931 25.7441C12.2673 25.7396 12.3307 25.7301 12.3835 25.7158C12.4362 25.7015 12.4792 25.6836 12.5124 25.6621C12.5462 25.64 12.5707 25.6149 12.5856 25.5869C12.6013 25.5589 12.6091 25.5293 12.6091 25.498C12.6091 25.4427 12.586 25.3991 12.5397 25.3672C12.4935 25.3346 12.4222 25.3184 12.3259 25.3184C12.305 25.3184 12.2832 25.3193 12.2604 25.3213C12.2383 25.3226 12.2158 25.3245 12.1931 25.3271V25.7441Z" fill="white"/>
<path d="M14.7151 27.4422L15.8451 26.667C16.0146 26.5508 16.1534 26.4496 16.2614 26.3635C16.3694 26.2773 16.4542 26.2008 16.5157 26.1338C16.5772 26.0654 16.6196 26.0039 16.6428 25.9492C16.6661 25.8945 16.6777 25.8398 16.6777 25.7852C16.6777 25.7223 16.6647 25.6635 16.6387 25.6088C16.6128 25.5541 16.5717 25.5063 16.5157 25.4652C16.461 25.4242 16.3899 25.3921 16.3024 25.3688C16.2163 25.3456 16.1131 25.334 15.9927 25.334C15.8177 25.334 15.6434 25.3586 15.4698 25.4078C15.2962 25.457 15.1191 25.5356 14.9386 25.6437L14.6392 25.1515C14.8402 25.0271 15.0576 24.93 15.2914 24.8603C15.5265 24.7905 15.7733 24.7557 16.0317 24.7557C16.2573 24.7557 16.4528 24.783 16.6182 24.8377C16.785 24.891 16.9224 24.9642 17.0304 25.0571C17.1398 25.1501 17.2212 25.2581 17.2745 25.3812C17.3278 25.5042 17.3545 25.6348 17.3545 25.7729C17.3545 25.8795 17.3367 25.9813 17.3011 26.0784C17.2656 26.1755 17.2034 26.276 17.1145 26.3799C17.0256 26.4838 16.9053 26.5959 16.7536 26.7162C16.6032 26.8352 16.4131 26.9705 16.1835 27.1223L15.7159 27.4299H17.4714V28H14.7151V27.4422ZM18.0353 26.3901C18.0353 26.1317 18.0743 25.9 18.1522 25.6949C18.2301 25.4898 18.3409 25.3162 18.4844 25.174C18.628 25.0305 18.8023 24.9211 19.0074 24.8459C19.2125 24.7707 19.4422 24.7331 19.6965 24.7331C19.9507 24.7331 20.1804 24.7707 20.3855 24.8459C20.5906 24.9211 20.7649 25.0305 20.9085 25.174C21.052 25.3162 21.1628 25.4898 21.2407 25.6949C21.3186 25.9 21.3576 26.1317 21.3576 26.3901C21.3576 26.6485 21.3186 26.8803 21.2407 27.0854C21.1628 27.2904 21.052 27.4641 20.9085 27.6063C20.7649 27.7484 20.5906 27.8571 20.3855 27.9323C20.1804 28.0075 19.9507 28.0451 19.6965 28.0451C19.4422 28.0451 19.2125 28.0075 19.0074 27.9323C18.8023 27.8571 18.628 27.7484 18.4844 27.6063C18.3409 27.4641 18.2301 27.2904 18.1522 27.0854C18.0743 26.8803 18.0353 26.6485 18.0353 26.3901ZM18.6854 26.3881C18.6854 26.5631 18.7087 26.7176 18.7551 26.8516C18.803 26.9855 18.8707 27.0983 18.9582 27.1899C19.0457 27.2802 19.1516 27.3492 19.276 27.3971C19.4005 27.4436 19.5406 27.4668 19.6965 27.4668C19.8523 27.4668 19.9924 27.4436 20.1169 27.3971C20.2413 27.3492 20.3472 27.2802 20.4347 27.1899C20.5222 27.0983 20.5892 26.9855 20.6357 26.8516C20.6836 26.7176 20.7075 26.5631 20.7075 26.3881C20.7075 26.2145 20.6836 26.0613 20.6357 25.9287C20.5892 25.7947 20.5222 25.6819 20.4347 25.5903C20.3472 25.4987 20.2413 25.4297 20.1169 25.3832C19.9924 25.3354 19.8523 25.3114 19.6965 25.3114C19.5406 25.3114 19.4005 25.3354 19.276 25.3832C19.1516 25.4297 19.0457 25.4987 18.9582 25.5903C18.8707 25.6819 18.803 25.7947 18.7551 25.9287C18.7087 26.0613 18.6854 26.2145 18.6854 26.3881ZM22.4773 27.2597C22.5361 27.2938 22.6017 27.3239 22.6742 27.3499C22.7466 27.3759 22.8212 27.3978 22.8977 27.4155C22.9756 27.4319 23.0536 27.4449 23.1315 27.4545C23.2108 27.4627 23.286 27.4668 23.3571 27.4668C23.5157 27.4668 23.6586 27.4463 23.7857 27.4053C23.9142 27.3643 24.025 27.3062 24.1179 27.231C24.2109 27.1558 24.2847 27.0662 24.3394 26.9623C24.3955 26.857 24.4303 26.7408 24.444 26.6137C24.3729 26.6697 24.2943 26.7183 24.2082 26.7593C24.122 26.8003 24.0304 26.8345 23.9334 26.8618C23.8377 26.8878 23.7385 26.9076 23.636 26.9213C23.5348 26.9336 23.433 26.9397 23.3304 26.9397C23.1308 26.9397 22.949 26.9158 22.7849 26.868C22.6222 26.8201 22.4828 26.7511 22.3666 26.6608C22.2504 26.5706 22.1601 26.4612 22.0959 26.3327C22.033 26.2028 22.0015 26.0559 22.0015 25.8918C22.0015 25.7305 22.033 25.5808 22.0959 25.4427C22.1601 25.3046 22.2545 25.185 22.3789 25.0838C22.5033 24.9813 22.6578 24.9013 22.8423 24.8438C23.0269 24.7851 23.2409 24.7557 23.4842 24.7557C23.7208 24.7557 23.9368 24.7857 24.1323 24.8459C24.3278 24.9061 24.4953 24.9997 24.6347 25.1269C24.7742 25.254 24.8822 25.416 24.9588 25.6129C25.0367 25.8084 25.0756 26.0422 25.0756 26.3143C25.0756 26.6055 25.0319 26.8598 24.9444 27.0771C24.8583 27.2932 24.7393 27.4729 24.5876 27.6165C24.4372 27.7601 24.2594 27.8674 24.0544 27.9385C23.8493 28.0096 23.6278 28.0451 23.3899 28.0451C23.2901 28.0451 23.1862 28.039 23.0782 28.0267C22.9715 28.0144 22.8656 27.9959 22.7603 27.9713C22.655 27.9467 22.5532 27.9159 22.4548 27.879C22.3577 27.8421 22.2688 27.7997 22.1881 27.7519L22.4773 27.2597ZM22.6516 25.8815C22.6516 25.9485 22.666 26.0114 22.6947 26.0702C22.7234 26.129 22.7678 26.1803 22.828 26.224C22.8895 26.2664 22.9681 26.3006 23.0638 26.3266C23.1595 26.3512 23.2751 26.3635 23.4104 26.3635C23.5239 26.3635 23.6312 26.3546 23.7324 26.3368C23.8336 26.319 23.9272 26.2944 24.0133 26.263C24.0995 26.2315 24.1774 26.1946 24.2471 26.1522C24.3182 26.1099 24.3791 26.0634 24.4297 26.0128C24.3968 25.7886 24.2984 25.6197 24.1343 25.5063C23.9703 25.3914 23.7549 25.334 23.4883 25.334C23.3544 25.334 23.2354 25.3477 23.1315 25.375C23.0276 25.4023 22.9401 25.4406 22.869 25.4898C22.7979 25.5377 22.7439 25.5951 22.707 25.6621C22.6701 25.7291 22.6516 25.8022 22.6516 25.8815Z" fill="white"/>
<path d="M25.8129 26.3451C25.8129 26.3061 25.8212 26.2694 25.8378 26.2353C25.8544 26.2011 25.8774 26.1713 25.9067 26.1459C25.9369 26.1195 25.9731 26.099 26.0151 26.0844C26.058 26.0697 26.1059 26.0624 26.1586 26.0624C26.2153 26.0624 26.267 26.0717 26.3139 26.0902C26.3617 26.1078 26.4028 26.1337 26.4369 26.1679C26.4711 26.202 26.4975 26.244 26.516 26.2938C26.5356 26.3427 26.5453 26.3979 26.5453 26.4594C26.5453 26.598 26.4975 26.7309 26.4018 26.8578C26.3071 26.9857 26.1689 27.099 25.9872 27.1977L25.8115 26.9486C25.8593 26.9232 25.9013 26.8979 25.9374 26.8725C25.9736 26.848 26.0053 26.8231 26.0326 26.7978C26.06 26.7724 26.0834 26.746 26.103 26.7187C26.1235 26.6913 26.1415 26.662 26.1572 26.6308C26.1054 26.6308 26.058 26.6229 26.0151 26.6073C25.9731 26.5927 25.9369 26.5727 25.9067 26.5473C25.8764 26.5219 25.853 26.4921 25.8364 26.4579C25.8207 26.4228 25.8129 26.3852 25.8129 26.3451ZM27.3979 26.0712C27.4399 26.0956 27.4867 26.1171 27.5385 26.1356C27.5903 26.1542 27.6435 26.1698 27.6982 26.1825C27.7538 26.1942 27.8095 26.2035 27.8652 26.2104C27.9218 26.2162 27.9755 26.2191 28.0263 26.2191C28.1396 26.2191 28.2416 26.2045 28.3324 26.1752C28.4242 26.1459 28.5033 26.1044 28.5698 26.0507C28.6362 25.997 28.6889 25.933 28.728 25.8588C28.768 25.7836 28.7929 25.7006 28.8027 25.6098C28.7519 25.6498 28.6957 25.6845 28.6342 25.7138C28.5727 25.7431 28.5073 25.7675 28.4379 25.787C28.3696 25.8056 28.2988 25.8197 28.2255 25.8295C28.1532 25.8383 28.0805 25.8427 28.0073 25.8427C27.8647 25.8427 27.7348 25.8256 27.6176 25.7914C27.5014 25.7572 27.4018 25.7079 27.3188 25.6435C27.2358 25.579 27.1713 25.5009 27.1254 25.4091C27.0805 25.3163 27.058 25.2113 27.058 25.0941C27.058 24.9789 27.0805 24.872 27.1254 24.7733C27.1713 24.6747 27.2387 24.5893 27.3276 24.517C27.4164 24.4437 27.5268 24.3866 27.6586 24.3456C27.7905 24.3036 27.9433 24.2826 28.1171 24.2826C28.2861 24.2826 28.4404 24.3041 28.58 24.3471C28.7197 24.39 28.8393 24.4569 28.9389 24.5478C29.0385 24.6386 29.1157 24.7543 29.1703 24.8949C29.226 25.0346 29.2538 25.2016 29.2538 25.3959C29.2538 25.6039 29.2226 25.7855 29.1601 25.9408C29.0986 26.0951 29.0136 26.2235 28.9052 26.3261C28.7978 26.4286 28.6708 26.5053 28.5243 26.5561C28.3779 26.6068 28.2197 26.6322 28.0497 26.6322C27.9784 26.6322 27.9042 26.6278 27.8271 26.619C27.7509 26.6103 27.6752 26.5971 27.6 26.5795C27.5248 26.5619 27.4521 26.5399 27.3818 26.5136C27.3124 26.4872 27.249 26.4569 27.1913 26.4228L27.3979 26.0712ZM27.5224 25.0868C27.5224 25.1347 27.5326 25.1796 27.5532 25.2216C27.5737 25.2636 27.6054 25.3002 27.6484 25.3314C27.6923 25.3617 27.7485 25.3861 27.8168 25.4047C27.8852 25.4223 27.9677 25.4311 28.0644 25.4311C28.1454 25.4311 28.2221 25.4247 28.2944 25.412C28.3666 25.3993 28.4335 25.3817 28.495 25.3593C28.5566 25.3368 28.6122 25.3104 28.662 25.2802C28.7128 25.2499 28.7563 25.2167 28.7924 25.1806C28.769 25.0204 28.6987 24.8998 28.5815 24.8187C28.4643 24.7367 28.3105 24.6957 28.12 24.6957C28.0243 24.6957 27.9394 24.7055 27.8652 24.725C27.7909 24.7445 27.7284 24.7719 27.6777 24.807C27.6269 24.8412 27.5883 24.8822 27.5619 24.9301C27.5356 24.9779 27.5224 25.0302 27.5224 25.0868ZM29.724 25.4501C29.724 25.2655 29.7519 25.1 29.8075 24.9535C29.8632 24.807 29.9423 24.683 30.0448 24.5814C30.1474 24.4789 30.2719 24.4008 30.4184 24.3471C30.5649 24.2934 30.7289 24.2665 30.9106 24.2665C31.0922 24.2665 31.2563 24.2934 31.4028 24.3471C31.5492 24.4008 31.6738 24.4789 31.7763 24.5814C31.8788 24.683 31.9579 24.807 32.0136 24.9535C32.0693 25.1 32.0971 25.2655 32.0971 25.4501C32.0971 25.6347 32.0693 25.8002 32.0136 25.9467C31.9579 26.0932 31.8788 26.2172 31.7763 26.3187C31.6738 26.4203 31.5492 26.4979 31.4028 26.5517C31.2563 26.6054 31.0922 26.6322 30.9106 26.6322C30.7289 26.6322 30.5649 26.6054 30.4184 26.5517C30.2719 26.4979 30.1474 26.4203 30.0448 26.3187C29.9423 26.2172 29.8632 26.0932 29.8075 25.9467C29.7519 25.8002 29.724 25.6347 29.724 25.4501ZM30.1884 25.4486C30.1884 25.5736 30.205 25.684 30.2382 25.7797C30.2724 25.8754 30.3207 25.956 30.3832 26.0214C30.4457 26.0858 30.5214 26.1352 30.6103 26.1693C30.6991 26.2025 30.7992 26.2191 30.9106 26.2191C31.0219 26.2191 31.122 26.2025 31.2109 26.1693C31.2997 26.1352 31.3754 26.0858 31.4379 26.0214C31.5004 25.956 31.5483 25.8754 31.5815 25.7797C31.6157 25.684 31.6327 25.5736 31.6327 25.4486C31.6327 25.3246 31.6157 25.2152 31.5815 25.1205C31.5483 25.0248 31.5004 24.9442 31.4379 24.8788C31.3754 24.8134 31.2997 24.7641 31.2109 24.7309C31.122 24.6967 31.0219 24.6796 30.9106 24.6796C30.7992 24.6796 30.6991 24.6967 30.6103 24.7309C30.5214 24.7641 30.4457 24.8134 30.3832 24.8788C30.3207 24.9442 30.2724 25.0248 30.2382 25.1205C30.205 25.2152 30.1884 25.3246 30.1884 25.4486ZM34.8774 24.0072H35.2978L33.9369 27.1186H33.5165L34.8774 24.0072ZM35.8149 24.8715H36.2485V25.018C36.3569 24.9516 36.4623 24.9057 36.5649 24.8803C36.6684 24.8539 36.7695 24.8407 36.8681 24.8407C37.0058 24.8407 37.1323 24.8627 37.2475 24.9066C37.3627 24.9506 37.4614 25.017 37.5434 25.1059C37.6069 25.057 37.6694 25.016 37.7309 24.9828C37.7924 24.9486 37.8539 24.9213 37.9155 24.9008C37.977 24.8793 38.0395 24.8642 38.103 24.8554C38.1664 24.8456 38.2319 24.8407 38.2992 24.8407C38.4408 24.8407 38.5693 24.8603 38.6845 24.8993C38.7997 24.9374 38.8979 24.9945 38.9789 25.0707C39.061 25.1469 39.124 25.2421 39.1679 25.3563C39.2128 25.4696 39.2353 25.601 39.2353 25.7504V26.6H38.8032V25.8207C38.8032 25.726 38.7895 25.6415 38.7621 25.5673C38.7358 25.4921 38.6982 25.4291 38.6493 25.3783C38.6015 25.3266 38.5439 25.2875 38.4765 25.2611C38.4101 25.2338 38.3368 25.2201 38.2568 25.2201C38.2128 25.2201 38.1679 25.2245 38.122 25.2333C38.0761 25.2411 38.0312 25.2538 37.9872 25.2714C37.9443 25.289 37.9037 25.3114 37.8657 25.3388C37.8276 25.3651 37.7944 25.3964 37.766 25.4325V26.6H37.3339V25.8207C37.3339 25.726 37.3202 25.6415 37.2929 25.5673C37.2665 25.4921 37.2289 25.4291 37.1801 25.3783C37.1323 25.3266 37.0741 25.2875 37.0058 25.2611C36.9384 25.2338 36.8642 25.2201 36.7831 25.2201C36.7333 25.2201 36.683 25.2255 36.6323 25.2362C36.5824 25.246 36.5341 25.2602 36.4872 25.2787C36.4413 25.2973 36.3979 25.3197 36.3569 25.3461C36.3168 25.3725 36.2807 25.4022 36.2485 25.4354V26.6H35.8149V24.8715ZM39.6996 25.7299C39.6996 25.6127 39.7236 25.5009 39.7714 25.3944C39.8193 25.287 39.8881 25.1923 39.978 25.1103C40.0678 25.0282 40.1777 24.9628 40.3075 24.914C40.4384 24.8651 40.5868 24.8407 40.7529 24.8407C40.9179 24.8407 41.0663 24.8656 41.1982 24.9154C41.331 24.9643 41.4433 25.0316 41.5351 25.1176C41.6279 25.2035 41.6987 25.3046 41.7475 25.4208C41.7973 25.537 41.8222 25.6615 41.8222 25.7943C41.8222 25.8109 41.8217 25.829 41.8207 25.8485C41.8207 25.8671 41.8198 25.8842 41.8178 25.8998H40.183C40.2016 25.9516 40.2314 25.9989 40.2724 26.0419C40.3144 26.0849 40.3666 26.122 40.4291 26.1532C40.4916 26.1845 40.5639 26.2089 40.6459 26.2265C40.728 26.2431 40.8188 26.2514 40.9184 26.2514C41.018 26.2514 41.1171 26.2411 41.2157 26.2206C41.3144 26.1991 41.4086 26.1723 41.4985 26.14L41.6449 26.4711C41.5883 26.4975 41.5307 26.5209 41.4721 26.5414C41.4145 26.5609 41.3539 26.5775 41.2905 26.5912C41.228 26.6039 41.162 26.6137 41.0927 26.6205C41.0243 26.6273 40.9521 26.6308 40.8759 26.6308C40.6816 26.6308 40.5112 26.6073 40.3647 26.5604C40.2182 26.5136 40.0956 26.4496 39.997 26.3686C39.8984 26.2875 39.8241 26.1923 39.7743 26.0829C39.7245 25.9735 39.6996 25.8559 39.6996 25.7299ZM41.3622 25.5614C41.3466 25.5136 41.3222 25.4691 41.289 25.4281C41.2568 25.3861 41.2162 25.35 41.1674 25.3197C41.1186 25.2885 41.0619 25.2641 40.9975 25.2465C40.933 25.2289 40.8622 25.2201 40.7851 25.2201C40.7031 25.2201 40.6283 25.2294 40.561 25.2479C40.4936 25.2665 40.4345 25.2914 40.3837 25.3227C40.3329 25.3539 40.2905 25.39 40.2563 25.4311C40.2231 25.4721 40.1987 25.5155 40.183 25.5614H41.3622ZM40.0702 24.3515L40.7602 23.8314L41.4501 24.3515L41.245 24.621L40.7602 24.2548L40.2753 24.621L40.0702 24.3515ZM42.3583 26.0697C42.4755 26.14 42.6044 26.1918 42.745 26.225C42.8857 26.2582 43.0297 26.2748 43.1772 26.2748C43.2768 26.2748 43.3598 26.268 43.4262 26.2543C43.4926 26.2406 43.5458 26.223 43.5859 26.2016C43.6259 26.1801 43.6542 26.1557 43.6708 26.1283C43.6874 26.101 43.6957 26.0731 43.6957 26.0448C43.6957 26.0038 43.6777 25.9687 43.6415 25.9394C43.6064 25.9101 43.5478 25.8954 43.4657 25.8954C43.4277 25.8954 43.3866 25.8979 43.3427 25.9027C43.2988 25.9076 43.2524 25.913 43.2035 25.9188C43.1557 25.9237 43.1054 25.9286 43.0527 25.9335C43.0009 25.9384 42.9482 25.9408 42.8945 25.9408C42.7773 25.9408 42.6772 25.9281 42.5942 25.9027C42.5121 25.8773 42.4452 25.8427 42.3935 25.7987C42.3417 25.7548 42.3041 25.703 42.2807 25.6435C42.2573 25.5829 42.2455 25.518 42.2455 25.4486C42.2455 25.3607 42.266 25.2797 42.3071 25.2055C42.3481 25.1312 42.4067 25.0673 42.4828 25.0136C42.559 24.9589 42.6508 24.9164 42.7582 24.8861C42.8666 24.8559 42.9872 24.8407 43.12 24.8407C43.1894 24.8407 43.2616 24.8451 43.3368 24.8539C43.413 24.8617 43.4877 24.8725 43.561 24.8861C43.6342 24.8998 43.7045 24.9159 43.7719 24.9345C43.8393 24.952 43.8989 24.9711 43.9506 24.9916L43.8144 25.3285C43.704 25.2875 43.5937 25.2553 43.4833 25.2318C43.374 25.2074 43.2612 25.1952 43.1449 25.1952C43.0639 25.1952 42.995 25.2016 42.9384 25.2143C42.8827 25.226 42.8373 25.2421 42.8022 25.2626C42.767 25.2821 42.7411 25.3051 42.7245 25.3314C42.7089 25.3568 42.7011 25.3837 42.7011 25.412C42.7011 25.4325 42.705 25.4511 42.7128 25.4677C42.7216 25.4843 42.7353 25.4989 42.7538 25.5116C42.7734 25.5233 42.7983 25.5326 42.8285 25.5395C42.8598 25.5453 42.8979 25.5482 42.9428 25.5482C42.9838 25.5482 43.0273 25.5458 43.0732 25.5409C43.1191 25.536 43.1669 25.5312 43.2167 25.5263C43.2665 25.5204 43.3178 25.515 43.3705 25.5102C43.4242 25.5053 43.4789 25.5028 43.5346 25.5028C43.6381 25.5028 43.7284 25.515 43.8056 25.5395C43.8837 25.5639 43.9482 25.598 43.999 25.642C44.0497 25.6859 44.0878 25.7377 44.1132 25.7973C44.1386 25.8568 44.1513 25.9218 44.1513 25.9921C44.1513 26.0829 44.1303 26.1674 44.0883 26.2455C44.0463 26.3236 43.9838 26.3915 43.9008 26.4491C43.8178 26.5058 43.7143 26.5502 43.5903 26.5824C43.4672 26.6146 43.3246 26.6308 43.1625 26.6308C43.0629 26.6308 42.9667 26.6244 42.874 26.6117C42.7812 26.6 42.6928 26.5839 42.6088 26.5634C42.5248 26.5419 42.4457 26.517 42.3715 26.4887C42.2983 26.4604 42.2314 26.4301 42.1708 26.3979L42.3583 26.0697Z" fill="white"/>
<defs>
<filter id="filter0_dd_16_92" x="0.696018" y="2.7" width="52.608" height="31.6" filterUnits="userSpaceOnUse" color-interpolation-filters="sRGB">
<feFlood flood-opacity="0" result="BackgroundImageFix"/>
<feColorMatrix in="SourceAlpha" type="matrix" values="0 0 0 0 0 0 0 0 0 0 0 0 0 0 0 0 0 0 127 0" result="hardAlpha"/>
<feOffset dy="4"/>
<feGaussianBlur stdDeviation="2"/>
<feComposite in2="hardAlpha" operator="out"/>
<feColorMatrix type="matrix" values="0 0 0 0 0 0 0 0 0 0 0 0 0 0 0 0 0 0 0.25 0"/>
<feBlend mode="normal" in2="BackgroundImageFix" result="effect1_dropShadow_16_92"/>
<feColorMatrix in="SourceAlpha" type="matrix" values="0 0 0 0 0 0 0 0 0 0 0 0 0 0 0 0 0 0 127 0" result="hardAlpha"/>
<feOffset dy="4"/>
<feGaussianBlur stdDeviation="2"/>
<feComposite in2="hardAlpha" operator="out"/>
<feColorMatrix type="matrix" values="0 0 0 0 0 0 0 0 0 0 0 0 0 0 0 0 0 0 0.25 0"/>
<feBlend mode="normal" in2="effect1_dropShadow_16_92" result="effect2_dropShadow_16_92"/>
<feBlend mode="normal" in="SourceGraphic" in2="effect2_dropShadow_16_92" result="shape"/>
</filter>
</defs>
</svg>
