<svg width="54" height="35" viewBox="0 0 54 35" fill="none" xmlns="http://www.w3.org/2000/svg">
<rect x="7" y="23" width="40" height="6" rx="2" fill="#D1540E"/>
<g filter="url(#filter0_dd_8_27)">
<path fill-rule="evenodd" clip-rule="evenodd" d="M15 2.7H12H10C7.07289 2.7 4.7 5.07289 4.7 8V21C4.7 23.9271 7.07289 26.3 10 26.3H44C46.9271 26.3 49.3 23.9271 49.3 21V8C49.3 5.07289 46.9271 2.7 44 2.7H39V3H44C46.7614 3 49 5.23857 49 8V21C49 23.7614 46.7614 26 44 26H10C7.23857 26 5 23.7614 5 21V8C5 5.23857 7.23857 3 10 3H12H15V2.7Z" fill="#D1540E"/>
</g>
<path d="M14.4951 13.9551C14.4951 12.9844 14.6387 12.139 14.9258 11.4189C15.2174 10.6943 15.6139 10.0928 16.1152 9.61426C16.6211 9.13574 17.2158 8.77799 17.8994 8.54102C18.583 8.30404 19.3213 8.18555 20.1143 8.18555C20.4469 8.18555 20.7842 8.20378 21.126 8.24023C21.4723 8.27214 21.8118 8.32454 22.1445 8.39746C22.4772 8.47038 22.7985 8.56608 23.1084 8.68457C23.4229 8.7985 23.7145 8.93522 23.9834 9.09473L23.0195 10.7354C22.819 10.6214 22.6048 10.5257 22.377 10.4482C22.1536 10.3662 21.9212 10.3024 21.6797 10.2568C21.4382 10.2067 21.1943 10.1702 20.9482 10.1475C20.7021 10.1247 20.4606 10.1133 20.2236 10.1133C19.695 10.1133 19.2165 10.1816 18.7881 10.3184C18.3643 10.4551 17.9974 10.6488 17.6875 10.8994C17.3776 11.1501 17.1292 11.4508 16.9424 11.8018C16.7601 12.1481 16.6462 12.5332 16.6006 12.957C16.8376 12.7702 17.0996 12.6084 17.3867 12.4717C17.6738 12.335 17.9769 12.2233 18.2959 12.1367C18.6195 12.0456 18.9499 11.9795 19.2871 11.9385C19.6289 11.8929 19.9707 11.8701 20.3125 11.8701C20.9779 11.8701 21.5817 11.9499 22.124 12.1094C22.6709 12.2689 23.138 12.499 23.5254 12.7998C23.9128 13.1006 24.2113 13.4674 24.4209 13.9004C24.6351 14.3288 24.7422 14.8164 24.7422 15.3633C24.7422 15.901 24.6351 16.4001 24.4209 16.8604C24.2113 17.3206 23.8991 17.7217 23.4844 18.0635C23.0697 18.4007 22.5547 18.6673 21.9395 18.8633C21.3242 19.0547 20.611 19.1504 19.7998 19.1504C19.0114 19.1504 18.2913 19.0501 17.6396 18.8496C16.988 18.6491 16.4297 18.3369 15.9648 17.9131C15.5 17.4893 15.1377 16.9515 14.8779 16.2998C14.6227 15.6436 14.4951 14.862 14.4951 13.9551ZM16.6484 14.96C16.7578 15.7074 17.0859 16.2725 17.6328 16.6553C18.1797 17.0335 18.8975 17.2227 19.7861 17.2227C20.2327 17.2227 20.6292 17.1771 20.9756 17.0859C21.3219 16.9948 21.6136 16.8695 21.8506 16.71C22.0876 16.5459 22.2676 16.3522 22.3906 16.1289C22.5137 15.9056 22.5752 15.6618 22.5752 15.3975C22.5752 15.1742 22.5273 14.9645 22.4316 14.7686C22.3359 14.5726 22.1855 14.404 21.9805 14.2627C21.7799 14.1169 21.5202 14.0029 21.2012 13.9209C20.8822 13.8343 20.4971 13.791 20.0459 13.791C19.6676 13.791 19.3099 13.8206 18.9727 13.8799C18.6354 13.9391 18.3232 14.0212 18.0361 14.126C17.749 14.2308 17.487 14.3538 17.25 14.4951C17.0176 14.6364 16.8171 14.7913 16.6484 14.96ZM26.8613 13.6338C26.8613 12.7725 26.9912 12 27.251 11.3164C27.5107 10.6328 27.8799 10.054 28.3584 9.58008C28.8369 9.10156 29.418 8.73698 30.1016 8.48633C30.7852 8.23568 31.5508 8.11035 32.3984 8.11035C33.2461 8.11035 34.0117 8.23568 34.6953 8.48633C35.3789 8.73698 35.96 9.10156 36.4385 9.58008C36.917 10.054 37.2861 10.6328 37.5459 11.3164C37.8057 12 37.9355 12.7725 37.9355 13.6338C37.9355 14.4951 37.8057 15.2676 37.5459 15.9512C37.2861 16.6348 36.917 17.2135 36.4385 17.6875C35.96 18.1615 35.3789 18.5238 34.6953 18.7744C34.0117 19.0251 33.2461 19.1504 32.3984 19.1504C31.5508 19.1504 30.7852 19.0251 30.1016 18.7744C29.418 18.5238 28.8369 18.1615 28.3584 17.6875C27.8799 17.2135 27.5107 16.6348 27.251 15.9512C26.9912 15.2676 26.8613 14.4951 26.8613 13.6338ZM29.0283 13.627C29.0283 14.2103 29.1058 14.7253 29.2607 15.1719C29.4202 15.6185 29.6458 15.9945 29.9375 16.2998C30.2292 16.6006 30.5824 16.8307 30.9971 16.9902C31.4118 17.1452 31.8789 17.2227 32.3984 17.2227C32.918 17.2227 33.3851 17.1452 33.7998 16.9902C34.2145 16.8307 34.5677 16.6006 34.8594 16.2998C35.151 15.9945 35.3743 15.6185 35.5293 15.1719C35.6888 14.7253 35.7686 14.2103 35.7686 13.627C35.7686 13.0482 35.6888 12.5378 35.5293 12.0957C35.3743 11.6491 35.151 11.2731 34.8594 10.9678C34.5677 10.6624 34.2145 10.4323 33.7998 10.2773C33.3851 10.1178 32.918 10.0381 32.3984 10.0381C31.8789 10.0381 31.4118 10.1178 30.9971 10.2773C30.5824 10.4323 30.2292 10.6624 29.9375 10.9678C29.6458 11.2731 29.4202 11.6491 29.2607 12.0957C29.1058 12.5378 29.0283 13.0482 29.0283 13.627Z" fill="#FFE2E2"/>
<circle cx="38.5" cy="16.5" r="2.5" fill="#D1540E"/>
<path d="M36.8027 15.7736H37.1123L37.667 16.3303L38.2217 15.7736H38.5312V17.3H38.2217V16.2023L37.667 16.7365L37.1123 16.2023V17.3H36.8027V15.7736ZM38.9219 15.6799H39.2109V16.2561C39.2363 16.2385 39.2663 16.2219 39.3008 16.2063C39.3353 16.1906 39.3724 16.177 39.4121 16.1652C39.4518 16.1535 39.4928 16.1444 39.5352 16.1379C39.5775 16.1307 39.6198 16.1272 39.6621 16.1272C39.7598 16.1272 39.8493 16.1415 39.9307 16.1701C40.0127 16.1988 40.083 16.2391 40.1416 16.2912C40.2002 16.3433 40.2458 16.4058 40.2783 16.4787C40.3115 16.551 40.3281 16.6311 40.3281 16.7189C40.3281 16.8107 40.3109 16.8938 40.2764 16.968C40.2419 17.0415 40.194 17.1047 40.1328 17.1574C40.0723 17.2095 40 17.2499 39.916 17.2785C39.8327 17.3065 39.7422 17.3205 39.6445 17.3205C39.6029 17.3205 39.5615 17.3179 39.5205 17.3127C39.4801 17.3075 39.4411 17.3003 39.4033 17.2912C39.3662 17.2821 39.3311 17.2714 39.2979 17.259C39.2653 17.246 39.2363 17.232 39.2109 17.217V17.3H38.9219V15.6799ZM39.2109 16.9377C39.2402 16.9611 39.2712 16.981 39.3037 16.9973C39.3363 17.0135 39.3695 17.0269 39.4033 17.0373C39.4372 17.0477 39.4714 17.0555 39.5059 17.0607C39.5404 17.0653 39.5739 17.0676 39.6064 17.0676C39.6729 17.0676 39.7318 17.0588 39.7832 17.0412C39.8353 17.023 39.8789 16.9982 39.9141 16.967C39.9499 16.9357 39.9772 16.899 39.9961 16.8566C40.015 16.8143 40.0244 16.7684 40.0244 16.7189C40.0244 16.6727 40.015 16.6291 39.9961 16.5881C39.9779 16.5471 39.9512 16.5113 39.916 16.4807C39.8815 16.4494 39.8395 16.425 39.79 16.4074C39.7412 16.3892 39.6862 16.3801 39.625 16.3801C39.5859 16.3801 39.5469 16.384 39.5078 16.3918C39.4688 16.399 39.431 16.4094 39.3945 16.423C39.3587 16.4367 39.3249 16.4533 39.293 16.4729C39.2617 16.4924 39.2344 16.5142 39.2109 16.5383V16.9377Z" fill="white"/>
<path d="M18.9512 0.947266H20.5605C20.7949 0.947266 20.998 0.972656 21.1699 1.02344C21.3418 1.07422 21.4844 1.14779 21.5977 1.24414C21.7109 1.33919 21.7949 1.45573 21.8496 1.59375C21.9056 1.73177 21.9336 1.88737 21.9336 2.06055C21.9336 2.22331 21.9062 2.3737 21.8516 2.51172C21.7969 2.64974 21.7129 2.76953 21.5996 2.87109C21.4876 2.97135 21.3457 3.05013 21.1738 3.10742C21.002 3.16341 20.7988 3.19141 20.5645 3.19141L19.5703 3.18945V4H18.9512V0.947266ZM20.5762 2.6543C20.6934 2.6543 20.7956 2.64062 20.8828 2.61328C20.9714 2.58464 21.0449 2.54492 21.1035 2.49414C21.1634 2.44206 21.2077 2.37956 21.2363 2.30664C21.2663 2.23242 21.2812 2.15039 21.2812 2.06055C21.2812 1.87956 21.222 1.73893 21.1035 1.63867C20.9863 1.53711 20.8105 1.48633 20.5762 1.48633H19.5703V2.6543H20.5762ZM22.5547 0.759766H23.1328V4H22.5547V0.759766ZM23.875 1.69336H24.4512V2.81836C24.4512 2.92513 24.4629 3.02279 24.4863 3.11133C24.5098 3.19857 24.5495 3.27344 24.6055 3.33594C24.6628 3.39844 24.7383 3.44727 24.832 3.48242C24.9271 3.51628 25.0449 3.5332 25.1855 3.5332C25.252 3.5332 25.319 3.52604 25.3867 3.51172C25.4557 3.4974 25.5215 3.47786 25.584 3.45312C25.6465 3.42708 25.7044 3.39648 25.7578 3.36133C25.8125 3.32617 25.8594 3.28776 25.8984 3.24609V1.69336H26.4766V4H25.8984V3.80273C25.7565 3.88737 25.6139 3.94792 25.4707 3.98438C25.3275 4.02083 25.1914 4.03906 25.0625 4.03906C24.8516 4.03906 24.6706 4.01367 24.5195 3.96289C24.3698 3.91211 24.2467 3.83854 24.1504 3.74219C24.0553 3.64453 23.9857 3.52539 23.9414 3.38477C23.8971 3.24284 23.875 3.08138 23.875 2.90039V1.69336ZM27.5586 2.12891H27.002V1.69531H27.5586V0.978516H28.1367V1.69531H28.6934V2.12891H28.1367V4H27.5586V2.12891ZM29.0977 3.27344C29.0977 3.16276 29.1217 3.06185 29.1699 2.9707C29.2181 2.87956 29.2904 2.80143 29.3867 2.73633C29.4831 2.66992 29.6029 2.61914 29.7461 2.58398C29.8906 2.54753 30.0586 2.5293 30.25 2.5293C30.3919 2.5293 30.541 2.53971 30.6973 2.56055C30.8548 2.58138 31.0169 2.61328 31.1836 2.65625C31.1771 2.58333 31.1549 2.51628 31.1172 2.45508C31.0794 2.39258 31.0267 2.33919 30.959 2.29492C30.8926 2.24935 30.8118 2.21419 30.7168 2.18945C30.623 2.16471 30.5163 2.15234 30.3965 2.15234C30.3314 2.15234 30.2598 2.15625 30.1816 2.16406C30.1035 2.17188 30.0228 2.18359 29.9395 2.19922C29.8561 2.21484 29.7734 2.23438 29.6914 2.25781C29.6107 2.28125 29.5352 2.30924 29.4648 2.3418L29.2891 1.86719C29.3763 1.83594 29.4694 1.80729 29.5684 1.78125C29.6686 1.75521 29.7708 1.73307 29.875 1.71484C29.9792 1.69531 30.0833 1.68034 30.1875 1.66992C30.2917 1.65951 30.3926 1.6543 30.4902 1.6543C30.9212 1.6543 31.2415 1.76432 31.4512 1.98438C31.6608 2.20443 31.7656 2.54167 31.7656 2.99609V4H31.1875V3.7832C31.1276 3.81836 31.0618 3.85156 30.9902 3.88281C30.9199 3.91406 30.8431 3.94141 30.7598 3.96484C30.6764 3.98828 30.5866 4.00651 30.4902 4.01953C30.3952 4.03385 30.2943 4.04102 30.1875 4.04102C30.0078 4.04102 29.8496 4.02148 29.7129 3.98242C29.5775 3.94336 29.4642 3.88932 29.373 3.82031C29.2819 3.7513 29.2129 3.67057 29.166 3.57812C29.1204 3.48438 29.0977 3.38281 29.0977 3.27344ZM29.707 3.25391C29.707 3.29167 29.7168 3.32812 29.7363 3.36328C29.7559 3.39714 29.7871 3.42773 29.8301 3.45508C29.873 3.48112 29.9277 3.5026 29.9941 3.51953C30.0618 3.53516 30.1432 3.54297 30.2383 3.54297C30.3398 3.54297 30.4382 3.53385 30.5332 3.51562C30.6283 3.4974 30.7168 3.47331 30.7988 3.44336C30.8809 3.41341 30.9551 3.37891 31.0215 3.33984C31.0879 3.30078 31.1432 3.26042 31.1875 3.21875V3.11719C31.099 3.09245 31.0111 3.07161 30.9238 3.05469C30.8379 3.03776 30.7552 3.02474 30.6758 3.01562C30.5977 3.00521 30.5234 2.99805 30.4531 2.99414C30.3841 2.99023 30.3236 2.98828 30.2715 2.98828C30.1634 2.98828 30.0736 2.99544 30.002 3.00977C29.9303 3.02409 29.8724 3.04362 29.8281 3.06836C29.7839 3.0918 29.7526 3.11979 29.7344 3.15234C29.7161 3.1849 29.707 3.21875 29.707 3.25391ZM29.5566 0.746094C29.627 0.671875 29.7057 0.615234 29.793 0.576172C29.8802 0.537109 29.9707 0.517578 30.0645 0.517578C30.1465 0.517578 30.2188 0.530599 30.2812 0.556641C30.3438 0.58138 30.403 0.609375 30.459 0.640625C30.515 0.670573 30.5697 0.698568 30.623 0.724609C30.6764 0.749349 30.735 0.761719 30.7988 0.761719C30.8379 0.761719 30.8802 0.75651 30.9258 0.746094C30.9727 0.734375 31.0189 0.71875 31.0645 0.699219C31.11 0.679688 31.1536 0.65625 31.1953 0.628906C31.2383 0.601562 31.2754 0.572266 31.3066 0.541016V1.0293C31.2363 1.10352 31.1576 1.16016 31.0703 1.19922C30.9831 1.23828 30.8926 1.25781 30.7988 1.25781C30.7168 1.25781 30.6445 1.24544 30.582 1.2207C30.5195 1.19466 30.4603 1.16667 30.4043 1.13672C30.3483 1.10547 30.2936 1.07747 30.2402 1.05273C30.1868 1.02669 30.1283 1.01367 30.0645 1.01367C30.0254 1.01367 29.9824 1.01953 29.9355 1.03125C29.89 1.04167 29.8444 1.05664 29.7988 1.07617C29.7533 1.0957 29.709 1.11914 29.666 1.14648C29.6243 1.17383 29.5879 1.20312 29.5566 1.23438V0.746094ZM32.3926 2.84766C32.3926 2.68229 32.4258 2.52734 32.4922 2.38281C32.5599 2.23828 32.6556 2.11198 32.7793 2.00391C32.9043 1.89583 33.0547 1.81055 33.2305 1.74805C33.4076 1.68555 33.6061 1.6543 33.8262 1.6543C34.0462 1.6543 34.2441 1.68555 34.4199 1.74805C34.597 1.81055 34.7474 1.89583 34.8711 2.00391C34.9961 2.11198 35.0918 2.23828 35.1582 2.38281C35.2259 2.52734 35.2598 2.68229 35.2598 2.84766C35.2598 3.01302 35.2259 3.16797 35.1582 3.3125C35.0918 3.45703 34.9961 3.58333 34.8711 3.69141C34.7474 3.79948 34.597 3.88477 34.4199 3.94727C34.2441 4.00977 34.0462 4.04102 33.8262 4.04102C33.6061 4.04102 33.4076 4.00977 33.2305 3.94727C33.0547 3.88477 32.9043 3.79948 32.7793 3.69141C32.6556 3.58333 32.5599 3.45703 32.4922 3.3125C32.4258 3.16797 32.3926 3.01302 32.3926 2.84766ZM33 2.84766C33 2.9401 33.0182 3.02799 33.0547 3.11133C33.0924 3.19336 33.1465 3.26628 33.2168 3.33008C33.2884 3.39258 33.375 3.44271 33.4766 3.48047C33.5794 3.51693 33.696 3.53516 33.8262 3.53516C33.9564 3.53516 34.0723 3.51693 34.1738 3.48047C34.2767 3.44271 34.3633 3.39258 34.4336 3.33008C34.5052 3.26628 34.5592 3.19336 34.5957 3.11133C34.6335 3.02799 34.6523 2.9401 34.6523 2.84766C34.6523 2.75521 34.6335 2.66732 34.5957 2.58398C34.5592 2.50065 34.5052 2.42773 34.4336 2.36523C34.3633 2.30143 34.2767 2.2513 34.1738 2.21484C34.0723 2.17708 33.9564 2.1582 33.8262 2.1582C33.696 2.1582 33.5794 2.17708 33.4766 2.21484C33.375 2.2513 33.2884 2.30143 33.2168 2.36523C33.1465 2.42773 33.0924 2.50065 33.0547 2.58398C33.0182 2.66732 33 2.75521 33 2.84766Z" fill="white" fill-opacity="0.96"/>
<path d="M11.3018 24.9736H12.0781C12.1953 24.9736 12.2969 24.986 12.3828 25.0107C12.4688 25.0348 12.54 25.07 12.5967 25.1162C12.6533 25.1624 12.6953 25.2188 12.7227 25.2852C12.7507 25.3516 12.7646 25.4268 12.7646 25.5107C12.7646 25.5674 12.7578 25.6214 12.7441 25.6729C12.7305 25.7236 12.7093 25.7705 12.6807 25.8135C12.6527 25.8564 12.6172 25.8949 12.5742 25.9287C12.5312 25.9619 12.4808 25.9896 12.4229 26.0117L12.7549 26.5H12.376L12.0889 26.0664H12.0801L11.6113 26.0654V26.5H11.3018V24.9736ZM12.0859 25.7979C12.1445 25.7979 12.1956 25.791 12.2393 25.7773C12.2835 25.7637 12.3203 25.7445 12.3496 25.7197C12.3796 25.695 12.4017 25.665 12.416 25.6299C12.431 25.5941 12.4385 25.5544 12.4385 25.5107C12.4385 25.4255 12.4092 25.3597 12.3506 25.3135C12.292 25.2666 12.2038 25.2432 12.0859 25.2432H11.6113V25.7979H12.0859ZM13.2031 26.0459C13.25 26.0726 13.2972 26.097 13.3447 26.1191C13.3923 26.1406 13.4411 26.1598 13.4912 26.1768C13.542 26.193 13.5941 26.207 13.6475 26.2188C13.7015 26.2298 13.7585 26.2376 13.8184 26.2422V25.8574C13.7852 25.8613 13.7533 25.8646 13.7227 25.8672C13.6921 25.8698 13.6624 25.8711 13.6338 25.8711C13.5654 25.8711 13.4997 25.8623 13.4365 25.8447C13.374 25.8271 13.3184 25.8008 13.2695 25.7656C13.2214 25.7305 13.1829 25.6865 13.1543 25.6338C13.1257 25.5811 13.1113 25.5195 13.1113 25.4492C13.1113 25.3893 13.1237 25.3304 13.1484 25.2725C13.1738 25.2139 13.2145 25.1615 13.2705 25.1152C13.3271 25.0684 13.4004 25.0296 13.4902 24.999C13.5801 24.9684 13.6895 24.9508 13.8184 24.9463V24.6504H14.0498V24.9521C14.1585 24.9619 14.2627 24.9798 14.3623 25.0059C14.4626 25.0319 14.5544 25.0635 14.6377 25.1006L14.502 25.3506C14.4368 25.3226 14.3665 25.2979 14.291 25.2764C14.2155 25.2549 14.1351 25.2393 14.0498 25.2295V25.54C14.0811 25.5368 14.1123 25.5342 14.1436 25.5322C14.1748 25.5296 14.2054 25.5283 14.2354 25.5283C14.3252 25.5283 14.4046 25.5384 14.4736 25.5586C14.5433 25.5788 14.6016 25.6077 14.6484 25.6455C14.6953 25.6826 14.7308 25.7279 14.7549 25.7812C14.779 25.834 14.791 25.8932 14.791 25.959C14.791 26.0404 14.7734 26.1139 14.7383 26.1797C14.7038 26.2448 14.6543 26.3011 14.5898 26.3486C14.526 26.3962 14.4482 26.4342 14.3564 26.4629C14.2653 26.4915 14.1631 26.5098 14.0498 26.5176V26.8145H13.8184V26.5186C13.6673 26.5094 13.5254 26.4854 13.3926 26.4463C13.2604 26.4066 13.1423 26.3568 13.0381 26.2969L13.2031 26.0459ZM13.4355 25.4199C13.4355 25.4655 13.4561 25.5029 13.4971 25.5322C13.5381 25.5609 13.6006 25.5752 13.6846 25.5752C13.7035 25.5752 13.7243 25.5745 13.7471 25.5732C13.7699 25.5713 13.7936 25.569 13.8184 25.5664V25.2207C13.7448 25.2233 13.6833 25.2311 13.6338 25.2441C13.585 25.2572 13.5459 25.2731 13.5166 25.292C13.4873 25.3109 13.4665 25.3317 13.4541 25.3545C13.4417 25.3766 13.4355 25.3984 13.4355 25.4199ZM14.0498 26.2441C14.124 26.2396 14.1875 26.2301 14.2402 26.2158C14.293 26.2015 14.3359 26.1836 14.3691 26.1621C14.403 26.14 14.4274 26.1149 14.4424 26.0869C14.458 26.0589 14.4658 26.0293 14.4658 25.998C14.4658 25.9427 14.4427 25.8991 14.3965 25.8672C14.3503 25.8346 14.279 25.8184 14.1826 25.8184C14.1618 25.8184 14.14 25.8193 14.1172 25.8213C14.0951 25.8226 14.0726 25.8245 14.0498 25.8271V26.2441Z" fill="white"/>
<path d="M17.5547 26.4865C17.5547 26.1953 17.5978 25.9417 17.6839 25.7257C17.7714 25.5083 17.8903 25.3278 18.0407 25.1843C18.1925 25.0407 18.3709 24.9334 18.576 24.8623C18.7811 24.7912 19.0025 24.7557 19.2404 24.7557C19.3402 24.7557 19.4414 24.7611 19.5439 24.7721C19.6479 24.7816 19.7497 24.7974 19.8495 24.8192C19.9493 24.8411 20.0457 24.8698 20.1387 24.9054C20.233 24.9396 20.3205 24.9806 20.4012 25.0284L20.112 25.5206C20.0519 25.4864 19.9876 25.4577 19.9192 25.4345C19.8522 25.4099 19.7825 25.3907 19.7101 25.3771C19.6376 25.362 19.5645 25.3511 19.4906 25.3442C19.4168 25.3374 19.3443 25.334 19.2732 25.334C19.1146 25.334 18.9711 25.3545 18.8426 25.3955C18.7154 25.4365 18.6054 25.4946 18.5124 25.5698C18.4194 25.645 18.3449 25.7353 18.2889 25.8405C18.2342 25.9444 18.2 26.06 18.1863 26.1871C18.2574 26.1311 18.336 26.0825 18.4222 26.0415C18.5083 26.0005 18.5992 25.967 18.6949 25.941C18.792 25.9137 18.8911 25.8938 18.9923 25.8815C19.0948 25.8679 19.1974 25.861 19.2999 25.861C19.4995 25.861 19.6807 25.885 19.8434 25.9328C20.0074 25.9807 20.1476 26.0497 20.2638 26.1399C20.38 26.2302 20.4695 26.3402 20.5324 26.4701C20.5967 26.5986 20.6288 26.7449 20.6288 26.909C20.6288 27.0703 20.5967 27.22 20.5324 27.3581C20.4695 27.4962 20.3759 27.6165 20.2515 27.719C20.1271 27.8202 19.9726 27.9002 19.788 27.959C19.6034 28.0164 19.3895 28.0451 19.1461 28.0451C18.9096 28.0451 18.6936 28.015 18.498 27.9549C18.3025 27.8947 18.1351 27.8011 17.9956 27.6739C17.8562 27.5468 17.7475 27.3854 17.6695 27.1899C17.593 26.9931 17.5547 26.7586 17.5547 26.4865ZM18.2007 26.788C18.2335 27.0122 18.3319 27.1817 18.496 27.2966C18.6601 27.4101 18.8754 27.4668 19.142 27.4668C19.276 27.4668 19.3949 27.4531 19.4988 27.4258C19.6027 27.3984 19.6902 27.3608 19.7613 27.313C19.8324 27.2638 19.8864 27.2057 19.9233 27.1387C19.9603 27.0717 19.9787 26.9985 19.9787 26.9192C19.9787 26.8522 19.9644 26.7894 19.9356 26.7306C19.9069 26.6718 19.8618 26.6212 19.8003 26.5788C19.7401 26.5351 19.6622 26.5009 19.5665 26.4763C19.4708 26.4503 19.3553 26.4373 19.2199 26.4373C19.1064 26.4373 18.9991 26.4462 18.8979 26.464C18.7968 26.4817 18.7031 26.5063 18.617 26.5378C18.5309 26.5692 18.4522 26.6062 18.3812 26.6485C18.3114 26.6909 18.2513 26.7374 18.2007 26.788ZM21.8511 27.2597C21.9099 27.2938 21.9755 27.3239 22.0479 27.3499C22.1204 27.3759 22.1949 27.3978 22.2715 27.4155C22.3494 27.4319 22.4273 27.4449 22.5053 27.4545C22.5846 27.4627 22.6598 27.4668 22.7309 27.4668C22.8895 27.4668 23.0323 27.4463 23.1595 27.4053C23.288 27.3643 23.3987 27.3062 23.4917 27.231C23.5847 27.1558 23.6585 27.0662 23.7132 26.9623C23.7692 26.857 23.8041 26.7408 23.8178 26.6137C23.7467 26.6697 23.6681 26.7183 23.5819 26.7593C23.4958 26.8003 23.4042 26.8345 23.3071 26.8618C23.2114 26.8878 23.1123 26.9076 23.0098 26.9213C22.9086 26.9336 22.8067 26.9397 22.7042 26.9397C22.5046 26.9397 22.3228 26.9158 22.1587 26.868C21.996 26.8201 21.8565 26.7511 21.7403 26.6608C21.6241 26.5706 21.5339 26.4612 21.4696 26.3327C21.4067 26.2028 21.3753 26.0559 21.3753 25.8918C21.3753 25.7305 21.4067 25.5808 21.4696 25.4427C21.5339 25.3046 21.6282 25.185 21.7526 25.0838C21.8771 24.9813 22.0315 24.9013 22.2161 24.8438C22.4007 24.7851 22.6146 24.7557 22.858 24.7557C23.0945 24.7557 23.3105 24.7857 23.5061 24.8459C23.7016 24.9061 23.869 24.9997 24.0085 25.1269C24.1479 25.254 24.256 25.416 24.3325 25.6129C24.4104 25.8084 24.4494 26.0422 24.4494 26.3143C24.4494 26.6055 24.4057 26.8598 24.3182 27.0771C24.232 27.2932 24.1131 27.4729 23.9613 27.6165C23.8109 27.7601 23.6332 27.8674 23.4281 27.9385C23.223 28.0096 23.0016 28.0451 22.7637 28.0451C22.6639 28.0451 22.56 28.039 22.452 28.0267C22.3453 28.0144 22.2394 27.9959 22.1341 27.9713C22.0288 27.9467 21.927 27.9159 21.8285 27.879C21.7314 27.8421 21.6426 27.7997 21.5619 27.7519L21.8511 27.2597ZM22.0254 25.8815C22.0254 25.9485 22.0397 26.0114 22.0685 26.0702C22.0972 26.129 22.1416 26.1803 22.2018 26.224C22.2633 26.2664 22.3419 26.3006 22.4376 26.3266C22.5333 26.3512 22.6488 26.3635 22.7842 26.3635C22.8977 26.3635 23.005 26.3546 23.1062 26.3368C23.2073 26.319 23.301 26.2944 23.3871 26.263C23.4732 26.2315 23.5512 26.1946 23.6209 26.1522C23.692 26.1099 23.7528 26.0634 23.8034 26.0128C23.7706 25.7886 23.6722 25.6197 23.5081 25.5063C23.344 25.3914 23.1287 25.334 22.8621 25.334C22.7281 25.334 22.6092 25.3477 22.5053 25.375C22.4014 25.4023 22.3139 25.4406 22.2428 25.4898C22.1717 25.5377 22.1177 25.5951 22.0808 25.6621C22.0438 25.7291 22.0254 25.8022 22.0254 25.8815Z" fill="white"/>
<path d="M25.4106 26.7451C25.4106 26.7061 25.4189 26.6694 25.4355 26.6353C25.4521 26.6011 25.4751 26.5713 25.5044 26.5459C25.5347 26.5195 25.5708 26.499 25.6128 26.4844C25.6558 26.4697 25.7036 26.4624 25.7563 26.4624C25.813 26.4624 25.8647 26.4717 25.9116 26.4902C25.9595 26.5078 26.0005 26.5337 26.0347 26.5679C26.0688 26.6021 26.0952 26.644 26.1138 26.6938C26.1333 26.7427 26.1431 26.7979 26.1431 26.8594C26.1431 26.998 26.0952 27.1309 25.9995 27.2578C25.9048 27.3857 25.7666 27.499 25.585 27.5977L25.4092 27.3486C25.457 27.3232 25.499 27.2979 25.5352 27.2725C25.5713 27.248 25.603 27.2231 25.6304 27.1978C25.6577 27.1724 25.6812 27.146 25.7007 27.1187C25.7212 27.0913 25.7393 27.062 25.7549 27.0308C25.7031 27.0308 25.6558 27.0229 25.6128 27.0073C25.5708 26.9927 25.5347 26.9727 25.5044 26.9473C25.4741 26.9219 25.4507 26.8921 25.4341 26.8579C25.4185 26.8228 25.4106 26.7852 25.4106 26.7451ZM26.9956 26.4712C27.0376 26.4956 27.0845 26.5171 27.1362 26.5356C27.188 26.5542 27.2412 26.5698 27.2959 26.5825C27.3516 26.5942 27.4072 26.6035 27.4629 26.6104C27.5195 26.6162 27.5732 26.6191 27.624 26.6191C27.7373 26.6191 27.8394 26.6045 27.9302 26.5752C28.022 26.5459 28.1011 26.5044 28.1675 26.4507C28.2339 26.397 28.2866 26.333 28.3257 26.2588C28.3657 26.1836 28.3906 26.1006 28.4004 26.0098C28.3496 26.0498 28.2935 26.0845 28.2319 26.1138C28.1704 26.1431 28.105 26.1675 28.0356 26.187C27.9673 26.2056 27.8965 26.2197 27.8232 26.2295C27.751 26.2383 27.6782 26.2427 27.605 26.2427C27.4624 26.2427 27.3325 26.2256 27.2153 26.1914C27.0991 26.1572 26.9995 26.1079 26.9165 26.0435C26.8335 25.979 26.769 25.9009 26.7231 25.8091C26.6782 25.7163 26.6558 25.6113 26.6558 25.4941C26.6558 25.3789 26.6782 25.272 26.7231 25.1733C26.769 25.0747 26.8364 24.9893 26.9253 24.917C27.0142 24.8438 27.1245 24.7866 27.2563 24.7456C27.3882 24.7036 27.541 24.6826 27.7148 24.6826C27.8838 24.6826 28.0381 24.7041 28.1777 24.7471C28.3174 24.79 28.437 24.8569 28.5366 24.9478C28.6362 25.0386 28.7134 25.1543 28.7681 25.2949C28.8237 25.4346 28.8516 25.6016 28.8516 25.7959C28.8516 26.0039 28.8203 26.1855 28.7578 26.3408C28.6963 26.4951 28.6113 26.6235 28.5029 26.7261C28.3955 26.8286 28.2686 26.9053 28.1221 26.9561C27.9756 27.0068 27.8174 27.0322 27.6475 27.0322C27.5762 27.0322 27.502 27.0278 27.4248 27.019C27.3486 27.0103 27.2729 26.9971 27.1978 26.9795C27.1226 26.9619 27.0498 26.9399 26.9795 26.9136C26.9102 26.8872 26.8467 26.8569 26.7891 26.8228L26.9956 26.4712ZM27.1201 25.4868C27.1201 25.5347 27.1304 25.5796 27.1509 25.6216C27.1714 25.6636 27.2031 25.7002 27.2461 25.7314C27.29 25.7617 27.3462 25.7861 27.4146 25.8047C27.4829 25.8223 27.5654 25.8311 27.6621 25.8311C27.7432 25.8311 27.8198 25.8247 27.8921 25.812C27.9644 25.7993 28.0312 25.7817 28.0928 25.7593C28.1543 25.7368 28.21 25.7104 28.2598 25.6802C28.3105 25.6499 28.354 25.6167 28.3901 25.5806C28.3667 25.4204 28.2964 25.2998 28.1792 25.2188C28.062 25.1367 27.9082 25.0957 27.7178 25.0957C27.6221 25.0957 27.5371 25.1055 27.4629 25.125C27.3887 25.1445 27.3262 25.1719 27.2754 25.207C27.2246 25.2412 27.186 25.2822 27.1597 25.3301C27.1333 25.3779 27.1201 25.4302 27.1201 25.4868ZM29.3218 25.8501C29.3218 25.6655 29.3496 25.5 29.4053 25.3535C29.4609 25.207 29.54 25.083 29.6426 24.9814C29.7451 24.8789 29.8696 24.8008 30.0161 24.7471C30.1626 24.6934 30.3267 24.6665 30.5083 24.6665C30.6899 24.6665 30.854 24.6934 31.0005 24.7471C31.147 24.8008 31.2715 24.8789 31.374 24.9814C31.4766 25.083 31.5557 25.207 31.6113 25.3535C31.667 25.5 31.6948 25.6655 31.6948 25.8501C31.6948 26.0347 31.667 26.2002 31.6113 26.3467C31.5557 26.4932 31.4766 26.6172 31.374 26.7188C31.2715 26.8203 31.147 26.8979 31.0005 26.9517C30.854 27.0054 30.6899 27.0322 30.5083 27.0322C30.3267 27.0322 30.1626 27.0054 30.0161 26.9517C29.8696 26.8979 29.7451 26.8203 29.6426 26.7188C29.54 26.6172 29.4609 26.4932 29.4053 26.3467C29.3496 26.2002 29.3218 26.0347 29.3218 25.8501ZM29.7861 25.8486C29.7861 25.9736 29.8027 26.084 29.8359 26.1797C29.8701 26.2754 29.9185 26.356 29.981 26.4214C30.0435 26.4858 30.1191 26.5352 30.208 26.5693C30.2969 26.6025 30.397 26.6191 30.5083 26.6191C30.6196 26.6191 30.7197 26.6025 30.8086 26.5693C30.8975 26.5352 30.9731 26.4858 31.0356 26.4214C31.0981 26.356 31.146 26.2754 31.1792 26.1797C31.2134 26.084 31.2305 25.9736 31.2305 25.8486C31.2305 25.7246 31.2134 25.6152 31.1792 25.5205C31.146 25.4248 31.0981 25.3442 31.0356 25.2788C30.9731 25.2134 30.8975 25.1641 30.8086 25.1309C30.7197 25.0967 30.6196 25.0796 30.5083 25.0796C30.397 25.0796 30.2969 25.0967 30.208 25.1309C30.1191 25.1641 30.0435 25.2134 29.981 25.2788C29.9185 25.3442 29.8701 25.4248 29.8359 25.5205C29.8027 25.6152 29.7861 25.7246 29.7861 25.8486ZM34.4751 24.4072H34.8955L33.5347 27.5186H33.1143L34.4751 24.4072ZM35.4126 25.2715H35.8462V25.418C35.9546 25.3516 36.0601 25.3057 36.1626 25.2803C36.2661 25.2539 36.3672 25.2407 36.4658 25.2407C36.6035 25.2407 36.73 25.2627 36.8452 25.3066C36.9604 25.3506 37.0591 25.417 37.1411 25.5059C37.2046 25.457 37.2671 25.416 37.3286 25.3828C37.3901 25.3486 37.4517 25.3213 37.5132 25.3008C37.5747 25.2793 37.6372 25.2642 37.7007 25.2554C37.7642 25.2456 37.8296 25.2407 37.897 25.2407C38.0386 25.2407 38.167 25.2603 38.2822 25.2993C38.3975 25.3374 38.4956 25.3945 38.5767 25.4707C38.6587 25.5469 38.7217 25.6421 38.7656 25.7563C38.8105 25.8696 38.833 26.001 38.833 26.1504V27H38.4009V26.2207C38.4009 26.126 38.3872 26.0415 38.3599 25.9673C38.3335 25.8921 38.2959 25.8291 38.2471 25.7783C38.1992 25.7266 38.1416 25.6875 38.0742 25.6611C38.0078 25.6338 37.9346 25.6201 37.8545 25.6201C37.8105 25.6201 37.7656 25.6245 37.7197 25.6333C37.6738 25.6411 37.6289 25.6538 37.585 25.6714C37.542 25.689 37.5015 25.7114 37.4634 25.7388C37.4253 25.7651 37.3921 25.7964 37.3638 25.8325V27H36.9316V26.2207C36.9316 26.126 36.918 26.0415 36.8906 25.9673C36.8643 25.8921 36.8267 25.8291 36.7778 25.7783C36.73 25.7266 36.6719 25.6875 36.6035 25.6611C36.5361 25.6338 36.4619 25.6201 36.3809 25.6201C36.3311 25.6201 36.2808 25.6255 36.23 25.6362C36.1802 25.646 36.1318 25.6602 36.085 25.6787C36.0391 25.6973 35.9956 25.7197 35.9546 25.7461C35.9146 25.7725 35.8784 25.8022 35.8462 25.8354V27H35.4126V25.2715ZM39.2974 26.1299C39.2974 26.0127 39.3213 25.9009 39.3691 25.7944C39.417 25.687 39.4858 25.5923 39.5757 25.5103C39.6655 25.4282 39.7754 25.3628 39.9053 25.314C40.0361 25.2651 40.1846 25.2407 40.3506 25.2407C40.5156 25.2407 40.6641 25.2656 40.7959 25.3154C40.9287 25.3643 41.041 25.4316 41.1328 25.5176C41.2256 25.6035 41.2964 25.7046 41.3452 25.8208C41.395 25.937 41.4199 26.0615 41.4199 26.1943C41.4199 26.2109 41.4194 26.229 41.4185 26.2485C41.4185 26.2671 41.4175 26.2842 41.4155 26.2998H39.7808C39.7993 26.3516 39.8291 26.3989 39.8701 26.4419C39.9121 26.4849 39.9644 26.522 40.0269 26.5532C40.0894 26.5845 40.1616 26.6089 40.2437 26.6265C40.3257 26.6431 40.4165 26.6514 40.5161 26.6514C40.6157 26.6514 40.7148 26.6411 40.8135 26.6206C40.9121 26.5991 41.0063 26.5723 41.0962 26.54L41.2427 26.8711C41.186 26.8975 41.1284 26.9209 41.0698 26.9414C41.0122 26.9609 40.9517 26.9775 40.8882 26.9912C40.8257 27.0039 40.7598 27.0137 40.6904 27.0205C40.6221 27.0273 40.5498 27.0308 40.4736 27.0308C40.2793 27.0308 40.1089 27.0073 39.9624 26.9604C39.8159 26.9136 39.6934 26.8496 39.5947 26.7686C39.4961 26.6875 39.4219 26.5923 39.3721 26.4829C39.3223 26.3735 39.2974 26.2559 39.2974 26.1299ZM40.96 25.9614C40.9443 25.9136 40.9199 25.8691 40.8867 25.8281C40.8545 25.7861 40.814 25.75 40.7651 25.7197C40.7163 25.6885 40.6597 25.6641 40.5952 25.6465C40.5308 25.6289 40.46 25.6201 40.3828 25.6201C40.3008 25.6201 40.2261 25.6294 40.1587 25.6479C40.0913 25.6665 40.0322 25.6914 39.9814 25.7227C39.9307 25.7539 39.8882 25.79 39.854 25.8311C39.8208 25.8721 39.7964 25.9155 39.7808 25.9614H40.96ZM39.668 24.7515L40.3579 24.2314L41.0479 24.7515L40.8428 25.021L40.3579 24.6548L39.873 25.021L39.668 24.7515ZM41.9561 26.4697C42.0732 26.54 42.2021 26.5918 42.3428 26.625C42.4834 26.6582 42.6274 26.6748 42.7749 26.6748C42.8745 26.6748 42.9575 26.668 43.0239 26.6543C43.0903 26.6406 43.1436 26.623 43.1836 26.6016C43.2236 26.5801 43.252 26.5557 43.2686 26.5283C43.2852 26.501 43.2935 26.4731 43.2935 26.4448C43.2935 26.4038 43.2754 26.3687 43.2393 26.3394C43.2041 26.3101 43.1455 26.2954 43.0635 26.2954C43.0254 26.2954 42.9844 26.2979 42.9404 26.3027C42.8965 26.3076 42.8501 26.313 42.8013 26.3188C42.7534 26.3237 42.7031 26.3286 42.6504 26.3335C42.5986 26.3384 42.5459 26.3408 42.4922 26.3408C42.375 26.3408 42.2749 26.3281 42.1919 26.3027C42.1099 26.2773 42.043 26.2427 41.9912 26.1987C41.9395 26.1548 41.9019 26.103 41.8784 26.0435C41.855 25.9829 41.8433 25.918 41.8433 25.8486C41.8433 25.7607 41.8638 25.6797 41.9048 25.6055C41.9458 25.5312 42.0044 25.4673 42.0806 25.4136C42.1567 25.3589 42.2485 25.3164 42.356 25.2861C42.4644 25.2559 42.585 25.2407 42.7178 25.2407C42.7871 25.2407 42.8594 25.2451 42.9346 25.2539C43.0107 25.2617 43.0854 25.2725 43.1587 25.2861C43.2319 25.2998 43.3022 25.3159 43.3696 25.3345C43.437 25.3521 43.4966 25.3711 43.5483 25.3916L43.4121 25.7285C43.3018 25.6875 43.1914 25.6553 43.0811 25.6318C42.9717 25.6074 42.8589 25.5952 42.7427 25.5952C42.6616 25.5952 42.5928 25.6016 42.5361 25.6143C42.4805 25.626 42.4351 25.6421 42.3999 25.6626C42.3647 25.6821 42.3389 25.7051 42.3223 25.7314C42.3066 25.7568 42.2988 25.7837 42.2988 25.812C42.2988 25.8325 42.3027 25.8511 42.3105 25.8677C42.3193 25.8843 42.333 25.8989 42.3516 25.9116C42.3711 25.9233 42.396 25.9326 42.4263 25.9395C42.4575 25.9453 42.4956 25.9482 42.5405 25.9482C42.5815 25.9482 42.625 25.9458 42.6709 25.9409C42.7168 25.936 42.7646 25.9312 42.8145 25.9263C42.8643 25.9204 42.9155 25.915 42.9683 25.9102C43.022 25.9053 43.0767 25.9028 43.1323 25.9028C43.2358 25.9028 43.3262 25.915 43.4033 25.9395C43.4814 25.9639 43.5459 25.998 43.5967 26.042C43.6475 26.0859 43.6855 26.1377 43.7109 26.1973C43.7363 26.2568 43.749 26.3218 43.749 26.3921C43.749 26.4829 43.728 26.5674 43.686 26.6455C43.644 26.7236 43.5815 26.7915 43.4985 26.8491C43.4155 26.9058 43.312 26.9502 43.188 26.9824C43.0649 27.0146 42.9224 27.0308 42.7603 27.0308C42.6606 27.0308 42.5645 27.0244 42.4717 27.0117C42.3789 27 42.2905 26.9839 42.2065 26.9634C42.1226 26.9419 42.0435 26.917 41.9692 26.8887C41.896 26.8604 41.8291 26.8301 41.7686 26.7979L41.9561 26.4697Z" fill="white"/>
<defs>
<filter id="filter0_dd_8_27" x="0.699997" y="2.7" width="52.6" height="31.6" filterUnits="userSpaceOnUse" color-interpolation-filters="sRGB">
<feFlood flood-opacity="0" result="BackgroundImageFix"/>
<feColorMatrix in="SourceAlpha" type="matrix" values="0 0 0 0 0 0 0 0 0 0 0 0 0 0 0 0 0 0 127 0" result="hardAlpha"/>
<feOffset dy="4"/>
<feGaussianBlur stdDeviation="2"/>
<feComposite in2="hardAlpha" operator="out"/>
<feColorMatrix type="matrix" values="0 0 0 0 0 0 0 0 0 0 0 0 0 0 0 0 0 0 0.25 0"/>
<feBlend mode="normal" in2="BackgroundImageFix" result="effect1_dropShadow_8_27"/>
<feColorMatrix in="SourceAlpha" type="matrix" values="0 0 0 0 0 0 0 0 0 0 0 0 0 0 0 0 0 0 127 0" result="hardAlpha"/>
<feOffset dy="4"/>
<feGaussianBlur stdDeviation="2"/>
<feComposite in2="hardAlpha" operator="out"/>
<feColorMatrix type="matrix" values="0 0 0 0 0 0 0 0 0 0 0 0 0 0 0 0 0 0 0.25 0"/>
<feBlend mode="normal" in2="effect1_dropShadow_8_27" result="effect2_dropShadow_8_27"/>
<feBlend mode="normal" in="SourceGraphic" in2="effect2_dropShadow_8_27" result="shape"/>
</filter>
</defs>
</svg>
