<svg width="54" height="35" viewBox="0 0 54 35" fill="none" xmlns="http://www.w3.org/2000/svg">
<rect x="6.99959" y="23" width="39.9929" height="6" rx="2" fill="#D1540E"/>
<g filter="url(#filter0_dd_31_2)">
<path fill-rule="evenodd" clip-rule="evenodd" d="M14.8615 2.7H11.996H9.99602C7.06891 2.7 4.69602 5.07289 4.69602 8V21C4.69602 23.9271 7.06891 26.3 9.99602 26.3H43.9961C46.9232 26.3 49.2961 23.9271 49.2961 21V8C49.2961 5.07289 46.9232 2.7 43.9961 2.7H37.5521V3H43.9961C46.7575 3 48.9961 5.23857 48.9961 8V21C48.9961 23.7614 46.7575 26 43.9961 26H9.99602C7.23459 26 4.99602 23.7614 4.99602 21V8C4.99602 5.23857 7.23459 3 9.99602 3H11.996H14.8615V2.7Z" fill="#D1540E"/>
</g>
<path d="M12.2518 17.0996H14.6785V10.4482C14.3595 10.5212 14.0519 10.6169 13.7557 10.7354C13.464 10.8538 13.1974 10.9974 12.9559 11.166L11.8895 9.6416C12.2814 9.39551 12.6802 9.18815 13.0858 9.01953C13.4959 8.84635 13.9084 8.70964 14.3231 8.60938C14.7423 8.50456 15.1616 8.42936 15.5809 8.38379C16.0047 8.33822 16.4263 8.31543 16.8455 8.31543L16.8387 8.3291H16.8455V17.0996H19.1629V19H12.2518V17.0996ZM20.8172 17.1406L24.5838 14.5566C25.1489 14.1693 25.6115 13.832 25.9715 13.5449C26.3315 13.2578 26.6141 13.0026 26.8192 12.7793C27.0242 12.5514 27.1655 12.3464 27.243 12.1641C27.3205 11.9818 27.3592 11.7995 27.3592 11.6172C27.3592 11.4076 27.3159 11.2116 27.2293 11.0293C27.1427 10.847 27.006 10.6875 26.8192 10.5508C26.6369 10.4141 26.3999 10.307 26.1082 10.2295C25.8211 10.152 25.477 10.1133 25.076 10.1133C24.4927 10.1133 23.9116 10.1953 23.3328 10.3594C22.7541 10.5234 22.1639 10.7855 21.5623 11.1455L20.5643 9.50488C21.2342 9.09017 21.9588 8.7666 22.7381 8.53418C23.522 8.30176 24.3446 8.18555 25.2059 8.18555C25.9578 8.18555 26.6095 8.27669 27.161 8.45898C27.717 8.63672 28.175 8.88053 28.535 9.19043C28.8996 9.50033 29.1707 9.86035 29.3485 10.2705C29.5262 10.6807 29.6151 11.1159 29.6151 11.5762C29.6151 11.9316 29.5558 12.2712 29.4373 12.5947C29.3188 12.9183 29.1115 13.2533 28.8153 13.5996C28.519 13.946 28.118 14.3197 27.6121 14.7207C27.1108 15.1172 26.4774 15.5684 25.7117 16.0742L24.1532 17.0996H30.0047V19H20.8172V17.1406ZM31.8846 13.6338C31.8846 12.7725 32.0145 12 32.2742 11.3164C32.534 10.6328 32.9032 10.054 33.3817 9.58008C33.8602 9.10156 34.4412 8.73698 35.1248 8.48633C35.8084 8.23568 36.5741 8.11035 37.4217 8.11035C38.2694 8.11035 39.035 8.23568 39.7186 8.48633C40.4022 8.73698 40.9832 9.10156 41.4617 9.58008C41.9403 10.054 42.3094 10.6328 42.5692 11.3164C42.8289 12 42.9588 12.7725 42.9588 13.6338C42.9588 14.4951 42.8289 15.2676 42.5692 15.9512C42.3094 16.6348 41.9403 17.2135 41.4617 17.6875C40.9832 18.1615 40.4022 18.5238 39.7186 18.7744C39.035 19.0251 38.2694 19.1504 37.4217 19.1504C36.5741 19.1504 35.8084 19.0251 35.1248 18.7744C34.4412 18.5238 33.8602 18.1615 33.3817 17.6875C32.9032 17.2135 32.534 16.6348 32.2742 15.9512C32.0145 15.2676 31.8846 14.4951 31.8846 13.6338ZM34.0516 13.627C34.0516 14.2103 34.1291 14.7253 34.284 15.1719C34.4435 15.6185 34.6691 15.9945 34.9608 16.2998C35.2524 16.6006 35.6056 16.8307 36.0203 16.9902C36.4351 17.1452 36.9022 17.2227 37.4217 17.2227C37.9412 17.2227 38.4084 17.1452 38.8231 16.9902C39.2378 16.8307 39.591 16.6006 39.8826 16.2998C40.1743 15.9945 40.3976 15.6185 40.5526 15.1719C40.7121 14.7253 40.7918 14.2103 40.7918 13.627C40.7918 13.0482 40.7121 12.5378 40.5526 12.0957C40.3976 11.6491 40.1743 11.2731 39.8826 10.9678C39.591 10.6624 39.2378 10.4323 38.8231 10.2773C38.4084 10.1178 37.9412 10.0381 37.4217 10.0381C36.9022 10.0381 36.4351 10.1178 36.0203 10.2773C35.6056 10.4323 35.2524 10.6624 34.9608 10.9678C34.6691 11.2731 34.4435 11.6491 34.284 12.0957C34.1291 12.5378 34.0516 13.0482 34.0516 13.627Z" fill="white"/>
<path d="M11.3006 24.9736H12.077C12.1942 24.9736 12.2957 24.986 12.3817 25.0107C12.4676 25.0348 12.5389 25.07 12.5956 25.1162C12.6522 25.1624 12.6942 25.2188 12.7215 25.2852C12.7495 25.3516 12.7635 25.4268 12.7635 25.5107C12.7635 25.5674 12.7567 25.6214 12.743 25.6729C12.7293 25.7236 12.7082 25.7705 12.6795 25.8135C12.6515 25.8564 12.6161 25.8949 12.5731 25.9287C12.5301 25.9619 12.4797 25.9896 12.4217 26.0117L12.7538 26.5H12.3749L12.0877 26.0664H12.079L11.6102 26.0654V26.5H11.3006V24.9736ZM12.0848 25.7979C12.1434 25.7979 12.1945 25.791 12.2381 25.7773C12.2824 25.7637 12.3192 25.7445 12.3485 25.7197C12.3784 25.695 12.4006 25.665 12.4149 25.6299C12.4299 25.5941 12.4374 25.5544 12.4374 25.5107C12.4374 25.4255 12.4081 25.3597 12.3495 25.3135C12.2909 25.2666 12.2027 25.2432 12.0848 25.2432H11.6102V25.7979H12.0848ZM13.202 26.0459C13.2489 26.0726 13.2961 26.097 13.3436 26.1191C13.3911 26.1406 13.44 26.1598 13.4901 26.1768C13.5409 26.193 13.593 26.207 13.6463 26.2188C13.7004 26.2298 13.7573 26.2376 13.8172 26.2422V25.8574C13.784 25.8613 13.7521 25.8646 13.7215 25.8672C13.6909 25.8698 13.6613 25.8711 13.6327 25.8711C13.5643 25.8711 13.4985 25.8623 13.4354 25.8447C13.3729 25.8271 13.3172 25.8008 13.2684 25.7656C13.2202 25.7305 13.1818 25.6865 13.1532 25.6338C13.1245 25.5811 13.1102 25.5195 13.1102 25.4492C13.1102 25.3893 13.1226 25.3304 13.1473 25.2725C13.1727 25.2139 13.2134 25.1615 13.2694 25.1152C13.326 25.0684 13.3993 25.0296 13.4891 24.999C13.579 24.9684 13.6883 24.9508 13.8172 24.9463V24.6504H14.0487V24.9521C14.1574 24.9619 14.2616 24.9798 14.3612 25.0059C14.4614 25.0319 14.5532 25.0635 14.6366 25.1006L14.5008 25.3506C14.4357 25.3226 14.3654 25.2979 14.2899 25.2764C14.2144 25.2549 14.134 25.2393 14.0487 25.2295V25.54C14.0799 25.5368 14.1112 25.5342 14.1424 25.5322C14.1737 25.5296 14.2043 25.5283 14.2342 25.5283C14.3241 25.5283 14.4035 25.5384 14.4725 25.5586C14.5422 25.5788 14.6004 25.6077 14.6473 25.6455C14.6942 25.6826 14.7297 25.7279 14.7538 25.7812C14.7778 25.834 14.7899 25.8932 14.7899 25.959C14.7899 26.0404 14.7723 26.1139 14.7372 26.1797C14.7027 26.2448 14.6532 26.3011 14.5887 26.3486C14.5249 26.3962 14.4471 26.4342 14.3553 26.4629C14.2642 26.4915 14.162 26.5098 14.0487 26.5176V26.8145H13.8172V26.5186C13.6662 26.5094 13.5243 26.4854 13.3915 26.4463C13.2593 26.4066 13.1411 26.3568 13.037 26.2969L13.202 26.0459ZM13.4344 25.4199C13.4344 25.4655 13.4549 25.5029 13.4959 25.5322C13.537 25.5609 13.5995 25.5752 13.6834 25.5752C13.7023 25.5752 13.7232 25.5745 13.7459 25.5732C13.7687 25.5713 13.7925 25.569 13.8172 25.5664V25.2207C13.7437 25.2233 13.6821 25.2311 13.6327 25.2441C13.5838 25.2572 13.5448 25.2731 13.5155 25.292C13.4862 25.3109 13.4653 25.3317 13.453 25.3545C13.4406 25.3766 13.4344 25.3984 13.4344 25.4199ZM14.0487 26.2441C14.1229 26.2396 14.1864 26.2301 14.2391 26.2158C14.2918 26.2015 14.3348 26.1836 14.368 26.1621C14.4019 26.14 14.4263 26.1149 14.4413 26.0869C14.4569 26.0589 14.4647 26.0293 14.4647 25.998C14.4647 25.9427 14.4416 25.8991 14.3954 25.8672C14.3491 25.8346 14.2778 25.8184 14.1815 25.8184C14.1607 25.8184 14.1388 25.8193 14.1161 25.8213C14.0939 25.8226 14.0715 25.8245 14.0487 25.8271V26.2441Z" fill="white"/>
<path d="M18.005 27.2597C18.0638 27.2938 18.1294 27.3239 18.2019 27.3499C18.2743 27.3759 18.3488 27.3978 18.4254 27.4155C18.5033 27.4319 18.5813 27.4449 18.6592 27.4545C18.7385 27.4627 18.8137 27.4668 18.8848 27.4668C19.0434 27.4668 19.1862 27.4463 19.3134 27.4053C19.4419 27.3643 19.5527 27.3062 19.6456 27.231C19.7386 27.1558 19.8124 27.0662 19.8671 26.9623C19.9232 26.857 19.958 26.7408 19.9717 26.6137C19.9006 26.6697 19.822 26.7183 19.7359 26.7593C19.6497 26.8003 19.5581 26.8345 19.4611 26.8618C19.3654 26.8878 19.2662 26.9076 19.1637 26.9213C19.0625 26.9336 18.9607 26.9397 18.8581 26.9397C18.6585 26.9397 18.4767 26.9158 18.3126 26.868C18.1499 26.8201 18.0105 26.7511 17.8943 26.6608C17.778 26.5706 17.6878 26.4612 17.6236 26.3327C17.5607 26.2028 17.5292 26.0559 17.5292 25.8918C17.5292 25.7305 17.5607 25.5808 17.6236 25.4427C17.6878 25.3046 17.7821 25.185 17.9066 25.0838C18.031 24.9813 18.1855 24.9013 18.37 24.8438C18.5546 24.7851 18.7686 24.7557 19.0119 24.7557C19.2485 24.7557 19.4645 24.7857 19.66 24.8459C19.8555 24.9061 20.023 24.9997 20.1624 25.1269C20.3019 25.254 20.4099 25.416 20.4864 25.6129C20.5644 25.8084 20.6033 26.0422 20.6033 26.3143C20.6033 26.6055 20.5596 26.8598 20.4721 27.0771C20.386 27.2932 20.267 27.4729 20.1153 27.6165C19.9649 27.7601 19.7871 27.8674 19.582 27.9385C19.377 28.0096 19.1555 28.0451 18.9176 28.0451C18.8178 28.0451 18.7139 28.039 18.6059 28.0267C18.4992 28.0144 18.3933 27.9959 18.288 27.9713C18.1827 27.9467 18.0809 27.9159 17.9824 27.879C17.8854 27.8421 17.7965 27.7997 17.7158 27.7519L18.005 27.2597ZM18.1793 25.8815C18.1793 25.9485 18.1937 26.0114 18.2224 26.0702C18.2511 26.129 18.2955 26.1803 18.3557 26.224C18.4172 26.2664 18.4958 26.3006 18.5915 26.3266C18.6872 26.3512 18.8028 26.3635 18.9381 26.3635C19.0516 26.3635 19.1589 26.3546 19.2601 26.3368C19.3612 26.319 19.4549 26.2944 19.541 26.263C19.6272 26.2315 19.7051 26.1946 19.7748 26.1522C19.8459 26.1099 19.9068 26.0634 19.9573 26.0128C19.9245 25.7886 19.8261 25.6197 19.662 25.5063C19.498 25.3914 19.2826 25.334 19.016 25.334C18.882 25.334 18.7631 25.3477 18.6592 25.375C18.5553 25.4023 18.4678 25.4406 18.3967 25.4898C18.3256 25.5377 18.2716 25.5951 18.2347 25.6621C18.1978 25.7291 18.1793 25.8022 18.1793 25.8815ZM21.8482 27.2597C21.907 27.2938 21.9726 27.3239 22.045 27.3499C22.1175 27.3759 22.192 27.3978 22.2686 27.4155C22.3465 27.4319 22.4244 27.4449 22.5024 27.4545C22.5817 27.4627 22.6569 27.4668 22.7279 27.4668C22.8865 27.4668 23.0294 27.4463 23.1566 27.4053C23.2851 27.3643 23.3958 27.3062 23.4888 27.231C23.5818 27.1558 23.6556 27.0662 23.7103 26.9623C23.7663 26.857 23.8012 26.7408 23.8149 26.6137C23.7438 26.6697 23.6652 26.7183 23.579 26.7593C23.4929 26.8003 23.4013 26.8345 23.3042 26.8618C23.2085 26.8878 23.1094 26.9076 23.0069 26.9213C22.9057 26.9336 22.8038 26.9397 22.7013 26.9397C22.5017 26.9397 22.3198 26.9158 22.1558 26.868C21.9931 26.8201 21.8536 26.7511 21.7374 26.6608C21.6212 26.5706 21.531 26.4612 21.4667 26.3327C21.4038 26.2028 21.3724 26.0559 21.3724 25.8918C21.3724 25.7305 21.4038 25.5808 21.4667 25.4427C21.531 25.3046 21.6253 25.185 21.7497 25.0838C21.8741 24.9813 22.0286 24.9013 22.2132 24.8438C22.3978 24.7851 22.6117 24.7557 22.8551 24.7557C23.0916 24.7557 23.3076 24.7857 23.5031 24.8459C23.6987 24.9061 23.8661 24.9997 24.0056 25.1269C24.145 25.254 24.253 25.416 24.3296 25.6129C24.4075 25.8084 24.4465 26.0422 24.4465 26.3143C24.4465 26.6055 24.4028 26.8598 24.3153 27.0771C24.2291 27.2932 24.1102 27.4729 23.9584 27.6165C23.808 27.7601 23.6303 27.8674 23.4252 27.9385C23.2201 28.0096 22.9987 28.0451 22.7608 28.0451C22.661 28.0451 22.557 28.039 22.449 28.0267C22.3424 28.0144 22.2364 27.9959 22.1312 27.9713C22.0259 27.9467 21.924 27.9159 21.8256 27.879C21.7285 27.8421 21.6397 27.7997 21.559 27.7519L21.8482 27.2597ZM22.0225 25.8815C22.0225 25.9485 22.0368 26.0114 22.0655 26.0702C22.0943 26.129 22.1387 26.1803 22.1988 26.224C22.2604 26.2664 22.339 26.3006 22.4347 26.3266C22.5304 26.3512 22.6459 26.3635 22.7813 26.3635C22.8947 26.3635 23.0021 26.3546 23.1032 26.3368C23.2044 26.319 23.2981 26.2944 23.3842 26.263C23.4703 26.2315 23.5483 26.1946 23.618 26.1522C23.6891 26.1099 23.7499 26.0634 23.8005 26.0128C23.7677 25.7886 23.6693 25.6197 23.5052 25.5063C23.3411 25.3914 23.1258 25.334 22.8592 25.334C22.7252 25.334 22.6063 25.3477 22.5024 25.375C22.3985 25.4023 22.311 25.4406 22.2399 25.4898C22.1688 25.5377 22.1148 25.5951 22.0779 25.6621C22.0409 25.7291 22.0225 25.8022 22.0225 25.8815Z" fill="white"/>
<path d="M25.4053 26.7451C25.4053 26.7061 25.4136 26.6694 25.4302 26.6353C25.4468 26.6011 25.4698 26.5713 25.4991 26.5459C25.5293 26.5195 25.5655 26.499 25.6075 26.4844C25.6504 26.4697 25.6983 26.4624 25.751 26.4624C25.8077 26.4624 25.8594 26.4717 25.9063 26.4902C25.9541 26.5078 25.9952 26.5337 26.0293 26.5679C26.0635 26.6021 26.0899 26.644 26.1084 26.6938C26.128 26.7427 26.1377 26.7979 26.1377 26.8594C26.1377 26.998 26.0899 27.1309 25.9942 27.2578C25.8995 27.3857 25.7613 27.499 25.5796 27.5977L25.4039 27.3486C25.4517 27.3232 25.4937 27.2979 25.5298 27.2725C25.566 27.248 25.5977 27.2231 25.625 27.1978C25.6524 27.1724 25.6758 27.146 25.6954 27.1187C25.7159 27.0913 25.7339 27.062 25.7496 27.0308C25.6978 27.0308 25.6504 27.0229 25.6075 27.0073C25.5655 26.9927 25.5293 26.9727 25.4991 26.9473C25.4688 26.9219 25.4454 26.8921 25.4288 26.8579C25.4131 26.8228 25.4053 26.7852 25.4053 26.7451ZM26.9903 26.4712C27.0323 26.4956 27.0791 26.5171 27.1309 26.5356C27.1827 26.5542 27.2359 26.5698 27.2906 26.5825C27.3462 26.5942 27.4019 26.6035 27.4576 26.6104C27.5142 26.6162 27.5679 26.6191 27.6187 26.6191C27.732 26.6191 27.834 26.6045 27.9249 26.5752C28.0166 26.5459 28.0957 26.5044 28.1622 26.4507C28.2286 26.397 28.2813 26.333 28.3204 26.2588C28.3604 26.1836 28.3853 26.1006 28.3951 26.0098C28.3443 26.0498 28.2881 26.0845 28.2266 26.1138C28.1651 26.1431 28.0997 26.1675 28.0303 26.187C27.962 26.2056 27.8912 26.2197 27.8179 26.2295C27.7457 26.2383 27.6729 26.2427 27.5997 26.2427C27.4571 26.2427 27.3272 26.2256 27.21 26.1914C27.0938 26.1572 26.9942 26.1079 26.9112 26.0435C26.8282 25.979 26.7637 25.9009 26.7178 25.8091C26.6729 25.7163 26.6504 25.6113 26.6504 25.4941C26.6504 25.3789 26.6729 25.272 26.7178 25.1733C26.7637 25.0747 26.8311 24.9893 26.92 24.917C27.0088 24.8438 27.1192 24.7866 27.251 24.7456C27.3829 24.7036 27.5357 24.6826 27.7095 24.6826C27.8785 24.6826 28.0328 24.7041 28.1724 24.7471C28.3121 24.79 28.4317 24.8569 28.5313 24.9478C28.6309 25.0386 28.7081 25.1543 28.7627 25.2949C28.8184 25.4346 28.8462 25.6016 28.8462 25.7959C28.8462 26.0039 28.815 26.1855 28.7525 26.3408C28.691 26.4951 28.606 26.6235 28.4976 26.7261C28.3902 26.8286 28.2632 26.9053 28.1167 26.9561C27.9703 27.0068 27.8121 27.0322 27.6421 27.0322C27.5708 27.0322 27.4966 27.0278 27.4195 27.019C27.3433 27.0103 27.2676 26.9971 27.1924 26.9795C27.1172 26.9619 27.0445 26.9399 26.9742 26.9136C26.9048 26.8872 26.8414 26.8569 26.7837 26.8228L26.9903 26.4712ZM27.1148 25.4868C27.1148 25.5347 27.125 25.5796 27.1456 25.6216C27.1661 25.6636 27.1978 25.7002 27.2408 25.7314C27.2847 25.7617 27.3409 25.7861 27.4092 25.8047C27.4776 25.8223 27.5601 25.8311 27.6568 25.8311C27.7378 25.8311 27.8145 25.8247 27.8868 25.812C27.959 25.7993 28.0259 25.7817 28.0874 25.7593C28.149 25.7368 28.2046 25.7104 28.2544 25.6802C28.3052 25.6499 28.3487 25.6167 28.3848 25.5806C28.3614 25.4204 28.2911 25.2998 28.1739 25.2188C28.0567 25.1367 27.9029 25.0957 27.7124 25.0957C27.6167 25.0957 27.5318 25.1055 27.4576 25.125C27.3833 25.1445 27.3208 25.1719 27.2701 25.207C27.2193 25.2412 27.1807 25.2822 27.1543 25.3301C27.128 25.3779 27.1148 25.4302 27.1148 25.4868ZM29.3165 25.8501C29.3165 25.6655 29.3443 25.5 29.3999 25.3535C29.4556 25.207 29.5347 25.083 29.6373 24.9814C29.7398 24.8789 29.8643 24.8008 30.0108 24.7471C30.1573 24.6934 30.3213 24.6665 30.503 24.6665C30.6846 24.6665 30.8487 24.6934 30.9952 24.7471C31.1416 24.8008 31.2662 24.8789 31.3687 24.9814C31.4712 25.083 31.5503 25.207 31.606 25.3535C31.6617 25.5 31.6895 25.6655 31.6895 25.8501C31.6895 26.0347 31.6617 26.2002 31.606 26.3467C31.5503 26.4932 31.4712 26.6172 31.3687 26.7188C31.2662 26.8203 31.1416 26.8979 30.9952 26.9517C30.8487 27.0054 30.6846 27.0322 30.503 27.0322C30.3213 27.0322 30.1573 27.0054 30.0108 26.9517C29.8643 26.8979 29.7398 26.8203 29.6373 26.7188C29.5347 26.6172 29.4556 26.4932 29.3999 26.3467C29.3443 26.2002 29.3165 26.0347 29.3165 25.8501ZM29.7808 25.8486C29.7808 25.9736 29.7974 26.084 29.8306 26.1797C29.8648 26.2754 29.9131 26.356 29.9756 26.4214C30.0381 26.4858 30.1138 26.5352 30.2027 26.5693C30.2915 26.6025 30.3916 26.6191 30.503 26.6191C30.6143 26.6191 30.7144 26.6025 30.8033 26.5693C30.8921 26.5352 30.9678 26.4858 31.0303 26.4214C31.0928 26.356 31.1407 26.2754 31.1739 26.1797C31.2081 26.084 31.2251 25.9736 31.2251 25.8486C31.2251 25.7246 31.2081 25.6152 31.1739 25.5205C31.1407 25.4248 31.0928 25.3442 31.0303 25.2788C30.9678 25.2134 30.8921 25.1641 30.8033 25.1309C30.7144 25.0967 30.6143 25.0796 30.503 25.0796C30.3916 25.0796 30.2915 25.0967 30.2027 25.1309C30.1138 25.1641 30.0381 25.2134 29.9756 25.2788C29.9131 25.3442 29.8648 25.4248 29.8306 25.5205C29.7974 25.6152 29.7808 25.7246 29.7808 25.8486ZM34.4698 24.4072H34.8902L33.5293 27.5186H33.1089L34.4698 24.4072ZM35.4073 25.2715H35.8409V25.418C35.9493 25.3516 36.0547 25.3057 36.1573 25.2803C36.2608 25.2539 36.3619 25.2407 36.4605 25.2407C36.5982 25.2407 36.7247 25.2627 36.8399 25.3066C36.9551 25.3506 37.0538 25.417 37.1358 25.5059C37.1993 25.457 37.2618 25.416 37.3233 25.3828C37.3848 25.3486 37.4463 25.3213 37.5079 25.3008C37.5694 25.2793 37.6319 25.2642 37.6954 25.2554C37.7588 25.2456 37.8243 25.2407 37.8916 25.2407C38.0332 25.2407 38.1617 25.2603 38.2769 25.2993C38.3921 25.3374 38.4903 25.3945 38.5713 25.4707C38.6534 25.5469 38.7164 25.6421 38.7603 25.7563C38.8052 25.8696 38.8277 26.001 38.8277 26.1504V27H38.3956V26.2207C38.3956 26.126 38.3819 26.0415 38.3545 25.9673C38.3282 25.8921 38.2906 25.8291 38.2417 25.7783C38.1939 25.7266 38.1363 25.6875 38.0689 25.6611C38.0025 25.6338 37.9292 25.6201 37.8492 25.6201C37.8052 25.6201 37.7603 25.6245 37.7144 25.6333C37.6685 25.6411 37.6236 25.6538 37.5796 25.6714C37.5367 25.689 37.4961 25.7114 37.4581 25.7388C37.42 25.7651 37.3868 25.7964 37.3584 25.8325V27H36.9263V26.2207C36.9263 26.126 36.9126 26.0415 36.8853 25.9673C36.8589 25.8921 36.8213 25.8291 36.7725 25.7783C36.7247 25.7266 36.6665 25.6875 36.5982 25.6611C36.5308 25.6338 36.4566 25.6201 36.3755 25.6201C36.3257 25.6201 36.2754 25.6255 36.2247 25.6362C36.1749 25.646 36.1265 25.6602 36.0796 25.6787C36.0337 25.6973 35.9903 25.7197 35.9493 25.7461C35.9092 25.7725 35.8731 25.8022 35.8409 25.8354V27H35.4073V25.2715ZM39.292 26.1299C39.292 26.0127 39.316 25.9009 39.3638 25.7944C39.4117 25.687 39.4805 25.5923 39.5704 25.5103C39.6602 25.4282 39.7701 25.3628 39.8999 25.314C40.0308 25.2651 40.1792 25.2407 40.3453 25.2407C40.5103 25.2407 40.6587 25.2656 40.7906 25.3154C40.9234 25.3643 41.0357 25.4316 41.1275 25.5176C41.2203 25.6035 41.2911 25.7046 41.3399 25.8208C41.3897 25.937 41.4146 26.0615 41.4146 26.1943C41.4146 26.2109 41.4141 26.229 41.4131 26.2485C41.4131 26.2671 41.4122 26.2842 41.4102 26.2998H39.7754C39.794 26.3516 39.8238 26.3989 39.8648 26.4419C39.9068 26.4849 39.959 26.522 40.0215 26.5532C40.084 26.5845 40.1563 26.6089 40.2383 26.6265C40.3204 26.6431 40.4112 26.6514 40.5108 26.6514C40.6104 26.6514 40.7095 26.6411 40.8082 26.6206C40.9068 26.5991 41.001 26.5723 41.0909 26.54L41.2374 26.8711C41.1807 26.8975 41.1231 26.9209 41.0645 26.9414C41.0069 26.9609 40.9463 26.9775 40.8829 26.9912C40.8204 27.0039 40.7544 27.0137 40.6851 27.0205C40.6167 27.0273 40.5445 27.0308 40.4683 27.0308C40.274 27.0308 40.1036 27.0073 39.9571 26.9604C39.8106 26.9136 39.688 26.8496 39.5894 26.7686C39.4908 26.6875 39.4165 26.5923 39.3667 26.4829C39.3169 26.3735 39.292 26.2559 39.292 26.1299ZM40.9546 25.9614C40.939 25.9136 40.9146 25.8691 40.8814 25.8281C40.8492 25.7861 40.8086 25.75 40.7598 25.7197C40.711 25.6885 40.6543 25.6641 40.5899 25.6465C40.5254 25.6289 40.4546 25.6201 40.3775 25.6201C40.2955 25.6201 40.2207 25.6294 40.1534 25.6479C40.086 25.6665 40.0269 25.6914 39.9761 25.7227C39.9253 25.7539 39.8829 25.79 39.8487 25.8311C39.8155 25.8721 39.7911 25.9155 39.7754 25.9614H40.9546ZM39.6626 24.7515L40.3526 24.2314L41.0425 24.7515L40.8374 25.021L40.3526 24.6548L39.8677 25.021L39.6626 24.7515ZM41.9507 26.4697C42.0679 26.54 42.1968 26.5918 42.3374 26.625C42.4781 26.6582 42.6221 26.6748 42.7696 26.6748C42.8692 26.6748 42.9522 26.668 43.0186 26.6543C43.085 26.6406 43.1382 26.623 43.1783 26.6016C43.2183 26.5801 43.2466 26.5557 43.2632 26.5283C43.2798 26.501 43.2881 26.4731 43.2881 26.4448C43.2881 26.4038 43.2701 26.3687 43.2339 26.3394C43.1988 26.3101 43.1402 26.2954 43.0582 26.2954C43.0201 26.2954 42.979 26.2979 42.9351 26.3027C42.8912 26.3076 42.8448 26.313 42.7959 26.3188C42.7481 26.3237 42.6978 26.3286 42.6451 26.3335C42.5933 26.3384 42.5406 26.3408 42.4869 26.3408C42.3697 26.3408 42.2696 26.3281 42.1866 26.3027C42.1045 26.2773 42.0376 26.2427 41.9859 26.1987C41.9341 26.1548 41.8965 26.103 41.8731 26.0435C41.8497 25.9829 41.8379 25.918 41.8379 25.8486C41.8379 25.7607 41.8584 25.6797 41.8995 25.6055C41.9405 25.5312 41.9991 25.4673 42.0752 25.4136C42.1514 25.3589 42.2432 25.3164 42.3506 25.2861C42.459 25.2559 42.5796 25.2407 42.7124 25.2407C42.7818 25.2407 42.854 25.2451 42.9292 25.2539C43.0054 25.2617 43.0801 25.2725 43.1534 25.2861C43.2266 25.2998 43.2969 25.3159 43.3643 25.3345C43.4317 25.3521 43.4913 25.3711 43.543 25.3916L43.4068 25.7285C43.2964 25.6875 43.1861 25.6553 43.0757 25.6318C42.9664 25.6074 42.8536 25.5952 42.7374 25.5952C42.6563 25.5952 42.5874 25.6016 42.5308 25.6143C42.4751 25.626 42.4297 25.6421 42.3946 25.6626C42.3594 25.6821 42.3335 25.7051 42.3169 25.7314C42.3013 25.7568 42.2935 25.7837 42.2935 25.812C42.2935 25.8325 42.2974 25.8511 42.3052 25.8677C42.314 25.8843 42.3277 25.8989 42.3462 25.9116C42.3658 25.9233 42.3907 25.9326 42.4209 25.9395C42.4522 25.9453 42.4903 25.9482 42.5352 25.9482C42.5762 25.9482 42.6197 25.9458 42.6656 25.9409C42.7115 25.936 42.7593 25.9312 42.8091 25.9263C42.8589 25.9204 42.9102 25.915 42.9629 25.9102C43.0166 25.9053 43.0713 25.9028 43.127 25.9028C43.2305 25.9028 43.3208 25.915 43.398 25.9395C43.4761 25.9639 43.5406 25.998 43.5914 26.042C43.6421 26.0859 43.6802 26.1377 43.7056 26.1973C43.731 26.2568 43.7437 26.3218 43.7437 26.3921C43.7437 26.4829 43.7227 26.5674 43.6807 26.6455C43.6387 26.7236 43.5762 26.7915 43.4932 26.8491C43.4102 26.9058 43.3067 26.9502 43.1827 26.9824C43.0596 27.0146 42.917 27.0308 42.7549 27.0308C42.6553 27.0308 42.5591 27.0244 42.4664 27.0117C42.3736 27 42.2852 26.9839 42.2012 26.9634C42.1172 26.9419 42.0381 26.917 41.9639 26.8887C41.8907 26.8604 41.8238 26.8301 41.7632 26.7979L41.9507 26.4697Z" fill="white"/>
<path d="M18.9785 0.947266H19.5977V2.62891C19.5977 2.76693 19.6165 2.88997 19.6543 2.99805C19.6921 3.10482 19.7481 3.19531 19.8223 3.26953C19.8978 3.34375 19.9909 3.40039 20.1016 3.43945C20.2123 3.47721 20.3412 3.49609 20.4883 3.49609C20.6341 3.49609 20.7624 3.47721 20.8731 3.43945C20.985 3.40039 21.0781 3.34375 21.1524 3.26953C21.2279 3.19531 21.2845 3.10482 21.3223 2.99805C21.36 2.88997 21.3789 2.76693 21.3789 2.62891V0.947266H21.9981V2.70312C21.9981 2.90365 21.9642 3.08594 21.8965 3.25C21.8288 3.41406 21.7305 3.55469 21.6016 3.67188C21.4727 3.78906 21.3145 3.87956 21.127 3.94336C20.9408 4.00716 20.7279 4.03906 20.4883 4.03906C20.2487 4.03906 20.0352 4.00716 19.8477 3.94336C19.6615 3.87956 19.5039 3.78906 19.375 3.67188C19.2461 3.55469 19.1478 3.41406 19.0801 3.25C19.0124 3.08594 18.9785 2.90365 18.9785 2.70312V0.947266ZM22.6817 1.69531H23.2598V2.02734C23.3874 1.93229 23.5221 1.85026 23.6641 1.78125C23.806 1.71224 23.9473 1.65951 24.0879 1.62305L24.2578 2.15234C24.0352 2.17448 23.8392 2.22461 23.6699 2.30273C23.502 2.37956 23.3652 2.48828 23.2598 2.62891V4H22.6817V1.69531ZM24.5801 3.27344C24.5801 3.16276 24.6042 3.06185 24.6524 2.9707C24.7005 2.87956 24.7728 2.80143 24.8692 2.73633C24.9655 2.66992 25.0853 2.61914 25.2285 2.58398C25.3731 2.54753 25.541 2.5293 25.7324 2.5293C25.8744 2.5293 26.0235 2.53971 26.1797 2.56055C26.3373 2.58138 26.4994 2.61328 26.666 2.65625C26.6595 2.58333 26.6374 2.51628 26.5996 2.45508C26.5619 2.39258 26.5091 2.33919 26.4414 2.29492C26.375 2.24935 26.2943 2.21419 26.1992 2.18945C26.1055 2.16471 25.9987 2.15234 25.8789 2.15234C25.8138 2.15234 25.7422 2.15625 25.6641 2.16406C25.586 2.17188 25.5052 2.18359 25.4219 2.19922C25.3386 2.21484 25.2559 2.23438 25.1738 2.25781C25.0931 2.28125 25.0176 2.30924 24.9473 2.3418L24.7715 1.86719C24.8587 1.83594 24.9518 1.80729 25.0508 1.78125C25.1511 1.75521 25.2533 1.73307 25.3574 1.71484C25.4616 1.69531 25.5658 1.68034 25.6699 1.66992C25.7741 1.65951 25.875 1.6543 25.9727 1.6543C26.4037 1.6543 26.724 1.76432 26.9336 1.98438C27.1432 2.20443 27.2481 2.54167 27.2481 2.99609V4H26.6699V3.7832C26.61 3.81836 26.5443 3.85156 26.4727 3.88281C26.4024 3.91406 26.3255 3.94141 26.2422 3.96484C26.1589 3.98828 26.069 4.00651 25.9727 4.01953C25.8776 4.03385 25.7767 4.04102 25.6699 4.04102C25.4902 4.04102 25.332 4.02148 25.1953 3.98242C25.0599 3.94336 24.9466 3.88932 24.8555 3.82031C24.7643 3.7513 24.6953 3.67057 24.6485 3.57812C24.6029 3.48438 24.5801 3.38281 24.5801 3.27344ZM25.1895 3.25391C25.1895 3.29167 25.1992 3.32812 25.2188 3.36328C25.2383 3.39714 25.2695 3.42773 25.3125 3.45508C25.3555 3.48112 25.4102 3.5026 25.4766 3.51953C25.5443 3.53516 25.6257 3.54297 25.7207 3.54297C25.8223 3.54297 25.9206 3.53385 26.0156 3.51562C26.1107 3.4974 26.1992 3.47331 26.2813 3.44336C26.3633 3.41341 26.4375 3.37891 26.5039 3.33984C26.5703 3.30078 26.6257 3.26042 26.6699 3.21875V3.11719C26.5814 3.09245 26.4935 3.07161 26.4063 3.05469C26.3203 3.03776 26.2376 3.02474 26.1582 3.01562C26.0801 3.00521 26.0059 2.99805 25.9356 2.99414C25.8665 2.99023 25.806 2.98828 25.7539 2.98828C25.6458 2.98828 25.556 2.99544 25.4844 3.00977C25.4128 3.02409 25.3548 3.04362 25.3106 3.06836C25.2663 3.0918 25.235 3.11979 25.2168 3.15234C25.1986 3.1849 25.1895 3.21875 25.1895 3.25391ZM28.0137 1.69531H28.5918V1.89062C28.7455 1.80339 28.8919 1.74219 29.0313 1.70703C29.1719 1.67188 29.3093 1.6543 29.4434 1.6543C29.6192 1.6543 29.7819 1.68034 29.9317 1.73242C30.0814 1.7832 30.211 1.85938 30.3203 1.96094C30.4297 2.0625 30.515 2.18945 30.5762 2.3418C30.6387 2.49284 30.6699 2.66797 30.6699 2.86719V4H30.0938V2.96094C30.0938 2.83464 30.0755 2.72201 30.0391 2.62305C30.0039 2.52279 29.9525 2.4388 29.8848 2.37109C29.8184 2.30208 29.737 2.25 29.6406 2.21484C29.5456 2.17839 29.4388 2.16016 29.3203 2.16016C29.2578 2.16016 29.1934 2.16667 29.127 2.17969C29.0619 2.19271 28.9974 2.21159 28.9336 2.23633C28.8711 2.25977 28.8106 2.28971 28.752 2.32617C28.6934 2.36133 28.64 2.40169 28.5918 2.44727V4H28.0137V1.69531ZM31.2422 2.84766C31.2422 2.68229 31.2754 2.52734 31.3418 2.38281C31.4095 2.23828 31.5052 2.11198 31.6289 2.00391C31.7539 1.89583 31.9043 1.81055 32.0801 1.74805C32.2572 1.68555 32.4557 1.6543 32.6758 1.6543C32.8958 1.6543 33.0938 1.68555 33.2695 1.74805C33.4466 1.81055 33.597 1.89583 33.7207 2.00391C33.8457 2.11198 33.9414 2.23828 34.0078 2.38281C34.0755 2.52734 34.1094 2.68229 34.1094 2.84766C34.1094 3.01302 34.0755 3.16797 34.0078 3.3125C33.9414 3.45703 33.8457 3.58333 33.7207 3.69141C33.597 3.79948 33.4466 3.88477 33.2695 3.94727C33.0938 4.00977 32.8958 4.04102 32.6758 4.04102C32.4557 4.04102 32.2572 4.00977 32.0801 3.94727C31.9043 3.88477 31.7539 3.79948 31.6289 3.69141C31.5052 3.58333 31.4095 3.45703 31.3418 3.3125C31.2754 3.16797 31.2422 3.01302 31.2422 2.84766ZM31.8496 2.84766C31.8496 2.9401 31.8679 3.02799 31.9043 3.11133C31.9421 3.19336 31.9961 3.26628 32.0664 3.33008C32.138 3.39258 32.2246 3.44271 32.3262 3.48047C32.429 3.51693 32.5456 3.53516 32.6758 3.53516C32.806 3.53516 32.9219 3.51693 33.0235 3.48047C33.1263 3.44271 33.2129 3.39258 33.2832 3.33008C33.3548 3.26628 33.4089 3.19336 33.4453 3.11133C33.4831 3.02799 33.502 2.9401 33.502 2.84766C33.502 2.75521 33.4831 2.66732 33.4453 2.58398C33.4089 2.50065 33.3548 2.42773 33.2832 2.36523C33.2129 2.30143 33.1263 2.2513 33.0235 2.21484C32.9219 2.17708 32.806 2.1582 32.6758 2.1582C32.5456 2.1582 32.429 2.17708 32.3262 2.21484C32.2246 2.2513 32.138 2.30143 32.0664 2.36523C31.9961 2.42773 31.9421 2.50065 31.9043 2.58398C31.8679 2.66732 31.8496 2.75521 31.8496 2.84766Z" fill="white"/>
<circle cx="43.4935" cy="17.5" r="2.5" fill="#D1540E"/>
<path d="M41.7962 16.7736H42.1058L42.6605 17.3303L43.2152 16.7736H43.5248V18.3H43.2152V17.2023L42.6605 17.7365L42.1058 17.2023V18.3H41.7962V16.7736ZM43.9154 16.6799H44.2045V17.2561C44.2298 17.2385 44.2598 17.2219 44.2943 17.2063C44.3288 17.1906 44.3659 17.177 44.4056 17.1652C44.4453 17.1535 44.4864 17.1444 44.5287 17.1379C44.571 17.1307 44.6133 17.1272 44.6556 17.1272C44.7533 17.1272 44.8428 17.1415 44.9242 17.1701C45.0062 17.1988 45.0765 17.2391 45.1351 17.2912C45.1937 17.3433 45.2393 17.4058 45.2718 17.4787C45.305 17.551 45.3216 17.6311 45.3216 17.7189C45.3216 17.8107 45.3044 17.8938 45.2699 17.968C45.2354 18.0415 45.1875 18.1047 45.1263 18.1574C45.0658 18.2095 44.9935 18.2499 44.9095 18.2785C44.8262 18.3065 44.7357 18.3205 44.638 18.3205C44.5964 18.3205 44.555 18.3179 44.514 18.3127C44.4737 18.3075 44.4346 18.3003 44.3968 18.2912C44.3597 18.2821 44.3246 18.2714 44.2914 18.259C44.2588 18.246 44.2298 18.232 44.2045 18.217V18.3H43.9154V16.6799ZM44.2045 17.9377C44.2337 17.9611 44.2647 17.981 44.2972 17.9973C44.3298 18.0135 44.363 18.0269 44.3968 18.0373C44.4307 18.0477 44.4649 18.0555 44.4994 18.0607C44.5339 18.0653 44.5674 18.0676 44.6 18.0676C44.6664 18.0676 44.7253 18.0588 44.7767 18.0412C44.8288 18.023 44.8724 17.9982 44.9076 17.967C44.9434 17.9357 44.9707 17.899 44.9896 17.8566C45.0085 17.8143 45.0179 17.7684 45.0179 17.7189C45.0179 17.6727 45.0085 17.6291 44.9896 17.5881C44.9714 17.5471 44.9447 17.5113 44.9095 17.4807C44.875 17.4494 44.833 17.425 44.7836 17.4074C44.7347 17.3892 44.6797 17.3801 44.6185 17.3801C44.5795 17.3801 44.5404 17.384 44.5013 17.3918C44.4623 17.399 44.4245 17.4094 44.388 17.423C44.3522 17.4367 44.3184 17.4533 44.2865 17.4729C44.2552 17.4924 44.2279 17.5142 44.2045 17.5383V17.9377Z" fill="white"/>
<defs>
<filter id="filter0_dd_31_2" x="0.696018" y="2.7" width="52.6001" height="31.6" filterUnits="userSpaceOnUse" color-interpolation-filters="sRGB">
<feFlood flood-opacity="0" result="BackgroundImageFix"/>
<feColorMatrix in="SourceAlpha" type="matrix" values="0 0 0 0 0 0 0 0 0 0 0 0 0 0 0 0 0 0 127 0" result="hardAlpha"/>
<feOffset dy="4"/>
<feGaussianBlur stdDeviation="2"/>
<feComposite in2="hardAlpha" operator="out"/>
<feColorMatrix type="matrix" values="0 0 0 0 0 0 0 0 0 0 0 0 0 0 0 0 0 0 0.25 0"/>
<feBlend mode="normal" in2="BackgroundImageFix" result="effect1_dropShadow_31_2"/>
<feColorMatrix in="SourceAlpha" type="matrix" values="0 0 0 0 0 0 0 0 0 0 0 0 0 0 0 0 0 0 127 0" result="hardAlpha"/>
<feOffset dy="4"/>
<feGaussianBlur stdDeviation="2"/>
<feComposite in2="hardAlpha" operator="out"/>
<feColorMatrix type="matrix" values="0 0 0 0 0 0 0 0 0 0 0 0 0 0 0 0 0 0 0.25 0"/>
<feBlend mode="normal" in2="effect1_dropShadow_31_2" result="effect2_dropShadow_31_2"/>
<feBlend mode="normal" in="SourceGraphic" in2="effect2_dropShadow_31_2" result="shape"/>
</filter>
</defs>
</svg>
