<svg width="54" height="35" viewBox="0 0 54 35" fill="none" xmlns="http://www.w3.org/2000/svg">
<rect x="7" y="23" width="40" height="6" rx="2" fill="#D1540E"/>
<g filter="url(#filter0_dd_8_28)">
<path fill-rule="evenodd" clip-rule="evenodd" d="M15 2.7H12H10C7.07289 2.7 4.7 5.07289 4.7 8V21C4.7 23.9271 7.07289 26.3 10 26.3H44C46.9271 26.3 49.3 23.9271 49.3 21V8C49.3 5.07289 46.9271 2.7 44 2.7H38V3H44C46.7614 3 49 5.23857 49 8V21C49 23.7614 46.7614 26 44 26H10C7.23857 26 5 23.7614 5 21V8C5 5.23857 7.23857 3 10 3H12H15V2.7Z" fill="#D1540E"/>
</g>
<path d="M17.0059 16.5322C17.2018 16.6462 17.4206 16.7464 17.6621 16.833C17.9036 16.9196 18.152 16.9925 18.4072 17.0518C18.667 17.1064 18.9268 17.1497 19.1865 17.1816C19.4508 17.209 19.7015 17.2227 19.9385 17.2227C20.4671 17.2227 20.9434 17.1543 21.3672 17.0176C21.7956 16.8809 22.1647 16.6872 22.4746 16.4365C22.7845 16.1859 23.0306 15.8874 23.2129 15.541C23.3997 15.1901 23.516 14.8027 23.5615 14.3789C23.3245 14.5658 23.0625 14.7275 22.7754 14.8643C22.4883 15.001 22.1829 15.1149 21.8594 15.2061C21.5404 15.2926 21.21 15.3587 20.8682 15.4043C20.5309 15.4453 20.1914 15.4658 19.8496 15.4658C19.1842 15.4658 18.5781 15.3861 18.0312 15.2266C17.4889 15.0671 17.0241 14.8369 16.6367 14.5361C16.2493 14.2354 15.9486 13.8708 15.7344 13.4424C15.5247 13.0094 15.4199 12.5195 15.4199 11.9727C15.4199 11.4349 15.5247 10.9359 15.7344 10.4756C15.9486 10.0153 16.263 9.61654 16.6777 9.2793C17.0924 8.9375 17.6074 8.6709 18.2227 8.47949C18.8379 8.28353 19.5511 8.18555 20.3623 8.18555C21.1507 8.18555 21.8708 8.28581 22.5225 8.48633C23.1742 8.68685 23.7324 8.99902 24.1973 9.42285C24.6621 9.84668 25.0221 10.3867 25.2773 11.043C25.5371 11.6947 25.667 12.474 25.667 13.3809C25.667 14.3516 25.5212 15.1992 25.2295 15.9238C24.9424 16.6439 24.5459 17.2432 24.04 17.7217C23.5387 18.2002 22.9463 18.5579 22.2627 18.7949C21.5791 19.0319 20.8408 19.1504 20.0479 19.1504C19.7152 19.1504 19.3688 19.1299 19.0088 19.0889C18.6533 19.0479 18.3001 18.9863 17.9492 18.9043C17.5983 18.8223 17.2588 18.7197 16.9307 18.5967C16.6071 18.4736 16.3109 18.3324 16.042 18.1729L17.0059 16.5322ZM17.5869 11.9385C17.5869 12.1618 17.6348 12.3714 17.7305 12.5674C17.8262 12.7633 17.9743 12.9342 18.1748 13.0801C18.3799 13.2214 18.6419 13.3353 18.9609 13.4219C19.2799 13.5039 19.665 13.5449 20.1162 13.5449C20.4945 13.5449 20.8522 13.5153 21.1895 13.4561C21.5267 13.3968 21.8389 13.3148 22.126 13.21C22.4131 13.1051 22.6729 12.9821 22.9053 12.8408C23.1423 12.6995 23.3451 12.5446 23.5137 12.376C23.4043 11.6286 23.0762 11.0658 22.5293 10.6875C21.9824 10.3047 21.2646 10.1133 20.376 10.1133C19.9294 10.1133 19.5329 10.1589 19.1865 10.25C18.8402 10.3411 18.5485 10.4688 18.3115 10.6328C18.0745 10.7923 17.8945 10.9837 17.7715 11.207C17.6484 11.4303 17.5869 11.6742 17.5869 11.9385ZM27.8613 13.6338C27.8613 12.7725 27.9912 12 28.251 11.3164C28.5107 10.6328 28.8799 10.054 29.3584 9.58008C29.8369 9.10156 30.418 8.73698 31.1016 8.48633C31.7852 8.23568 32.5508 8.11035 33.3984 8.11035C34.2461 8.11035 35.0117 8.23568 35.6953 8.48633C36.3789 8.73698 36.96 9.10156 37.4385 9.58008C37.917 10.054 38.2861 10.6328 38.5459 11.3164C38.8057 12 38.9355 12.7725 38.9355 13.6338C38.9355 14.4951 38.8057 15.2676 38.5459 15.9512C38.2861 16.6348 37.917 17.2135 37.4385 17.6875C36.96 18.1615 36.3789 18.5238 35.6953 18.7744C35.0117 19.0251 34.2461 19.1504 33.3984 19.1504C32.5508 19.1504 31.7852 19.0251 31.1016 18.7744C30.418 18.5238 29.8369 18.1615 29.3584 17.6875C28.8799 17.2135 28.5107 16.6348 28.251 15.9512C27.9912 15.2676 27.8613 14.4951 27.8613 13.6338ZM30.0283 13.627C30.0283 14.2103 30.1058 14.7253 30.2607 15.1719C30.4202 15.6185 30.6458 15.9945 30.9375 16.2998C31.2292 16.6006 31.5824 16.8307 31.9971 16.9902C32.4118 17.1452 32.8789 17.2227 33.3984 17.2227C33.918 17.2227 34.3851 17.1452 34.7998 16.9902C35.2145 16.8307 35.5677 16.6006 35.8594 16.2998C36.151 15.9945 36.3743 15.6185 36.5293 15.1719C36.6888 14.7253 36.7686 14.2103 36.7686 13.627C36.7686 13.0482 36.6888 12.5378 36.5293 12.0957C36.3743 11.6491 36.151 11.2731 35.8594 10.9678C35.5677 10.6624 35.2145 10.4323 34.7998 10.2773C34.3851 10.1178 33.918 10.0381 33.3984 10.0381C32.8789 10.0381 32.4118 10.1178 31.9971 10.2773C31.5824 10.4323 31.2292 10.6624 30.9375 10.9678C30.6458 11.2731 30.4202 11.6491 30.2607 12.0957C30.1058 12.5378 30.0283 13.0482 30.0283 13.627Z" fill="#FFE2E2"/>
<path d="M11.3018 24.9736H12.0781C12.1953 24.9736 12.2969 24.986 12.3828 25.0107C12.4688 25.0348 12.54 25.07 12.5967 25.1162C12.6533 25.1624 12.6953 25.2188 12.7227 25.2852C12.7507 25.3516 12.7646 25.4268 12.7646 25.5107C12.7646 25.5674 12.7578 25.6214 12.7441 25.6729C12.7305 25.7236 12.7093 25.7705 12.6807 25.8135C12.6527 25.8564 12.6172 25.8949 12.5742 25.9287C12.5312 25.9619 12.4808 25.9896 12.4229 26.0117L12.7549 26.5H12.376L12.0889 26.0664H12.0801L11.6113 26.0654V26.5H11.3018V24.9736ZM12.0859 25.7979C12.1445 25.7979 12.1956 25.791 12.2393 25.7773C12.2835 25.7637 12.3203 25.7445 12.3496 25.7197C12.3796 25.695 12.4017 25.665 12.416 25.6299C12.431 25.5941 12.4385 25.5544 12.4385 25.5107C12.4385 25.4255 12.4092 25.3597 12.3506 25.3135C12.292 25.2666 12.2038 25.2432 12.0859 25.2432H11.6113V25.7979H12.0859ZM13.2031 26.0459C13.25 26.0726 13.2972 26.097 13.3447 26.1191C13.3923 26.1406 13.4411 26.1598 13.4912 26.1768C13.542 26.193 13.5941 26.207 13.6475 26.2188C13.7015 26.2298 13.7585 26.2376 13.8184 26.2422V25.8574C13.7852 25.8613 13.7533 25.8646 13.7227 25.8672C13.6921 25.8698 13.6624 25.8711 13.6338 25.8711C13.5654 25.8711 13.4997 25.8623 13.4365 25.8447C13.374 25.8271 13.3184 25.8008 13.2695 25.7656C13.2214 25.7305 13.1829 25.6865 13.1543 25.6338C13.1257 25.5811 13.1113 25.5195 13.1113 25.4492C13.1113 25.3893 13.1237 25.3304 13.1484 25.2725C13.1738 25.2139 13.2145 25.1615 13.2705 25.1152C13.3271 25.0684 13.4004 25.0296 13.4902 24.999C13.5801 24.9684 13.6895 24.9508 13.8184 24.9463V24.6504H14.0498V24.9521C14.1585 24.9619 14.2627 24.9798 14.3623 25.0059C14.4626 25.0319 14.5544 25.0635 14.6377 25.1006L14.502 25.3506C14.4368 25.3226 14.3665 25.2979 14.291 25.2764C14.2155 25.2549 14.1351 25.2393 14.0498 25.2295V25.54C14.0811 25.5368 14.1123 25.5342 14.1436 25.5322C14.1748 25.5296 14.2054 25.5283 14.2354 25.5283C14.3252 25.5283 14.4046 25.5384 14.4736 25.5586C14.5433 25.5788 14.6016 25.6077 14.6484 25.6455C14.6953 25.6826 14.7308 25.7279 14.7549 25.7812C14.779 25.834 14.791 25.8932 14.791 25.959C14.791 26.0404 14.7734 26.1139 14.7383 26.1797C14.7038 26.2448 14.6543 26.3011 14.5898 26.3486C14.526 26.3962 14.4482 26.4342 14.3564 26.4629C14.2653 26.4915 14.1631 26.5098 14.0498 26.5176V26.8145H13.8184V26.5186C13.6673 26.5094 13.5254 26.4854 13.3926 26.4463C13.2604 26.4066 13.1423 26.3568 13.0381 26.2969L13.2031 26.0459ZM13.4355 25.4199C13.4355 25.4655 13.4561 25.5029 13.4971 25.5322C13.5381 25.5609 13.6006 25.5752 13.6846 25.5752C13.7035 25.5752 13.7243 25.5745 13.7471 25.5732C13.7699 25.5713 13.7936 25.569 13.8184 25.5664V25.2207C13.7448 25.2233 13.6833 25.2311 13.6338 25.2441C13.585 25.2572 13.5459 25.2731 13.5166 25.292C13.4873 25.3109 13.4665 25.3317 13.4541 25.3545C13.4417 25.3766 13.4355 25.3984 13.4355 25.4199ZM14.0498 26.2441C14.124 26.2396 14.1875 26.2301 14.2402 26.2158C14.293 26.2015 14.3359 26.1836 14.3691 26.1621C14.403 26.14 14.4274 26.1149 14.4424 26.0869C14.458 26.0589 14.4658 26.0293 14.4658 25.998C14.4658 25.9427 14.4427 25.8991 14.3965 25.8672C14.3503 25.8346 14.279 25.8184 14.1826 25.8184C14.1618 25.8184 14.14 25.8193 14.1172 25.8213C14.0951 25.8226 14.0726 25.8245 14.0498 25.8271V26.2441Z" fill="white"/>
<path d="M17.4788 27.0238C17.4788 26.9281 17.4918 26.8393 17.5178 26.7572C17.5438 26.6752 17.5793 26.6007 17.6244 26.5337C17.6695 26.4653 17.7215 26.4052 17.7803 26.3532C17.8404 26.2999 17.9047 26.2534 17.973 26.2138C17.8787 26.1208 17.8104 26.0285 17.768 25.9369C17.7256 25.8439 17.7044 25.7551 17.7044 25.6703C17.7044 25.535 17.7358 25.4112 17.7987 25.2991C17.863 25.187 17.9546 25.0906 18.0735 25.01C18.1925 24.9279 18.3367 24.865 18.5063 24.8213C18.6758 24.7762 18.8665 24.7536 19.0784 24.7536C19.2903 24.7536 19.4811 24.7762 19.6506 24.8213C19.8201 24.865 19.9644 24.9279 20.0833 25.01C20.2022 25.0906 20.2932 25.187 20.3561 25.2991C20.4203 25.4112 20.4524 25.535 20.4524 25.6703C20.4524 25.7551 20.4312 25.8439 20.3889 25.9369C20.3465 26.0285 20.2781 26.1208 20.1838 26.2138C20.2508 26.2534 20.3144 26.2999 20.3745 26.3532C20.4347 26.4052 20.4873 26.4653 20.5324 26.5337C20.5775 26.6007 20.6131 26.6752 20.6391 26.7572C20.665 26.8393 20.678 26.9281 20.678 27.0238C20.678 27.1838 20.6404 27.3273 20.5652 27.4545C20.4914 27.5803 20.3848 27.6869 20.2453 27.7744C20.1072 27.8605 19.9391 27.9269 19.7408 27.9733C19.5439 28.0198 19.3231 28.0431 19.0784 28.0431C18.8337 28.0431 18.6122 28.0198 18.414 27.9733C18.2171 27.9269 18.0489 27.8605 17.9095 27.7744C17.7714 27.6869 17.6647 27.5803 17.5896 27.4545C17.5157 27.3273 17.4788 27.1838 17.4788 27.0238ZM18.3545 25.699C18.3545 25.7496 18.3668 25.7975 18.3914 25.8426C18.4174 25.8863 18.4584 25.9253 18.5145 25.9595C18.5719 25.9923 18.6464 26.0183 18.738 26.0374C18.831 26.0565 18.9444 26.0661 19.0784 26.0661C19.2124 26.0661 19.3252 26.0565 19.4168 26.0374C19.5098 26.0183 19.5843 25.9923 19.6403 25.9595C19.6978 25.9253 19.7388 25.8863 19.7634 25.8426C19.7894 25.7975 19.8023 25.7496 19.8023 25.699C19.8023 25.6484 19.7894 25.6013 19.7634 25.5575C19.7388 25.5124 19.6978 25.4734 19.6403 25.4406C19.5843 25.4064 19.5098 25.3798 19.4168 25.3606C19.3252 25.3415 19.2124 25.3319 19.0784 25.3319C18.9444 25.3319 18.831 25.3415 18.738 25.3606C18.6464 25.3798 18.5719 25.4064 18.5145 25.4406C18.4584 25.4734 18.4174 25.5124 18.3914 25.5575C18.3668 25.6013 18.3545 25.6484 18.3545 25.699ZM18.1289 26.9931C18.1289 27.0628 18.1487 27.1271 18.1884 27.1858C18.2294 27.2433 18.2896 27.2925 18.3688 27.3335C18.4481 27.3745 18.5473 27.4066 18.6662 27.4299C18.7852 27.4531 18.9226 27.4647 19.0784 27.4647C19.2343 27.4647 19.3717 27.4531 19.4906 27.4299C19.6096 27.4066 19.7087 27.3745 19.788 27.3335C19.8673 27.2925 19.9268 27.2433 19.9664 27.1858C20.0074 27.1271 20.0279 27.0628 20.0279 26.9931C20.0279 26.9233 20.0081 26.8598 19.9685 26.8023C19.9302 26.7436 19.8714 26.6937 19.7921 26.6526C19.7142 26.6116 19.6157 26.5795 19.4968 26.5563C19.3778 26.533 19.2384 26.5214 19.0784 26.5214C18.9185 26.5214 18.779 26.533 18.6601 26.5563C18.5411 26.5795 18.442 26.6116 18.3627 26.6526C18.2848 26.6937 18.226 26.7436 18.1863 26.8023C18.148 26.8598 18.1289 26.9233 18.1289 26.9931ZM21.8511 27.2597C21.9099 27.2938 21.9755 27.3239 22.0479 27.3499C22.1204 27.3759 22.1949 27.3978 22.2715 27.4155C22.3494 27.4319 22.4273 27.4449 22.5053 27.4545C22.5846 27.4627 22.6598 27.4668 22.7309 27.4668C22.8895 27.4668 23.0323 27.4463 23.1595 27.4053C23.288 27.3643 23.3987 27.3062 23.4917 27.231C23.5847 27.1558 23.6585 27.0662 23.7132 26.9623C23.7692 26.857 23.8041 26.7408 23.8178 26.6137C23.7467 26.6697 23.6681 26.7183 23.5819 26.7593C23.4958 26.8003 23.4042 26.8345 23.3071 26.8618C23.2114 26.8878 23.1123 26.9076 23.0098 26.9213C22.9086 26.9336 22.8067 26.9397 22.7042 26.9397C22.5046 26.9397 22.3228 26.9158 22.1587 26.868C21.996 26.8201 21.8565 26.7511 21.7403 26.6608C21.6241 26.5706 21.5339 26.4612 21.4696 26.3327C21.4067 26.2028 21.3753 26.0559 21.3753 25.8918C21.3753 25.7305 21.4067 25.5808 21.4696 25.4427C21.5339 25.3046 21.6282 25.185 21.7526 25.0838C21.8771 24.9813 22.0315 24.9013 22.2161 24.8438C22.4007 24.7851 22.6146 24.7557 22.858 24.7557C23.0945 24.7557 23.3105 24.7857 23.5061 24.8459C23.7016 24.9061 23.869 24.9997 24.0085 25.1269C24.1479 25.254 24.256 25.416 24.3325 25.6129C24.4104 25.8084 24.4494 26.0422 24.4494 26.3143C24.4494 26.6055 24.4057 26.8598 24.3182 27.0771C24.232 27.2932 24.1131 27.4729 23.9613 27.6165C23.8109 27.7601 23.6332 27.8674 23.4281 27.9385C23.223 28.0096 23.0016 28.0451 22.7637 28.0451C22.6639 28.0451 22.56 28.039 22.452 28.0267C22.3453 28.0144 22.2394 27.9959 22.1341 27.9713C22.0288 27.9467 21.927 27.9159 21.8285 27.879C21.7314 27.8421 21.6426 27.7997 21.5619 27.7519L21.8511 27.2597ZM22.0254 25.8815C22.0254 25.9485 22.0397 26.0114 22.0685 26.0702C22.0972 26.129 22.1416 26.1803 22.2018 26.224C22.2633 26.2664 22.3419 26.3006 22.4376 26.3266C22.5333 26.3512 22.6488 26.3635 22.7842 26.3635C22.8977 26.3635 23.005 26.3546 23.1062 26.3368C23.2073 26.319 23.301 26.2944 23.3871 26.263C23.4732 26.2315 23.5512 26.1946 23.6209 26.1522C23.692 26.1099 23.7528 26.0634 23.8034 26.0128C23.7706 25.7886 23.6722 25.6197 23.5081 25.5063C23.344 25.3914 23.1287 25.334 22.8621 25.334C22.7281 25.334 22.6092 25.3477 22.5053 25.375C22.4014 25.4023 22.3139 25.4406 22.2428 25.4898C22.1717 25.5377 22.1177 25.5951 22.0808 25.6621C22.0438 25.7291 22.0254 25.8022 22.0254 25.8815Z" fill="white"/>
<path d="M25.4106 26.7451C25.4106 26.7061 25.4189 26.6694 25.4355 26.6353C25.4521 26.6011 25.4751 26.5713 25.5044 26.5459C25.5347 26.5195 25.5708 26.499 25.6128 26.4844C25.6558 26.4697 25.7036 26.4624 25.7563 26.4624C25.813 26.4624 25.8647 26.4717 25.9116 26.4902C25.9595 26.5078 26.0005 26.5337 26.0347 26.5679C26.0688 26.6021 26.0952 26.644 26.1138 26.6938C26.1333 26.7427 26.1431 26.7979 26.1431 26.8594C26.1431 26.998 26.0952 27.1309 25.9995 27.2578C25.9048 27.3857 25.7666 27.499 25.585 27.5977L25.4092 27.3486C25.457 27.3232 25.499 27.2979 25.5352 27.2725C25.5713 27.248 25.603 27.2231 25.6304 27.1978C25.6577 27.1724 25.6812 27.146 25.7007 27.1187C25.7212 27.0913 25.7393 27.062 25.7549 27.0308C25.7031 27.0308 25.6558 27.0229 25.6128 27.0073C25.5708 26.9927 25.5347 26.9727 25.5044 26.9473C25.4741 26.9219 25.4507 26.8921 25.4341 26.8579C25.4185 26.8228 25.4106 26.7852 25.4106 26.7451ZM26.9956 26.4712C27.0376 26.4956 27.0845 26.5171 27.1362 26.5356C27.188 26.5542 27.2412 26.5698 27.2959 26.5825C27.3516 26.5942 27.4072 26.6035 27.4629 26.6104C27.5195 26.6162 27.5732 26.6191 27.624 26.6191C27.7373 26.6191 27.8394 26.6045 27.9302 26.5752C28.022 26.5459 28.1011 26.5044 28.1675 26.4507C28.2339 26.397 28.2866 26.333 28.3257 26.2588C28.3657 26.1836 28.3906 26.1006 28.4004 26.0098C28.3496 26.0498 28.2935 26.0845 28.2319 26.1138C28.1704 26.1431 28.105 26.1675 28.0356 26.187C27.9673 26.2056 27.8965 26.2197 27.8232 26.2295C27.751 26.2383 27.6782 26.2427 27.605 26.2427C27.4624 26.2427 27.3325 26.2256 27.2153 26.1914C27.0991 26.1572 26.9995 26.1079 26.9165 26.0435C26.8335 25.979 26.769 25.9009 26.7231 25.8091C26.6782 25.7163 26.6558 25.6113 26.6558 25.4941C26.6558 25.3789 26.6782 25.272 26.7231 25.1733C26.769 25.0747 26.8364 24.9893 26.9253 24.917C27.0142 24.8438 27.1245 24.7866 27.2563 24.7456C27.3882 24.7036 27.541 24.6826 27.7148 24.6826C27.8838 24.6826 28.0381 24.7041 28.1777 24.7471C28.3174 24.79 28.437 24.8569 28.5366 24.9478C28.6362 25.0386 28.7134 25.1543 28.7681 25.2949C28.8237 25.4346 28.8516 25.6016 28.8516 25.7959C28.8516 26.0039 28.8203 26.1855 28.7578 26.3408C28.6963 26.4951 28.6113 26.6235 28.5029 26.7261C28.3955 26.8286 28.2686 26.9053 28.1221 26.9561C27.9756 27.0068 27.8174 27.0322 27.6475 27.0322C27.5762 27.0322 27.502 27.0278 27.4248 27.019C27.3486 27.0103 27.2729 26.9971 27.1978 26.9795C27.1226 26.9619 27.0498 26.9399 26.9795 26.9136C26.9102 26.8872 26.8467 26.8569 26.7891 26.8228L26.9956 26.4712ZM27.1201 25.4868C27.1201 25.5347 27.1304 25.5796 27.1509 25.6216C27.1714 25.6636 27.2031 25.7002 27.2461 25.7314C27.29 25.7617 27.3462 25.7861 27.4146 25.8047C27.4829 25.8223 27.5654 25.8311 27.6621 25.8311C27.7432 25.8311 27.8198 25.8247 27.8921 25.812C27.9644 25.7993 28.0312 25.7817 28.0928 25.7593C28.1543 25.7368 28.21 25.7104 28.2598 25.6802C28.3105 25.6499 28.354 25.6167 28.3901 25.5806C28.3667 25.4204 28.2964 25.2998 28.1792 25.2188C28.062 25.1367 27.9082 25.0957 27.7178 25.0957C27.6221 25.0957 27.5371 25.1055 27.4629 25.125C27.3887 25.1445 27.3262 25.1719 27.2754 25.207C27.2246 25.2412 27.186 25.2822 27.1597 25.3301C27.1333 25.3779 27.1201 25.4302 27.1201 25.4868ZM29.3218 25.8501C29.3218 25.6655 29.3496 25.5 29.4053 25.3535C29.4609 25.207 29.54 25.083 29.6426 24.9814C29.7451 24.8789 29.8696 24.8008 30.0161 24.7471C30.1626 24.6934 30.3267 24.6665 30.5083 24.6665C30.6899 24.6665 30.854 24.6934 31.0005 24.7471C31.147 24.8008 31.2715 24.8789 31.374 24.9814C31.4766 25.083 31.5557 25.207 31.6113 25.3535C31.667 25.5 31.6948 25.6655 31.6948 25.8501C31.6948 26.0347 31.667 26.2002 31.6113 26.3467C31.5557 26.4932 31.4766 26.6172 31.374 26.7188C31.2715 26.8203 31.147 26.8979 31.0005 26.9517C30.854 27.0054 30.6899 27.0322 30.5083 27.0322C30.3267 27.0322 30.1626 27.0054 30.0161 26.9517C29.8696 26.8979 29.7451 26.8203 29.6426 26.7188C29.54 26.6172 29.4609 26.4932 29.4053 26.3467C29.3496 26.2002 29.3218 26.0347 29.3218 25.8501ZM29.7861 25.8486C29.7861 25.9736 29.8027 26.084 29.8359 26.1797C29.8701 26.2754 29.9185 26.356 29.981 26.4214C30.0435 26.4858 30.1191 26.5352 30.208 26.5693C30.2969 26.6025 30.397 26.6191 30.5083 26.6191C30.6196 26.6191 30.7197 26.6025 30.8086 26.5693C30.8975 26.5352 30.9731 26.4858 31.0356 26.4214C31.0981 26.356 31.146 26.2754 31.1792 26.1797C31.2134 26.084 31.2305 25.9736 31.2305 25.8486C31.2305 25.7246 31.2134 25.6152 31.1792 25.5205C31.146 25.4248 31.0981 25.3442 31.0356 25.2788C30.9731 25.2134 30.8975 25.1641 30.8086 25.1309C30.7197 25.0967 30.6196 25.0796 30.5083 25.0796C30.397 25.0796 30.2969 25.0967 30.208 25.1309C30.1191 25.1641 30.0435 25.2134 29.981 25.2788C29.9185 25.3442 29.8701 25.4248 29.8359 25.5205C29.8027 25.6152 29.7861 25.7246 29.7861 25.8486ZM34.4751 24.4072H34.8955L33.5347 27.5186H33.1143L34.4751 24.4072ZM35.4126 25.2715H35.8462V25.418C35.9546 25.3516 36.0601 25.3057 36.1626 25.2803C36.2661 25.2539 36.3672 25.2407 36.4658 25.2407C36.6035 25.2407 36.73 25.2627 36.8452 25.3066C36.9604 25.3506 37.0591 25.417 37.1411 25.5059C37.2046 25.457 37.2671 25.416 37.3286 25.3828C37.3901 25.3486 37.4517 25.3213 37.5132 25.3008C37.5747 25.2793 37.6372 25.2642 37.7007 25.2554C37.7642 25.2456 37.8296 25.2407 37.897 25.2407C38.0386 25.2407 38.167 25.2603 38.2822 25.2993C38.3975 25.3374 38.4956 25.3945 38.5767 25.4707C38.6587 25.5469 38.7217 25.6421 38.7656 25.7563C38.8105 25.8696 38.833 26.001 38.833 26.1504V27H38.4009V26.2207C38.4009 26.126 38.3872 26.0415 38.3599 25.9673C38.3335 25.8921 38.2959 25.8291 38.2471 25.7783C38.1992 25.7266 38.1416 25.6875 38.0742 25.6611C38.0078 25.6338 37.9346 25.6201 37.8545 25.6201C37.8105 25.6201 37.7656 25.6245 37.7197 25.6333C37.6738 25.6411 37.6289 25.6538 37.585 25.6714C37.542 25.689 37.5015 25.7114 37.4634 25.7388C37.4253 25.7651 37.3921 25.7964 37.3638 25.8325V27H36.9316V26.2207C36.9316 26.126 36.918 26.0415 36.8906 25.9673C36.8643 25.8921 36.8267 25.8291 36.7778 25.7783C36.73 25.7266 36.6719 25.6875 36.6035 25.6611C36.5361 25.6338 36.4619 25.6201 36.3809 25.6201C36.3311 25.6201 36.2808 25.6255 36.23 25.6362C36.1802 25.646 36.1318 25.6602 36.085 25.6787C36.0391 25.6973 35.9956 25.7197 35.9546 25.7461C35.9146 25.7725 35.8784 25.8022 35.8462 25.8354V27H35.4126V25.2715ZM39.2974 26.1299C39.2974 26.0127 39.3213 25.9009 39.3691 25.7944C39.417 25.687 39.4858 25.5923 39.5757 25.5103C39.6655 25.4282 39.7754 25.3628 39.9053 25.314C40.0361 25.2651 40.1846 25.2407 40.3506 25.2407C40.5156 25.2407 40.6641 25.2656 40.7959 25.3154C40.9287 25.3643 41.041 25.4316 41.1328 25.5176C41.2256 25.6035 41.2964 25.7046 41.3452 25.8208C41.395 25.937 41.4199 26.0615 41.4199 26.1943C41.4199 26.2109 41.4194 26.229 41.4185 26.2485C41.4185 26.2671 41.4175 26.2842 41.4155 26.2998H39.7808C39.7993 26.3516 39.8291 26.3989 39.8701 26.4419C39.9121 26.4849 39.9644 26.522 40.0269 26.5532C40.0894 26.5845 40.1616 26.6089 40.2437 26.6265C40.3257 26.6431 40.4165 26.6514 40.5161 26.6514C40.6157 26.6514 40.7148 26.6411 40.8135 26.6206C40.9121 26.5991 41.0063 26.5723 41.0962 26.54L41.2427 26.8711C41.186 26.8975 41.1284 26.9209 41.0698 26.9414C41.0122 26.9609 40.9517 26.9775 40.8882 26.9912C40.8257 27.0039 40.7598 27.0137 40.6904 27.0205C40.6221 27.0273 40.5498 27.0308 40.4736 27.0308C40.2793 27.0308 40.1089 27.0073 39.9624 26.9604C39.8159 26.9136 39.6934 26.8496 39.5947 26.7686C39.4961 26.6875 39.4219 26.5923 39.3721 26.4829C39.3223 26.3735 39.2974 26.2559 39.2974 26.1299ZM40.96 25.9614C40.9443 25.9136 40.9199 25.8691 40.8867 25.8281C40.8545 25.7861 40.814 25.75 40.7651 25.7197C40.7163 25.6885 40.6597 25.6641 40.5952 25.6465C40.5308 25.6289 40.46 25.6201 40.3828 25.6201C40.3008 25.6201 40.2261 25.6294 40.1587 25.6479C40.0913 25.6665 40.0322 25.6914 39.9814 25.7227C39.9307 25.7539 39.8882 25.79 39.854 25.8311C39.8208 25.8721 39.7964 25.9155 39.7808 25.9614H40.96ZM39.668 24.7515L40.3579 24.2314L41.0479 24.7515L40.8428 25.021L40.3579 24.6548L39.873 25.021L39.668 24.7515ZM41.9561 26.4697C42.0732 26.54 42.2021 26.5918 42.3428 26.625C42.4834 26.6582 42.6274 26.6748 42.7749 26.6748C42.8745 26.6748 42.9575 26.668 43.0239 26.6543C43.0903 26.6406 43.1436 26.623 43.1836 26.6016C43.2236 26.5801 43.252 26.5557 43.2686 26.5283C43.2852 26.501 43.2935 26.4731 43.2935 26.4448C43.2935 26.4038 43.2754 26.3687 43.2393 26.3394C43.2041 26.3101 43.1455 26.2954 43.0635 26.2954C43.0254 26.2954 42.9844 26.2979 42.9404 26.3027C42.8965 26.3076 42.8501 26.313 42.8013 26.3188C42.7534 26.3237 42.7031 26.3286 42.6504 26.3335C42.5986 26.3384 42.5459 26.3408 42.4922 26.3408C42.375 26.3408 42.2749 26.3281 42.1919 26.3027C42.1099 26.2773 42.043 26.2427 41.9912 26.1987C41.9395 26.1548 41.9019 26.103 41.8784 26.0435C41.855 25.9829 41.8433 25.918 41.8433 25.8486C41.8433 25.7607 41.8638 25.6797 41.9048 25.6055C41.9458 25.5312 42.0044 25.4673 42.0806 25.4136C42.1567 25.3589 42.2485 25.3164 42.356 25.2861C42.4644 25.2559 42.585 25.2407 42.7178 25.2407C42.7871 25.2407 42.8594 25.2451 42.9346 25.2539C43.0107 25.2617 43.0854 25.2725 43.1587 25.2861C43.2319 25.2998 43.3022 25.3159 43.3696 25.3345C43.437 25.3521 43.4966 25.3711 43.5483 25.3916L43.4121 25.7285C43.3018 25.6875 43.1914 25.6553 43.0811 25.6318C42.9717 25.6074 42.8589 25.5952 42.7427 25.5952C42.6616 25.5952 42.5928 25.6016 42.5361 25.6143C42.4805 25.626 42.4351 25.6421 42.3999 25.6626C42.3647 25.6821 42.3389 25.7051 42.3223 25.7314C42.3066 25.7568 42.2988 25.7837 42.2988 25.812C42.2988 25.8325 42.3027 25.8511 42.3105 25.8677C42.3193 25.8843 42.333 25.8989 42.3516 25.9116C42.3711 25.9233 42.396 25.9326 42.4263 25.9395C42.4575 25.9453 42.4956 25.9482 42.5405 25.9482C42.5815 25.9482 42.625 25.9458 42.6709 25.9409C42.7168 25.936 42.7646 25.9312 42.8145 25.9263C42.8643 25.9204 42.9155 25.915 42.9683 25.9102C43.022 25.9053 43.0767 25.9028 43.1323 25.9028C43.2358 25.9028 43.3262 25.915 43.4033 25.9395C43.4814 25.9639 43.5459 25.998 43.5967 26.042C43.6475 26.0859 43.6855 26.1377 43.7109 26.1973C43.7363 26.2568 43.749 26.3218 43.749 26.3921C43.749 26.4829 43.728 26.5674 43.686 26.6455C43.644 26.7236 43.5815 26.7915 43.4985 26.8491C43.4155 26.9058 43.312 26.9502 43.188 26.9824C43.0649 27.0146 42.9224 27.0308 42.7603 27.0308C42.6606 27.0308 42.5645 27.0244 42.4717 27.0117C42.3789 27 42.2905 26.9839 42.2065 26.9634C42.1226 26.9419 42.0435 26.917 41.9692 26.8887C41.896 26.8604 41.8291 26.8301 41.7686 26.7979L41.9561 26.4697Z" fill="white"/>
<circle cx="39.5" cy="16.5" r="2.5" fill="#D1540E"/>
<path d="M37.8027 15.7736H38.1123L38.667 16.3303L39.2217 15.7736H39.5312V17.3H39.2217V16.2023L38.667 16.7365L38.1123 16.2023V17.3H37.8027V15.7736ZM39.9219 15.6799H40.2109V16.2561C40.2363 16.2385 40.2663 16.2219 40.3008 16.2063C40.3353 16.1906 40.3724 16.177 40.4121 16.1652C40.4518 16.1535 40.4928 16.1444 40.5352 16.1379C40.5775 16.1307 40.6198 16.1272 40.6621 16.1272C40.7598 16.1272 40.8493 16.1415 40.9307 16.1701C41.0127 16.1988 41.083 16.2391 41.1416 16.2912C41.2002 16.3433 41.2458 16.4058 41.2783 16.4787C41.3115 16.551 41.3281 16.6311 41.3281 16.7189C41.3281 16.8107 41.3109 16.8938 41.2764 16.968C41.2419 17.0415 41.194 17.1047 41.1328 17.1574C41.0723 17.2095 41 17.2499 40.916 17.2785C40.8327 17.3065 40.7422 17.3205 40.6445 17.3205C40.6029 17.3205 40.5615 17.3179 40.5205 17.3127C40.4801 17.3075 40.4411 17.3003 40.4033 17.2912C40.3662 17.2821 40.3311 17.2714 40.2979 17.259C40.2653 17.246 40.2363 17.232 40.2109 17.217V17.3H39.9219V15.6799ZM40.2109 16.9377C40.2402 16.9611 40.2712 16.981 40.3037 16.9973C40.3363 17.0135 40.3695 17.0269 40.4033 17.0373C40.4372 17.0477 40.4714 17.0555 40.5059 17.0607C40.5404 17.0653 40.5739 17.0676 40.6064 17.0676C40.6729 17.0676 40.7318 17.0588 40.7832 17.0412C40.8353 17.023 40.8789 16.9982 40.9141 16.967C40.9499 16.9357 40.9772 16.899 40.9961 16.8566C41.015 16.8143 41.0244 16.7684 41.0244 16.7189C41.0244 16.6727 41.015 16.6291 40.9961 16.5881C40.9779 16.5471 40.9512 16.5113 40.916 16.4807C40.8815 16.4494 40.8395 16.425 40.79 16.4074C40.7412 16.3892 40.6862 16.3801 40.625 16.3801C40.5859 16.3801 40.5469 16.384 40.5078 16.3918C40.4688 16.399 40.431 16.4094 40.3945 16.423C40.3587 16.4367 40.3249 16.4533 40.293 16.4729C40.2617 16.4924 40.2344 16.5142 40.2109 16.5383V16.9377Z" fill="white"/>
<path d="M18.3301 0.947266H19.0156L19.9746 3.27539L20.9336 0.947266H21.6191L20.2812 4H19.668L18.3301 0.947266ZM21.8965 2.83984C21.8965 2.68359 21.9284 2.53451 21.9922 2.39258C22.056 2.24935 22.1478 2.12305 22.2676 2.01367C22.3874 1.9043 22.5339 1.81706 22.707 1.75195C22.8815 1.68685 23.0794 1.6543 23.3008 1.6543C23.5208 1.6543 23.7188 1.6875 23.8945 1.75391C24.0716 1.81901 24.2214 1.90885 24.3438 2.02344C24.4674 2.13802 24.5618 2.27279 24.627 2.42773C24.6934 2.58268 24.7266 2.7487 24.7266 2.92578C24.7266 2.94792 24.7259 2.97201 24.7246 2.99805C24.7246 3.02279 24.7233 3.04557 24.7207 3.06641H22.541C22.5658 3.13542 22.6055 3.19857 22.6602 3.25586C22.7161 3.31315 22.7858 3.36263 22.8691 3.4043C22.9525 3.44596 23.0488 3.47852 23.1582 3.50195C23.2676 3.52409 23.3887 3.53516 23.5215 3.53516C23.6543 3.53516 23.7865 3.52148 23.918 3.49414C24.0495 3.46549 24.1751 3.42969 24.2949 3.38672L24.4902 3.82812C24.4147 3.86328 24.3379 3.89453 24.2598 3.92188C24.1829 3.94792 24.1022 3.97005 24.0176 3.98828C23.9342 4.00521 23.8464 4.01823 23.7539 4.02734C23.6628 4.03646 23.5664 4.04102 23.4648 4.04102C23.2057 4.04102 22.9785 4.00977 22.7832 3.94727C22.5879 3.88477 22.4245 3.79948 22.293 3.69141C22.1615 3.58333 22.0625 3.45638 21.9961 3.31055C21.9297 3.16471 21.8965 3.00781 21.8965 2.83984ZM24.1133 2.61523C24.0924 2.55143 24.0599 2.49219 24.0156 2.4375C23.9727 2.38151 23.9186 2.33333 23.8535 2.29297C23.7884 2.2513 23.7129 2.21875 23.627 2.19531C23.541 2.17188 23.4466 2.16016 23.3438 2.16016C23.2344 2.16016 23.1348 2.17253 23.0449 2.19727C22.9551 2.22201 22.8763 2.25521 22.8086 2.29688C22.7409 2.33854 22.6842 2.38672 22.6387 2.44141C22.5944 2.49609 22.5618 2.55404 22.541 2.61523H24.1133ZM22.3906 1.00195L23.3105 0.308594L24.2305 1.00195L23.957 1.36133L23.3105 0.873047L22.6641 1.36133L22.3906 1.00195ZM25.3496 1.69531H25.9277V1.89062C26.0814 1.80339 26.2279 1.74219 26.3672 1.70703C26.5078 1.67188 26.6452 1.6543 26.7793 1.6543C26.9551 1.6543 27.1178 1.68034 27.2676 1.73242C27.4173 1.7832 27.5469 1.85938 27.6562 1.96094C27.7656 2.0625 27.8509 2.18945 27.9121 2.3418C27.9746 2.49284 28.0059 2.66797 28.0059 2.86719V4H27.4297V2.96094C27.4297 2.83464 27.4115 2.72201 27.375 2.62305C27.3398 2.52279 27.2884 2.4388 27.2207 2.37109C27.1543 2.30208 27.0729 2.25 26.9766 2.21484C26.8815 2.17839 26.7747 2.16016 26.6562 2.16016C26.5938 2.16016 26.5293 2.16667 26.4629 2.17969C26.3978 2.19271 26.3333 2.21159 26.2695 2.23633C26.207 2.25977 26.1465 2.28971 26.0879 2.32617C26.0293 2.36133 25.9759 2.40169 25.9277 2.44727V4H25.3496V1.69531ZM28.7168 1.69336H29.293V2.81836C29.293 2.92513 29.3047 3.02279 29.3281 3.11133C29.3516 3.19857 29.3913 3.27344 29.4473 3.33594C29.5046 3.39844 29.5801 3.44727 29.6738 3.48242C29.7689 3.51628 29.8867 3.5332 30.0273 3.5332C30.0938 3.5332 30.1608 3.52604 30.2285 3.51172C30.2975 3.4974 30.3633 3.47786 30.4258 3.45312C30.4883 3.42708 30.5462 3.39648 30.5996 3.36133C30.6543 3.32617 30.7012 3.28776 30.7402 3.24609V1.69336H31.3184V4H30.7402V3.80273C30.5983 3.88737 30.4557 3.94792 30.3125 3.98438C30.1693 4.02083 30.0332 4.03906 29.9043 4.03906C29.6934 4.03906 29.5124 4.01367 29.3613 3.96289C29.2116 3.91211 29.0885 3.83854 28.9922 3.74219C28.8971 3.64453 28.8275 3.52539 28.7832 3.38477C28.7389 3.24284 28.7168 3.08138 28.7168 2.90039V1.69336ZM32.1445 3.29297C32.3008 3.38672 32.4727 3.45573 32.6602 3.5C32.8477 3.54427 33.0397 3.56641 33.2363 3.56641C33.3691 3.56641 33.4798 3.55729 33.5684 3.53906C33.6569 3.52083 33.7279 3.4974 33.7812 3.46875C33.8346 3.4401 33.8724 3.40755 33.8945 3.37109C33.9167 3.33464 33.9277 3.29753 33.9277 3.25977C33.9277 3.20508 33.9036 3.1582 33.8555 3.11914C33.8086 3.08008 33.7305 3.06055 33.6211 3.06055C33.5703 3.06055 33.5156 3.0638 33.457 3.07031C33.3984 3.07682 33.3366 3.08398 33.2715 3.0918C33.2077 3.09831 33.1406 3.10482 33.0703 3.11133C33.0013 3.11784 32.931 3.12109 32.8594 3.12109C32.7031 3.12109 32.5697 3.10417 32.459 3.07031C32.3496 3.03646 32.2604 2.99023 32.1914 2.93164C32.1224 2.87305 32.0723 2.80404 32.041 2.72461C32.0098 2.64388 31.9941 2.55729 31.9941 2.46484C31.9941 2.34766 32.0215 2.23958 32.0762 2.14062C32.1309 2.04167 32.209 1.95638 32.3105 1.88477C32.4121 1.81185 32.5345 1.75521 32.6777 1.71484C32.8223 1.67448 32.9831 1.6543 33.1602 1.6543C33.2526 1.6543 33.349 1.66016 33.4492 1.67188C33.5508 1.68229 33.6504 1.69661 33.748 1.71484C33.8457 1.73307 33.9395 1.75456 34.0293 1.7793C34.1191 1.80273 34.1986 1.82812 34.2676 1.85547L34.0859 2.30469C33.9388 2.25 33.7917 2.20703 33.6445 2.17578C33.4987 2.14323 33.3483 2.12695 33.1934 2.12695C33.0853 2.12695 32.9935 2.13542 32.918 2.15234C32.8438 2.16797 32.7832 2.18945 32.7363 2.2168C32.6895 2.24284 32.6549 2.27344 32.6328 2.30859C32.612 2.34245 32.6016 2.37826 32.6016 2.41602C32.6016 2.44336 32.6068 2.4681 32.6172 2.49023C32.6289 2.51237 32.6471 2.5319 32.6719 2.54883C32.6979 2.56445 32.7311 2.57682 32.7715 2.58594C32.8132 2.59375 32.8639 2.59766 32.9238 2.59766C32.9785 2.59766 33.0365 2.5944 33.0977 2.58789C33.1589 2.58138 33.2227 2.57487 33.2891 2.56836C33.3555 2.56055 33.4238 2.55339 33.4941 2.54688C33.5658 2.54036 33.6387 2.53711 33.7129 2.53711C33.8509 2.53711 33.9714 2.55339 34.0742 2.58594C34.1784 2.61849 34.2643 2.66406 34.332 2.72266C34.3997 2.78125 34.4505 2.85026 34.4844 2.92969C34.5182 3.00911 34.5352 3.0957 34.5352 3.18945C34.5352 3.31055 34.5072 3.42318 34.4512 3.52734C34.3952 3.63151 34.3118 3.72201 34.2012 3.79883C34.0905 3.87435 33.9525 3.93359 33.7871 3.97656C33.623 4.01953 33.4329 4.04102 33.2168 4.04102C33.084 4.04102 32.9557 4.03255 32.832 4.01562C32.7083 4 32.5905 3.97852 32.4785 3.95117C32.3665 3.92253 32.2611 3.88932 32.1621 3.85156C32.0645 3.8138 31.9753 3.77344 31.8945 3.73047L32.1445 3.29297Z" fill="white"/>
<defs>
<filter id="filter0_dd_8_28" x="0.699997" y="2.7" width="52.6" height="31.6" filterUnits="userSpaceOnUse" color-interpolation-filters="sRGB">
<feFlood flood-opacity="0" result="BackgroundImageFix"/>
<feColorMatrix in="SourceAlpha" type="matrix" values="0 0 0 0 0 0 0 0 0 0 0 0 0 0 0 0 0 0 127 0" result="hardAlpha"/>
<feOffset dy="4"/>
<feGaussianBlur stdDeviation="2"/>
<feComposite in2="hardAlpha" operator="out"/>
<feColorMatrix type="matrix" values="0 0 0 0 0 0 0 0 0 0 0 0 0 0 0 0 0 0 0.25 0"/>
<feBlend mode="normal" in2="BackgroundImageFix" result="effect1_dropShadow_8_28"/>
<feColorMatrix in="SourceAlpha" type="matrix" values="0 0 0 0 0 0 0 0 0 0 0 0 0 0 0 0 0 0 127 0" result="hardAlpha"/>
<feOffset dy="4"/>
<feGaussianBlur stdDeviation="2"/>
<feComposite in2="hardAlpha" operator="out"/>
<feColorMatrix type="matrix" values="0 0 0 0 0 0 0 0 0 0 0 0 0 0 0 0 0 0 0.25 0"/>
<feBlend mode="normal" in2="effect1_dropShadow_8_28" result="effect2_dropShadow_8_28"/>
<feBlend mode="normal" in="SourceGraphic" in2="effect2_dropShadow_8_28" result="shape"/>
</filter>
</defs>
</svg>
