<svg width="272" height="378" viewBox="0 0 272 378" fill="none" xmlns="http://www.w3.org/2000/svg">
<path fill-rule="evenodd" clip-rule="evenodd" d="M222.129 31.4749H249.836C250.675 31.1477 251.57 30.8681 252.506 30.6257C252.686 30.5786 252.887 30.5559 253.087 30.5334L253.118 30.5299C253.149 30.5264 253.179 30.5229 253.21 30.5192C253.372 30.4996 253.551 30.5458 253.671 30.6674C253.804 30.8024 253.796 30.9237 253.674 31.0121C253.641 31.0356 253.607 31.0584 253.573 31.0809L253.526 31.1122C253.504 31.1262 253.483 31.1402 253.462 31.1543C253.302 31.2599 253.143 31.3668 252.987 31.4749H253.455C257.054 31.4749 260.098 33.8518 261.103 37.1215C261.425 36.8839 261.741 36.6431 262.051 36.3986C262.068 36.5969 262.076 36.7975 262.076 37V41.1607C261.876 41.3895 261.669 41.6142 261.455 41.8355V47.3344C261.563 47.2468 261.675 47.1614 261.791 47.0779C261.887 47.0085 261.982 46.9385 262.076 46.8678V50.93C262.054 50.9344 262.031 50.9387 262.008 50.9427C261.823 50.9755 261.636 50.9804 261.455 50.9603V55.2411C261.666 55.1358 261.872 55.0265 262.076 54.9146V55.5027C261.876 55.6116 261.669 55.7135 261.455 55.8083V56.8417C261.666 56.7664 261.873 56.6865 262.076 56.602V369C262.076 372.976 258.852 376.2 254.876 376.2H9C5.02355 376.2 1.8 372.976 1.8 369V37C1.8 33.0235 5.02355 29.8 9 29.8H219.711C219.361 30.3356 219.063 30.8938 218.819 31.4749H221.222C221.275 31.1909 221.365 30.9151 221.489 30.6453C221.626 30.3491 221.785 30.0675 221.966 29.8H223.202C223.199 29.8044 223.195 29.8087 223.192 29.8131C222.87 30.2246 222.549 30.6382 222.313 31.0949C222.248 31.2205 222.187 31.3471 222.129 31.4749ZM239.533 28.2C239.503 27.9638 239.529 27.7389 239.609 27.5269C239.817 26.9736 240.194 26.4986 240.574 26.03C241.364 25.0563 241.962 24.0092 242.213 22.8067C242.613 20.9065 242.372 18.9611 240.548 16.8864C240.19 16.4778 239.789 16.0947 239.191 15.8315C238.741 15.6328 238.59 15.6729 238.673 16.0165C238.809 16.5857 238.753 17.1011 238.664 17.6248C238.336 19.534 237.057 20.9165 235.011 21.875C233.48 22.5927 231.753 23.1053 230.024 23.6183L230.003 23.6245C229.543 23.761 229.083 23.8975 228.627 24.0381C225.791 24.9101 223.213 26.0185 221.405 27.7674C221.258 27.9096 221.116 28.0538 220.978 28.2H9C4.13989 28.2 0.199997 32.1399 0.199997 37V369C0.199997 373.86 4.13989 377.8 9 377.8H254.876C259.736 377.8 263.676 373.86 263.676 369V55.7803C264.38 55.3405 265.012 54.826 265.57 54.2341C266.758 52.9755 267.328 51.5017 267.013 49.7171C266.92 49.1811 266.706 48.6369 266.491 48.0931C266.415 47.9013 266.34 47.7096 266.269 47.5183C266.147 47.1815 265.971 46.8301 265.642 46.5054C265.634 46.4979 265.627 46.4905 265.619 46.483C265.539 46.4021 265.458 46.3204 265.31 46.3288C265.177 46.337 265.096 46.3932 265.084 46.4863C265.073 46.5736 265.072 46.6642 265.082 46.7548C265.207 47.9969 264.901 49.0795 263.91 49.8996C263.894 49.9126 263.879 49.9256 263.863 49.9386C263.845 49.9531 263.827 49.9676 263.81 49.9822C263.765 50.019 263.721 50.0559 263.676 50.0926V45.4708C264.316 44.8123 264.857 44.0984 265.271 43.3172C266.004 41.9349 266.419 40.4296 266.428 38.8042C266.433 38.1148 266.269 37.3975 265.867 36.666C265.767 36.4825 265.635 36.2957 265.335 36.2428C265.106 36.2012 265.062 36.3137 265.021 36.4199L265.021 36.4206C265.011 36.4472 265.001 36.4734 264.988 36.4967C264.597 37.2176 264.209 37.9403 263.826 38.6648C263.777 38.757 263.727 38.8484 263.676 38.9392V37C263.676 36.3815 263.612 35.7778 263.491 35.1953C264.944 33.8999 266.211 32.4913 267.184 30.9048C268.438 28.8626 269.092 26.6376 268.291 24.0005C268.084 23.3179 267.748 22.65 266.996 22.0386C266.987 22.0313 266.978 22.0237 266.969 22.0161L266.968 22.0152C266.874 21.9382 266.773 21.8555 266.65 21.8602C266.529 21.8648 266.542 21.9369 266.555 22.0079C266.557 22.024 266.56 22.0399 266.562 22.0551C266.563 22.0641 266.563 22.0729 266.562 22.0812C266.517 22.7603 266.362 23.4005 266.084 24.0076C265.615 25.0296 264.497 25.6062 263.342 26.1573C262.699 26.462 261.947 26.6313 260.972 26.1943C259.908 25.7171 259.172 25.0788 258.977 24.2538C258.801 23.5126 259.032 22.8925 259.405 22.325C259.857 21.6374 260.568 21.0984 261.272 20.5652L261.276 20.562C261.33 20.5207 261.384 20.4795 261.439 20.4383C261.626 20.2957 261.815 20.1535 262.003 20.0113C264.045 18.4692 266.084 16.929 267.479 14.9808C268.278 13.8638 268.828 12.6594 268.961 11.2928C269.112 9.7201 268.655 8.0721 267.967 6.3976C267.648 5.6213 267.237 4.8564 266.694 4.0986C265.648 2.6346 264.214 1.3569 262.297 0.331296C262.258 0.309996 262.215 0.285796 262.17 0.260496C261.877 0.0947963 261.495 -0.120904 261.277 0.0829964C261.06 0.286834 261.386 0.507345 261.667 0.697142L261.668 0.697597C261.718 0.731096 261.766 0.763597 261.81 0.794896C263.267 1.8349 264.14 3.0057 264.501 4.2611C264.842 5.4431 264.695 6.5134 264.352 7.552C263.794 9.2364 262.445 10.3931 260.371 11.1141C258.881 11.6321 257.348 12.1 255.721 12.4653C254.839 12.6643 253.97 12.8801 253.133 13.1301C250.278 13.9859 247.948 15.2438 246.766 17.3272C245.893 18.8629 245.352 20.5237 245.055 22.2758C245.038 22.3771 245.021 22.4785 245.003 22.5799L245.002 22.5838C244.665 24.58 244.327 26.5801 242.984 28.2H239.533ZM254.681 29.8C254.522 29.8877 254.367 29.9809 254.216 30.0803C254.622 30.0996 254.867 30.0114 255.095 29.9292C255.182 29.8977 255.267 29.8671 255.358 29.8437C255.386 29.8365 255.414 29.8292 255.442 29.8219C255.255 29.8074 255.067 29.8 254.876 29.8H254.681ZM258.195 28.8473C258.03 28.7803 257.863 28.7181 257.694 28.661C257.815 28.6258 257.935 28.5909 258.056 28.556C258.238 28.5033 258.42 28.4505 258.603 28.3968C258.671 28.583 258.557 28.6443 258.447 28.7033C258.428 28.7133 258.41 28.7232 258.392 28.7337C258.327 28.7728 258.262 28.8106 258.195 28.8473ZM223.535 28.2H224.53C224.541 28.19 224.552 28.18 224.563 28.1701C224.817 27.9427 225.07 27.7149 225.328 27.4826L225.643 27.1989C225.419 27.131 225.316 27.1871 225.219 27.2401C225.197 27.2521 225.175 27.2641 225.152 27.2743C224.551 27.545 224.012 27.8531 223.535 28.2ZM216.113 31.4749H216.608C216.696 31.2546 216.772 31.0295 216.847 30.8044C216.86 30.7662 216.873 30.728 216.886 30.6899C216.915 30.6051 216.943 30.5204 216.973 30.4361C217.002 30.3583 216.997 30.2741 216.866 30.2156C216.734 30.1549 216.648 30.1992 216.602 30.2697C216.566 30.3243 216.535 30.3828 216.513 30.4438C216.398 30.7951 216.267 31.1397 216.113 31.4749ZM251.557 15.3729C251.533 15.3678 251.511 15.3624 251.493 15.3578L251.491 15.3574C251.458 15.349 251.437 15.3436 251.426 15.3478C251.414 15.352 251.403 15.3562 251.391 15.3604L251.389 15.3613C251.325 15.3845 251.261 15.408 251.217 15.4437C250.078 16.3792 249.015 17.3611 248.24 18.5075C247.535 19.5529 247.279 20.7628 247.123 22.0048C247.09 22.2663 247.07 22.5316 247.051 22.7969C246.998 23.5177 246.944 24.2381 246.622 24.8807C246.593 24.9414 246.57 25.0081 246.695 25.0673C246.848 25.1422 246.876 25.074 246.9 25.0158L246.9 25.0156C246.904 25.0052 246.908 24.9952 246.913 24.9863C247.13 24.597 247.321 24.1959 247.506 23.7908C247.923 22.8733 248.179 21.9041 248.341 20.9044C248.638 19.0755 249.49 17.4985 250.863 16.1364C250.93 16.07 251.004 16.0068 251.08 15.943C251.275 15.7778 251.474 15.609 251.557 15.3729ZM266.943 12.686L266.931 12.7038L266.927 12.7105C266.854 12.8203 266.787 12.9217 266.762 13.0357C266.589 13.7454 266.154 14.328 265.538 14.8143C264.978 15.2572 264.404 15.6914 263.829 16.1256L263.829 16.126C263.341 16.4951 262.853 16.8643 262.373 17.2391C262.349 17.2569 262.312 17.2731 262.274 17.2901L262.267 17.293C262.153 17.3421 262.027 17.3966 262.171 17.5029C262.305 17.6026 262.406 17.5277 262.501 17.4572C262.535 17.4315 262.569 17.4064 262.604 17.3905C262.799 17.2996 262.988 17.2032 263.176 17.1069L263.183 17.1036C263.398 16.9939 263.614 16.8843 263.837 16.7824C265.681 15.9397 266.62 14.5925 267.2 13.0443C267.248 12.915 267.26 12.7509 267.038 12.5343C267.007 12.5879 266.974 12.6379 266.943 12.686ZM245.579 27.1236C245.559 27.1591 245.538 27.1947 245.518 27.2303C245.458 27.3372 245.397 27.444 245.333 27.5493C245.289 27.622 245.293 27.7144 245.399 27.7745C245.556 27.8633 245.653 27.7823 245.698 27.7176C245.706 27.7057 245.714 27.6937 245.723 27.6817C245.731 27.6698 245.739 27.6578 245.747 27.6459C245.863 27.4782 245.98 27.3083 246.028 27.1171C246.036 27.0864 246.052 27.0511 246.067 27.0141L246.068 27.0129C246.12 26.8905 246.181 26.7491 246.019 26.6895C245.816 26.6139 245.778 26.7239 245.739 26.8367L245.739 26.838C245.72 26.8924 245.701 26.9474 245.662 26.9823C245.631 27.0103 245.614 27.0473 245.598 27.0843C245.595 27.0914 245.592 27.0986 245.588 27.1057C245.585 27.1117 245.582 27.1177 245.579 27.1236ZM236.223 16.5659C236.272 16.4768 236.297 16.357 236.127 16.2823C235.952 16.207 235.901 16.301 235.857 16.3823C235.853 16.3893 235.849 16.3961 235.845 16.4027L235.844 16.4051C235.342 17.2961 234.476 17.9696 233.61 18.643C233.48 18.7445 233.35 18.846 233.22 18.9482C232.675 19.3801 231.961 19.6677 231.248 19.955L231.245 19.9563L231.229 19.9627C230.885 20.1013 230.541 20.2401 230.217 20.3952C230.042 20.479 229.871 20.5663 229.7 20.6537L229.697 20.655C229.055 20.9829 228.412 21.3114 227.581 21.453C227.169 21.5237 226.772 21.6147 226.375 21.7057C225.742 21.8508 225.108 21.996 224.413 22.059C224.405 22.0597 224.397 22.0603 224.389 22.0609C224.378 22.0617 224.366 22.0624 224.354 22.0631C224.222 22.0711 224.074 22.0802 224.116 22.2234C224.162 22.381 224.333 22.4128 224.487 22.4417L224.488 22.4418C224.503 22.4446 224.518 22.4474 224.533 22.4502C224.544 22.4523 224.554 22.4544 224.565 22.4567C225.227 22.598 225.855 22.6239 226.411 22.5067C227.103 22.3627 227.828 22.2664 228.553 22.1702L228.558 22.1695C229.134 22.0924 229.686 21.9779 230.185 21.7996C232.884 20.8379 234.553 19.1932 235.816 17.2783C235.837 17.2425 235.857 17.2067 235.878 17.171C235.903 17.1276 235.928 17.0843 235.953 17.041L235.955 17.038C236.045 16.8813 236.136 16.7247 236.223 16.5659ZM271.573 13.4544C271.785 12.559 271.603 11.6134 271.132 10.6227C271.118 10.5951 271.111 10.5661 271.103 10.5375C271.079 10.4479 271.056 10.3627 270.865 10.3401C270.64 10.3129 270.667 10.4378 270.69 10.5435C270.692 10.5526 270.694 10.5616 270.695 10.5704C270.789 11.0573 270.85 11.5409 270.792 11.9968C270.647 13.1036 270.228 14.1096 269.653 15.0577C269.574 15.1873 269.497 15.3183 269.421 15.4493C269.118 15.9695 268.815 16.4896 268.335 16.9215C268.166 17.0723 267.986 17.2147 267.805 17.3566L267.794 17.3654C267.747 17.4022 267.701 17.439 267.654 17.4759C267.649 17.4798 267.644 17.4838 267.639 17.4876C267.631 17.4935 267.622 17.4993 267.614 17.5052C267.545 17.5533 267.473 17.6038 267.582 17.6961C267.706 17.8024 267.804 17.7642 267.897 17.728C267.918 17.7201 267.938 17.7123 267.958 17.7061C267.983 17.698 268.004 17.686 268.025 17.6738L268.03 17.6708C268.034 17.6687 268.037 17.6666 268.041 17.6645C268.047 17.661 268.053 17.6576 268.059 17.6544C269.29 16.9802 270.343 16.1942 270.937 15.119C271.252 14.6028 271.434 14.0376 271.573 13.4544ZM266.574 44.8411L266.573 44.8429C266.457 45.0397 266.341 45.2368 266.333 45.4752C266.328 45.6054 266.385 45.7479 266.567 45.8281C266.708 45.8913 266.785 45.82 266.851 45.759L266.851 45.7587C266.864 45.7466 266.877 45.735 266.889 45.7248C267.152 45.5081 267.382 45.271 267.482 44.9695C267.738 44.1862 268.12 43.4583 268.618 42.7803C268.622 42.7753 268.626 42.7703 268.63 42.7653C268.634 42.7594 268.639 42.7536 268.643 42.7477C268.701 42.6774 268.761 42.6027 268.604 42.5125C268.438 42.4161 268.355 42.4819 268.276 42.5442L268.275 42.545C268.265 42.553 268.255 42.5609 268.245 42.5684C268.239 42.573 268.233 42.5775 268.227 42.5818C267.588 43.0053 267.256 43.5911 266.947 44.189C266.915 44.2458 266.882 44.3024 266.85 44.3591C266.784 44.4725 266.719 44.586 266.655 44.7003C266.629 44.7476 266.602 44.7943 266.574 44.8411Z" fill="#D1540E"/>
</svg>
