<svg width="54" height="35" viewBox="0 0 54 35" fill="none" xmlns="http://www.w3.org/2000/svg">
<rect x="7" y="23" width="40" height="6" rx="2" fill="#013DA5"/>
<g filter="url(#filter0_dd_16_92)">
<path fill-rule="evenodd" clip-rule="evenodd" d="M15 2.7H12H10C7.07289 2.7 4.7 5.07289 4.7 8V21C4.7 23.9271 7.07289 26.3 10 26.3H44C46.9271 26.3 49.3 23.9271 49.3 21V8C49.3 5.07289 46.9271 2.7 44 2.7H39V3H44C46.7614 3 49 5.23857 49 8V21C49 23.7614 46.7614 26 44 26H10C7.23858 26 5 23.7614 5 21V8C5 5.23857 7.23858 3 10 3H12H15V2.7Z" fill="#013DA5"/>
</g>
<path d="M24.0264 17.0996H26.4531V10.4482C26.1341 10.5212 25.8265 10.6169 25.5303 10.7354C25.2386 10.8538 24.972 10.9974 24.7305 11.166L23.6641 9.6416C24.056 9.39551 24.4548 9.18815 24.8604 9.01953C25.2705 8.84635 25.6829 8.70964 26.0977 8.60938C26.5169 8.50456 26.9362 8.42936 27.3555 8.38379C27.7793 8.33822 28.2008 8.31543 28.6201 8.31543L28.6133 8.3291H28.6201V17.0996H30.9375V19H24.0264V17.0996Z" fill="white"/>
<path d="M19.9355 0.947266H20.5547L21.6641 2.06055L22.7734 0.947266H23.3926V4H22.7734V1.80469L21.6641 2.87305L20.5547 1.80469V4H19.9355V0.947266ZM24.0801 3.27344C24.0801 3.16276 24.1042 3.06185 24.1523 2.9707C24.2005 2.87956 24.2728 2.80143 24.3691 2.73633C24.4655 2.66992 24.5853 2.61914 24.7285 2.58398C24.873 2.54753 25.041 2.5293 25.2324 2.5293C25.3743 2.5293 25.5234 2.53971 25.6797 2.56055C25.8372 2.58138 25.9993 2.61328 26.166 2.65625C26.1595 2.58333 26.1374 2.51628 26.0996 2.45508C26.0618 2.39258 26.0091 2.33919 25.9414 2.29492C25.875 2.24935 25.7943 2.21419 25.6992 2.18945C25.6055 2.16471 25.4987 2.15234 25.3789 2.15234C25.3138 2.15234 25.2422 2.15625 25.1641 2.16406C25.0859 2.17188 25.0052 2.18359 24.9219 2.19922C24.8385 2.21484 24.7559 2.23438 24.6738 2.25781C24.5931 2.28125 24.5176 2.30924 24.4473 2.3418L24.2715 1.86719C24.3587 1.83594 24.4518 1.80729 24.5508 1.78125C24.651 1.75521 24.7533 1.73307 24.8574 1.71484C24.9616 1.69531 25.0658 1.68034 25.1699 1.66992C25.2741 1.65951 25.375 1.6543 25.4727 1.6543C25.9036 1.6543 26.224 1.76432 26.4336 1.98438C26.6432 2.20443 26.748 2.54167 26.748 2.99609V4H26.1699V3.7832C26.11 3.81836 26.0443 3.85156 25.9727 3.88281C25.9023 3.91406 25.8255 3.94141 25.7422 3.96484C25.6589 3.98828 25.569 4.00651 25.4727 4.01953C25.3776 4.03385 25.2767 4.04102 25.1699 4.04102C24.9902 4.04102 24.832 4.02148 24.6953 3.98242C24.5599 3.94336 24.4466 3.88932 24.3555 3.82031C24.2643 3.7513 24.1953 3.67057 24.1484 3.57812C24.1029 3.48438 24.0801 3.38281 24.0801 3.27344ZM24.6895 3.25391C24.6895 3.29167 24.6992 3.32812 24.7188 3.36328C24.7383 3.39714 24.7695 3.42773 24.8125 3.45508C24.8555 3.48112 24.9102 3.5026 24.9766 3.51953C25.0443 3.53516 25.1257 3.54297 25.2207 3.54297C25.3223 3.54297 25.4206 3.53385 25.5156 3.51562C25.6107 3.4974 25.6992 3.47331 25.7812 3.44336C25.8633 3.41341 25.9375 3.37891 26.0039 3.33984C26.0703 3.30078 26.1257 3.26042 26.1699 3.21875V3.11719C26.0814 3.09245 25.9935 3.07161 25.9062 3.05469C25.8203 3.03776 25.7376 3.02474 25.6582 3.01562C25.5801 3.00521 25.5059 2.99805 25.4355 2.99414C25.3665 2.99023 25.306 2.98828 25.2539 2.98828C25.1458 2.98828 25.056 2.99544 24.9844 3.00977C24.9128 3.02409 24.8548 3.04362 24.8105 3.06836C24.7663 3.0918 24.735 3.11979 24.7168 3.15234C24.6986 3.1849 24.6895 3.21875 24.6895 3.25391ZM27.5137 1.69531H28.0918V2.02734C28.2194 1.93229 28.3542 1.85026 28.4961 1.78125C28.638 1.71224 28.7793 1.65951 28.9199 1.62305L29.0898 2.15234C28.8672 2.17448 28.6712 2.22461 28.502 2.30273C28.334 2.37956 28.1973 2.48828 28.0918 2.62891V4H27.5137V1.69531ZM29.8691 2.12891H29.3125V1.69531H29.8691V0.978516H30.4473V1.69531H31.0039V2.12891H30.4473V4H29.8691V2.12891ZM31.4082 2.83984C31.4082 2.68359 31.4401 2.53451 31.5039 2.39258C31.5677 2.24935 31.6595 2.12305 31.7793 2.01367C31.8991 1.9043 32.0456 1.81706 32.2188 1.75195C32.3932 1.68685 32.5911 1.6543 32.8125 1.6543C33.0326 1.6543 33.2305 1.6875 33.4062 1.75391C33.5833 1.81901 33.7331 1.90885 33.8555 2.02344C33.9792 2.13802 34.0736 2.27279 34.1387 2.42773C34.2051 2.58268 34.2383 2.7487 34.2383 2.92578C34.2383 2.94792 34.2376 2.97201 34.2363 2.99805C34.2363 3.02279 34.235 3.04557 34.2324 3.06641H32.0527C32.0775 3.13542 32.1172 3.19857 32.1719 3.25586C32.2279 3.31315 32.2975 3.36263 32.3809 3.4043C32.4642 3.44596 32.5605 3.47852 32.6699 3.50195C32.7793 3.52409 32.9004 3.53516 33.0332 3.53516C33.166 3.53516 33.2982 3.52148 33.4297 3.49414C33.5612 3.46549 33.6868 3.42969 33.8066 3.38672L34.002 3.82812C33.9264 3.86328 33.8496 3.89453 33.7715 3.92188C33.6947 3.94792 33.6139 3.97005 33.5293 3.98828C33.446 4.00521 33.3581 4.01823 33.2656 4.02734C33.1745 4.03646 33.0781 4.04102 32.9766 4.04102C32.7174 4.04102 32.4902 4.00977 32.2949 3.94727C32.0996 3.88477 31.9362 3.79948 31.8047 3.69141C31.6732 3.58333 31.5742 3.45638 31.5078 3.31055C31.4414 3.16471 31.4082 3.00781 31.4082 2.83984ZM33.625 2.61523C33.6042 2.55143 33.5716 2.49219 33.5273 2.4375C33.4844 2.38151 33.4303 2.33333 33.3652 2.29297C33.3001 2.2513 33.2246 2.21875 33.1387 2.19531C33.0527 2.17188 32.9583 2.16016 32.8555 2.16016C32.7461 2.16016 32.6465 2.17253 32.5566 2.19727C32.4668 2.22201 32.388 2.25521 32.3203 2.29688C32.2526 2.33854 32.196 2.38672 32.1504 2.44141C32.1061 2.49609 32.0736 2.55404 32.0527 2.61523H33.625Z" fill="white"/>
<circle cx="32.5" cy="17.5" r="2.5" fill="#013DA5"/>
<path d="M30.7793 17.5227C30.7793 17.4152 30.7995 17.315 30.8398 17.2219C30.8802 17.1281 30.9391 17.0467 31.0166 16.9777C31.0941 16.9087 31.1891 16.8544 31.3018 16.8147C31.415 16.7749 31.5446 16.7551 31.6904 16.7551C31.7432 16.7551 31.7959 16.758 31.8486 16.7639C31.902 16.7691 31.9544 16.7775 32.0059 16.7893C32.0579 16.801 32.1084 16.816 32.1572 16.8342C32.2067 16.8518 32.2536 16.8729 32.2979 16.8977L32.1553 17.132C32.1286 17.1164 32.0983 17.1024 32.0645 17.09C32.0306 17.077 31.9941 17.0663 31.9551 17.0578C31.9167 17.0487 31.8766 17.0419 31.835 17.0373C31.7939 17.0328 31.7526 17.0305 31.7109 17.0305C31.6146 17.0305 31.5286 17.0428 31.4531 17.0676C31.3776 17.0917 31.3138 17.1258 31.2617 17.1701C31.2096 17.2137 31.1699 17.2661 31.1426 17.3273C31.1152 17.3885 31.1016 17.4556 31.1016 17.5285C31.1016 17.604 31.1159 17.6734 31.1445 17.7365C31.1732 17.7997 31.2139 17.854 31.2666 17.8996C31.3193 17.9452 31.3831 17.981 31.458 18.007C31.5329 18.0324 31.6165 18.0451 31.709 18.0451C31.7826 18.0451 31.8499 18.037 31.9111 18.0207C31.9723 18.0038 32.0257 17.98 32.0713 17.9494C32.1169 17.9188 32.154 17.882 32.1826 17.8391C32.2113 17.7954 32.2301 17.7466 32.2393 17.6926H31.7061V17.4377H32.5176V17.4387L32.5186 17.4377C32.5348 17.5158 32.5397 17.592 32.5332 17.6662C32.5273 17.7398 32.5104 17.8094 32.4824 17.8752C32.4551 17.9403 32.4173 18.0002 32.3691 18.0549C32.321 18.1096 32.2633 18.1568 32.1963 18.1965C32.1292 18.2355 32.0531 18.2661 31.9678 18.2883C31.8825 18.3098 31.7891 18.3205 31.6875 18.3205C31.5456 18.3205 31.4183 18.2997 31.3057 18.258C31.1937 18.2163 31.0986 18.1594 31.0205 18.0871C30.9424 18.0148 30.8825 17.9302 30.8408 17.8332C30.7998 17.7362 30.7793 17.6327 30.7793 17.5227ZM32.8398 16.6799H33.1289V17.2561C33.1543 17.2385 33.1842 17.2219 33.2188 17.2063C33.2533 17.1906 33.2904 17.177 33.3301 17.1652C33.3698 17.1535 33.4108 17.1444 33.4531 17.1379C33.4954 17.1307 33.5378 17.1272 33.5801 17.1272C33.6777 17.1272 33.7673 17.1415 33.8486 17.1701C33.9307 17.1988 34.001 17.2391 34.0596 17.2912C34.1182 17.3433 34.1637 17.4058 34.1963 17.4787C34.2295 17.551 34.2461 17.6311 34.2461 17.7189C34.2461 17.8107 34.2288 17.8938 34.1943 17.968C34.1598 18.0415 34.112 18.1047 34.0508 18.1574C33.9902 18.2095 33.918 18.2499 33.834 18.2785C33.7507 18.3065 33.6602 18.3205 33.5625 18.3205C33.5208 18.3205 33.4795 18.3179 33.4385 18.3127C33.3981 18.3075 33.359 18.3003 33.3213 18.2912C33.2842 18.2821 33.249 18.2714 33.2158 18.259C33.1833 18.246 33.1543 18.232 33.1289 18.217V18.3H32.8398V16.6799ZM33.1289 17.9377C33.1582 17.9611 33.1891 17.981 33.2217 17.9973C33.2542 18.0135 33.2874 18.0269 33.3213 18.0373C33.3551 18.0477 33.3893 18.0555 33.4238 18.0607C33.4583 18.0653 33.4919 18.0676 33.5244 18.0676C33.5908 18.0676 33.6497 18.0588 33.7012 18.0412C33.7533 18.023 33.7969 17.9982 33.832 17.967C33.8678 17.9357 33.8952 17.899 33.9141 17.8566C33.9329 17.8143 33.9424 17.7684 33.9424 17.7189C33.9424 17.6727 33.9329 17.6291 33.9141 17.5881C33.8958 17.5471 33.8691 17.5113 33.834 17.4807C33.7995 17.4494 33.7575 17.425 33.708 17.4074C33.6592 17.3892 33.6042 17.3801 33.543 17.3801C33.5039 17.3801 33.4648 17.384 33.4258 17.3918C33.3867 17.399 33.349 17.4094 33.3125 17.423C33.2767 17.4367 33.2428 17.4533 33.2109 17.4729C33.1797 17.4924 33.1523 17.5142 33.1289 17.5383V17.9377Z" fill="white"/>
<path d="M9.36236 24.4736H10.1387C10.2559 24.4736 10.3575 24.486 10.4434 24.5107C10.5294 24.5348 10.6006 24.57 10.6573 24.6162C10.7139 24.6624 10.7559 24.7188 10.7833 24.7852C10.8113 24.8516 10.8253 24.9268 10.8253 25.0107C10.8253 25.0674 10.8184 25.1214 10.8047 25.1729C10.7911 25.2236 10.7699 25.2705 10.7413 25.3135C10.7133 25.3564 10.6778 25.3949 10.6348 25.4287C10.5919 25.4619 10.5414 25.4896 10.4835 25.5117L10.8155 26H10.4366L10.1495 25.5664H10.1407L9.67193 25.5654V26H9.36236V24.4736ZM10.1465 25.2979C10.2051 25.2979 10.2562 25.291 10.2999 25.2773C10.3441 25.2637 10.3809 25.2445 10.4102 25.2197C10.4402 25.195 10.4623 25.165 10.4766 25.1299C10.4916 25.0941 10.4991 25.0544 10.4991 25.0107C10.4991 24.9255 10.4698 24.8597 10.4112 24.8135C10.3526 24.7666 10.2644 24.7432 10.1465 24.7432H9.67193V25.2979H10.1465ZM11.2637 25.5459C11.3106 25.5726 11.3578 25.597 11.4053 25.6191C11.4529 25.6406 11.5017 25.6598 11.5518 25.6768C11.6026 25.693 11.6547 25.707 11.7081 25.7188C11.7621 25.7298 11.8191 25.7376 11.879 25.7422V25.3574C11.8458 25.3613 11.8139 25.3646 11.7833 25.3672C11.7527 25.3698 11.723 25.3711 11.6944 25.3711C11.626 25.3711 11.5603 25.3623 11.4971 25.3447C11.4346 25.3271 11.379 25.3008 11.3301 25.2656C11.282 25.2305 11.2435 25.1865 11.2149 25.1338C11.1863 25.0811 11.1719 25.0195 11.1719 24.9492C11.1719 24.8893 11.1843 24.8304 11.209 24.7725C11.2344 24.7139 11.2751 24.6615 11.3311 24.6152C11.3878 24.5684 11.461 24.5296 11.5508 24.499C11.6407 24.4684 11.7501 24.4508 11.879 24.4463V24.1504H12.1104V24.4521C12.2191 24.4619 12.3233 24.4798 12.4229 24.5059C12.5232 24.5319 12.615 24.5635 12.6983 24.6006L12.5626 24.8506C12.4975 24.8226 12.4271 24.7979 12.3516 24.7764C12.2761 24.7549 12.1957 24.7393 12.1104 24.7295V25.04C12.1417 25.0368 12.1729 25.0342 12.2042 25.0322C12.2354 25.0296 12.266 25.0283 12.296 25.0283C12.3858 25.0283 12.4652 25.0384 12.5342 25.0586C12.6039 25.0788 12.6622 25.1077 12.709 25.1455C12.7559 25.1826 12.7914 25.2279 12.8155 25.2812C12.8396 25.334 12.8516 25.3932 12.8516 25.459C12.8516 25.5404 12.834 25.6139 12.7989 25.6797C12.7644 25.7448 12.7149 25.8011 12.6504 25.8486C12.5866 25.8962 12.5088 25.9342 12.4171 25.9629C12.3259 25.9915 12.2237 26.0098 12.1104 26.0176V26.3145H11.879V26.0186C11.7279 26.0094 11.586 25.9854 11.4532 25.9463C11.321 25.9066 11.2029 25.8568 11.0987 25.7969L11.2637 25.5459ZM11.4962 24.9199C11.4962 24.9655 11.5167 25.0029 11.5577 25.0322C11.5987 25.0609 11.6612 25.0752 11.7452 25.0752C11.7641 25.0752 11.7849 25.0745 11.8077 25.0732C11.8305 25.0713 11.8542 25.069 11.879 25.0664V24.7207C11.8054 24.7233 11.7439 24.7311 11.6944 24.7441C11.6456 24.7572 11.6065 24.7731 11.5772 24.792C11.5479 24.8109 11.5271 24.8317 11.5147 24.8545C11.5023 24.8766 11.4962 24.8984 11.4962 24.9199ZM12.1104 25.7441C12.1846 25.7396 12.2481 25.7301 12.3008 25.7158C12.3536 25.7015 12.3965 25.6836 12.4297 25.6621C12.4636 25.64 12.488 25.6149 12.503 25.5869C12.5186 25.5589 12.5264 25.5293 12.5264 25.498C12.5264 25.4427 12.5033 25.3991 12.4571 25.3672C12.4109 25.3346 12.3396 25.3184 12.2432 25.3184C12.2224 25.3184 12.2006 25.3193 12.1778 25.3213C12.1557 25.3226 12.1332 25.3245 12.1104 25.3271V25.7441Z" fill="white"/>
<path d="M14.5151 27.4422L15.6451 26.667C15.8146 26.5508 15.9534 26.4496 16.0614 26.3635C16.1694 26.2773 16.2542 26.2008 16.3157 26.1338C16.3772 26.0654 16.4196 26.0039 16.4428 25.9492C16.4661 25.8945 16.4777 25.8398 16.4777 25.7852C16.4777 25.7223 16.4647 25.6635 16.4387 25.6088C16.4128 25.5541 16.3717 25.5063 16.3157 25.4652C16.261 25.4242 16.1899 25.3921 16.1024 25.3688C16.0163 25.3456 15.9131 25.334 15.7927 25.334C15.6177 25.334 15.4434 25.3586 15.2698 25.4078C15.0962 25.457 14.9191 25.5356 14.7386 25.6437L14.4392 25.1515C14.6402 25.0271 14.8576 24.93 15.0914 24.8603C15.3265 24.7905 15.5733 24.7557 15.8317 24.7557C16.0573 24.7557 16.2528 24.783 16.4182 24.8377C16.585 24.891 16.7224 24.9642 16.8304 25.0571C16.9398 25.1501 17.0212 25.2581 17.0745 25.3812C17.1278 25.5042 17.1545 25.6348 17.1545 25.7729C17.1545 25.8795 17.1367 25.9813 17.1011 26.0784C17.0656 26.1755 17.0034 26.276 16.9145 26.3799C16.8257 26.4838 16.7053 26.5959 16.5536 26.7162C16.4032 26.8352 16.2132 26.9705 15.9835 27.1223L15.5159 27.4299H17.2714V28H14.5151V27.4422ZM17.8353 26.3901C17.8353 26.1317 17.8743 25.9 17.9522 25.6949C18.0301 25.4898 18.1409 25.3162 18.2844 25.174C18.428 25.0305 18.6023 24.9211 18.8074 24.8459C19.0125 24.7707 19.2422 24.7331 19.4965 24.7331C19.7507 24.7331 19.9804 24.7707 20.1855 24.8459C20.3906 24.9211 20.5649 25.0305 20.7085 25.174C20.852 25.3162 20.9628 25.4898 21.0407 25.6949C21.1186 25.9 21.1576 26.1317 21.1576 26.3901C21.1576 26.6485 21.1186 26.8803 21.0407 27.0854C20.9628 27.2904 20.852 27.4641 20.7085 27.6063C20.5649 27.7484 20.3906 27.8571 20.1855 27.9323C19.9804 28.0075 19.7507 28.0451 19.4965 28.0451C19.2422 28.0451 19.0125 28.0075 18.8074 27.9323C18.6023 27.8571 18.428 27.7484 18.2844 27.6063C18.1409 27.4641 18.0301 27.2904 17.9522 27.0854C17.8743 26.8803 17.8353 26.6485 17.8353 26.3901ZM18.4854 26.3881C18.4854 26.5631 18.5087 26.7176 18.5551 26.8516C18.603 26.9855 18.6707 27.0983 18.7582 27.1899C18.8457 27.2802 18.9516 27.3492 19.076 27.3971C19.2005 27.4436 19.3406 27.4668 19.4965 27.4668C19.6523 27.4668 19.7924 27.4436 19.9169 27.3971C20.0413 27.3492 20.1472 27.2802 20.2347 27.1899C20.3222 27.0983 20.3892 26.9855 20.4357 26.8516C20.4836 26.7176 20.5075 26.5631 20.5075 26.3881C20.5075 26.2145 20.4836 26.0613 20.4357 25.9287C20.3892 25.7947 20.3222 25.6819 20.2347 25.5903C20.1472 25.4987 20.0413 25.4297 19.9169 25.3832C19.7924 25.3354 19.6523 25.3114 19.4965 25.3114C19.3406 25.3114 19.2005 25.3354 19.076 25.3832C18.9516 25.4297 18.8457 25.4987 18.7582 25.5903C18.6707 25.6819 18.603 25.7947 18.5551 25.9287C18.5087 26.0613 18.4854 26.2145 18.4854 26.3881ZM22.2773 27.2597C22.3361 27.2938 22.4017 27.3239 22.4742 27.3499C22.5466 27.3759 22.6212 27.3978 22.6977 27.4155C22.7757 27.4319 22.8536 27.4449 22.9315 27.4545C23.0108 27.4627 23.086 27.4668 23.1571 27.4668C23.3157 27.4668 23.4586 27.4463 23.5857 27.4053C23.7142 27.3643 23.825 27.3062 23.9179 27.231C24.0109 27.1558 24.0847 27.0662 24.1394 26.9623C24.1955 26.857 24.2303 26.7408 24.244 26.6137C24.1729 26.6697 24.0943 26.7183 24.0082 26.7593C23.922 26.8003 23.8304 26.8345 23.7334 26.8618C23.6377 26.8878 23.5385 26.9076 23.436 26.9213C23.3348 26.9336 23.233 26.9397 23.1304 26.9397C22.9308 26.9397 22.749 26.9158 22.5849 26.868C22.4222 26.8201 22.2828 26.7511 22.1666 26.6608C22.0504 26.5706 21.9601 26.4612 21.8959 26.3327C21.833 26.2028 21.8015 26.0559 21.8015 25.8918C21.8015 25.7305 21.833 25.5808 21.8959 25.4427C21.9601 25.3046 22.0545 25.185 22.1789 25.0838C22.3033 24.9813 22.4578 24.9013 22.6423 24.8438C22.8269 24.7851 23.0409 24.7557 23.2842 24.7557C23.5208 24.7557 23.7368 24.7857 23.9323 24.8459C24.1278 24.9061 24.2953 24.9997 24.4347 25.1269C24.5742 25.254 24.6822 25.416 24.7588 25.6129C24.8367 25.8084 24.8757 26.0422 24.8757 26.3143C24.8757 26.6055 24.8319 26.8598 24.7444 27.0771C24.6583 27.2932 24.5393 27.4729 24.3876 27.6165C24.2372 27.7601 24.0594 27.8674 23.8544 27.9385C23.6493 28.0096 23.4278 28.0451 23.1899 28.0451C23.0901 28.0451 22.9862 28.039 22.8782 28.0267C22.7715 28.0144 22.6656 27.9959 22.5603 27.9713C22.455 27.9467 22.3532 27.9159 22.2548 27.879C22.1577 27.8421 22.0688 27.7997 21.9882 27.7519L22.2773 27.2597ZM22.4516 25.8815C22.4516 25.9485 22.466 26.0114 22.4947 26.0702C22.5234 26.129 22.5678 26.1803 22.628 26.224C22.6895 26.2664 22.7681 26.3006 22.8638 26.3266C22.9595 26.3512 23.0751 26.3635 23.2104 26.3635C23.3239 26.3635 23.4312 26.3546 23.5324 26.3368C23.6336 26.319 23.7272 26.2944 23.8133 26.263C23.8995 26.2315 23.9774 26.1946 24.0471 26.1522C24.1182 26.1099 24.1791 26.0634 24.2297 26.0128C24.1968 25.7886 24.0984 25.6197 23.9343 25.5063C23.7703 25.3914 23.5549 25.334 23.2883 25.334C23.1544 25.334 23.0354 25.3477 22.9315 25.375C22.8276 25.4023 22.7401 25.4406 22.669 25.4898C22.5979 25.5377 22.5439 25.5951 22.507 25.6621C22.4701 25.7291 22.4516 25.8022 22.4516 25.8815Z" fill="white"/>
<path d="M25.4106 26.3451C25.4106 26.3061 25.4189 26.2694 25.4355 26.2353C25.4521 26.2011 25.4751 26.1713 25.5044 26.1459C25.5347 26.1195 25.5708 26.099 25.6128 26.0844C25.6558 26.0697 25.7036 26.0624 25.7563 26.0624C25.813 26.0624 25.8647 26.0717 25.9116 26.0902C25.9595 26.1078 26.0005 26.1337 26.0347 26.1679C26.0688 26.202 26.0952 26.244 26.1138 26.2938C26.1333 26.3427 26.1431 26.3979 26.1431 26.4594C26.1431 26.598 26.0952 26.7309 25.9995 26.8578C25.9048 26.9857 25.7666 27.099 25.585 27.1977L25.4092 26.9486C25.457 26.9232 25.499 26.8979 25.5352 26.8725C25.5713 26.848 25.603 26.8231 25.6304 26.7978C25.6577 26.7724 25.6812 26.746 25.7007 26.7187C25.7212 26.6913 25.7393 26.662 25.7549 26.6308C25.7031 26.6308 25.6558 26.6229 25.6128 26.6073C25.5708 26.5927 25.5347 26.5727 25.5044 26.5473C25.4741 26.5219 25.4507 26.4921 25.4341 26.4579C25.4185 26.4228 25.4106 26.3852 25.4106 26.3451ZM26.9956 26.0712C27.0376 26.0956 27.0845 26.1171 27.1362 26.1356C27.188 26.1542 27.2412 26.1698 27.2959 26.1825C27.3516 26.1942 27.4072 26.2035 27.4629 26.2104C27.5195 26.2162 27.5732 26.2191 27.624 26.2191C27.7373 26.2191 27.8394 26.2045 27.9302 26.1752C28.022 26.1459 28.1011 26.1044 28.1675 26.0507C28.2339 25.997 28.2866 25.933 28.3257 25.8588C28.3657 25.7836 28.3906 25.7006 28.4004 25.6098C28.3496 25.6498 28.2935 25.6845 28.2319 25.7138C28.1704 25.7431 28.105 25.7675 28.0356 25.787C27.9673 25.8056 27.8965 25.8197 27.8232 25.8295C27.751 25.8383 27.6782 25.8427 27.605 25.8427C27.4624 25.8427 27.3325 25.8256 27.2153 25.7914C27.0991 25.7572 26.9995 25.7079 26.9165 25.6435C26.8335 25.579 26.769 25.5009 26.7231 25.4091C26.6782 25.3163 26.6558 25.2113 26.6558 25.0941C26.6558 24.9789 26.6782 24.872 26.7231 24.7733C26.769 24.6747 26.8364 24.5893 26.9253 24.517C27.0142 24.4437 27.1245 24.3866 27.2563 24.3456C27.3882 24.3036 27.541 24.2826 27.7148 24.2826C27.8838 24.2826 28.0381 24.3041 28.1777 24.3471C28.3174 24.39 28.437 24.4569 28.5366 24.5478C28.6362 24.6386 28.7134 24.7543 28.7681 24.8949C28.8237 25.0346 28.8516 25.2016 28.8516 25.3959C28.8516 25.6039 28.8203 25.7855 28.7578 25.9408C28.6963 26.0951 28.6113 26.2235 28.5029 26.3261C28.3955 26.4286 28.2686 26.5053 28.1221 26.5561C27.9756 26.6068 27.8174 26.6322 27.6475 26.6322C27.5762 26.6322 27.502 26.6278 27.4248 26.619C27.3486 26.6103 27.2729 26.5971 27.1978 26.5795C27.1226 26.5619 27.0498 26.5399 26.9795 26.5136C26.9102 26.4872 26.8467 26.4569 26.7891 26.4228L26.9956 26.0712ZM27.1201 25.0868C27.1201 25.1347 27.1304 25.1796 27.1509 25.2216C27.1714 25.2636 27.2031 25.3002 27.2461 25.3314C27.29 25.3617 27.3462 25.3861 27.4146 25.4047C27.4829 25.4223 27.5654 25.4311 27.6621 25.4311C27.7432 25.4311 27.8198 25.4247 27.8921 25.412C27.9644 25.3993 28.0312 25.3817 28.0928 25.3593C28.1543 25.3368 28.21 25.3104 28.2598 25.2802C28.3105 25.2499 28.354 25.2167 28.3901 25.1806C28.3667 25.0204 28.2964 24.8998 28.1792 24.8187C28.062 24.7367 27.9082 24.6957 27.7178 24.6957C27.6221 24.6957 27.5371 24.7055 27.4629 24.725C27.3887 24.7445 27.3262 24.7719 27.2754 24.807C27.2246 24.8412 27.186 24.8822 27.1597 24.9301C27.1333 24.9779 27.1201 25.0302 27.1201 25.0868ZM29.3218 25.4501C29.3218 25.2655 29.3496 25.1 29.4053 24.9535C29.4609 24.807 29.54 24.683 29.6426 24.5814C29.7451 24.4789 29.8696 24.4008 30.0161 24.3471C30.1626 24.2934 30.3267 24.2665 30.5083 24.2665C30.6899 24.2665 30.854 24.2934 31.0005 24.3471C31.147 24.4008 31.2715 24.4789 31.374 24.5814C31.4766 24.683 31.5557 24.807 31.6113 24.9535C31.667 25.1 31.6948 25.2655 31.6948 25.4501C31.6948 25.6347 31.667 25.8002 31.6113 25.9467C31.5557 26.0932 31.4766 26.2172 31.374 26.3187C31.2715 26.4203 31.147 26.4979 31.0005 26.5517C30.854 26.6054 30.6899 26.6322 30.5083 26.6322C30.3267 26.6322 30.1626 26.6054 30.0161 26.5517C29.8696 26.4979 29.7451 26.4203 29.6426 26.3187C29.54 26.2172 29.4609 26.0932 29.4053 25.9467C29.3496 25.8002 29.3218 25.6347 29.3218 25.4501ZM29.7861 25.4486C29.7861 25.5736 29.8027 25.684 29.8359 25.7797C29.8701 25.8754 29.9185 25.956 29.981 26.0214C30.0435 26.0858 30.1191 26.1352 30.208 26.1693C30.2969 26.2025 30.397 26.2191 30.5083 26.2191C30.6196 26.2191 30.7197 26.2025 30.8086 26.1693C30.8975 26.1352 30.9731 26.0858 31.0356 26.0214C31.0981 25.956 31.146 25.8754 31.1792 25.7797C31.2134 25.684 31.2305 25.5736 31.2305 25.4486C31.2305 25.3246 31.2134 25.2152 31.1792 25.1205C31.146 25.0248 31.0981 24.9442 31.0356 24.8788C30.9731 24.8134 30.8975 24.7641 30.8086 24.7309C30.7197 24.6967 30.6196 24.6796 30.5083 24.6796C30.397 24.6796 30.2969 24.6967 30.208 24.7309C30.1191 24.7641 30.0435 24.8134 29.981 24.8788C29.9185 24.9442 29.8701 25.0248 29.8359 25.1205C29.8027 25.2152 29.7861 25.3246 29.7861 25.4486ZM34.4751 24.0072H34.8955L33.5347 27.1186H33.1143L34.4751 24.0072ZM35.4126 24.8715H35.8462V25.018C35.9546 24.9516 36.0601 24.9057 36.1626 24.8803C36.2661 24.8539 36.3672 24.8407 36.4658 24.8407C36.6035 24.8407 36.73 24.8627 36.8452 24.9066C36.9604 24.9506 37.0591 25.017 37.1411 25.1059C37.2046 25.057 37.2671 25.016 37.3286 24.9828C37.3901 24.9486 37.4517 24.9213 37.5132 24.9008C37.5747 24.8793 37.6372 24.8642 37.7007 24.8554C37.7642 24.8456 37.8296 24.8407 37.897 24.8407C38.0386 24.8407 38.167 24.8603 38.2822 24.8993C38.3975 24.9374 38.4956 24.9945 38.5767 25.0707C38.6587 25.1469 38.7217 25.2421 38.7656 25.3563C38.8105 25.4696 38.833 25.601 38.833 25.7504V26.6H38.4009V25.8207C38.4009 25.726 38.3872 25.6415 38.3599 25.5673C38.3335 25.4921 38.2959 25.4291 38.2471 25.3783C38.1992 25.3266 38.1416 25.2875 38.0742 25.2611C38.0078 25.2338 37.9346 25.2201 37.8545 25.2201C37.8105 25.2201 37.7656 25.2245 37.7197 25.2333C37.6738 25.2411 37.6289 25.2538 37.585 25.2714C37.542 25.289 37.5015 25.3114 37.4634 25.3388C37.4253 25.3651 37.3921 25.3964 37.3638 25.4325V26.6H36.9316V25.8207C36.9316 25.726 36.918 25.6415 36.8906 25.5673C36.8643 25.4921 36.8267 25.4291 36.7778 25.3783C36.73 25.3266 36.6719 25.2875 36.6035 25.2611C36.5361 25.2338 36.4619 25.2201 36.3809 25.2201C36.3311 25.2201 36.2808 25.2255 36.23 25.2362C36.1802 25.246 36.1318 25.2602 36.085 25.2787C36.0391 25.2973 35.9956 25.3197 35.9546 25.3461C35.9146 25.3725 35.8784 25.4022 35.8462 25.4354V26.6H35.4126V24.8715ZM39.2974 25.7299C39.2974 25.6127 39.3213 25.5009 39.3691 25.3944C39.417 25.287 39.4858 25.1923 39.5757 25.1103C39.6655 25.0282 39.7754 24.9628 39.9053 24.914C40.0361 24.8651 40.1846 24.8407 40.3506 24.8407C40.5156 24.8407 40.6641 24.8656 40.7959 24.9154C40.9287 24.9643 41.041 25.0316 41.1328 25.1176C41.2256 25.2035 41.2964 25.3046 41.3452 25.4208C41.395 25.537 41.4199 25.6615 41.4199 25.7943C41.4199 25.8109 41.4194 25.829 41.4185 25.8485C41.4185 25.8671 41.4175 25.8842 41.4155 25.8998H39.7808C39.7993 25.9516 39.8291 25.9989 39.8701 26.0419C39.9121 26.0849 39.9644 26.122 40.0269 26.1532C40.0894 26.1845 40.1616 26.2089 40.2437 26.2265C40.3257 26.2431 40.4165 26.2514 40.5161 26.2514C40.6157 26.2514 40.7148 26.2411 40.8135 26.2206C40.9121 26.1991 41.0063 26.1723 41.0962 26.14L41.2427 26.4711C41.186 26.4975 41.1284 26.5209 41.0698 26.5414C41.0122 26.5609 40.9517 26.5775 40.8882 26.5912C40.8257 26.6039 40.7598 26.6137 40.6904 26.6205C40.6221 26.6273 40.5498 26.6308 40.4736 26.6308C40.2793 26.6308 40.1089 26.6073 39.9624 26.5604C39.8159 26.5136 39.6934 26.4496 39.5947 26.3686C39.4961 26.2875 39.4219 26.1923 39.3721 26.0829C39.3223 25.9735 39.2974 25.8559 39.2974 25.7299ZM40.96 25.5614C40.9443 25.5136 40.9199 25.4691 40.8867 25.4281C40.8545 25.3861 40.814 25.35 40.7651 25.3197C40.7163 25.2885 40.6597 25.2641 40.5952 25.2465C40.5308 25.2289 40.46 25.2201 40.3828 25.2201C40.3008 25.2201 40.2261 25.2294 40.1587 25.2479C40.0913 25.2665 40.0322 25.2914 39.9814 25.3227C39.9307 25.3539 39.8882 25.39 39.854 25.4311C39.8208 25.4721 39.7964 25.5155 39.7808 25.5614H40.96ZM39.668 24.3515L40.3579 23.8314L41.0479 24.3515L40.8428 24.621L40.3579 24.2548L39.873 24.621L39.668 24.3515ZM41.9561 26.0697C42.0732 26.14 42.2021 26.1918 42.3428 26.225C42.4834 26.2582 42.6274 26.2748 42.7749 26.2748C42.8745 26.2748 42.9575 26.268 43.0239 26.2543C43.0903 26.2406 43.1436 26.223 43.1836 26.2016C43.2236 26.1801 43.252 26.1557 43.2686 26.1283C43.2852 26.101 43.2935 26.0731 43.2935 26.0448C43.2935 26.0038 43.2754 25.9687 43.2393 25.9394C43.2041 25.9101 43.1455 25.8954 43.0635 25.8954C43.0254 25.8954 42.9844 25.8979 42.9404 25.9027C42.8965 25.9076 42.8501 25.913 42.8013 25.9188C42.7534 25.9237 42.7031 25.9286 42.6504 25.9335C42.5986 25.9384 42.5459 25.9408 42.4922 25.9408C42.375 25.9408 42.2749 25.9281 42.1919 25.9027C42.1099 25.8773 42.043 25.8427 41.9912 25.7987C41.9395 25.7548 41.9019 25.703 41.8784 25.6435C41.855 25.5829 41.8433 25.518 41.8433 25.4486C41.8433 25.3607 41.8638 25.2797 41.9048 25.2055C41.9458 25.1312 42.0044 25.0673 42.0806 25.0136C42.1567 24.9589 42.2485 24.9164 42.356 24.8861C42.4644 24.8559 42.585 24.8407 42.7178 24.8407C42.7871 24.8407 42.8594 24.8451 42.9346 24.8539C43.0107 24.8617 43.0854 24.8725 43.1587 24.8861C43.2319 24.8998 43.3022 24.9159 43.3696 24.9345C43.437 24.952 43.4966 24.9711 43.5483 24.9916L43.4121 25.3285C43.3018 25.2875 43.1914 25.2553 43.0811 25.2318C42.9717 25.2074 42.8589 25.1952 42.7427 25.1952C42.6616 25.1952 42.5928 25.2016 42.5361 25.2143C42.4805 25.226 42.4351 25.2421 42.3999 25.2626C42.3647 25.2821 42.3389 25.3051 42.3223 25.3314C42.3066 25.3568 42.2988 25.3837 42.2988 25.412C42.2988 25.4325 42.3027 25.4511 42.3105 25.4677C42.3193 25.4843 42.333 25.4989 42.3516 25.5116C42.3711 25.5233 42.396 25.5326 42.4263 25.5395C42.4575 25.5453 42.4956 25.5482 42.5405 25.5482C42.5815 25.5482 42.625 25.5458 42.6709 25.5409C42.7168 25.536 42.7646 25.5312 42.8145 25.5263C42.8643 25.5204 42.9155 25.515 42.9683 25.5102C43.022 25.5053 43.0767 25.5028 43.1323 25.5028C43.2358 25.5028 43.3262 25.515 43.4033 25.5395C43.4814 25.5639 43.5459 25.598 43.5967 25.642C43.6475 25.6859 43.6855 25.7377 43.7109 25.7973C43.7363 25.8568 43.749 25.9218 43.749 25.9921C43.749 26.0829 43.728 26.1674 43.686 26.2455C43.644 26.3236 43.5815 26.3915 43.4985 26.4491C43.4155 26.5058 43.312 26.5502 43.188 26.5824C43.0649 26.6146 42.9224 26.6308 42.7603 26.6308C42.6606 26.6308 42.5645 26.6244 42.4717 26.6117C42.3789 26.6 42.2905 26.5839 42.2065 26.5634C42.1226 26.5419 42.0435 26.517 41.9692 26.4887C41.896 26.4604 41.8291 26.4301 41.7686 26.3979L41.9561 26.0697Z" fill="white"/>
<defs>
<filter id="filter0_dd_16_92" x="0.700001" y="2.7" width="52.6" height="31.6" filterUnits="userSpaceOnUse" color-interpolation-filters="sRGB">
<feFlood flood-opacity="0" result="BackgroundImageFix"/>
<feColorMatrix in="SourceAlpha" type="matrix" values="0 0 0 0 0 0 0 0 0 0 0 0 0 0 0 0 0 0 127 0" result="hardAlpha"/>
<feOffset dy="4"/>
<feGaussianBlur stdDeviation="2"/>
<feComposite in2="hardAlpha" operator="out"/>
<feColorMatrix type="matrix" values="0 0 0 0 0 0 0 0 0 0 0 0 0 0 0 0 0 0 0.25 0"/>
<feBlend mode="normal" in2="BackgroundImageFix" result="effect1_dropShadow_16_92"/>
<feColorMatrix in="SourceAlpha" type="matrix" values="0 0 0 0 0 0 0 0 0 0 0 0 0 0 0 0 0 0 127 0" result="hardAlpha"/>
<feOffset dy="4"/>
<feGaussianBlur stdDeviation="2"/>
<feComposite in2="hardAlpha" operator="out"/>
<feColorMatrix type="matrix" values="0 0 0 0 0 0 0 0 0 0 0 0 0 0 0 0 0 0 0.25 0"/>
<feBlend mode="normal" in2="effect1_dropShadow_16_92" result="effect2_dropShadow_16_92"/>
<feBlend mode="normal" in="SourceGraphic" in2="effect2_dropShadow_16_92" result="shape"/>
</filter>
</defs>
</svg>
