<svg width="54" height="37" viewBox="0 0 54 37" fill="none" xmlns="http://www.w3.org/2000/svg">
<rect x="7" y="25" width="40" height="6" rx="2" fill="#013DA5"/>
<g filter="url(#filter0_dd_8_49)">
<path fill-rule="evenodd" clip-rule="evenodd" d="M15 4.7H12H10C7.07289 4.7 4.7 7.07289 4.7 10V23C4.7 25.9271 7.07289 28.3 10 28.3H44C46.9271 28.3 49.3 25.9271 49.3 23V10C49.3 7.07289 46.9271 4.7 44 4.7H39V5H44C46.7614 5 49 7.23857 49 10V23C49 25.7614 46.7614 28 44 28H10C7.23857 28 5 25.7614 5 23V10C5 7.23857 7.23857 5 10 5H12H15V4.7Z" fill="#013DA5"/>
</g>
<path d="M16.9043 5.0918C17.015 5.1543 17.127 5.21094 17.2402 5.26172C17.3548 5.3112 17.4733 5.35352 17.5957 5.38867C17.7181 5.42253 17.8464 5.44857 17.9805 5.4668C18.1159 5.48503 18.2598 5.49414 18.4121 5.49414C18.5957 5.49414 18.752 5.48242 18.8809 5.45898C19.0098 5.43424 19.1146 5.40104 19.1953 5.35938C19.2773 5.31641 19.3366 5.26562 19.373 5.20703C19.4108 5.14844 19.4297 5.08464 19.4297 5.01562C19.4297 4.90495 19.3835 4.81771 19.291 4.75391C19.1986 4.6888 19.056 4.65625 18.8633 4.65625C18.7786 4.65625 18.6895 4.66211 18.5957 4.67383C18.502 4.68424 18.4069 4.69596 18.3105 4.70898C18.2155 4.72201 18.1211 4.73438 18.0273 4.74609C17.9349 4.75651 17.8477 4.76172 17.7656 4.76172C17.6289 4.76172 17.4974 4.74414 17.3711 4.70898C17.2461 4.67383 17.1348 4.62109 17.0371 4.55078C16.9408 4.48047 16.8639 4.39258 16.8066 4.28711C16.7493 4.18164 16.7207 4.05859 16.7207 3.91797C16.7207 3.83464 16.7318 3.75195 16.7539 3.66992C16.7773 3.58789 16.8138 3.50977 16.8633 3.43555C16.9141 3.36003 16.9792 3.29036 17.0586 3.22656C17.138 3.16146 17.2337 3.10547 17.3457 3.05859C17.459 3.01172 17.5892 2.97526 17.7363 2.94922C17.8848 2.92188 18.0534 2.9082 18.2422 2.9082C18.3789 2.9082 18.5163 2.91602 18.6543 2.93164C18.7923 2.94596 18.9264 2.9668 19.0566 2.99414C19.1882 3.02148 19.3145 3.05469 19.4355 3.09375C19.5566 3.13151 19.6693 3.17383 19.7734 3.2207L19.502 3.7207C19.416 3.68294 19.3236 3.64844 19.2246 3.61719C19.1257 3.58464 19.0221 3.55664 18.9141 3.5332C18.806 3.50977 18.694 3.49154 18.5781 3.47852C18.4635 3.46419 18.3464 3.45703 18.2266 3.45703C18.056 3.45703 17.9154 3.4694 17.8047 3.49414C17.6953 3.51888 17.6081 3.55078 17.543 3.58984C17.4779 3.6276 17.4323 3.67057 17.4062 3.71875C17.3815 3.76562 17.3691 3.8125 17.3691 3.85938C17.3691 3.95052 17.4102 4.02539 17.4922 4.08398C17.5742 4.14128 17.6992 4.16992 17.8672 4.16992C17.9349 4.16992 18.0124 4.16536 18.0996 4.15625C18.1882 4.14583 18.2806 4.13477 18.377 4.12305C18.4746 4.11133 18.5736 4.10091 18.6738 4.0918C18.7754 4.08138 18.8737 4.07617 18.9688 4.07617C19.1484 4.07617 19.3073 4.09635 19.4453 4.13672C19.5846 4.17708 19.7012 4.23503 19.7949 4.31055C19.8887 4.38477 19.9596 4.47526 20.0078 4.58203C20.056 4.6875 20.0801 4.80599 20.0801 4.9375C20.0801 5.11328 20.0391 5.27018 19.957 5.4082C19.8763 5.54492 19.7604 5.66081 19.6094 5.75586C19.4596 5.84961 19.2786 5.92122 19.0664 5.9707C18.8542 6.01888 18.6178 6.04297 18.3574 6.04297C18.1855 6.04297 18.0176 6.0319 17.8535 6.00977C17.6895 5.98893 17.5319 5.95898 17.3809 5.91992C17.2311 5.87956 17.0879 5.83203 16.9512 5.77734C16.8158 5.72135 16.6901 5.66016 16.5742 5.59375L16.9043 5.0918ZM20.5801 5.27344C20.5801 5.16276 20.6042 5.06185 20.6523 4.9707C20.7005 4.87956 20.7728 4.80143 20.8691 4.73633C20.9655 4.66992 21.0853 4.61914 21.2285 4.58398C21.373 4.54753 21.541 4.5293 21.7324 4.5293C21.8743 4.5293 22.0234 4.53971 22.1797 4.56055C22.3372 4.58138 22.4993 4.61328 22.666 4.65625C22.6595 4.58333 22.6374 4.51628 22.5996 4.45508C22.5618 4.39258 22.5091 4.33919 22.4414 4.29492C22.375 4.24935 22.2943 4.21419 22.1992 4.18945C22.1055 4.16471 21.9987 4.15234 21.8789 4.15234C21.8138 4.15234 21.7422 4.15625 21.6641 4.16406C21.5859 4.17188 21.5052 4.18359 21.4219 4.19922C21.3385 4.21484 21.2559 4.23438 21.1738 4.25781C21.0931 4.28125 21.0176 4.30924 20.9473 4.3418L20.7715 3.86719C20.8587 3.83594 20.9518 3.80729 21.0508 3.78125C21.151 3.75521 21.2533 3.73307 21.3574 3.71484C21.4616 3.69531 21.5658 3.68034 21.6699 3.66992C21.7741 3.65951 21.875 3.6543 21.9727 3.6543C22.4036 3.6543 22.724 3.76432 22.9336 3.98438C23.1432 4.20443 23.248 4.54167 23.248 4.99609V6H22.6699V5.7832C22.61 5.81836 22.5443 5.85156 22.4727 5.88281C22.4023 5.91406 22.3255 5.94141 22.2422 5.96484C22.1589 5.98828 22.069 6.00651 21.9727 6.01953C21.8776 6.03385 21.7767 6.04102 21.6699 6.04102C21.4902 6.04102 21.332 6.02148 21.1953 5.98242C21.0599 5.94336 20.9466 5.88932 20.8555 5.82031C20.7643 5.7513 20.6953 5.67057 20.6484 5.57812C20.6029 5.48438 20.5801 5.38281 20.5801 5.27344ZM21.1895 5.25391C21.1895 5.29167 21.1992 5.32812 21.2188 5.36328C21.2383 5.39714 21.2695 5.42773 21.3125 5.45508C21.3555 5.48112 21.4102 5.5026 21.4766 5.51953C21.5443 5.53516 21.6257 5.54297 21.7207 5.54297C21.8223 5.54297 21.9206 5.53385 22.0156 5.51562C22.1107 5.4974 22.1992 5.47331 22.2812 5.44336C22.3633 5.41341 22.4375 5.37891 22.5039 5.33984C22.5703 5.30078 22.6257 5.26042 22.6699 5.21875V5.11719C22.5814 5.09245 22.4935 5.07161 22.4062 5.05469C22.3203 5.03776 22.2376 5.02474 22.1582 5.01562C22.0801 5.00521 22.0059 4.99805 21.9355 4.99414C21.8665 4.99023 21.806 4.98828 21.7539 4.98828C21.6458 4.98828 21.556 4.99544 21.4844 5.00977C21.4128 5.02409 21.3548 5.04362 21.3105 5.06836C21.2663 5.0918 21.235 5.11979 21.2168 5.15234C21.1986 5.1849 21.1895 5.21875 21.1895 5.25391ZM24.3613 4.12891H23.8047V3.69531H24.3613V2.97852H24.9395V3.69531H25.4961V4.12891H24.9395V6H24.3613V4.12891ZM26.0098 3.69336H26.5859V4.81836C26.5859 4.92513 26.5977 5.02279 26.6211 5.11133C26.6445 5.19857 26.6842 5.27344 26.7402 5.33594C26.7975 5.39844 26.873 5.44727 26.9668 5.48242C27.0618 5.51628 27.1797 5.5332 27.3203 5.5332C27.3867 5.5332 27.4538 5.52604 27.5215 5.51172C27.5905 5.4974 27.6562 5.47786 27.7188 5.45312C27.7812 5.42708 27.8392 5.39648 27.8926 5.36133C27.9473 5.32617 27.9941 5.28776 28.0332 5.24609V3.69336H28.6113V6H28.0332V5.80273C27.8913 5.88737 27.7487 5.94792 27.6055 5.98438C27.4622 6.02083 27.3262 6.03906 27.1973 6.03906C26.9863 6.03906 26.8053 6.01367 26.6543 5.96289C26.5046 5.91211 26.3815 5.83854 26.2852 5.74219C26.1901 5.64453 26.1204 5.52539 26.0762 5.38477C26.0319 5.24284 26.0098 5.08138 26.0098 4.90039V3.69336ZM29.3457 3.69531H29.9238V4.02734C30.0514 3.93229 30.1862 3.85026 30.3281 3.78125C30.4701 3.71224 30.6113 3.65951 30.752 3.62305L30.9219 4.15234C30.6992 4.17448 30.5033 4.22461 30.334 4.30273C30.166 4.37956 30.0293 4.48828 29.9238 4.62891V6H29.3457V3.69531ZM31.3535 3.69531H31.9316V3.89062C32.0853 3.80339 32.2318 3.74219 32.3711 3.70703C32.5117 3.67188 32.6491 3.6543 32.7832 3.6543C32.959 3.6543 33.1217 3.68034 33.2715 3.73242C33.4212 3.7832 33.5508 3.85938 33.6602 3.96094C33.7695 4.0625 33.8548 4.18945 33.916 4.3418C33.9785 4.49284 34.0098 4.66797 34.0098 4.86719V6H33.4336V4.96094C33.4336 4.83464 33.4154 4.72201 33.3789 4.62305C33.3438 4.52279 33.2923 4.4388 33.2246 4.37109C33.1582 4.30208 33.0768 4.25 32.9805 4.21484C32.8854 4.17839 32.7786 4.16016 32.6602 4.16016C32.5977 4.16016 32.5332 4.16667 32.4668 4.17969C32.4017 4.19271 32.3372 4.21159 32.2734 4.23633C32.2109 4.25977 32.1504 4.28971 32.0918 4.32617C32.0332 4.36133 31.9798 4.40169 31.9316 4.44727V6H31.3535V3.69531ZM34.582 4.84766C34.582 4.68229 34.6152 4.52734 34.6816 4.38281C34.7493 4.23828 34.8451 4.11198 34.9688 4.00391C35.0938 3.89583 35.2441 3.81055 35.4199 3.74805C35.597 3.68555 35.7956 3.6543 36.0156 3.6543C36.2357 3.6543 36.4336 3.68555 36.6094 3.74805C36.7865 3.81055 36.9368 3.89583 37.0605 4.00391C37.1855 4.11198 37.2812 4.23828 37.3477 4.38281C37.4154 4.52734 37.4492 4.68229 37.4492 4.84766C37.4492 5.01302 37.4154 5.16797 37.3477 5.3125C37.2812 5.45703 37.1855 5.58333 37.0605 5.69141C36.9368 5.79948 36.7865 5.88477 36.6094 5.94727C36.4336 6.00977 36.2357 6.04102 36.0156 6.04102C35.7956 6.04102 35.597 6.00977 35.4199 5.94727C35.2441 5.88477 35.0938 5.79948 34.9688 5.69141C34.8451 5.58333 34.7493 5.45703 34.6816 5.3125C34.6152 5.16797 34.582 5.01302 34.582 4.84766ZM35.1895 4.84766C35.1895 4.9401 35.2077 5.02799 35.2441 5.11133C35.2819 5.19336 35.3359 5.26628 35.4062 5.33008C35.4779 5.39258 35.5645 5.44271 35.666 5.48047C35.7689 5.51693 35.8854 5.53516 36.0156 5.53516C36.1458 5.53516 36.2617 5.51693 36.3633 5.48047C36.4661 5.44271 36.5527 5.39258 36.623 5.33008C36.6947 5.26628 36.7487 5.19336 36.7852 5.11133C36.8229 5.02799 36.8418 4.9401 36.8418 4.84766C36.8418 4.75521 36.8229 4.66732 36.7852 4.58398C36.7487 4.50065 36.6947 4.42773 36.623 4.36523C36.5527 4.30143 36.4661 4.2513 36.3633 4.21484C36.2617 4.17708 36.1458 4.1582 36.0156 4.1582C35.8854 4.1582 35.7689 4.17708 35.666 4.21484C35.5645 4.2513 35.4779 4.30143 35.4062 4.36523C35.3359 4.42773 35.2819 4.50065 35.2441 4.58398C35.2077 4.66732 35.1895 4.75521 35.1895 4.84766Z" fill="white"/>
<path d="M8.04883 16.8164L14.2969 10.3154H16.4639V16.8164H18.7676V18.7168H16.4639V21H14.2969V18.7168H8.03516L8.04883 16.8164ZM14.2969 16.8164V13.0566L10.6465 16.8164H14.2969ZM20.4355 15.6338C20.4355 14.7725 20.5654 14 20.8252 13.3164C21.085 12.6328 21.4541 12.054 21.9326 11.5801C22.4111 11.1016 22.9922 10.737 23.6758 10.4863C24.3594 10.2357 25.125 10.1104 25.9727 10.1104C26.8203 10.1104 27.5859 10.2357 28.2695 10.4863C28.9531 10.737 29.5342 11.1016 30.0127 11.5801C30.4912 12.054 30.8604 12.6328 31.1201 13.3164C31.3799 14 31.5098 14.7725 31.5098 15.6338C31.5098 16.4951 31.3799 17.2676 31.1201 17.9512C30.8604 18.6348 30.4912 19.2135 30.0127 19.6875C29.5342 20.1615 28.9531 20.5238 28.2695 20.7744C27.5859 21.0251 26.8203 21.1504 25.9727 21.1504C25.125 21.1504 24.3594 21.0251 23.6758 20.7744C22.9922 20.5238 22.4111 20.1615 21.9326 19.6875C21.4541 19.2135 21.085 18.6348 20.8252 17.9512C20.5654 17.2676 20.4355 16.4951 20.4355 15.6338ZM22.6025 15.627C22.6025 16.2103 22.68 16.7253 22.835 17.1719C22.9945 17.6185 23.2201 17.9945 23.5117 18.2998C23.8034 18.6006 24.1566 18.8307 24.5713 18.9902C24.986 19.1452 25.4531 19.2227 25.9727 19.2227C26.4922 19.2227 26.9593 19.1452 27.374 18.9902C27.7887 18.8307 28.1419 18.6006 28.4336 18.2998C28.7253 17.9945 28.9486 17.6185 29.1035 17.1719C29.263 16.7253 29.3428 16.2103 29.3428 15.627C29.3428 15.0482 29.263 14.5378 29.1035 14.0957C28.9486 13.6491 28.7253 13.2731 28.4336 12.9678C28.1419 12.6624 27.7887 12.4323 27.374 12.2773C26.9593 12.1178 26.4922 12.0381 25.9727 12.0381C25.4531 12.0381 24.986 12.1178 24.5713 12.2773C24.1566 12.4323 23.8034 12.6624 23.5117 12.9678C23.2201 13.2731 22.9945 13.6491 22.835 14.0957C22.68 14.5378 22.6025 15.0482 22.6025 15.627ZM33.2871 15.6338C33.2871 14.7725 33.417 14 33.6768 13.3164C33.9365 12.6328 34.3057 12.054 34.7842 11.5801C35.2627 11.1016 35.8438 10.737 36.5273 10.4863C37.2109 10.2357 37.9766 10.1104 38.8242 10.1104C39.6719 10.1104 40.4375 10.2357 41.1211 10.4863C41.8047 10.737 42.3857 11.1016 42.8643 11.5801C43.3428 12.054 43.7119 12.6328 43.9717 13.3164C44.2314 14 44.3613 14.7725 44.3613 15.6338C44.3613 16.4951 44.2314 17.2676 43.9717 17.9512C43.7119 18.6348 43.3428 19.2135 42.8643 19.6875C42.3857 20.1615 41.8047 20.5238 41.1211 20.7744C40.4375 21.0251 39.6719 21.1504 38.8242 21.1504C37.9766 21.1504 37.2109 21.0251 36.5273 20.7744C35.8438 20.5238 35.2627 20.1615 34.7842 19.6875C34.3057 19.2135 33.9365 18.6348 33.6768 17.9512C33.417 17.2676 33.2871 16.4951 33.2871 15.6338ZM35.4541 15.627C35.4541 16.2103 35.5316 16.7253 35.6865 17.1719C35.846 17.6185 36.0716 17.9945 36.3633 18.2998C36.6549 18.6006 37.0081 18.8307 37.4229 18.9902C37.8376 19.1452 38.3047 19.2227 38.8242 19.2227C39.3438 19.2227 39.8109 19.1452 40.2256 18.9902C40.6403 18.8307 40.9935 18.6006 41.2852 18.2998C41.5768 17.9945 41.8001 17.6185 41.9551 17.1719C42.1146 16.7253 42.1943 16.2103 42.1943 15.627C42.1943 15.0482 42.1146 14.5378 41.9551 14.0957C41.8001 13.6491 41.5768 13.2731 41.2852 12.9678C40.9935 12.6624 40.6403 12.4323 40.2256 12.2773C39.8109 12.1178 39.3438 12.0381 38.8242 12.0381C38.3047 12.0381 37.8376 12.1178 37.4229 12.2773C37.0081 12.4323 36.6549 12.6624 36.3633 12.9678C36.0716 13.2731 35.846 13.6491 35.6865 14.0957C35.5316 14.5378 35.4541 15.0482 35.4541 15.627Z" fill="#FFE2E2"/>
<circle cx="44.5" cy="19.5" r="2.5" fill="#013DA5"/>
<path d="M42.8027 18.7736H43.1123L43.667 19.3303L44.2217 18.7736H44.5312V20.3H44.2217V19.2023L43.667 19.7365L43.1123 19.2023V20.3H42.8027V18.7736ZM44.9219 18.6799H45.2109V19.2561C45.2363 19.2385 45.2663 19.2219 45.3008 19.2063C45.3353 19.1906 45.3724 19.177 45.4121 19.1652C45.4518 19.1535 45.4928 19.1444 45.5352 19.1379C45.5775 19.1307 45.6198 19.1272 45.6621 19.1272C45.7598 19.1272 45.8493 19.1415 45.9307 19.1701C46.0127 19.1988 46.083 19.2391 46.1416 19.2912C46.2002 19.3433 46.2458 19.4058 46.2783 19.4787C46.3115 19.551 46.3281 19.6311 46.3281 19.7189C46.3281 19.8107 46.3109 19.8938 46.2764 19.968C46.2419 20.0415 46.194 20.1047 46.1328 20.1574C46.0723 20.2095 46 20.2499 45.916 20.2785C45.8327 20.3065 45.7422 20.3205 45.6445 20.3205C45.6029 20.3205 45.5615 20.3179 45.5205 20.3127C45.4801 20.3075 45.4411 20.3003 45.4033 20.2912C45.3662 20.2821 45.3311 20.2714 45.2979 20.259C45.2653 20.246 45.2363 20.232 45.2109 20.217V20.3H44.9219V18.6799ZM45.2109 19.9377C45.2402 19.9611 45.2712 19.981 45.3037 19.9973C45.3363 20.0135 45.3695 20.0269 45.4033 20.0373C45.4372 20.0477 45.4714 20.0555 45.5059 20.0607C45.5404 20.0653 45.5739 20.0676 45.6064 20.0676C45.6729 20.0676 45.7318 20.0588 45.7832 20.0412C45.8353 20.023 45.8789 19.9982 45.9141 19.967C45.9499 19.9357 45.9772 19.899 45.9961 19.8566C46.015 19.8143 46.0244 19.7684 46.0244 19.7189C46.0244 19.6727 46.015 19.6291 45.9961 19.5881C45.9779 19.5471 45.9512 19.5113 45.916 19.4807C45.8815 19.4494 45.8395 19.425 45.79 19.4074C45.7412 19.3892 45.6862 19.3801 45.625 19.3801C45.5859 19.3801 45.5469 19.384 45.5078 19.3918C45.4688 19.399 45.431 19.4094 45.3945 19.423C45.3587 19.4367 45.3249 19.4533 45.293 19.4729C45.2617 19.4924 45.2344 19.5142 45.2109 19.5383V19.9377Z" fill="white"/>
<path d="M9.36236 26.4736H10.1387C10.2559 26.4736 10.3575 26.486 10.4434 26.5107C10.5294 26.5348 10.6006 26.57 10.6573 26.6162C10.7139 26.6624 10.7559 26.7187 10.7833 26.7851C10.8113 26.8516 10.8253 26.9268 10.8253 27.0107C10.8253 27.0674 10.8184 27.1214 10.8047 27.1728C10.7911 27.2236 10.7699 27.2705 10.7413 27.3135C10.7133 27.3564 10.6778 27.3948 10.6348 27.4287C10.5919 27.4619 10.5414 27.4896 10.4835 27.5117L10.8155 28H10.4366L10.1495 27.5664H10.1407L9.67193 27.5654V28H9.36236V26.4736ZM10.1465 27.2978C10.2051 27.2978 10.2562 27.291 10.2999 27.2773C10.3441 27.2637 10.3809 27.2445 10.4102 27.2197C10.4402 27.195 10.4623 27.165 10.4766 27.1299C10.4916 27.0941 10.4991 27.0544 10.4991 27.0107C10.4991 26.9254 10.4698 26.8597 10.4112 26.8135C10.3526 26.7666 10.2644 26.7432 10.1465 26.7432H9.67193V27.2978H10.1465ZM11.2637 27.5459C11.3106 27.5726 11.3578 27.597 11.4053 27.6191C11.4529 27.6406 11.5017 27.6598 11.5518 27.6768C11.6026 27.693 11.6547 27.707 11.7081 27.7187C11.7621 27.7298 11.8191 27.7376 11.879 27.7422V27.3574C11.8458 27.3613 11.8139 27.3646 11.7833 27.3672C11.7527 27.3698 11.723 27.3711 11.6944 27.3711C11.626 27.3711 11.5603 27.3623 11.4971 27.3447C11.4346 27.3271 11.379 27.3008 11.3301 27.2656C11.282 27.2305 11.2435 27.1865 11.2149 27.1338C11.1863 27.081 11.1719 27.0195 11.1719 26.9492C11.1719 26.8893 11.1843 26.8304 11.209 26.7725C11.2344 26.7139 11.2751 26.6615 11.3311 26.6152C11.3878 26.5684 11.461 26.5296 11.5508 26.499C11.6407 26.4684 11.7501 26.4508 11.879 26.4463V26.1504H12.1104V26.4521C12.2191 26.4619 12.3233 26.4798 12.4229 26.5059C12.5232 26.5319 12.615 26.5635 12.6983 26.6006L12.5626 26.8506C12.4975 26.8226 12.4271 26.7978 12.3516 26.7764C12.2761 26.7549 12.1957 26.7393 12.1104 26.7295V27.04C12.1417 27.0368 12.1729 27.0342 12.2042 27.0322C12.2354 27.0296 12.266 27.0283 12.296 27.0283C12.3858 27.0283 12.4652 27.0384 12.5342 27.0586C12.6039 27.0788 12.6622 27.1077 12.709 27.1455C12.7559 27.1826 12.7914 27.2279 12.8155 27.2812C12.8396 27.334 12.8516 27.3932 12.8516 27.459C12.8516 27.5404 12.834 27.6139 12.7989 27.6797C12.7644 27.7448 12.7149 27.8011 12.6504 27.8486C12.5866 27.8962 12.5088 27.9342 12.4171 27.9629C12.3259 27.9915 12.2237 28.0098 12.1104 28.0176V28.3144H11.879V28.0185C11.7279 28.0094 11.586 27.9853 11.4532 27.9463C11.321 27.9066 11.2029 27.8568 11.0987 27.7969L11.2637 27.5459ZM11.4962 26.9199C11.4962 26.9655 11.5167 27.0029 11.5577 27.0322C11.5987 27.0609 11.6612 27.0752 11.7452 27.0752C11.7641 27.0752 11.7849 27.0745 11.8077 27.0732C11.8305 27.0713 11.8542 27.069 11.879 27.0664V26.7207C11.8054 26.7233 11.7439 26.7311 11.6944 26.7441C11.6456 26.7572 11.6065 26.7731 11.5772 26.792C11.5479 26.8109 11.5271 26.8317 11.5147 26.8545C11.5023 26.8766 11.4962 26.8984 11.4962 26.9199ZM12.1104 27.7441C12.1846 27.7396 12.2481 27.7301 12.3008 27.7158C12.3536 27.7015 12.3965 27.6836 12.4297 27.6621C12.4636 27.64 12.488 27.6149 12.503 27.5869C12.5186 27.5589 12.5264 27.5293 12.5264 27.498C12.5264 27.4427 12.5033 27.3991 12.4571 27.3672C12.4109 27.3346 12.3396 27.3184 12.2432 27.3184C12.2224 27.3184 12.2006 27.3193 12.1778 27.3213C12.1557 27.3226 12.1332 27.3245 12.1104 27.3271V27.7441Z" fill="white"/>
<path d="M14.9253 29.4299H15.6533V27.4345C15.5576 27.4563 15.4653 27.4851 15.3764 27.5206C15.2889 27.5561 15.209 27.5992 15.1365 27.6498L14.8166 27.1925C14.9341 27.1186 15.0538 27.0564 15.1755 27.0059C15.2985 26.9539 15.4222 26.9129 15.5466 26.8828C15.6724 26.8514 15.7982 26.8288 15.924 26.8151C16.0511 26.8015 16.1776 26.7946 16.3034 26.7946L16.3013 26.7987H16.3034V29.4299H16.9986V30H14.9253V29.4299ZM17.3083 28.3901C17.3083 28.1317 17.3472 27.9 17.4252 27.6949C17.5031 27.4898 17.6138 27.3162 17.7574 27.174C17.9009 27.0305 18.0753 26.9211 18.2803 26.8459C18.4854 26.7707 18.7151 26.7331 18.9694 26.7331C19.2237 26.7331 19.4534 26.7707 19.6585 26.8459C19.8635 26.9211 20.0379 27.0305 20.1814 27.174C20.325 27.3162 20.4357 27.4898 20.5136 27.6949C20.5916 27.9 20.6305 28.1317 20.6305 28.3901C20.6305 28.6485 20.5916 28.8803 20.5136 29.0853C20.4357 29.2904 20.325 29.4641 20.1814 29.6062C20.0379 29.7484 19.8635 29.8571 19.6585 29.9323C19.4534 30.0075 19.2237 30.0451 18.9694 30.0451C18.7151 30.0451 18.4854 30.0075 18.2803 29.9323C18.0753 29.8571 17.9009 29.7484 17.7574 29.6062C17.6138 29.4641 17.5031 29.2904 17.4252 29.0853C17.3472 28.8803 17.3083 28.6485 17.3083 28.3901ZM17.9584 28.3881C17.9584 28.5631 17.9816 28.7176 18.0281 28.8516C18.0759 28.9855 18.1436 29.0983 18.2311 29.1899C18.3186 29.2802 18.4246 29.3492 18.549 29.3971C18.6734 29.4435 18.8135 29.4668 18.9694 29.4668C19.1253 29.4668 19.2654 29.4435 19.3898 29.3971C19.5142 29.3492 19.6202 29.2802 19.7077 29.1899C19.7952 29.0983 19.8622 28.9855 19.9087 28.8516C19.9565 28.7176 19.9804 28.5631 19.9804 28.3881C19.9804 28.2144 19.9565 28.0613 19.9087 27.9287C19.8622 27.7947 19.7952 27.6819 19.7077 27.5903C19.6202 27.4987 19.5142 27.4297 19.3898 27.3832C19.2654 27.3353 19.1253 27.3114 18.9694 27.3114C18.8135 27.3114 18.6734 27.3353 18.549 27.3832C18.4246 27.4297 18.3186 27.4987 18.2311 27.5903C18.1436 27.6819 18.0759 27.7947 18.0281 27.9287C17.9816 28.0613 17.9584 28.2144 17.9584 28.3881ZM21.7503 29.2597C21.809 29.2938 21.8747 29.3239 21.9471 29.3499C22.0196 29.3759 22.0941 29.3977 22.1707 29.4155C22.2486 29.4319 22.3265 29.4449 22.4045 29.4545C22.4838 29.4627 22.559 29.4668 22.63 29.4668C22.7886 29.4668 22.9315 29.4463 23.0587 29.4053C23.1872 29.3643 23.2979 29.3061 23.3909 29.2309C23.4839 29.1558 23.5577 29.0662 23.6124 28.9623C23.6684 28.857 23.7033 28.7408 23.717 28.6137C23.6459 28.6697 23.5673 28.7183 23.4811 28.7593C23.395 28.8003 23.3034 28.8345 23.2063 28.8618C23.1106 28.8878 23.0115 28.9076 22.909 28.9213C22.8078 28.9336 22.7059 28.9397 22.6034 28.9397C22.4038 28.9397 22.2219 28.9158 22.0579 28.868C21.8952 28.8201 21.7557 28.7511 21.6395 28.6608C21.5233 28.5706 21.4331 28.4612 21.3688 28.3327C21.3059 28.2028 21.2745 28.0559 21.2745 27.8918C21.2745 27.7305 21.3059 27.5808 21.3688 27.4427C21.4331 27.3046 21.5274 27.185 21.6518 27.0838C21.7762 26.9812 21.9307 26.9013 22.1153 26.8438C22.2999 26.7851 22.5138 26.7557 22.7572 26.7557C22.9937 26.7557 23.2097 26.7857 23.4052 26.8459C23.6007 26.906 23.7682 26.9997 23.9077 27.1268C24.0471 27.254 24.1551 27.416 24.2317 27.6129C24.3096 27.8084 24.3486 28.0422 24.3486 28.3143C24.3486 28.6055 24.3048 28.8598 24.2173 29.0771C24.1312 29.2932 24.0123 29.4729 23.8605 29.6165C23.7101 29.7601 23.5324 29.8674 23.3273 29.9385C23.1222 30.0096 22.9007 30.0451 22.6629 30.0451C22.5631 30.0451 22.4591 30.039 22.3511 30.0267C22.2445 30.0143 22.1385 29.9959 22.0333 29.9713C21.928 29.9467 21.8261 29.9159 21.7277 29.879C21.6306 29.8421 21.5418 29.7997 21.4611 29.7518L21.7503 29.2597ZM21.9246 27.8815C21.9246 27.9485 21.9389 28.0114 21.9676 28.0702C21.9964 28.129 22.0408 28.1803 22.1009 28.224C22.1625 28.2664 22.2411 28.3006 22.3368 28.3266C22.4325 28.3512 22.548 28.3635 22.6834 28.3635C22.7968 28.3635 22.9042 28.3546 23.0053 28.3368C23.1065 28.319 23.2002 28.2944 23.2863 28.263C23.3724 28.2315 23.4504 28.1946 23.5201 28.1522C23.5912 28.1099 23.652 28.0634 23.7026 28.0128C23.6698 27.7886 23.5714 27.6197 23.4073 27.5062C23.2432 27.3914 23.0279 27.334 22.7613 27.334C22.6273 27.334 22.5084 27.3476 22.4045 27.375C22.3006 27.4023 22.2131 27.4406 22.142 27.4898C22.0709 27.5377 22.0169 27.5951 21.9799 27.6621C21.943 27.7291 21.9246 27.8022 21.9246 27.8815Z" fill="white"/>
<path d="M25.4106 28.3451C25.4106 28.3061 25.4189 28.2694 25.4355 28.2353C25.4521 28.2011 25.4751 28.1713 25.5044 28.1459C25.5347 28.1195 25.5708 28.099 25.6128 28.0844C25.6558 28.0697 25.7036 28.0624 25.7563 28.0624C25.813 28.0624 25.8647 28.0717 25.9116 28.0902C25.9595 28.1078 26.0005 28.1337 26.0347 28.1679C26.0688 28.202 26.0952 28.244 26.1138 28.2938C26.1333 28.3427 26.1431 28.3979 26.1431 28.4594C26.1431 28.598 26.0952 28.7309 25.9995 28.8578C25.9048 28.9857 25.7666 29.099 25.585 29.1977L25.4092 28.9486C25.457 28.9232 25.499 28.8979 25.5352 28.8725C25.5713 28.848 25.603 28.8231 25.6304 28.7978C25.6577 28.7724 25.6812 28.746 25.7007 28.7187C25.7212 28.6913 25.7393 28.662 25.7549 28.6308C25.7031 28.6308 25.6558 28.6229 25.6128 28.6073C25.5708 28.5927 25.5347 28.5727 25.5044 28.5473C25.4741 28.5219 25.4507 28.4921 25.4341 28.4579C25.4185 28.4228 25.4106 28.3852 25.4106 28.3451ZM26.9956 28.0712C27.0376 28.0956 27.0845 28.1171 27.1362 28.1356C27.188 28.1542 27.2412 28.1698 27.2959 28.1825C27.3516 28.1942 27.4072 28.2035 27.4629 28.2104C27.5195 28.2162 27.5732 28.2191 27.624 28.2191C27.7373 28.2191 27.8394 28.2045 27.9302 28.1752C28.022 28.1459 28.1011 28.1044 28.1675 28.0507C28.2339 27.997 28.2866 27.933 28.3257 27.8588C28.3657 27.7836 28.3906 27.7006 28.4004 27.6098C28.3496 27.6498 28.2935 27.6845 28.2319 27.7138C28.1704 27.7431 28.105 27.7675 28.0356 27.787C27.9673 27.8056 27.8965 27.8197 27.8232 27.8295C27.751 27.8383 27.6782 27.8427 27.605 27.8427C27.4624 27.8427 27.3325 27.8256 27.2153 27.7914C27.0991 27.7572 26.9995 27.7079 26.9165 27.6435C26.8335 27.579 26.769 27.5009 26.7231 27.4091C26.6782 27.3163 26.6558 27.2113 26.6558 27.0941C26.6558 26.9789 26.6782 26.872 26.7231 26.7733C26.769 26.6747 26.8364 26.5893 26.9253 26.517C27.0142 26.4437 27.1245 26.3866 27.2563 26.3456C27.3882 26.3036 27.541 26.2826 27.7148 26.2826C27.8838 26.2826 28.0381 26.3041 28.1777 26.3471C28.3174 26.39 28.437 26.4569 28.5366 26.5478C28.6362 26.6386 28.7134 26.7543 28.7681 26.8949C28.8237 27.0346 28.8516 27.2016 28.8516 27.3959C28.8516 27.6039 28.8203 27.7855 28.7578 27.9408C28.6963 28.0951 28.6113 28.2235 28.5029 28.3261C28.3955 28.4286 28.2686 28.5053 28.1221 28.5561C27.9756 28.6068 27.8174 28.6322 27.6475 28.6322C27.5762 28.6322 27.502 28.6278 27.4248 28.619C27.3486 28.6103 27.2729 28.5971 27.1978 28.5795C27.1226 28.5619 27.0498 28.5399 26.9795 28.5136C26.9102 28.4872 26.8467 28.4569 26.7891 28.4228L26.9956 28.0712ZM27.1201 27.0868C27.1201 27.1347 27.1304 27.1796 27.1509 27.2216C27.1714 27.2636 27.2031 27.3002 27.2461 27.3314C27.29 27.3617 27.3462 27.3861 27.4146 27.4047C27.4829 27.4223 27.5654 27.4311 27.6621 27.4311C27.7432 27.4311 27.8198 27.4247 27.8921 27.412C27.9644 27.3993 28.0312 27.3817 28.0928 27.3593C28.1543 27.3368 28.21 27.3104 28.2598 27.2802C28.3105 27.2499 28.354 27.2167 28.3901 27.1806C28.3667 27.0204 28.2964 26.8998 28.1792 26.8187C28.062 26.7367 27.9082 26.6957 27.7178 26.6957C27.6221 26.6957 27.5371 26.7055 27.4629 26.725C27.3887 26.7445 27.3262 26.7719 27.2754 26.807C27.2246 26.8412 27.186 26.8822 27.1597 26.9301C27.1333 26.9779 27.1201 27.0302 27.1201 27.0868ZM29.3218 27.4501C29.3218 27.2655 29.3496 27.1 29.4053 26.9535C29.4609 26.807 29.54 26.683 29.6426 26.5814C29.7451 26.4789 29.8696 26.4008 30.0161 26.3471C30.1626 26.2934 30.3267 26.2665 30.5083 26.2665C30.6899 26.2665 30.854 26.2934 31.0005 26.3471C31.147 26.4008 31.2715 26.4789 31.374 26.5814C31.4766 26.683 31.5557 26.807 31.6113 26.9535C31.667 27.1 31.6948 27.2655 31.6948 27.4501C31.6948 27.6347 31.667 27.8002 31.6113 27.9467C31.5557 28.0932 31.4766 28.2172 31.374 28.3187C31.2715 28.4203 31.147 28.4979 31.0005 28.5517C30.854 28.6054 30.6899 28.6322 30.5083 28.6322C30.3267 28.6322 30.1626 28.6054 30.0161 28.5517C29.8696 28.4979 29.7451 28.4203 29.6426 28.3187C29.54 28.2172 29.4609 28.0932 29.4053 27.9467C29.3496 27.8002 29.3218 27.6347 29.3218 27.4501ZM29.7861 27.4486C29.7861 27.5736 29.8027 27.684 29.8359 27.7797C29.8701 27.8754 29.9185 27.956 29.981 28.0214C30.0435 28.0858 30.1191 28.1352 30.208 28.1693C30.2969 28.2025 30.397 28.2191 30.5083 28.2191C30.6196 28.2191 30.7197 28.2025 30.8086 28.1693C30.8975 28.1352 30.9731 28.0858 31.0356 28.0214C31.0981 27.956 31.146 27.8754 31.1792 27.7797C31.2134 27.684 31.2305 27.5736 31.2305 27.4486C31.2305 27.3246 31.2134 27.2152 31.1792 27.1205C31.146 27.0248 31.0981 26.9442 31.0356 26.8788C30.9731 26.8134 30.8975 26.7641 30.8086 26.7309C30.7197 26.6967 30.6196 26.6796 30.5083 26.6796C30.397 26.6796 30.2969 26.6967 30.208 26.7309C30.1191 26.7641 30.0435 26.8134 29.981 26.8788C29.9185 26.9442 29.8701 27.0248 29.8359 27.1205C29.8027 27.2152 29.7861 27.3246 29.7861 27.4486ZM34.4751 26.0072H34.8955L33.5347 29.1186H33.1143L34.4751 26.0072ZM35.4126 26.8715H35.8462V27.018C35.9546 26.9516 36.0601 26.9057 36.1626 26.8803C36.2661 26.8539 36.3672 26.8407 36.4658 26.8407C36.6035 26.8407 36.73 26.8627 36.8452 26.9066C36.9604 26.9506 37.0591 27.017 37.1411 27.1059C37.2046 27.057 37.2671 27.016 37.3286 26.9828C37.3901 26.9486 37.4517 26.9213 37.5132 26.9008C37.5747 26.8793 37.6372 26.8642 37.7007 26.8554C37.7642 26.8456 37.8296 26.8407 37.897 26.8407C38.0386 26.8407 38.167 26.8603 38.2822 26.8993C38.3975 26.9374 38.4956 26.9945 38.5767 27.0707C38.6587 27.1469 38.7217 27.2421 38.7656 27.3563C38.8105 27.4696 38.833 27.601 38.833 27.7504V28.6H38.4009V27.8207C38.4009 27.726 38.3872 27.6415 38.3599 27.5673C38.3335 27.4921 38.2959 27.4291 38.2471 27.3783C38.1992 27.3266 38.1416 27.2875 38.0742 27.2611C38.0078 27.2338 37.9346 27.2201 37.8545 27.2201C37.8105 27.2201 37.7656 27.2245 37.7197 27.2333C37.6738 27.2411 37.6289 27.2538 37.585 27.2714C37.542 27.289 37.5015 27.3114 37.4634 27.3388C37.4253 27.3651 37.3921 27.3964 37.3638 27.4325V28.6H36.9316V27.8207C36.9316 27.726 36.918 27.6415 36.8906 27.5673C36.8643 27.4921 36.8267 27.4291 36.7778 27.3783C36.73 27.3266 36.6719 27.2875 36.6035 27.2611C36.5361 27.2338 36.4619 27.2201 36.3809 27.2201C36.3311 27.2201 36.2808 27.2255 36.23 27.2362C36.1802 27.246 36.1318 27.2602 36.085 27.2787C36.0391 27.2973 35.9956 27.3197 35.9546 27.3461C35.9146 27.3725 35.8784 27.4022 35.8462 27.4354V28.6H35.4126V26.8715ZM39.2974 27.7299C39.2974 27.6127 39.3213 27.5009 39.3691 27.3944C39.417 27.287 39.4858 27.1923 39.5757 27.1103C39.6655 27.0282 39.7754 26.9628 39.9053 26.914C40.0361 26.8651 40.1846 26.8407 40.3506 26.8407C40.5156 26.8407 40.6641 26.8656 40.7959 26.9154C40.9287 26.9643 41.041 27.0316 41.1328 27.1176C41.2256 27.2035 41.2964 27.3046 41.3452 27.4208C41.395 27.537 41.4199 27.6615 41.4199 27.7943C41.4199 27.8109 41.4194 27.829 41.4185 27.8485C41.4185 27.8671 41.4175 27.8842 41.4155 27.8998H39.7808C39.7993 27.9516 39.8291 27.9989 39.8701 28.0419C39.9121 28.0849 39.9644 28.122 40.0269 28.1532C40.0894 28.1845 40.1616 28.2089 40.2437 28.2265C40.3257 28.2431 40.4165 28.2514 40.5161 28.2514C40.6157 28.2514 40.7148 28.2411 40.8135 28.2206C40.9121 28.1991 41.0063 28.1723 41.0962 28.14L41.2427 28.4711C41.186 28.4975 41.1284 28.5209 41.0698 28.5414C41.0122 28.5609 40.9517 28.5775 40.8882 28.5912C40.8257 28.6039 40.7598 28.6137 40.6904 28.6205C40.6221 28.6273 40.5498 28.6308 40.4736 28.6308C40.2793 28.6308 40.1089 28.6073 39.9624 28.5604C39.8159 28.5136 39.6934 28.4496 39.5947 28.3686C39.4961 28.2875 39.4219 28.1923 39.3721 28.0829C39.3223 27.9735 39.2974 27.8559 39.2974 27.7299ZM40.96 27.5614C40.9443 27.5136 40.9199 27.4691 40.8867 27.4281C40.8545 27.3861 40.814 27.35 40.7651 27.3197C40.7163 27.2885 40.6597 27.2641 40.5952 27.2465C40.5308 27.2289 40.46 27.2201 40.3828 27.2201C40.3008 27.2201 40.2261 27.2294 40.1587 27.2479C40.0913 27.2665 40.0322 27.2914 39.9814 27.3227C39.9307 27.3539 39.8882 27.39 39.854 27.4311C39.8208 27.4721 39.7964 27.5155 39.7808 27.5614H40.96ZM39.668 26.3515L40.3579 25.8314L41.0479 26.3515L40.8428 26.621L40.3579 26.2548L39.873 26.621L39.668 26.3515ZM41.9561 28.0697C42.0732 28.14 42.2021 28.1918 42.3428 28.225C42.4834 28.2582 42.6274 28.2748 42.7749 28.2748C42.8745 28.2748 42.9575 28.268 43.0239 28.2543C43.0903 28.2406 43.1436 28.223 43.1836 28.2016C43.2236 28.1801 43.252 28.1557 43.2686 28.1283C43.2852 28.101 43.2935 28.0731 43.2935 28.0448C43.2935 28.0038 43.2754 27.9687 43.2393 27.9394C43.2041 27.9101 43.1455 27.8954 43.0635 27.8954C43.0254 27.8954 42.9844 27.8979 42.9404 27.9027C42.8965 27.9076 42.8501 27.913 42.8013 27.9188C42.7534 27.9237 42.7031 27.9286 42.6504 27.9335C42.5986 27.9384 42.5459 27.9408 42.4922 27.9408C42.375 27.9408 42.2749 27.9281 42.1919 27.9027C42.1099 27.8773 42.043 27.8427 41.9912 27.7987C41.9395 27.7548 41.9019 27.703 41.8784 27.6435C41.855 27.5829 41.8433 27.518 41.8433 27.4486C41.8433 27.3607 41.8638 27.2797 41.9048 27.2055C41.9458 27.1312 42.0044 27.0673 42.0806 27.0136C42.1567 26.9589 42.2485 26.9164 42.356 26.8861C42.4644 26.8559 42.585 26.8407 42.7178 26.8407C42.7871 26.8407 42.8594 26.8451 42.9346 26.8539C43.0107 26.8617 43.0854 26.8725 43.1587 26.8861C43.2319 26.8998 43.3022 26.9159 43.3696 26.9345C43.437 26.952 43.4966 26.9711 43.5483 26.9916L43.4121 27.3285C43.3018 27.2875 43.1914 27.2553 43.0811 27.2318C42.9717 27.2074 42.8589 27.1952 42.7427 27.1952C42.6616 27.1952 42.5928 27.2016 42.5361 27.2143C42.4805 27.226 42.4351 27.2421 42.3999 27.2626C42.3647 27.2821 42.3389 27.3051 42.3223 27.3314C42.3066 27.3568 42.2988 27.3837 42.2988 27.412C42.2988 27.4325 42.3027 27.4511 42.3105 27.4677C42.3193 27.4843 42.333 27.4989 42.3516 27.5116C42.3711 27.5233 42.396 27.5326 42.4263 27.5395C42.4575 27.5453 42.4956 27.5482 42.5405 27.5482C42.5815 27.5482 42.625 27.5458 42.6709 27.5409C42.7168 27.536 42.7646 27.5312 42.8145 27.5263C42.8643 27.5204 42.9155 27.515 42.9683 27.5102C43.022 27.5053 43.0767 27.5028 43.1323 27.5028C43.2358 27.5028 43.3262 27.515 43.4033 27.5395C43.4814 27.5639 43.5459 27.598 43.5967 27.642C43.6475 27.6859 43.6855 27.7377 43.7109 27.7973C43.7363 27.8568 43.749 27.9218 43.749 27.9921C43.749 28.0829 43.728 28.1674 43.686 28.2455C43.644 28.3236 43.5815 28.3915 43.4985 28.4491C43.4155 28.5058 43.312 28.5502 43.188 28.5824C43.0649 28.6146 42.9224 28.6308 42.7603 28.6308C42.6606 28.6308 42.5645 28.6244 42.4717 28.6117C42.3789 28.6 42.2905 28.5839 42.2065 28.5634C42.1226 28.5419 42.0435 28.517 41.9692 28.4887C41.896 28.4604 41.8291 28.4301 41.7686 28.3979L41.9561 28.0697Z" fill="white"/>
<defs>
<filter id="filter0_dd_8_49" x="0.699997" y="4.7" width="52.6" height="31.6" filterUnits="userSpaceOnUse" color-interpolation-filters="sRGB">
<feFlood flood-opacity="0" result="BackgroundImageFix"/>
<feColorMatrix in="SourceAlpha" type="matrix" values="0 0 0 0 0 0 0 0 0 0 0 0 0 0 0 0 0 0 127 0" result="hardAlpha"/>
<feOffset dy="4"/>
<feGaussianBlur stdDeviation="2"/>
<feComposite in2="hardAlpha" operator="out"/>
<feColorMatrix type="matrix" values="0 0 0 0 0 0 0 0 0 0 0 0 0 0 0 0 0 0 0.25 0"/>
<feBlend mode="normal" in2="BackgroundImageFix" result="effect1_dropShadow_8_49"/>
<feColorMatrix in="SourceAlpha" type="matrix" values="0 0 0 0 0 0 0 0 0 0 0 0 0 0 0 0 0 0 127 0" result="hardAlpha"/>
<feOffset dy="4"/>
<feGaussianBlur stdDeviation="2"/>
<feComposite in2="hardAlpha" operator="out"/>
<feColorMatrix type="matrix" values="0 0 0 0 0 0 0 0 0 0 0 0 0 0 0 0 0 0 0.25 0"/>
<feBlend mode="normal" in2="effect1_dropShadow_8_49" result="effect2_dropShadow_8_49"/>
<feBlend mode="normal" in="SourceGraphic" in2="effect2_dropShadow_8_49" result="shape"/>
</filter>
</defs>
</svg>
