<svg width="59" height="35" viewBox="0 0 59 35" fill="none" xmlns="http://www.w3.org/2000/svg">
<rect x="12" y="23" width="40" height="6" rx="2" fill="#013DA5"/>
<g filter="url(#filter0_dd_8_29)">
<path fill-rule="evenodd" clip-rule="evenodd" d="M20 2.7H17H15C12.0729 2.7 9.7 5.07289 9.7 8V21C9.7 23.9271 12.0729 26.3 15 26.3H49C51.9271 26.3 54.3 23.9271 54.3 21V8C54.3 5.07289 51.9271 2.7 49 2.7H43V3H49C51.7614 3 54 5.23857 54 8V21C54 23.7614 51.7614 26 49 26H15C12.2386 26 10 23.7614 10 21V8C10 5.23857 12.2386 3 15 3H17H20V2.7Z" fill="#013DA5"/>
</g>
<path d="M17.2559 17.0996H19.6826V10.4482C19.3636 10.5212 19.056 10.6169 18.7598 10.7354C18.4681 10.8538 18.2015 10.9974 17.96 11.166L16.8936 9.6416C17.2855 9.39551 17.6842 9.18815 18.0898 9.01953C18.5 8.84635 18.9124 8.70964 19.3271 8.60938C19.7464 8.50456 20.1657 8.42936 20.585 8.38379C21.0088 8.33822 21.4303 8.31543 21.8496 8.31543L21.8428 8.3291H21.8496V17.0996H24.167V19H17.2559V17.0996ZM25.8213 17.1406L29.5879 14.5566C30.153 14.1693 30.6156 13.832 30.9756 13.5449C31.3356 13.2578 31.6182 13.0026 31.8232 12.7793C32.0283 12.5514 32.1696 12.3464 32.2471 12.1641C32.3245 11.9818 32.3633 11.7995 32.3633 11.6172C32.3633 11.4076 32.32 11.2116 32.2334 11.0293C32.1468 10.847 32.0101 10.6875 31.8232 10.5508C31.641 10.4141 31.404 10.307 31.1123 10.2295C30.8252 10.152 30.4811 10.1133 30.0801 10.1133C29.4967 10.1133 28.9157 10.1953 28.3369 10.3594C27.7581 10.5234 27.168 10.7855 26.5664 11.1455L25.5684 9.50488C26.2383 9.09017 26.9629 8.7666 27.7422 8.53418C28.526 8.30176 29.3486 8.18555 30.21 8.18555C30.9619 8.18555 31.6136 8.27669 32.165 8.45898C32.721 8.63672 33.179 8.88053 33.5391 9.19043C33.9036 9.50033 34.1748 9.86035 34.3525 10.2705C34.5303 10.6807 34.6191 11.1159 34.6191 11.5762C34.6191 11.9316 34.5599 12.2712 34.4414 12.5947C34.3229 12.9183 34.1156 13.2533 33.8193 13.5996C33.5231 13.946 33.1221 14.3197 32.6162 14.7207C32.1149 15.1172 31.4814 15.5684 30.7158 16.0742L29.1572 17.0996H35.0088V19H25.8213V17.1406ZM36.8887 13.6338C36.8887 12.7725 37.0186 12 37.2783 11.3164C37.5381 10.6328 37.9072 10.054 38.3857 9.58008C38.8643 9.10156 39.4453 8.73698 40.1289 8.48633C40.8125 8.23568 41.5781 8.11035 42.4258 8.11035C43.2734 8.11035 44.0391 8.23568 44.7227 8.48633C45.4062 8.73698 45.9873 9.10156 46.4658 9.58008C46.9443 10.054 47.3135 10.6328 47.5732 11.3164C47.833 12 47.9629 12.7725 47.9629 13.6338C47.9629 14.4951 47.833 15.2676 47.5732 15.9512C47.3135 16.6348 46.9443 17.2135 46.4658 17.6875C45.9873 18.1615 45.4062 18.5238 44.7227 18.7744C44.0391 19.0251 43.2734 19.1504 42.4258 19.1504C41.5781 19.1504 40.8125 19.0251 40.1289 18.7744C39.4453 18.5238 38.8643 18.1615 38.3857 17.6875C37.9072 17.2135 37.5381 16.6348 37.2783 15.9512C37.0186 15.2676 36.8887 14.4951 36.8887 13.6338ZM39.0557 13.627C39.0557 14.2103 39.1331 14.7253 39.2881 15.1719C39.4476 15.6185 39.6732 15.9945 39.9648 16.2998C40.2565 16.6006 40.6097 16.8307 41.0244 16.9902C41.4391 17.1452 41.9062 17.2227 42.4258 17.2227C42.9453 17.2227 43.4124 17.1452 43.8271 16.9902C44.2419 16.8307 44.5951 16.6006 44.8867 16.2998C45.1784 15.9945 45.4017 15.6185 45.5566 15.1719C45.7161 14.7253 45.7959 14.2103 45.7959 13.627C45.7959 13.0482 45.7161 12.5378 45.5566 12.0957C45.4017 11.6491 45.1784 11.2731 44.8867 10.9678C44.5951 10.6624 44.2419 10.4323 43.8271 10.2773C43.4124 10.1178 42.9453 10.0381 42.4258 10.0381C41.9062 10.0381 41.4391 10.1178 41.0244 10.2773C40.6097 10.4323 40.2565 10.6624 39.9648 10.9678C39.6732 11.2731 39.4476 11.6491 39.2881 12.0957C39.1331 12.5378 39.0557 13.0482 39.0557 13.627Z" fill="white"/>
<path d="M16.3018 24.9736H17.0781C17.1953 24.9736 17.2969 24.986 17.3828 25.0107C17.4688 25.0348 17.54 25.07 17.5967 25.1162C17.6533 25.1624 17.6953 25.2188 17.7227 25.2852C17.7507 25.3516 17.7646 25.4268 17.7646 25.5107C17.7646 25.5674 17.7578 25.6214 17.7441 25.6729C17.7305 25.7236 17.7093 25.7705 17.6807 25.8135C17.6527 25.8564 17.6172 25.8949 17.5742 25.9287C17.5312 25.9619 17.4808 25.9896 17.4229 26.0117L17.7549 26.5H17.376L17.0889 26.0664H17.0801L16.6113 26.0654V26.5H16.3018V24.9736ZM17.0859 25.7979C17.1445 25.7979 17.1956 25.791 17.2393 25.7773C17.2835 25.7637 17.3203 25.7445 17.3496 25.7197C17.3796 25.695 17.4017 25.665 17.416 25.6299C17.431 25.5941 17.4385 25.5544 17.4385 25.5107C17.4385 25.4255 17.4092 25.3597 17.3506 25.3135C17.292 25.2666 17.2038 25.2432 17.0859 25.2432H16.6113V25.7979H17.0859ZM18.2031 26.0459C18.25 26.0726 18.2972 26.097 18.3447 26.1191C18.3923 26.1406 18.4411 26.1598 18.4912 26.1768C18.542 26.193 18.5941 26.207 18.6475 26.2188C18.7015 26.2298 18.7585 26.2376 18.8184 26.2422V25.8574C18.7852 25.8613 18.7533 25.8646 18.7227 25.8672C18.6921 25.8698 18.6624 25.8711 18.6338 25.8711C18.5654 25.8711 18.4997 25.8623 18.4365 25.8447C18.374 25.8271 18.3184 25.8008 18.2695 25.7656C18.2214 25.7305 18.1829 25.6865 18.1543 25.6338C18.1257 25.5811 18.1113 25.5195 18.1113 25.4492C18.1113 25.3893 18.1237 25.3304 18.1484 25.2725C18.1738 25.2139 18.2145 25.1615 18.2705 25.1152C18.3271 25.0684 18.4004 25.0296 18.4902 24.999C18.5801 24.9684 18.6895 24.9508 18.8184 24.9463V24.6504H19.0498V24.9521C19.1585 24.9619 19.2627 24.9798 19.3623 25.0059C19.4626 25.0319 19.5544 25.0635 19.6377 25.1006L19.502 25.3506C19.4368 25.3226 19.3665 25.2979 19.291 25.2764C19.2155 25.2549 19.1351 25.2393 19.0498 25.2295V25.54C19.0811 25.5368 19.1123 25.5342 19.1436 25.5322C19.1748 25.5296 19.2054 25.5283 19.2354 25.5283C19.3252 25.5283 19.4046 25.5384 19.4736 25.5586C19.5433 25.5788 19.6016 25.6077 19.6484 25.6455C19.6953 25.6826 19.7308 25.7279 19.7549 25.7812C19.779 25.834 19.791 25.8932 19.791 25.959C19.791 26.0404 19.7734 26.1139 19.7383 26.1797C19.7038 26.2448 19.6543 26.3011 19.5898 26.3486C19.526 26.3962 19.4482 26.4342 19.3564 26.4629C19.2653 26.4915 19.1631 26.5098 19.0498 26.5176V26.8145H18.8184V26.5186C18.6673 26.5094 18.5254 26.4854 18.3926 26.4463C18.2604 26.4066 18.1423 26.3568 18.0381 26.2969L18.2031 26.0459ZM18.4355 25.4199C18.4355 25.4655 18.4561 25.5029 18.4971 25.5322C18.5381 25.5609 18.6006 25.5752 18.6846 25.5752C18.7035 25.5752 18.7243 25.5745 18.7471 25.5732C18.7699 25.5713 18.7936 25.569 18.8184 25.5664V25.2207C18.7448 25.2233 18.6833 25.2311 18.6338 25.2441C18.585 25.2572 18.5459 25.2731 18.5166 25.292C18.4873 25.3109 18.4665 25.3317 18.4541 25.3545C18.4417 25.3766 18.4355 25.3984 18.4355 25.4199ZM19.0498 26.2441C19.124 26.2396 19.1875 26.2301 19.2402 26.2158C19.293 26.2015 19.3359 26.1836 19.3691 26.1621C19.403 26.14 19.4274 26.1149 19.4424 26.0869C19.458 26.0589 19.4658 26.0293 19.4658 25.998C19.4658 25.9427 19.4427 25.8991 19.3965 25.8672C19.3503 25.8346 19.279 25.8184 19.1826 25.8184C19.1618 25.8184 19.14 25.8193 19.1172 25.8213C19.0951 25.8226 19.0726 25.8245 19.0498 25.8271V26.2441Z" fill="white"/>
<path d="M23.0079 27.2597C23.0667 27.2938 23.1323 27.3239 23.2048 27.3499C23.2772 27.3759 23.3518 27.3978 23.4283 27.4155C23.5063 27.4319 23.5842 27.4449 23.6621 27.4545C23.7414 27.4627 23.8166 27.4668 23.8877 27.4668C24.0463 27.4668 24.1892 27.4463 24.3163 27.4053C24.4448 27.3643 24.5556 27.3062 24.6485 27.231C24.7415 27.1558 24.8153 27.0662 24.87 26.9623C24.9261 26.857 24.9609 26.7408 24.9746 26.6137C24.9035 26.6697 24.8249 26.7183 24.7388 26.7593C24.6526 26.8003 24.561 26.8345 24.464 26.8618C24.3683 26.8878 24.2691 26.9076 24.1666 26.9213C24.0654 26.9336 23.9636 26.9397 23.861 26.9397C23.6614 26.9397 23.4796 26.9158 23.3155 26.868C23.1528 26.8201 23.0134 26.7511 22.8972 26.6608C22.781 26.5706 22.6907 26.4612 22.6265 26.3327C22.5636 26.2028 22.5321 26.0559 22.5321 25.8918C22.5321 25.7305 22.5636 25.5808 22.6265 25.4427C22.6907 25.3046 22.7851 25.185 22.9095 25.0838C23.0339 24.9813 23.1884 24.9013 23.3729 24.8438C23.5575 24.7851 23.7715 24.7557 24.0148 24.7557C24.2514 24.7557 24.4674 24.7857 24.6629 24.8459C24.8584 24.9061 25.0259 24.9997 25.1653 25.1269C25.3048 25.254 25.4128 25.416 25.4894 25.6129C25.5673 25.8084 25.6062 26.0422 25.6062 26.3143C25.6062 26.6055 25.5625 26.8598 25.475 27.0771C25.3889 27.2932 25.2699 27.4729 25.1182 27.6165C24.9678 27.7601 24.79 27.8674 24.585 27.9385C24.3799 28.0096 24.1584 28.0451 23.9205 28.0451C23.8207 28.0451 23.7168 28.039 23.6088 28.0267C23.5021 28.0144 23.3962 27.9959 23.2909 27.9713C23.1856 27.9467 23.0838 27.9159 22.9854 27.879C22.8883 27.8421 22.7994 27.7997 22.7188 27.7519L23.0079 27.2597ZM23.1822 25.8815C23.1822 25.9485 23.1966 26.0114 23.2253 26.0702C23.254 26.129 23.2984 26.1803 23.3586 26.224C23.4201 26.2664 23.4987 26.3006 23.5944 26.3266C23.6901 26.3512 23.8057 26.3635 23.941 26.3635C24.0545 26.3635 24.1618 26.3546 24.263 26.3368C24.3642 26.319 24.4578 26.2944 24.5439 26.263C24.6301 26.2315 24.708 26.1946 24.7777 26.1522C24.8488 26.1099 24.9097 26.0634 24.9603 26.0128C24.9274 25.7886 24.829 25.6197 24.6649 25.5063C24.5009 25.3914 24.2855 25.334 24.0189 25.334C23.885 25.334 23.766 25.3477 23.6621 25.375C23.5582 25.4023 23.4707 25.4406 23.3996 25.4898C23.3285 25.5377 23.2745 25.5951 23.2376 25.6621C23.2007 25.7291 23.1822 25.8022 23.1822 25.8815ZM26.8511 27.2597C26.9099 27.2938 26.9755 27.3239 27.0479 27.3499C27.1204 27.3759 27.1949 27.3978 27.2715 27.4155C27.3494 27.4319 27.4273 27.4449 27.5053 27.4545C27.5846 27.4627 27.6598 27.4668 27.7309 27.4668C27.8895 27.4668 28.0323 27.4463 28.1595 27.4053C28.288 27.3643 28.3987 27.3062 28.4917 27.231C28.5847 27.1558 28.6585 27.0662 28.7132 26.9623C28.7692 26.857 28.8041 26.7408 28.8178 26.6137C28.7467 26.6697 28.6681 26.7183 28.5819 26.7593C28.4958 26.8003 28.4042 26.8345 28.3071 26.8618C28.2114 26.8878 28.1123 26.9076 28.0098 26.9213C27.9086 26.9336 27.8067 26.9397 27.7042 26.9397C27.5046 26.9397 27.3228 26.9158 27.1587 26.868C26.996 26.8201 26.8565 26.7511 26.7403 26.6608C26.6241 26.5706 26.5339 26.4612 26.4696 26.3327C26.4067 26.2028 26.3753 26.0559 26.3753 25.8918C26.3753 25.7305 26.4067 25.5808 26.4696 25.4427C26.5339 25.3046 26.6282 25.185 26.7526 25.0838C26.8771 24.9813 27.0315 24.9013 27.2161 24.8438C27.4007 24.7851 27.6146 24.7557 27.858 24.7557C28.0945 24.7557 28.3105 24.7857 28.5061 24.8459C28.7016 24.9061 28.869 24.9997 29.0085 25.1269C29.1479 25.254 29.256 25.416 29.3325 25.6129C29.4104 25.8084 29.4494 26.0422 29.4494 26.3143C29.4494 26.6055 29.4057 26.8598 29.3182 27.0771C29.232 27.2932 29.1131 27.4729 28.9613 27.6165C28.8109 27.7601 28.6332 27.8674 28.4281 27.9385C28.223 28.0096 28.0016 28.0451 27.7637 28.0451C27.6639 28.0451 27.56 28.039 27.452 28.0267C27.3453 28.0144 27.2394 27.9959 27.1341 27.9713C27.0288 27.9467 26.927 27.9159 26.8285 27.879C26.7314 27.8421 26.6426 27.7997 26.5619 27.7519L26.8511 27.2597ZM27.0254 25.8815C27.0254 25.9485 27.0397 26.0114 27.0685 26.0702C27.0972 26.129 27.1416 26.1803 27.2018 26.224C27.2633 26.2664 27.3419 26.3006 27.4376 26.3266C27.5333 26.3512 27.6488 26.3635 27.7842 26.3635C27.8977 26.3635 28.005 26.3546 28.1062 26.3368C28.2073 26.319 28.301 26.2944 28.3871 26.263C28.4732 26.2315 28.5512 26.1946 28.6209 26.1522C28.692 26.1099 28.7528 26.0634 28.8034 26.0128C28.7706 25.7886 28.6722 25.6197 28.5081 25.5063C28.344 25.3914 28.1287 25.334 27.8621 25.334C27.7281 25.334 27.6092 25.3477 27.5053 25.375C27.4014 25.4023 27.3139 25.4406 27.2428 25.4898C27.1717 25.5377 27.1177 25.5951 27.0808 25.6621C27.0438 25.7291 27.0254 25.8022 27.0254 25.8815Z" fill="white"/>
<path d="M30.4106 26.7451C30.4106 26.7061 30.4189 26.6694 30.4355 26.6353C30.4521 26.6011 30.4751 26.5713 30.5044 26.5459C30.5347 26.5195 30.5708 26.499 30.6128 26.4844C30.6558 26.4697 30.7036 26.4624 30.7563 26.4624C30.813 26.4624 30.8647 26.4717 30.9116 26.4902C30.9595 26.5078 31.0005 26.5337 31.0347 26.5679C31.0688 26.6021 31.0952 26.644 31.1138 26.6938C31.1333 26.7427 31.1431 26.7979 31.1431 26.8594C31.1431 26.998 31.0952 27.1309 30.9995 27.2578C30.9048 27.3857 30.7666 27.499 30.585 27.5977L30.4092 27.3486C30.457 27.3232 30.499 27.2979 30.5352 27.2725C30.5713 27.248 30.603 27.2231 30.6304 27.1978C30.6577 27.1724 30.6812 27.146 30.7007 27.1187C30.7212 27.0913 30.7393 27.062 30.7549 27.0308C30.7031 27.0308 30.6558 27.0229 30.6128 27.0073C30.5708 26.9927 30.5347 26.9727 30.5044 26.9473C30.4741 26.9219 30.4507 26.8921 30.4341 26.8579C30.4185 26.8228 30.4106 26.7852 30.4106 26.7451ZM31.9956 26.4712C32.0376 26.4956 32.0845 26.5171 32.1362 26.5356C32.188 26.5542 32.2412 26.5698 32.2959 26.5825C32.3516 26.5942 32.4072 26.6035 32.4629 26.6104C32.5195 26.6162 32.5732 26.6191 32.624 26.6191C32.7373 26.6191 32.8394 26.6045 32.9302 26.5752C33.022 26.5459 33.1011 26.5044 33.1675 26.4507C33.2339 26.397 33.2866 26.333 33.3257 26.2588C33.3657 26.1836 33.3906 26.1006 33.4004 26.0098C33.3496 26.0498 33.2935 26.0845 33.2319 26.1138C33.1704 26.1431 33.105 26.1675 33.0356 26.187C32.9673 26.2056 32.8965 26.2197 32.8232 26.2295C32.751 26.2383 32.6782 26.2427 32.605 26.2427C32.4624 26.2427 32.3325 26.2256 32.2153 26.1914C32.0991 26.1572 31.9995 26.1079 31.9165 26.0435C31.8335 25.979 31.769 25.9009 31.7231 25.8091C31.6782 25.7163 31.6558 25.6113 31.6558 25.4941C31.6558 25.3789 31.6782 25.272 31.7231 25.1733C31.769 25.0747 31.8364 24.9893 31.9253 24.917C32.0142 24.8438 32.1245 24.7866 32.2563 24.7456C32.3882 24.7036 32.541 24.6826 32.7148 24.6826C32.8838 24.6826 33.0381 24.7041 33.1777 24.7471C33.3174 24.79 33.437 24.8569 33.5366 24.9478C33.6362 25.0386 33.7134 25.1543 33.7681 25.2949C33.8237 25.4346 33.8516 25.6016 33.8516 25.7959C33.8516 26.0039 33.8203 26.1855 33.7578 26.3408C33.6963 26.4951 33.6113 26.6235 33.5029 26.7261C33.3955 26.8286 33.2686 26.9053 33.1221 26.9561C32.9756 27.0068 32.8174 27.0322 32.6475 27.0322C32.5762 27.0322 32.502 27.0278 32.4248 27.019C32.3486 27.0103 32.2729 26.9971 32.1978 26.9795C32.1226 26.9619 32.0498 26.9399 31.9795 26.9136C31.9102 26.8872 31.8467 26.8569 31.7891 26.8228L31.9956 26.4712ZM32.1201 25.4868C32.1201 25.5347 32.1304 25.5796 32.1509 25.6216C32.1714 25.6636 32.2031 25.7002 32.2461 25.7314C32.29 25.7617 32.3462 25.7861 32.4146 25.8047C32.4829 25.8223 32.5654 25.8311 32.6621 25.8311C32.7432 25.8311 32.8198 25.8247 32.8921 25.812C32.9644 25.7993 33.0312 25.7817 33.0928 25.7593C33.1543 25.7368 33.21 25.7104 33.2598 25.6802C33.3105 25.6499 33.354 25.6167 33.3901 25.5806C33.3667 25.4204 33.2964 25.2998 33.1792 25.2188C33.062 25.1367 32.9082 25.0957 32.7178 25.0957C32.6221 25.0957 32.5371 25.1055 32.4629 25.125C32.3887 25.1445 32.3262 25.1719 32.2754 25.207C32.2246 25.2412 32.186 25.2822 32.1597 25.3301C32.1333 25.3779 32.1201 25.4302 32.1201 25.4868ZM34.3218 25.8501C34.3218 25.6655 34.3496 25.5 34.4053 25.3535C34.4609 25.207 34.54 25.083 34.6426 24.9814C34.7451 24.8789 34.8696 24.8008 35.0161 24.7471C35.1626 24.6934 35.3267 24.6665 35.5083 24.6665C35.6899 24.6665 35.854 24.6934 36.0005 24.7471C36.147 24.8008 36.2715 24.8789 36.374 24.9814C36.4766 25.083 36.5557 25.207 36.6113 25.3535C36.667 25.5 36.6948 25.6655 36.6948 25.8501C36.6948 26.0347 36.667 26.2002 36.6113 26.3467C36.5557 26.4932 36.4766 26.6172 36.374 26.7188C36.2715 26.8203 36.147 26.8979 36.0005 26.9517C35.854 27.0054 35.6899 27.0322 35.5083 27.0322C35.3267 27.0322 35.1626 27.0054 35.0161 26.9517C34.8696 26.8979 34.7451 26.8203 34.6426 26.7188C34.54 26.6172 34.4609 26.4932 34.4053 26.3467C34.3496 26.2002 34.3218 26.0347 34.3218 25.8501ZM34.7861 25.8486C34.7861 25.9736 34.8027 26.084 34.8359 26.1797C34.8701 26.2754 34.9185 26.356 34.981 26.4214C35.0435 26.4858 35.1191 26.5352 35.208 26.5693C35.2969 26.6025 35.397 26.6191 35.5083 26.6191C35.6196 26.6191 35.7197 26.6025 35.8086 26.5693C35.8975 26.5352 35.9731 26.4858 36.0356 26.4214C36.0981 26.356 36.146 26.2754 36.1792 26.1797C36.2134 26.084 36.2305 25.9736 36.2305 25.8486C36.2305 25.7246 36.2134 25.6152 36.1792 25.5205C36.146 25.4248 36.0981 25.3442 36.0356 25.2788C35.9731 25.2134 35.8975 25.1641 35.8086 25.1309C35.7197 25.0967 35.6196 25.0796 35.5083 25.0796C35.397 25.0796 35.2969 25.0967 35.208 25.1309C35.1191 25.1641 35.0435 25.2134 34.981 25.2788C34.9185 25.3442 34.8701 25.4248 34.8359 25.5205C34.8027 25.6152 34.7861 25.7246 34.7861 25.8486ZM39.4751 24.4072H39.8955L38.5347 27.5186H38.1143L39.4751 24.4072ZM40.4126 25.2715H40.8462V25.418C40.9546 25.3516 41.0601 25.3057 41.1626 25.2803C41.2661 25.2539 41.3672 25.2407 41.4658 25.2407C41.6035 25.2407 41.73 25.2627 41.8452 25.3066C41.9604 25.3506 42.0591 25.417 42.1411 25.5059C42.2046 25.457 42.2671 25.416 42.3286 25.3828C42.3901 25.3486 42.4517 25.3213 42.5132 25.3008C42.5747 25.2793 42.6372 25.2642 42.7007 25.2554C42.7642 25.2456 42.8296 25.2407 42.897 25.2407C43.0386 25.2407 43.167 25.2603 43.2822 25.2993C43.3975 25.3374 43.4956 25.3945 43.5767 25.4707C43.6587 25.5469 43.7217 25.6421 43.7656 25.7563C43.8105 25.8696 43.833 26.001 43.833 26.1504V27H43.4009V26.2207C43.4009 26.126 43.3872 26.0415 43.3599 25.9673C43.3335 25.8921 43.2959 25.8291 43.2471 25.7783C43.1992 25.7266 43.1416 25.6875 43.0742 25.6611C43.0078 25.6338 42.9346 25.6201 42.8545 25.6201C42.8105 25.6201 42.7656 25.6245 42.7197 25.6333C42.6738 25.6411 42.6289 25.6538 42.585 25.6714C42.542 25.689 42.5015 25.7114 42.4634 25.7388C42.4253 25.7651 42.3921 25.7964 42.3638 25.8325V27H41.9316V26.2207C41.9316 26.126 41.918 26.0415 41.8906 25.9673C41.8643 25.8921 41.8267 25.8291 41.7778 25.7783C41.73 25.7266 41.6719 25.6875 41.6035 25.6611C41.5361 25.6338 41.4619 25.6201 41.3809 25.6201C41.3311 25.6201 41.2808 25.6255 41.23 25.6362C41.1802 25.646 41.1318 25.6602 41.085 25.6787C41.0391 25.6973 40.9956 25.7197 40.9546 25.7461C40.9146 25.7725 40.8784 25.8022 40.8462 25.8354V27H40.4126V25.2715ZM44.2974 26.1299C44.2974 26.0127 44.3213 25.9009 44.3691 25.7944C44.417 25.687 44.4858 25.5923 44.5757 25.5103C44.6655 25.4282 44.7754 25.3628 44.9053 25.314C45.0361 25.2651 45.1846 25.2407 45.3506 25.2407C45.5156 25.2407 45.6641 25.2656 45.7959 25.3154C45.9287 25.3643 46.041 25.4316 46.1328 25.5176C46.2256 25.6035 46.2964 25.7046 46.3452 25.8208C46.395 25.937 46.4199 26.0615 46.4199 26.1943C46.4199 26.2109 46.4194 26.229 46.4185 26.2485C46.4185 26.2671 46.4175 26.2842 46.4155 26.2998H44.7808C44.7993 26.3516 44.8291 26.3989 44.8701 26.4419C44.9121 26.4849 44.9644 26.522 45.0269 26.5532C45.0894 26.5845 45.1616 26.6089 45.2437 26.6265C45.3257 26.6431 45.4165 26.6514 45.5161 26.6514C45.6157 26.6514 45.7148 26.6411 45.8135 26.6206C45.9121 26.5991 46.0063 26.5723 46.0962 26.54L46.2427 26.8711C46.186 26.8975 46.1284 26.9209 46.0698 26.9414C46.0122 26.9609 45.9517 26.9775 45.8882 26.9912C45.8257 27.0039 45.7598 27.0137 45.6904 27.0205C45.6221 27.0273 45.5498 27.0308 45.4736 27.0308C45.2793 27.0308 45.1089 27.0073 44.9624 26.9604C44.8159 26.9136 44.6934 26.8496 44.5947 26.7686C44.4961 26.6875 44.4219 26.5923 44.3721 26.4829C44.3223 26.3735 44.2974 26.2559 44.2974 26.1299ZM45.96 25.9614C45.9443 25.9136 45.9199 25.8691 45.8867 25.8281C45.8545 25.7861 45.814 25.75 45.7651 25.7197C45.7163 25.6885 45.6597 25.6641 45.5952 25.6465C45.5308 25.6289 45.46 25.6201 45.3828 25.6201C45.3008 25.6201 45.2261 25.6294 45.1587 25.6479C45.0913 25.6665 45.0322 25.6914 44.9814 25.7227C44.9307 25.7539 44.8882 25.79 44.854 25.8311C44.8208 25.8721 44.7964 25.9155 44.7808 25.9614H45.96ZM44.668 24.7515L45.3579 24.2314L46.0479 24.7515L45.8428 25.021L45.3579 24.6548L44.873 25.021L44.668 24.7515ZM46.9561 26.4697C47.0732 26.54 47.2021 26.5918 47.3428 26.625C47.4834 26.6582 47.6274 26.6748 47.7749 26.6748C47.8745 26.6748 47.9575 26.668 48.0239 26.6543C48.0903 26.6406 48.1436 26.623 48.1836 26.6016C48.2236 26.5801 48.252 26.5557 48.2686 26.5283C48.2852 26.501 48.2935 26.4731 48.2935 26.4448C48.2935 26.4038 48.2754 26.3687 48.2393 26.3394C48.2041 26.3101 48.1455 26.2954 48.0635 26.2954C48.0254 26.2954 47.9844 26.2979 47.9404 26.3027C47.8965 26.3076 47.8501 26.313 47.8013 26.3188C47.7534 26.3237 47.7031 26.3286 47.6504 26.3335C47.5986 26.3384 47.5459 26.3408 47.4922 26.3408C47.375 26.3408 47.2749 26.3281 47.1919 26.3027C47.1099 26.2773 47.043 26.2427 46.9912 26.1987C46.9395 26.1548 46.9019 26.103 46.8784 26.0435C46.855 25.9829 46.8433 25.918 46.8433 25.8486C46.8433 25.7607 46.8638 25.6797 46.9048 25.6055C46.9458 25.5312 47.0044 25.4673 47.0806 25.4136C47.1567 25.3589 47.2485 25.3164 47.356 25.2861C47.4644 25.2559 47.585 25.2407 47.7178 25.2407C47.7871 25.2407 47.8594 25.2451 47.9346 25.2539C48.0107 25.2617 48.0854 25.2725 48.1587 25.2861C48.2319 25.2998 48.3022 25.3159 48.3696 25.3345C48.437 25.3521 48.4966 25.3711 48.5483 25.3916L48.4121 25.7285C48.3018 25.6875 48.1914 25.6553 48.0811 25.6318C47.9717 25.6074 47.8589 25.5952 47.7427 25.5952C47.6616 25.5952 47.5928 25.6016 47.5361 25.6143C47.4805 25.626 47.4351 25.6421 47.3999 25.6626C47.3647 25.6821 47.3389 25.7051 47.3223 25.7314C47.3066 25.7568 47.2988 25.7837 47.2988 25.812C47.2988 25.8325 47.3027 25.8511 47.3105 25.8677C47.3193 25.8843 47.333 25.8989 47.3516 25.9116C47.3711 25.9233 47.396 25.9326 47.4263 25.9395C47.4575 25.9453 47.4956 25.9482 47.5405 25.9482C47.5815 25.9482 47.625 25.9458 47.6709 25.9409C47.7168 25.936 47.7646 25.9312 47.8145 25.9263C47.8643 25.9204 47.9155 25.915 47.9683 25.9102C48.022 25.9053 48.0767 25.9028 48.1323 25.9028C48.2358 25.9028 48.3262 25.915 48.4033 25.9395C48.4814 25.9639 48.5459 25.998 48.5967 26.042C48.6475 26.0859 48.6855 26.1377 48.7109 26.1973C48.7363 26.2568 48.749 26.3218 48.749 26.3921C48.749 26.4829 48.728 26.5674 48.686 26.6455C48.644 26.7236 48.5815 26.7915 48.4985 26.8491C48.4155 26.9058 48.312 26.9502 48.188 26.9824C48.0649 27.0146 47.9224 27.0308 47.7603 27.0308C47.6606 27.0308 47.5645 27.0244 47.4717 27.0117C47.3789 27 47.2905 26.9839 47.2065 26.9634C47.1226 26.9419 47.0435 26.917 46.9692 26.8887C46.896 26.8604 46.8291 26.8301 46.7686 26.7979L46.9561 26.4697Z" fill="white"/>
<path d="M23.9824 0.947266H24.6016V2.62891C24.6016 2.76693 24.6204 2.88997 24.6582 2.99805C24.696 3.10482 24.752 3.19531 24.8262 3.26953C24.9017 3.34375 24.9948 3.40039 25.1055 3.43945C25.2161 3.47721 25.3451 3.49609 25.4922 3.49609C25.638 3.49609 25.7663 3.47721 25.877 3.43945C25.9889 3.40039 26.082 3.34375 26.1562 3.26953C26.2318 3.19531 26.2884 3.10482 26.3262 2.99805C26.3639 2.88997 26.3828 2.76693 26.3828 2.62891V0.947266H27.002V2.70312C27.002 2.90365 26.9681 3.08594 26.9004 3.25C26.8327 3.41406 26.7344 3.55469 26.6055 3.67188C26.4766 3.78906 26.3184 3.87956 26.1309 3.94336C25.9447 4.00716 25.7318 4.03906 25.4922 4.03906C25.2526 4.03906 25.0391 4.00716 24.8516 3.94336C24.6654 3.87956 24.5078 3.78906 24.3789 3.67188C24.25 3.55469 24.1517 3.41406 24.084 3.25C24.0163 3.08594 23.9824 2.90365 23.9824 2.70312V0.947266ZM27.6855 1.69531H28.2637V2.02734C28.3913 1.93229 28.526 1.85026 28.668 1.78125C28.8099 1.71224 28.9512 1.65951 29.0918 1.62305L29.2617 2.15234C29.0391 2.17448 28.8431 2.22461 28.6738 2.30273C28.5059 2.37956 28.3691 2.48828 28.2637 2.62891V4H27.6855V1.69531ZM29.584 3.27344C29.584 3.16276 29.6081 3.06185 29.6562 2.9707C29.7044 2.87956 29.7767 2.80143 29.873 2.73633C29.9694 2.66992 30.0892 2.61914 30.2324 2.58398C30.377 2.54753 30.5449 2.5293 30.7363 2.5293C30.8783 2.5293 31.0273 2.53971 31.1836 2.56055C31.3411 2.58138 31.5033 2.61328 31.6699 2.65625C31.6634 2.58333 31.6413 2.51628 31.6035 2.45508C31.5658 2.39258 31.513 2.33919 31.4453 2.29492C31.3789 2.24935 31.2982 2.21419 31.2031 2.18945C31.1094 2.16471 31.0026 2.15234 30.8828 2.15234C30.8177 2.15234 30.7461 2.15625 30.668 2.16406C30.5898 2.17188 30.5091 2.18359 30.4258 2.19922C30.3424 2.21484 30.2598 2.23438 30.1777 2.25781C30.097 2.28125 30.0215 2.30924 29.9512 2.3418L29.7754 1.86719C29.8626 1.83594 29.9557 1.80729 30.0547 1.78125C30.1549 1.75521 30.2572 1.73307 30.3613 1.71484C30.4655 1.69531 30.5697 1.68034 30.6738 1.66992C30.778 1.65951 30.8789 1.6543 30.9766 1.6543C31.4076 1.6543 31.7279 1.76432 31.9375 1.98438C32.1471 2.20443 32.252 2.54167 32.252 2.99609V4H31.6738V3.7832C31.6139 3.81836 31.5482 3.85156 31.4766 3.88281C31.4062 3.91406 31.3294 3.94141 31.2461 3.96484C31.1628 3.98828 31.0729 4.00651 30.9766 4.01953C30.8815 4.03385 30.7806 4.04102 30.6738 4.04102C30.4941 4.04102 30.3359 4.02148 30.1992 3.98242C30.0638 3.94336 29.9505 3.88932 29.8594 3.82031C29.7682 3.7513 29.6992 3.67057 29.6523 3.57812C29.6068 3.48438 29.584 3.38281 29.584 3.27344ZM30.1934 3.25391C30.1934 3.29167 30.2031 3.32812 30.2227 3.36328C30.2422 3.39714 30.2734 3.42773 30.3164 3.45508C30.3594 3.48112 30.4141 3.5026 30.4805 3.51953C30.5482 3.53516 30.6296 3.54297 30.7246 3.54297C30.8262 3.54297 30.9245 3.53385 31.0195 3.51562C31.1146 3.4974 31.2031 3.47331 31.2852 3.44336C31.3672 3.41341 31.4414 3.37891 31.5078 3.33984C31.5742 3.30078 31.6296 3.26042 31.6738 3.21875V3.11719C31.5853 3.09245 31.4974 3.07161 31.4102 3.05469C31.3242 3.03776 31.2415 3.02474 31.1621 3.01562C31.084 3.00521 31.0098 2.99805 30.9395 2.99414C30.8704 2.99023 30.8099 2.98828 30.7578 2.98828C30.6497 2.98828 30.5599 2.99544 30.4883 3.00977C30.4167 3.02409 30.3587 3.04362 30.3145 3.06836C30.2702 3.0918 30.2389 3.11979 30.2207 3.15234C30.2025 3.1849 30.1934 3.21875 30.1934 3.25391ZM33.0176 1.69531H33.5957V1.89062C33.7493 1.80339 33.8958 1.74219 34.0352 1.70703C34.1758 1.67188 34.3132 1.6543 34.4473 1.6543C34.623 1.6543 34.7858 1.68034 34.9355 1.73242C35.0853 1.7832 35.2148 1.85938 35.3242 1.96094C35.4336 2.0625 35.5189 2.18945 35.5801 2.3418C35.6426 2.49284 35.6738 2.66797 35.6738 2.86719V4H35.0977V2.96094C35.0977 2.83464 35.0794 2.72201 35.043 2.62305C35.0078 2.52279 34.9564 2.4388 34.8887 2.37109C34.8223 2.30208 34.7409 2.25 34.6445 2.21484C34.5495 2.17839 34.4427 2.16016 34.3242 2.16016C34.2617 2.16016 34.1973 2.16667 34.1309 2.17969C34.0658 2.19271 34.0013 2.21159 33.9375 2.23633C33.875 2.25977 33.8145 2.28971 33.7559 2.32617C33.6973 2.36133 33.6439 2.40169 33.5957 2.44727V4H33.0176V1.69531ZM36.2461 2.84766C36.2461 2.68229 36.2793 2.52734 36.3457 2.38281C36.4134 2.23828 36.5091 2.11198 36.6328 2.00391C36.7578 1.89583 36.9082 1.81055 37.084 1.74805C37.2611 1.68555 37.4596 1.6543 37.6797 1.6543C37.8997 1.6543 38.0977 1.68555 38.2734 1.74805C38.4505 1.81055 38.6009 1.89583 38.7246 2.00391C38.8496 2.11198 38.9453 2.23828 39.0117 2.38281C39.0794 2.52734 39.1133 2.68229 39.1133 2.84766C39.1133 3.01302 39.0794 3.16797 39.0117 3.3125C38.9453 3.45703 38.8496 3.58333 38.7246 3.69141C38.6009 3.79948 38.4505 3.88477 38.2734 3.94727C38.0977 4.00977 37.8997 4.04102 37.6797 4.04102C37.4596 4.04102 37.2611 4.00977 37.084 3.94727C36.9082 3.88477 36.7578 3.79948 36.6328 3.69141C36.5091 3.58333 36.4134 3.45703 36.3457 3.3125C36.2793 3.16797 36.2461 3.01302 36.2461 2.84766ZM36.8535 2.84766C36.8535 2.9401 36.8717 3.02799 36.9082 3.11133C36.946 3.19336 37 3.26628 37.0703 3.33008C37.1419 3.39258 37.2285 3.44271 37.3301 3.48047C37.4329 3.51693 37.5495 3.53516 37.6797 3.53516C37.8099 3.53516 37.9258 3.51693 38.0273 3.48047C38.1302 3.44271 38.2168 3.39258 38.2871 3.33008C38.3587 3.26628 38.4128 3.19336 38.4492 3.11133C38.487 3.02799 38.5059 2.9401 38.5059 2.84766C38.5059 2.75521 38.487 2.66732 38.4492 2.58398C38.4128 2.50065 38.3587 2.42773 38.2871 2.36523C38.2168 2.30143 38.1302 2.2513 38.0273 2.21484C37.9258 2.17708 37.8099 2.1582 37.6797 2.1582C37.5495 2.1582 37.4329 2.17708 37.3301 2.21484C37.2285 2.2513 37.1419 2.30143 37.0703 2.36523C37 2.42773 36.946 2.50065 36.9082 2.58398C36.8717 2.66732 36.8535 2.75521 36.8535 2.84766Z" fill="white"/>
<circle cx="48.5" cy="17.5" r="2.5" fill="#013DA5"/>
<path d="M46.8027 16.7736H47.1123L47.667 17.3303L48.2217 16.7736H48.5312V18.3H48.2217V17.2023L47.667 17.7365L47.1123 17.2023V18.3H46.8027V16.7736ZM48.9219 16.6799H49.2109V17.2561C49.2363 17.2385 49.2663 17.2219 49.3008 17.2063C49.3353 17.1906 49.3724 17.177 49.4121 17.1652C49.4518 17.1535 49.4928 17.1444 49.5352 17.1379C49.5775 17.1307 49.6198 17.1272 49.6621 17.1272C49.7598 17.1272 49.8493 17.1415 49.9307 17.1701C50.0127 17.1988 50.083 17.2391 50.1416 17.2912C50.2002 17.3433 50.2458 17.4058 50.2783 17.4787C50.3115 17.551 50.3281 17.6311 50.3281 17.7189C50.3281 17.8107 50.3109 17.8938 50.2764 17.968C50.2419 18.0415 50.194 18.1047 50.1328 18.1574C50.0723 18.2095 50 18.2499 49.916 18.2785C49.8327 18.3065 49.7422 18.3205 49.6445 18.3205C49.6029 18.3205 49.5615 18.3179 49.5205 18.3127C49.4801 18.3075 49.4411 18.3003 49.4033 18.2912C49.3662 18.2821 49.3311 18.2714 49.2979 18.259C49.2653 18.246 49.2363 18.232 49.2109 18.217V18.3H48.9219V16.6799ZM49.2109 17.9377C49.2402 17.9611 49.2712 17.981 49.3037 17.9973C49.3363 18.0135 49.3695 18.0269 49.4033 18.0373C49.4372 18.0477 49.4714 18.0555 49.5059 18.0607C49.5404 18.0653 49.5739 18.0676 49.6064 18.0676C49.6729 18.0676 49.7318 18.0588 49.7832 18.0412C49.8353 18.023 49.8789 17.9982 49.9141 17.967C49.9499 17.9357 49.9772 17.899 49.9961 17.8566C50.015 17.8143 50.0244 17.7684 50.0244 17.7189C50.0244 17.6727 50.015 17.6291 49.9961 17.5881C49.9779 17.5471 49.9512 17.5113 49.916 17.4807C49.8815 17.4494 49.8395 17.425 49.79 17.4074C49.7412 17.3892 49.6862 17.3801 49.625 17.3801C49.5859 17.3801 49.5469 17.384 49.5078 17.3918C49.4688 17.399 49.431 17.4094 49.3945 17.423C49.3587 17.4367 49.3249 17.4533 49.293 17.4729C49.2617 17.4924 49.2344 17.5142 49.2109 17.5383V17.9377Z" fill="white"/>
<defs>
<filter id="filter0_dd_8_29" x="5.7" y="2.7" width="52.6" height="31.6" filterUnits="userSpaceOnUse" color-interpolation-filters="sRGB">
<feFlood flood-opacity="0" result="BackgroundImageFix"/>
<feColorMatrix in="SourceAlpha" type="matrix" values="0 0 0 0 0 0 0 0 0 0 0 0 0 0 0 0 0 0 127 0" result="hardAlpha"/>
<feOffset dy="4"/>
<feGaussianBlur stdDeviation="2"/>
<feComposite in2="hardAlpha" operator="out"/>
<feColorMatrix type="matrix" values="0 0 0 0 0 0 0 0 0 0 0 0 0 0 0 0 0 0 0.25 0"/>
<feBlend mode="normal" in2="BackgroundImageFix" result="effect1_dropShadow_8_29"/>
<feColorMatrix in="SourceAlpha" type="matrix" values="0 0 0 0 0 0 0 0 0 0 0 0 0 0 0 0 0 0 127 0" result="hardAlpha"/>
<feOffset dy="4"/>
<feGaussianBlur stdDeviation="2"/>
<feComposite in2="hardAlpha" operator="out"/>
<feColorMatrix type="matrix" values="0 0 0 0 0 0 0 0 0 0 0 0 0 0 0 0 0 0 0.25 0"/>
<feBlend mode="normal" in2="effect1_dropShadow_8_29" result="effect2_dropShadow_8_29"/>
<feBlend mode="normal" in="SourceGraphic" in2="effect2_dropShadow_8_29" result="shape"/>
</filter>
</defs>
</svg>
