<svg width="136" height="156" viewBox="0 0 136 156" fill="none" xmlns="http://www.w3.org/2000/svg">
<g filter="url(#filter0_di_62_67)">
<rect x="40.4" y="40.7077" width="55.2" height="74.8923" rx="7.6" stroke="white" stroke-width="0.8" shape-rendering="crispEdges"/>
</g>
<g filter="url(#filter1_f_62_67)">
<rect x="39.6" y="39.9077" width="56.8" height="76.4923" rx="8.4" stroke="#D1540E" stroke-width="0.8"/>
</g>
<path fill-rule="evenodd" clip-rule="evenodd" d="M90.7019 41.4299C90.7035 41.4036 90.7037 41.3765 90.7024 41.3485C90.7472 41.3906 90.7874 41.4348 90.8229 41.4801C91.2241 41.6507 91.6085 41.853 91.9729 42.084C91.9903 42.0236 92.0093 41.9637 92.0282 41.904L92.0328 41.8897C92.0915 41.7071 92.1742 41.5344 92.3204 41.3931C92.6836 41.0411 93.1938 40.8162 93.7825 40.6613C93.821 40.6511 93.864 40.6461 93.9067 40.6412C93.9155 40.6402 93.9243 40.6392 93.933 40.6381C93.9677 40.6339 94.0059 40.6439 94.0315 40.6704C94.06 40.6997 94.0583 40.7261 94.0321 40.7453C94.0218 40.7528 94.0111 40.76 94.0005 40.7671C93.9959 40.7702 93.9914 40.7732 93.9868 40.7763C93.8278 40.8829 93.6771 40.9951 93.5368 41.1154C93.0608 41.5229 92.7762 42.0183 92.6987 42.6027C93.346 43.1221 93.9108 43.74 94.3703 44.4338C94.4047 44.4455 94.4184 44.4743 94.4319 44.5027C94.4381 44.5158 94.4443 44.5287 94.4524 44.5399C94.4544 44.5429 94.4553 44.5461 94.4561 44.5493C94.4567 44.5513 94.4572 44.5533 94.458 44.5552C94.4637 44.5685 94.4692 44.5818 94.4744 44.595C94.7873 45.093 95.0469 45.6279 95.2452 46.1916C95.2683 46.1841 95.2917 46.1766 95.3153 46.1696C95.5465 46.1012 95.7376 45.9981 95.9243 45.8899C95.9536 45.8729 95.9872 45.8594 96.0242 45.8445C96.0427 45.837 96.062 45.8293 96.0821 45.8206C96.0894 45.9076 96.0269 45.9484 95.968 45.9868C95.9621 45.9907 95.9562 45.9945 95.9505 45.9984C95.7587 46.1261 95.5338 46.2193 95.2741 46.2754C95.2958 46.3393 95.3167 46.4037 95.3368 46.4684C95.8514 46.3505 96.2667 46.1299 96.5761 45.7963C96.8301 45.5225 96.9521 45.202 96.8847 44.8138C96.8648 44.6972 96.8189 44.5789 96.773 44.4606C96.7568 44.4189 96.7407 44.3772 96.7256 44.3356C96.6994 44.2623 96.6618 44.1859 96.5914 44.1152C96.5898 44.1136 96.5882 44.112 96.5866 44.1104C96.5694 44.0928 96.552 44.075 96.5204 44.0768C96.4921 44.0786 96.4748 44.0908 96.4722 44.1111C96.4697 44.1301 96.4696 44.1498 96.4717 44.1695C96.4985 44.4396 96.433 44.6751 96.2211 44.8535C96.214 44.8595 96.2068 44.8655 96.1997 44.8715C96.0945 44.9599 95.9883 45.0493 95.8143 45.0804C95.648 45.1103 95.4776 45.0333 95.394 44.8957C95.3406 44.8073 95.3507 44.7329 95.387 44.6643C95.4738 44.4999 95.6038 44.3602 95.7679 44.2398C96.0848 44.0071 96.3464 43.7402 96.5121 43.4218C96.6689 43.1211 96.7576 42.7937 96.7595 42.4402C96.7605 42.2902 96.7255 42.1342 96.6396 41.9751C96.6182 41.9352 96.5901 41.8946 96.5259 41.883C96.4766 41.874 96.4674 41.8986 96.4586 41.9217C96.4565 41.9275 96.4543 41.9332 96.4516 41.9383C96.3679 42.0951 96.2851 42.2523 96.2031 42.4099C96.038 42.7282 95.799 43.0084 95.5275 43.2685C95.3355 43.4523 95.1255 43.6272 94.839 43.7434C94.7439 43.7821 94.6345 43.7965 94.5057 43.779C94.4314 43.7689 94.3616 43.7431 94.3071 43.6948C94.2016 43.6008 94.1313 43.5047 94.1323 43.3976C94.1338 43.2332 94.2295 43.1134 94.3493 43.0045C94.5721 42.8016 94.832 42.6249 95.0918 42.4482C95.1353 42.4187 95.1788 42.3891 95.2221 42.3594C95.9099 41.8885 96.5279 41.3744 96.9212 40.722C97.1893 40.2778 97.3291 39.7939 97.1579 39.2203C97.1136 39.0718 97.0419 38.9265 96.8811 38.7935C96.8791 38.7919 96.8772 38.7903 96.8752 38.7887C96.8552 38.7719 96.8335 38.7537 96.807 38.7547C96.7811 38.7557 96.7839 38.7714 96.7867 38.7869C96.7876 38.7924 96.7886 38.798 96.7883 38.8028C96.7787 38.9505 96.7454 39.0898 96.686 39.2218C96.5858 39.4441 96.3466 39.5695 96.0997 39.6894C95.9622 39.7557 95.8013 39.7925 95.5929 39.6974C95.3653 39.5936 95.2078 39.4548 95.1662 39.2754C95.1286 39.1141 95.1781 38.9793 95.2578 38.8558C95.3547 38.706 95.507 38.5886 95.6577 38.4724C95.6694 38.4634 95.681 38.4544 95.6926 38.4455C95.7328 38.4144 95.773 38.3835 95.8133 38.3526C96.25 38.0172 96.6861 37.6822 96.9843 37.2584C97.1552 37.0155 97.2728 36.7535 97.3012 36.4563C97.3334 36.1142 97.2357 35.7557 97.0887 35.3915C97.0203 35.2227 96.9325 35.0563 96.8164 34.8915C96.5927 34.573 96.286 34.2951 95.8762 34.0721C95.8677 34.0674 95.8586 34.0622 95.849 34.0566C95.7863 34.0206 95.7047 33.9737 95.6579 34.018C95.6116 34.0624 95.6816 34.1104 95.7417 34.1517C95.7523 34.159 95.7626 34.1661 95.772 34.1729C96.0836 34.3991 96.2703 34.6538 96.3475 34.9268C96.4205 35.1839 96.3888 35.4167 96.3156 35.6426C96.1964 36.009 95.9077 36.2606 95.4642 36.4174C95.1457 36.5301 94.818 36.6318 94.4699 36.7113C94.2813 36.7546 94.0955 36.8015 93.9166 36.8559C93.306 37.042 92.8078 37.3156 92.5549 37.7688C92.3684 38.1028 92.2525 38.464 92.1891 38.8451C92.1854 38.8672 92.1817 38.8892 92.1781 38.9113C92.1 39.3813 92.0218 39.8524 91.6712 40.2186C91.5868 40.3064 91.4748 40.3635 91.3107 40.368C91.1622 40.372 91.0481 40.2972 91.0179 40.1833C90.9995 40.1136 91.0019 40.048 91.0245 39.9873C91.0691 39.8669 91.1496 39.7636 91.2309 39.6617C91.3997 39.4499 91.5277 39.2222 91.5815 38.9606C91.6668 38.5473 91.6153 38.1242 91.2253 37.6729C91.1487 37.584 91.0629 37.5007 90.9352 37.4434C90.839 37.4002 90.8067 37.409 90.8244 37.4837C90.8534 37.6075 90.8414 37.7196 90.8223 37.8335C90.7523 38.2488 90.4788 38.5495 90.0413 38.758C89.7138 38.9141 89.3445 39.0255 88.9749 39.1371C88.8751 39.1673 88.7752 39.1974 88.6761 39.2284C88.0696 39.4181 87.5185 39.6592 87.1317 40.0396C86.8857 40.2816 86.701 40.5502 86.5788 40.846H87.0926C87.1039 40.7842 87.1232 40.7242 87.1498 40.6656C87.2946 40.3464 87.5569 40.1045 87.933 39.9323C87.9379 39.9301 87.9426 39.9275 87.9473 39.9249C87.9681 39.9134 87.9901 39.9012 88.038 39.9159C88.0154 39.9367 87.993 39.9572 87.9708 39.9776C87.9156 40.0281 87.8615 40.0777 87.8071 40.1272C87.7178 40.2084 87.6495 40.3013 87.5814 40.394C87.5591 40.4243 87.5368 40.4546 87.5138 40.4845C87.4449 40.574 87.3763 40.664 87.326 40.7633C87.3121 40.7907 87.2989 40.8182 87.2866 40.846H87.696C88.7592 40.846 89.7739 41.0534 90.7019 41.4299ZM86 40.846H86.1059C86.1248 40.7981 86.141 40.7491 86.1571 40.7002C86.1659 40.6734 86.1748 40.6466 86.184 40.6201C86.1903 40.6031 86.1891 40.5848 86.1611 40.5721C86.133 40.5589 86.1144 40.5685 86.1047 40.5839C86.0969 40.5957 86.0903 40.6085 86.0856 40.6217C86.061 40.6981 86.033 40.7731 86 40.846ZM93.5659 37.3404C93.5698 37.3414 93.5743 37.3426 93.5796 37.3437C93.5618 37.3951 93.5192 37.4318 93.4774 37.4677C93.4613 37.4816 93.4454 37.4953 93.431 37.5098C93.1375 37.806 92.9553 38.149 92.8917 38.5469C92.8572 38.7643 92.8023 38.9751 92.7133 39.1746C92.6736 39.2628 92.6328 39.35 92.5864 39.4347C92.5854 39.4366 92.5845 39.4388 92.5836 39.441C92.5785 39.4537 92.5724 39.4686 92.5398 39.4523C92.513 39.4394 92.5179 39.4249 92.5242 39.4117C92.5931 39.2719 92.6045 39.1153 92.6159 38.9585C92.6201 38.9008 92.6243 38.8431 92.6313 38.7862C92.6648 38.516 92.7195 38.2529 92.8702 38.0255C93.036 37.7762 93.2633 37.5626 93.5069 37.3591C93.5164 37.3512 93.5303 37.3461 93.5441 37.341C93.5465 37.3401 93.549 37.3392 93.5514 37.3382C93.5537 37.3373 93.5586 37.3386 93.5659 37.3404ZM93.6265 41.3482C93.6619 41.3078 93.6978 41.2669 93.7805 41.2402C93.764 41.3097 93.7222 41.3551 93.6827 41.3981C93.6723 41.4094 93.6621 41.4205 93.6526 41.4318C93.4537 41.6698 93.3193 41.9354 93.2138 42.2159C93.1451 42.3987 93.1128 42.5906 93.1173 42.7943C93.1174 42.7977 93.1186 42.8022 93.1199 42.807C93.1243 42.8234 93.1298 42.8436 93.0951 42.8368C93.0622 42.8304 93.0642 42.8146 93.0661 42.7998C93.0668 42.7944 93.0675 42.7891 93.0664 42.7845C92.9959 42.4897 93.0784 42.2386 93.1639 41.9858C93.2326 41.7828 93.3786 41.6223 93.5249 41.4614C93.5551 41.4282 93.5853 41.395 93.6149 41.3614C93.6188 41.357 93.6227 41.3526 93.6265 41.3482ZM96.8671 36.7632C96.8747 36.7515 96.8826 36.7394 96.8899 36.7263C96.9374 36.7734 96.9349 36.8091 96.9246 36.8372C96.8006 37.174 96.5998 37.467 96.2055 37.6503C96.1577 37.6724 96.1117 37.6963 96.0657 37.7201C96.0248 37.7413 95.9839 37.7625 95.9417 37.7825C95.9344 37.786 95.9271 37.7915 95.9197 37.7971C95.8994 37.8124 95.8779 37.8287 95.8491 37.807C95.8184 37.7839 95.8454 37.772 95.8697 37.7613C95.8786 37.7574 95.8871 37.7537 95.8923 37.7496C95.995 37.6681 96.0994 37.5877 96.2038 37.5074C96.3266 37.413 96.4494 37.3185 96.5692 37.2222C96.7009 37.1164 96.794 36.9897 96.8309 36.8354C96.8365 36.8101 96.8512 36.7876 96.8671 36.7632ZM94.336 40.5098C94.2872 40.5277 94.2349 40.5469 94.1482 40.5427C94.387 40.3825 94.6764 40.2973 94.9692 40.2111C95.0082 40.1997 95.0472 40.1882 95.0861 40.1765C95.1008 40.217 95.0764 40.2303 95.0528 40.2431C95.0488 40.2453 95.0449 40.2475 95.0411 40.2498C94.857 40.3631 94.6268 40.4296 94.3923 40.4912C94.3729 40.4963 94.3547 40.5029 94.336 40.5098ZM92.2882 39.9228C92.2925 39.915 92.2968 39.9073 92.3011 39.8996C92.3026 39.8968 92.3038 39.8939 92.3051 39.891C92.3087 39.883 92.3123 39.8749 92.319 39.8688C92.3272 39.8612 92.3313 39.8491 92.3353 39.8372C92.3437 39.8126 92.3518 39.7887 92.3953 39.8051C92.43 39.8182 92.4169 39.8491 92.4056 39.8757C92.4022 39.8838 92.3989 39.8915 92.3972 39.8982C92.3868 39.9397 92.3618 39.9767 92.3371 40.0132C92.3336 40.0184 92.3301 40.0236 92.3266 40.0288C92.3171 40.0428 92.2962 40.0605 92.2627 40.0411C92.2399 40.0281 92.2392 40.008 92.2486 39.9922C92.2623 39.9693 92.2752 39.946 92.2882 39.9228ZM90.2798 37.5415C90.3162 37.5578 90.3108 37.5838 90.3005 37.6032C90.2817 37.6379 90.2622 37.6722 90.2427 37.7065C90.2329 37.7237 90.2232 37.7409 90.2135 37.7581C89.9434 38.1746 89.5863 38.5324 89.0093 38.7416C88.9027 38.7803 88.7846 38.8052 88.6613 38.822L88.6613 38.822C88.506 38.843 88.3507 38.8639 88.2022 38.8954C88.0833 38.9208 87.949 38.9152 87.8074 38.8845C87.8021 38.8833 87.7967 38.8823 87.7911 38.8812C87.7579 38.875 87.7214 38.8681 87.7116 38.8337C87.7025 38.8026 87.7342 38.8006 87.7623 38.7989C87.7667 38.7986 87.7709 38.7983 87.7749 38.798C87.9237 38.7843 88.0591 38.7527 88.1946 38.7211C88.2795 38.7013 88.3643 38.6816 88.4525 38.6662C88.6303 38.6353 88.7681 38.5637 88.9056 38.4923C88.9422 38.4733 88.9788 38.4543 89.0161 38.4361C89.0866 38.4018 89.1612 38.3712 89.2359 38.3406C89.3887 38.278 89.5415 38.2155 89.6584 38.1214C89.686 38.0991 89.7139 38.0771 89.7418 38.055C89.9269 37.9085 90.1119 37.762 90.2194 37.5682C90.2203 37.5666 90.2212 37.5649 90.2221 37.5633C90.2316 37.5456 90.2425 37.5251 90.2798 37.5415ZM97.7654 36.3105C97.8661 36.526 97.9051 36.7317 97.8598 36.9264C97.8301 37.0533 97.7912 37.1762 97.7237 37.2885C97.5968 37.5224 97.3715 37.6933 97.1084 37.84C97.1063 37.8411 97.1042 37.8423 97.1022 37.8435C97.0973 37.8464 97.0924 37.8493 97.0867 37.8512C97.0824 37.8525 97.0781 37.8542 97.0738 37.856C97.0539 37.8638 97.0329 37.8721 97.0063 37.849C96.983 37.8289 96.9985 37.818 97.0132 37.8075C97.0162 37.8054 97.0191 37.8033 97.0217 37.8011C97.0317 37.7931 97.0417 37.7851 97.0517 37.7771C97.0911 37.7456 97.1305 37.714 97.1672 37.6805C97.2699 37.5866 97.3347 37.4735 97.3996 37.3603C97.4159 37.3318 97.4322 37.3033 97.4492 37.2751C97.5721 37.0689 97.6616 36.8501 97.6928 36.6094C97.7052 36.5102 97.692 36.405 97.6721 36.2991C97.6717 36.2972 97.6713 36.2953 97.6709 36.2933C97.666 36.2703 97.6603 36.2431 97.7084 36.249C97.7493 36.2539 97.7541 36.2725 97.7592 36.292C97.7609 36.2982 97.7625 36.3045 97.7654 36.3105ZM96.7906 43.7536C96.7965 43.7433 96.8025 43.733 96.8081 43.7226C96.8217 43.6978 96.8357 43.6731 96.8497 43.6484C96.8567 43.6361 96.8636 43.6238 96.8706 43.6114C96.9365 43.4813 97.0075 43.3539 97.1442 43.2618C97.1477 43.2594 97.1511 43.2566 97.1546 43.2538C97.1713 43.2402 97.1891 43.2257 97.2249 43.2467C97.2585 43.2664 97.2455 43.2826 97.2333 43.2979C97.2314 43.3003 97.2295 43.3027 97.2278 43.305C97.1214 43.4525 97.0396 43.6108 96.985 43.7812C96.9635 43.8467 96.9143 43.8983 96.8582 43.9455C96.8555 43.9477 96.8528 43.9502 96.8501 43.9528C96.836 43.9661 96.8194 43.9817 96.7892 43.9679C96.7502 43.9505 96.7381 43.9195 96.7392 43.8912C96.7409 43.8393 96.7658 43.7964 96.7906 43.7536Z" fill="#D1540E"/>
<defs>
<filter id="filter0_di_62_67" x="0" y="0.307693" width="136" height="155.692" filterUnits="userSpaceOnUse" color-interpolation-filters="sRGB">
<feFlood flood-opacity="0" result="BackgroundImageFix"/>
<feColorMatrix in="SourceAlpha" type="matrix" values="0 0 0 0 0 0 0 0 0 0 0 0 0 0 0 0 0 0 127 0" result="hardAlpha"/>
<feOffset/>
<feGaussianBlur stdDeviation="20"/>
<feComposite in2="hardAlpha" operator="out"/>
<feColorMatrix type="matrix" values="0 0 0 0 0.819608 0 0 0 0 0.329412 0 0 0 0 0.054902 0 0 0 1 0"/>
<feBlend mode="normal" in2="BackgroundImageFix" result="effect1_dropShadow_62_67"/>
<feBlend mode="normal" in="SourceGraphic" in2="effect1_dropShadow_62_67" result="shape"/>
<feColorMatrix in="SourceAlpha" type="matrix" values="0 0 0 0 0 0 0 0 0 0 0 0 0 0 0 0 0 0 127 0" result="hardAlpha"/>
<feOffset/>
<feGaussianBlur stdDeviation="10"/>
<feComposite in2="hardAlpha" operator="arithmetic" k2="-1" k3="1"/>
<feColorMatrix type="matrix" values="0 0 0 0 0.819608 0 0 0 0 0.329412 0 0 0 0 0.054902 0 0 0 1 0"/>
<feBlend mode="normal" in2="shape" result="effect2_innerShadow_62_67"/>
</filter>
<filter id="filter1_f_62_67" x="37.2" y="37.5077" width="61.6" height="81.2923" filterUnits="userSpaceOnUse" color-interpolation-filters="sRGB">
<feFlood flood-opacity="0" result="BackgroundImageFix"/>
<feBlend mode="normal" in="SourceGraphic" in2="BackgroundImageFix" result="shape"/>
<feGaussianBlur stdDeviation="1" result="effect1_foregroundBlur_62_67"/>
</filter>
</defs>
</svg>
