<svg width="54" height="37" viewBox="0 0 54 37" fill="none" xmlns="http://www.w3.org/2000/svg">
<rect x="7" y="25" width="40" height="6" rx="2" fill="#013CA1"/>
<g filter="url(#filter0_dd_37_6)">
<path fill-rule="evenodd" clip-rule="evenodd" d="M14.8633 4.7H11.9973H9.99602C7.06891 4.7 4.69601 7.0729 4.69601 10V23C4.69601 25.9271 7.06891 28.3 9.99602 28.3H44.004C46.9311 28.3 49.304 25.9271 49.304 23V10C49.304 7.0729 46.9311 4.7 44.004 4.7H38.5447V5H44.004C46.7654 5 49.004 7.23858 49.004 10V23C49.004 25.7614 46.7654 28 44.004 28H9.99602C7.23459 28 4.99601 25.7614 4.99601 23V10C4.99601 7.23858 7.23459 5 9.99602 5H11.9973H14.8633V4.7Z" fill="#013CA1"/>
</g>
<path d="M16.4043 5.0918C16.515 5.1543 16.627 5.21094 16.7402 5.26172C16.8548 5.3112 16.9733 5.35352 17.0957 5.38867C17.2181 5.42253 17.3464 5.44857 17.4805 5.4668C17.6159 5.48503 17.7598 5.49414 17.9121 5.49414C18.0957 5.49414 18.252 5.48242 18.3809 5.45898C18.5098 5.43424 18.6146 5.40104 18.6953 5.35938C18.7773 5.31641 18.8366 5.26562 18.873 5.20703C18.9108 5.14844 18.9297 5.08464 18.9297 5.01562C18.9297 4.90495 18.8835 4.81771 18.791 4.75391C18.6986 4.6888 18.556 4.65625 18.3633 4.65625C18.2786 4.65625 18.1895 4.66211 18.0957 4.67383C18.002 4.68424 17.9069 4.69596 17.8105 4.70898C17.7155 4.72201 17.6211 4.73438 17.5273 4.74609C17.4349 4.75651 17.3477 4.76172 17.2656 4.76172C17.1289 4.76172 16.9974 4.74414 16.8711 4.70898C16.7461 4.67383 16.6348 4.62109 16.5371 4.55078C16.4408 4.48047 16.3639 4.39258 16.3066 4.28711C16.2493 4.18164 16.2207 4.05859 16.2207 3.91797C16.2207 3.83464 16.2318 3.75195 16.2539 3.66992C16.2773 3.58789 16.3138 3.50977 16.3633 3.43555C16.4141 3.36003 16.4792 3.29036 16.5586 3.22656C16.638 3.16146 16.7337 3.10547 16.8457 3.05859C16.959 3.01172 17.0892 2.97526 17.2363 2.94922C17.3848 2.92188 17.5534 2.9082 17.7422 2.9082C17.8789 2.9082 18.0163 2.91602 18.1543 2.93164C18.2923 2.94596 18.4264 2.9668 18.5566 2.99414C18.6882 3.02148 18.8145 3.05469 18.9355 3.09375C19.0566 3.13151 19.1693 3.17383 19.2734 3.2207L19.002 3.7207C18.916 3.68294 18.8236 3.64844 18.7246 3.61719C18.6257 3.58464 18.5221 3.55664 18.4141 3.5332C18.306 3.50977 18.194 3.49154 18.0781 3.47852C17.9635 3.46419 17.8464 3.45703 17.7266 3.45703C17.556 3.45703 17.4154 3.4694 17.3047 3.49414C17.1953 3.51888 17.1081 3.55078 17.043 3.58984C16.9779 3.6276 16.9323 3.67057 16.9062 3.71875C16.8815 3.76562 16.8691 3.8125 16.8691 3.85938C16.8691 3.95052 16.9102 4.02539 16.9922 4.08398C17.0742 4.14128 17.1992 4.16992 17.3672 4.16992C17.4349 4.16992 17.5124 4.16536 17.5996 4.15625C17.6882 4.14583 17.7806 4.13477 17.877 4.12305C17.9746 4.11133 18.0736 4.10091 18.1738 4.0918C18.2754 4.08138 18.3737 4.07617 18.4688 4.07617C18.6484 4.07617 18.8073 4.09635 18.9453 4.13672C19.0846 4.17708 19.2012 4.23503 19.2949 4.31055C19.3887 4.38477 19.4596 4.47526 19.5078 4.58203C19.556 4.6875 19.5801 4.80599 19.5801 4.9375C19.5801 5.11328 19.5391 5.27018 19.457 5.4082C19.3763 5.54492 19.2604 5.66081 19.1094 5.75586C18.9596 5.84961 18.7786 5.92122 18.5664 5.9707C18.3542 6.01888 18.1178 6.04297 17.8574 6.04297C17.6855 6.04297 17.5176 6.0319 17.3535 6.00977C17.1895 5.98893 17.0319 5.95898 16.8809 5.91992C16.7311 5.87956 16.5879 5.83203 16.4512 5.77734C16.3158 5.72135 16.1901 5.66016 16.0742 5.59375L16.4043 5.0918ZM20.0801 5.27344C20.0801 5.16276 20.1042 5.06185 20.1523 4.9707C20.2005 4.87956 20.2728 4.80143 20.3691 4.73633C20.4655 4.66992 20.5853 4.61914 20.7285 4.58398C20.873 4.54753 21.041 4.5293 21.2324 4.5293C21.3743 4.5293 21.5234 4.53971 21.6797 4.56055C21.8372 4.58138 21.9993 4.61328 22.166 4.65625C22.1595 4.58333 22.1374 4.51628 22.0996 4.45508C22.0618 4.39258 22.0091 4.33919 21.9414 4.29492C21.875 4.24935 21.7943 4.21419 21.6992 4.18945C21.6055 4.16471 21.4987 4.15234 21.3789 4.15234C21.3138 4.15234 21.2422 4.15625 21.1641 4.16406C21.0859 4.17188 21.0052 4.18359 20.9219 4.19922C20.8385 4.21484 20.7559 4.23438 20.6738 4.25781C20.5931 4.28125 20.5176 4.30924 20.4473 4.3418L20.2715 3.86719C20.3587 3.83594 20.4518 3.80729 20.5508 3.78125C20.651 3.75521 20.7533 3.73307 20.8574 3.71484C20.9616 3.69531 21.0658 3.68034 21.1699 3.66992C21.2741 3.65951 21.375 3.6543 21.4727 3.6543C21.9036 3.6543 22.224 3.76432 22.4336 3.98438C22.6432 4.20443 22.748 4.54167 22.748 4.99609V6H22.1699V5.7832C22.11 5.81836 22.0443 5.85156 21.9727 5.88281C21.9023 5.91406 21.8255 5.94141 21.7422 5.96484C21.6589 5.98828 21.569 6.00651 21.4727 6.01953C21.3776 6.03385 21.2767 6.04102 21.1699 6.04102C20.9902 6.04102 20.832 6.02148 20.6953 5.98242C20.5599 5.94336 20.4466 5.88932 20.3555 5.82031C20.2643 5.7513 20.1953 5.67057 20.1484 5.57812C20.1029 5.48438 20.0801 5.38281 20.0801 5.27344ZM20.6895 5.25391C20.6895 5.29167 20.6992 5.32812 20.7188 5.36328C20.7383 5.39714 20.7695 5.42773 20.8125 5.45508C20.8555 5.48112 20.9102 5.5026 20.9766 5.51953C21.0443 5.53516 21.1257 5.54297 21.2207 5.54297C21.3223 5.54297 21.4206 5.53385 21.5156 5.51562C21.6107 5.4974 21.6992 5.47331 21.7812 5.44336C21.8633 5.41341 21.9375 5.37891 22.0039 5.33984C22.0703 5.30078 22.1257 5.26042 22.1699 5.21875V5.11719C22.0814 5.09245 21.9935 5.07161 21.9062 5.05469C21.8203 5.03776 21.7376 5.02474 21.6582 5.01562C21.5801 5.00521 21.5059 4.99805 21.4355 4.99414C21.3665 4.99023 21.306 4.98828 21.2539 4.98828C21.1458 4.98828 21.056 4.99544 20.9844 5.00977C20.9128 5.02409 20.8548 5.04362 20.8105 5.06836C20.7663 5.0918 20.735 5.11979 20.7168 5.15234C20.6986 5.1849 20.6895 5.21875 20.6895 5.25391ZM23.8613 4.12891H23.3047V3.69531H23.8613V2.97852H24.4395V3.69531H24.9961V4.12891H24.4395V6H23.8613V4.12891ZM25.5098 3.69336H26.0859V4.81836C26.0859 4.92513 26.0977 5.02279 26.1211 5.11133C26.1445 5.19857 26.1842 5.27344 26.2402 5.33594C26.2975 5.39844 26.373 5.44727 26.4668 5.48242C26.5618 5.51628 26.6797 5.5332 26.8203 5.5332C26.8867 5.5332 26.9538 5.52604 27.0215 5.51172C27.0905 5.4974 27.1562 5.47786 27.2188 5.45312C27.2812 5.42708 27.3392 5.39648 27.3926 5.36133C27.4473 5.32617 27.4941 5.28776 27.5332 5.24609V3.69336H28.1113V6H27.5332V5.80273C27.3913 5.88737 27.2487 5.94792 27.1055 5.98438C26.9622 6.02083 26.8262 6.03906 26.6973 6.03906C26.4863 6.03906 26.3053 6.01367 26.1543 5.96289C26.0046 5.91211 25.8815 5.83854 25.7852 5.74219C25.6901 5.64453 25.6204 5.52539 25.5762 5.38477C25.5319 5.24284 25.5098 5.08138 25.5098 4.90039V3.69336ZM28.8457 3.69531H29.4238V4.02734C29.5514 3.93229 29.6862 3.85026 29.8281 3.78125C29.9701 3.71224 30.1113 3.65951 30.252 3.62305L30.4219 4.15234C30.1992 4.17448 30.0033 4.22461 29.834 4.30273C29.666 4.37956 29.5293 4.48828 29.4238 4.62891V6H28.8457V3.69531ZM30.8535 3.69531H31.4316V3.89062C31.5853 3.80339 31.7318 3.74219 31.8711 3.70703C32.0117 3.67188 32.1491 3.6543 32.2832 3.6543C32.459 3.6543 32.6217 3.68034 32.7715 3.73242C32.9212 3.7832 33.0508 3.85938 33.1602 3.96094C33.2695 4.0625 33.3548 4.18945 33.416 4.3418C33.4785 4.49284 33.5098 4.66797 33.5098 4.86719V6H32.9336V4.96094C32.9336 4.83464 32.9154 4.72201 32.8789 4.62305C32.8438 4.52279 32.7923 4.4388 32.7246 4.37109C32.6582 4.30208 32.5768 4.25 32.4805 4.21484C32.3854 4.17839 32.2786 4.16016 32.1602 4.16016C32.0977 4.16016 32.0332 4.16667 31.9668 4.17969C31.9017 4.19271 31.8372 4.21159 31.7734 4.23633C31.7109 4.25977 31.6504 4.28971 31.5918 4.32617C31.5332 4.36133 31.4798 4.40169 31.4316 4.44727V6H30.8535V3.69531ZM34.082 4.84766C34.082 4.68229 34.1152 4.52734 34.1816 4.38281C34.2493 4.23828 34.3451 4.11198 34.4688 4.00391C34.5938 3.89583 34.7441 3.81055 34.9199 3.74805C35.097 3.68555 35.2956 3.6543 35.5156 3.6543C35.7357 3.6543 35.9336 3.68555 36.1094 3.74805C36.2865 3.81055 36.4368 3.89583 36.5605 4.00391C36.6855 4.11198 36.7812 4.23828 36.8477 4.38281C36.9154 4.52734 36.9492 4.68229 36.9492 4.84766C36.9492 5.01302 36.9154 5.16797 36.8477 5.3125C36.7812 5.45703 36.6855 5.58333 36.5605 5.69141C36.4368 5.79948 36.2865 5.88477 36.1094 5.94727C35.9336 6.00977 35.7357 6.04102 35.5156 6.04102C35.2956 6.04102 35.097 6.00977 34.9199 5.94727C34.7441 5.88477 34.5938 5.79948 34.4688 5.69141C34.3451 5.58333 34.2493 5.45703 34.1816 5.3125C34.1152 5.16797 34.082 5.01302 34.082 4.84766ZM34.6895 4.84766C34.6895 4.9401 34.7077 5.02799 34.7441 5.11133C34.7819 5.19336 34.8359 5.26628 34.9062 5.33008C34.9779 5.39258 35.0645 5.44271 35.166 5.48047C35.2689 5.51693 35.3854 5.53516 35.5156 5.53516C35.6458 5.53516 35.7617 5.51693 35.8633 5.48047C35.9661 5.44271 36.0527 5.39258 36.123 5.33008C36.1947 5.26628 36.2487 5.19336 36.2852 5.11133C36.3229 5.02799 36.3418 4.9401 36.3418 4.84766C36.3418 4.75521 36.3229 4.66732 36.2852 4.58398C36.2487 4.50065 36.1947 4.42773 36.123 4.36523C36.0527 4.30143 35.9661 4.2513 35.8633 4.21484C35.7617 4.17708 35.6458 4.1582 35.5156 4.1582C35.3854 4.1582 35.2689 4.17708 35.166 4.21484C35.0645 4.2513 34.9779 4.30143 34.9062 4.36523C34.8359 4.42773 34.7819 4.50065 34.7441 4.58398C34.7077 4.66732 34.6895 4.75521 34.6895 4.84766Z" fill="white"/>
<path d="M8.04883 16.8164L14.2969 10.3154H16.4639V16.8164H18.7676V18.7168H16.4639V21H14.2969V18.7168H8.03516L8.04883 16.8164ZM14.2969 16.8164V13.0566L10.6465 16.8164H14.2969ZM20.4355 15.6338C20.4355 14.7725 20.5654 14 20.8252 13.3164C21.085 12.6328 21.4541 12.054 21.9326 11.5801C22.4111 11.1016 22.9922 10.737 23.6758 10.4863C24.3594 10.2357 25.125 10.1104 25.9727 10.1104C26.8203 10.1104 27.5859 10.2357 28.2695 10.4863C28.9531 10.737 29.5342 11.1016 30.0127 11.5801C30.4912 12.054 30.8604 12.6328 31.1201 13.3164C31.3799 14 31.5098 14.7725 31.5098 15.6338C31.5098 16.4951 31.3799 17.2676 31.1201 17.9512C30.8604 18.6348 30.4912 19.2135 30.0127 19.6875C29.5342 20.1615 28.9531 20.5238 28.2695 20.7744C27.5859 21.0251 26.8203 21.1504 25.9727 21.1504C25.125 21.1504 24.3594 21.0251 23.6758 20.7744C22.9922 20.5238 22.4111 20.1615 21.9326 19.6875C21.4541 19.2135 21.085 18.6348 20.8252 17.9512C20.5654 17.2676 20.4355 16.4951 20.4355 15.6338ZM22.6025 15.627C22.6025 16.2103 22.68 16.7253 22.835 17.1719C22.9945 17.6185 23.2201 17.9945 23.5117 18.2998C23.8034 18.6006 24.1566 18.8307 24.5713 18.9902C24.986 19.1452 25.4531 19.2227 25.9727 19.2227C26.4922 19.2227 26.9593 19.1452 27.374 18.9902C27.7887 18.8307 28.1419 18.6006 28.4336 18.2998C28.7253 17.9945 28.9486 17.6185 29.1035 17.1719C29.263 16.7253 29.3428 16.2103 29.3428 15.627C29.3428 15.0482 29.263 14.5378 29.1035 14.0957C28.9486 13.6491 28.7253 13.2731 28.4336 12.9678C28.1419 12.6624 27.7887 12.4323 27.374 12.2773C26.9593 12.1178 26.4922 12.0381 25.9727 12.0381C25.4531 12.0381 24.986 12.1178 24.5713 12.2773C24.1566 12.4323 23.8034 12.6624 23.5117 12.9678C23.2201 13.2731 22.9945 13.6491 22.835 14.0957C22.68 14.5378 22.6025 15.0482 22.6025 15.627ZM33.2871 15.6338C33.2871 14.7725 33.417 14 33.6768 13.3164C33.9365 12.6328 34.3057 12.054 34.7842 11.5801C35.2627 11.1016 35.8438 10.737 36.5273 10.4863C37.2109 10.2357 37.9766 10.1104 38.8242 10.1104C39.6719 10.1104 40.4375 10.2357 41.1211 10.4863C41.8047 10.737 42.3857 11.1016 42.8643 11.5801C43.3428 12.054 43.7119 12.6328 43.9717 13.3164C44.2314 14 44.3613 14.7725 44.3613 15.6338C44.3613 16.4951 44.2314 17.2676 43.9717 17.9512C43.7119 18.6348 43.3428 19.2135 42.8643 19.6875C42.3857 20.1615 41.8047 20.5238 41.1211 20.7744C40.4375 21.0251 39.6719 21.1504 38.8242 21.1504C37.9766 21.1504 37.2109 21.0251 36.5273 20.7744C35.8438 20.5238 35.2627 20.1615 34.7842 19.6875C34.3057 19.2135 33.9365 18.6348 33.6768 17.9512C33.417 17.2676 33.2871 16.4951 33.2871 15.6338ZM35.4541 15.627C35.4541 16.2103 35.5316 16.7253 35.6865 17.1719C35.846 17.6185 36.0716 17.9945 36.3633 18.2998C36.6549 18.6006 37.0081 18.8307 37.4229 18.9902C37.8376 19.1452 38.3047 19.2227 38.8242 19.2227C39.3438 19.2227 39.8109 19.1452 40.2256 18.9902C40.6403 18.8307 40.9935 18.6006 41.2852 18.2998C41.5768 17.9945 41.8001 17.6185 41.9551 17.1719C42.1146 16.7253 42.1943 16.2103 42.1943 15.627C42.1943 15.0482 42.1146 14.5378 41.9551 14.0957C41.8001 13.6491 41.5768 13.2731 41.2852 12.9678C40.9935 12.6624 40.6403 12.4323 40.2256 12.2773C39.8109 12.1178 39.3438 12.0381 38.8242 12.0381C38.3047 12.0381 37.8376 12.1178 37.4229 12.2773C37.0081 12.4323 36.6549 12.6624 36.3633 12.9678C36.0716 13.2731 35.846 13.6491 35.6865 14.0957C35.5316 14.5378 35.4541 15.0482 35.4541 15.627Z" fill="#FFE2E2"/>
<circle cx="44.5" cy="19.5" r="2.5" fill="#013CA1"/>
<path d="M42.8027 18.7736H43.1123L43.667 19.3303L44.2217 18.7736H44.5312V20.3H44.2217V19.2023L43.667 19.7365L43.1123 19.2023V20.3H42.8027V18.7736ZM44.9219 18.6799H45.2109V19.2561C45.2363 19.2385 45.2663 19.2219 45.3008 19.2063C45.3353 19.1906 45.3724 19.177 45.4121 19.1652C45.4518 19.1535 45.4928 19.1444 45.5352 19.1379C45.5775 19.1307 45.6198 19.1272 45.6621 19.1272C45.7598 19.1272 45.8493 19.1415 45.9307 19.1701C46.0127 19.1988 46.083 19.2391 46.1416 19.2912C46.2002 19.3433 46.2458 19.4058 46.2783 19.4787C46.3115 19.551 46.3281 19.6311 46.3281 19.7189C46.3281 19.8107 46.3109 19.8938 46.2764 19.968C46.2419 20.0415 46.194 20.1047 46.1328 20.1574C46.0723 20.2095 46 20.2499 45.916 20.2785C45.8327 20.3065 45.7422 20.3205 45.6445 20.3205C45.6029 20.3205 45.5615 20.3179 45.5205 20.3127C45.4801 20.3075 45.4411 20.3003 45.4033 20.2912C45.3662 20.2821 45.3311 20.2714 45.2979 20.259C45.2653 20.246 45.2363 20.232 45.2109 20.217V20.3H44.9219V18.6799ZM45.2109 19.9377C45.2402 19.9611 45.2712 19.981 45.3037 19.9973C45.3363 20.0135 45.3695 20.0269 45.4033 20.0373C45.4372 20.0477 45.4714 20.0555 45.5059 20.0607C45.5404 20.0653 45.5739 20.0676 45.6064 20.0676C45.6729 20.0676 45.7318 20.0588 45.7832 20.0412C45.8353 20.023 45.8789 19.9982 45.9141 19.967C45.9499 19.9357 45.9772 19.899 45.9961 19.8566C46.015 19.8143 46.0244 19.7684 46.0244 19.7189C46.0244 19.6727 46.015 19.6291 45.9961 19.5881C45.9779 19.5471 45.9512 19.5113 45.916 19.4807C45.8815 19.4494 45.8395 19.425 45.79 19.4074C45.7412 19.3892 45.6862 19.3801 45.625 19.3801C45.5859 19.3801 45.5469 19.384 45.5078 19.3918C45.4688 19.399 45.431 19.4094 45.3945 19.423C45.3587 19.4367 45.3249 19.4533 45.293 19.4729C45.2617 19.4924 45.2344 19.5142 45.2109 19.5383V19.9377Z" fill="white"/>
<path d="M9.445 26.4736H10.2214C10.3386 26.4736 10.4401 26.486 10.5261 26.5107C10.612 26.5348 10.6833 26.57 10.7399 26.6162C10.7966 26.6624 10.8386 26.7188 10.8659 26.7852C10.8939 26.8516 10.9079 26.9268 10.9079 27.0107C10.9079 27.0674 10.9011 27.1214 10.8874 27.1729C10.8737 27.2236 10.8525 27.2705 10.8239 27.3135C10.7959 27.3564 10.7604 27.3949 10.7175 27.4287C10.6745 27.4619 10.624 27.4896 10.5661 27.5117L10.8981 28H10.5192L10.2321 27.5664H10.2233L9.75457 27.5654V28H9.445V26.4736ZM10.2292 27.2979C10.2878 27.2979 10.3389 27.291 10.3825 27.2773C10.4268 27.2637 10.4636 27.2445 10.4928 27.2197C10.5228 27.195 10.5449 27.165 10.5593 27.1299C10.5742 27.0941 10.5817 27.0544 10.5817 27.0107C10.5817 26.9255 10.5524 26.8597 10.4938 26.8135C10.4352 26.7666 10.347 26.7432 10.2292 26.7432H9.75457V27.2979H10.2292ZM11.3464 27.5459C11.3932 27.5726 11.4404 27.597 11.488 27.6191C11.5355 27.6406 11.5843 27.6598 11.6345 27.6768C11.6852 27.693 11.7373 27.707 11.7907 27.7188C11.8447 27.7298 11.9017 27.7376 11.9616 27.7422V27.3574C11.9284 27.3613 11.8965 27.3646 11.8659 27.3672C11.8353 27.3698 11.8057 27.3711 11.777 27.3711C11.7087 27.3711 11.6429 27.3623 11.5798 27.3447C11.5173 27.3271 11.4616 27.3008 11.4128 27.2656C11.3646 27.2305 11.3262 27.1865 11.2975 27.1338C11.2689 27.0811 11.2546 27.0195 11.2546 26.9492C11.2546 26.8893 11.2669 26.8304 11.2917 26.7725C11.3171 26.7139 11.3578 26.6615 11.4137 26.6152C11.4704 26.5684 11.5436 26.5296 11.6335 26.499C11.7233 26.4684 11.8327 26.4508 11.9616 26.4463V26.1504H12.193V26.4521C12.3018 26.4619 12.4059 26.4798 12.5055 26.5059C12.6058 26.5319 12.6976 26.5635 12.7809 26.6006L12.6452 26.8506C12.5801 26.8226 12.5098 26.7979 12.4343 26.7764C12.3587 26.7549 12.2783 26.7393 12.193 26.7295V27.04C12.2243 27.0368 12.2555 27.0342 12.2868 27.0322C12.318 27.0296 12.3486 27.0283 12.3786 27.0283C12.4684 27.0283 12.5479 27.0384 12.6169 27.0586C12.6865 27.0788 12.7448 27.1077 12.7917 27.1455C12.8386 27.1826 12.874 27.2279 12.8981 27.2812C12.9222 27.334 12.9343 27.3932 12.9343 27.459C12.9343 27.5404 12.9167 27.6139 12.8815 27.6797C12.847 27.7448 12.7975 27.8011 12.7331 27.8486C12.6693 27.8962 12.5915 27.9342 12.4997 27.9629C12.4085 27.9915 12.3063 28.0098 12.193 28.0176V28.3145H11.9616V28.0186C11.8106 28.0094 11.6686 27.9854 11.5358 27.9463C11.4037 27.9066 11.2855 27.8568 11.1813 27.7969L11.3464 27.5459ZM11.5788 26.9199C11.5788 26.9655 11.5993 27.0029 11.6403 27.0322C11.6813 27.0609 11.7438 27.0752 11.8278 27.0752C11.8467 27.0752 11.8675 27.0745 11.8903 27.0732C11.9131 27.0713 11.9369 27.069 11.9616 27.0664V26.7207C11.888 26.7233 11.8265 26.7311 11.777 26.7441C11.7282 26.7572 11.6891 26.7731 11.6598 26.792C11.6305 26.8109 11.6097 26.8317 11.5973 26.8545C11.585 26.8766 11.5788 26.8984 11.5788 26.9199ZM12.193 27.7441C12.2673 27.7396 12.3307 27.7301 12.3835 27.7158C12.4362 27.7015 12.4792 27.6836 12.5124 27.6621C12.5462 27.64 12.5706 27.6149 12.5856 27.5869C12.6012 27.5589 12.6091 27.5293 12.6091 27.498C12.6091 27.4427 12.5859 27.3991 12.5397 27.3672C12.4935 27.3346 12.4222 27.3184 12.3259 27.3184C12.305 27.3184 12.2832 27.3193 12.2604 27.3213C12.2383 27.3226 12.2158 27.3245 12.193 27.3271V27.7441Z" fill="white"/>
<path d="M15.1252 29.4299H15.8533V27.4345C15.7576 27.4563 15.6653 27.4851 15.5764 27.5206C15.4889 27.5562 15.4089 27.5992 15.3365 27.6498L15.0166 27.1925C15.1341 27.1187 15.2538 27.0564 15.3754 27.0059C15.4985 26.9539 15.6222 26.9129 15.7466 26.8828C15.8724 26.8514 15.9982 26.8288 16.124 26.8151C16.2511 26.8015 16.3776 26.7946 16.5034 26.7946L16.5013 26.7987H16.5034V29.4299H17.1986V30H15.1252V29.4299ZM17.5083 28.3901C17.5083 28.1317 17.5472 27.9 17.6251 27.6949C17.7031 27.4898 17.8138 27.3162 17.9574 27.174C18.1009 27.0305 18.2752 26.9211 18.4803 26.8459C18.6854 26.7707 18.9151 26.7331 19.1694 26.7331C19.4237 26.7331 19.6534 26.7707 19.8584 26.8459C20.0635 26.9211 20.2378 27.0305 20.3814 27.174C20.525 27.3162 20.6357 27.4898 20.7136 27.6949C20.7916 27.9 20.8305 28.1317 20.8305 28.3901C20.8305 28.6485 20.7916 28.8803 20.7136 29.0854C20.6357 29.2904 20.525 29.4641 20.3814 29.6063C20.2378 29.7484 20.0635 29.8571 19.8584 29.9323C19.6534 30.0075 19.4237 30.0451 19.1694 30.0451C18.9151 30.0451 18.6854 30.0075 18.4803 29.9323C18.2752 29.8571 18.1009 29.7484 17.9574 29.6063C17.8138 29.4641 17.7031 29.2904 17.6251 29.0854C17.5472 28.8803 17.5083 28.6485 17.5083 28.3901ZM18.1583 28.3881C18.1583 28.5631 18.1816 28.7176 18.2281 28.8516C18.2759 28.9855 18.3436 29.0983 18.4311 29.1899C18.5186 29.2802 18.6246 29.3492 18.749 29.3971C18.8734 29.4436 19.0135 29.4668 19.1694 29.4668C19.3252 29.4668 19.4654 29.4436 19.5898 29.3971C19.7142 29.3492 19.8202 29.2802 19.9077 29.1899C19.9952 29.0983 20.0622 28.9855 20.1086 28.8516C20.1565 28.7176 20.1804 28.5631 20.1804 28.3881C20.1804 28.2145 20.1565 28.0613 20.1086 27.9287C20.0622 27.7947 19.9952 27.6819 19.9077 27.5903C19.8202 27.4987 19.7142 27.4297 19.5898 27.3832C19.4654 27.3354 19.3252 27.3114 19.1694 27.3114C19.0135 27.3114 18.8734 27.3354 18.749 27.3832C18.6246 27.4297 18.5186 27.4987 18.4311 27.5903C18.3436 27.6819 18.2759 27.7947 18.2281 27.9287C18.1816 28.0613 18.1583 28.2145 18.1583 28.3881ZM21.9502 29.2597C22.009 29.2938 22.0747 29.3239 22.1471 29.3499C22.2196 29.3759 22.2941 29.3978 22.3707 29.4155C22.4486 29.4319 22.5265 29.4449 22.6044 29.4545C22.6837 29.4627 22.7589 29.4668 22.83 29.4668C22.9886 29.4668 23.1315 29.4463 23.2586 29.4053C23.3872 29.3643 23.4979 29.3062 23.5909 29.231C23.6838 29.1558 23.7577 29.0662 23.8124 28.9623C23.8684 28.857 23.9033 28.7408 23.9169 28.6137C23.8458 28.6697 23.7672 28.7183 23.6811 28.7593C23.595 28.8003 23.5034 28.8345 23.4063 28.8618C23.3106 28.8878 23.2115 28.9076 23.1089 28.9213C23.0078 28.9336 22.9059 28.9397 22.8034 28.9397C22.6038 28.9397 22.4219 28.9158 22.2579 28.868C22.0952 28.8201 21.9557 28.7511 21.8395 28.6608C21.7233 28.5706 21.6331 28.4612 21.5688 28.3327C21.5059 28.2028 21.4745 28.0559 21.4745 27.8918C21.4745 27.7305 21.5059 27.5808 21.5688 27.4427C21.6331 27.3046 21.7274 27.185 21.8518 27.0838C21.9762 26.9813 22.1307 26.9013 22.3153 26.8438C22.4999 26.7851 22.7138 26.7557 22.9572 26.7557C23.1937 26.7557 23.4097 26.7857 23.6052 26.8459C23.8007 26.9061 23.9682 26.9997 24.1077 27.1269C24.2471 27.254 24.3551 27.416 24.4317 27.6129C24.5096 27.8084 24.5486 28.0422 24.5486 28.3143C24.5486 28.6055 24.5048 28.8598 24.4173 29.0771C24.3312 29.2932 24.2123 29.4729 24.0605 29.6165C23.9101 29.7601 23.7324 29.8674 23.5273 29.9385C23.3222 30.0096 23.1007 30.0451 22.8628 30.0451C22.763 30.0451 22.6591 30.039 22.5511 30.0267C22.4445 30.0144 22.3385 29.9959 22.2333 29.9713C22.128 29.9467 22.0261 29.9159 21.9277 29.879C21.8306 29.8421 21.7417 29.7997 21.6611 29.7519L21.9502 29.2597ZM22.1246 27.8815C22.1246 27.9485 22.1389 28.0114 22.1676 28.0702C22.1963 28.129 22.2408 28.1803 22.3009 28.224C22.3625 28.2664 22.4411 28.3006 22.5368 28.3266C22.6325 28.3512 22.748 28.3635 22.8833 28.3635C22.9968 28.3635 23.1041 28.3546 23.2053 28.3368C23.3065 28.319 23.4001 28.2944 23.4863 28.263C23.5724 28.2315 23.6503 28.1946 23.7201 28.1522C23.7912 28.1099 23.852 28.0634 23.9026 28.0128C23.8698 27.7886 23.7713 27.6197 23.6073 27.5063C23.4432 27.3914 23.2279 27.334 22.9613 27.334C22.8273 27.334 22.7083 27.3477 22.6044 27.375C22.5005 27.4023 22.413 27.4406 22.3419 27.4898C22.2708 27.5377 22.2168 27.5951 22.1799 27.6621C22.143 27.7291 22.1246 27.8022 22.1246 27.8815Z" fill="white"/>
<path d="M25.8129 28.3451C25.8129 28.3061 25.8212 28.2694 25.8378 28.2353C25.8544 28.2011 25.8773 28.1713 25.9066 28.1459C25.9369 28.1195 25.973 28.099 26.015 28.0844C26.058 28.0697 26.1059 28.0624 26.1586 28.0624C26.2152 28.0624 26.267 28.0717 26.3139 28.0902C26.3617 28.1078 26.4027 28.1337 26.4369 28.1679C26.4711 28.2021 26.4975 28.244 26.516 28.2939C26.5355 28.3427 26.5453 28.3979 26.5453 28.4594C26.5453 28.5981 26.4975 28.7309 26.4018 28.8578C26.307 28.9857 26.1688 29.099 25.9872 29.1977L25.8114 28.9486C25.8593 28.9232 25.9013 28.8979 25.9374 28.8725C25.9735 28.8481 26.0053 28.8232 26.0326 28.7978C26.06 28.7724 26.0834 28.746 26.1029 28.7187C26.1234 28.6913 26.1415 28.662 26.1571 28.6308C26.1054 28.6308 26.058 28.623 26.015 28.6073C25.973 28.5927 25.9369 28.5727 25.9066 28.5473C25.8764 28.5219 25.8529 28.4921 25.8363 28.4579C25.8207 28.4228 25.8129 28.3852 25.8129 28.3451ZM27.3979 28.0712C27.4398 28.0956 27.4867 28.1171 27.5385 28.1357C27.5902 28.1542 27.6435 28.1698 27.6981 28.1825C27.7538 28.1942 27.8095 28.2035 27.8651 28.2104C27.9218 28.2162 27.9755 28.2191 28.0263 28.2191C28.1396 28.2191 28.2416 28.2045 28.3324 28.1752C28.4242 28.1459 28.5033 28.1044 28.5697 28.0507C28.6361 27.997 28.6889 27.933 28.7279 27.8588C28.768 27.7836 28.7929 27.7006 28.8026 27.6098C28.7519 27.6498 28.6957 27.6845 28.6342 27.7138C28.5727 27.7431 28.5072 27.7675 28.4379 27.787C28.3695 27.8056 28.2987 27.8197 28.2255 27.8295C28.1532 27.8383 28.0805 27.8427 28.0072 27.8427C27.8646 27.8427 27.7348 27.8256 27.6176 27.7914C27.5014 27.7572 27.4018 27.7079 27.3187 27.6435C27.2357 27.579 27.1713 27.5009 27.1254 27.4091C27.0805 27.3163 27.058 27.2113 27.058 27.0941C27.058 26.9789 27.0805 26.872 27.1254 26.7733C27.1713 26.6747 27.2387 26.5893 27.3275 26.517C27.4164 26.4438 27.5268 26.3866 27.6586 26.3456C27.7904 26.3036 27.9433 26.2826 28.1171 26.2826C28.286 26.2826 28.4403 26.3041 28.58 26.3471C28.7196 26.39 28.8393 26.4569 28.9389 26.5478C29.0385 26.6386 29.1156 26.7543 29.1703 26.8949C29.226 27.0346 29.2538 27.2016 29.2538 27.3959C29.2538 27.6039 29.2226 27.7856 29.1601 27.9408C29.0985 28.0951 29.0136 28.2235 28.9052 28.3261C28.7978 28.4286 28.6708 28.5053 28.5243 28.5561C28.3778 28.6068 28.2196 28.6322 28.0497 28.6322C27.9784 28.6322 27.9042 28.6278 27.8271 28.619C27.7509 28.6103 27.6752 28.5971 27.6 28.5795C27.5248 28.5619 27.4521 28.5399 27.3817 28.5136C27.3124 28.4872 27.2489 28.4569 27.1913 28.4228L27.3979 28.0712ZM27.5224 27.0868C27.5224 27.1347 27.5326 27.1796 27.5531 27.2216C27.5736 27.2636 27.6054 27.3002 27.6483 27.3315C27.6923 27.3617 27.7484 27.3861 27.8168 27.4047C27.8852 27.4223 27.9677 27.4311 28.0644 27.4311C28.1454 27.4311 28.2221 27.4247 28.2943 27.412C28.3666 27.3993 28.4335 27.3817 28.495 27.3593C28.5565 27.3368 28.6122 27.3105 28.662 27.2802C28.7128 27.2499 28.7562 27.2167 28.7924 27.1806C28.7689 27.0204 28.6986 26.8998 28.5814 26.8188C28.4643 26.7367 28.3104 26.6957 28.12 26.6957C28.0243 26.6957 27.9394 26.7055 27.8651 26.725C27.7909 26.7445 27.7284 26.7719 27.6776 26.807C27.6269 26.8412 27.5883 26.8822 27.5619 26.9301C27.5355 26.9779 27.5224 27.0302 27.5224 27.0868ZM29.724 27.4501C29.724 27.2655 29.7519 27.1 29.8075 26.9535C29.8632 26.807 29.9423 26.683 30.0448 26.5815C30.1474 26.4789 30.2719 26.4008 30.4184 26.3471C30.5648 26.2934 30.7289 26.2665 30.9105 26.2665C31.0922 26.2665 31.2562 26.2934 31.4027 26.3471C31.5492 26.4008 31.6737 26.4789 31.7763 26.5815C31.8788 26.683 31.9579 26.807 32.0136 26.9535C32.0692 27.1 32.0971 27.2655 32.0971 27.4501C32.0971 27.6347 32.0692 27.8002 32.0136 27.9467C31.9579 28.0932 31.8788 28.2172 31.7763 28.3188C31.6737 28.4203 31.5492 28.498 31.4027 28.5517C31.2562 28.6054 31.0922 28.6322 30.9105 28.6322C30.7289 28.6322 30.5648 28.6054 30.4184 28.5517C30.2719 28.498 30.1474 28.4203 30.0448 28.3188C29.9423 28.2172 29.8632 28.0932 29.8075 27.9467C29.7519 27.8002 29.724 27.6347 29.724 27.4501ZM30.1884 27.4486C30.1884 27.5736 30.205 27.684 30.2382 27.7797C30.2724 27.8754 30.3207 27.956 30.3832 28.0214C30.4457 28.0858 30.5214 28.1352 30.6103 28.1693C30.6991 28.2025 30.7992 28.2191 30.9105 28.2191C31.0219 28.2191 31.122 28.2025 31.2108 28.1693C31.2997 28.1352 31.3754 28.0858 31.4379 28.0214C31.5004 27.956 31.5482 27.8754 31.5814 27.7797C31.6156 27.684 31.6327 27.5736 31.6327 27.4486C31.6327 27.3246 31.6156 27.2152 31.5814 27.1205C31.5482 27.0248 31.5004 26.9442 31.4379 26.8788C31.3754 26.8134 31.2997 26.7641 31.2108 26.7309C31.122 26.6967 31.0219 26.6796 30.9105 26.6796C30.7992 26.6796 30.6991 26.6967 30.6103 26.7309C30.5214 26.7641 30.4457 26.8134 30.3832 26.8788C30.3207 26.9442 30.2724 27.0248 30.2382 27.1205C30.205 27.2152 30.1884 27.3246 30.1884 27.4486ZM34.8773 26.0072H35.2978L33.9369 29.1186H33.5165L34.8773 26.0072ZM35.8148 26.8715H36.2484V27.018C36.3568 26.9516 36.4623 26.9057 36.5648 26.8803C36.6684 26.8539 36.7694 26.8407 36.8681 26.8407C37.0058 26.8407 37.1322 26.8627 37.2475 26.9066C37.3627 26.9506 37.4613 27.017 37.5434 27.1059C37.6068 27.057 37.6693 27.016 37.7309 26.9828C37.7924 26.9486 37.8539 26.9213 37.9154 26.9008C37.977 26.8793 38.0395 26.8642 38.1029 26.8554C38.1664 26.8456 38.2318 26.8407 38.2992 26.8407C38.4408 26.8407 38.5692 26.8603 38.6845 26.8993C38.7997 26.9374 38.8979 26.9945 38.9789 27.0707C39.0609 27.1469 39.1239 27.2421 39.1679 27.3564C39.2128 27.4696 39.2353 27.601 39.2353 27.7504V28.6H38.8031V27.8207C38.8031 27.726 38.7895 27.6415 38.7621 27.5673C38.7357 27.4921 38.6981 27.4291 38.6493 27.3783C38.6015 27.3266 38.5438 27.2875 38.4765 27.2611C38.4101 27.2338 38.3368 27.2201 38.2567 27.2201C38.2128 27.2201 38.1679 27.2245 38.122 27.2333C38.0761 27.2411 38.0312 27.2538 37.9872 27.2714C37.9442 27.289 37.9037 27.3114 37.8656 27.3388C37.8275 27.3651 37.7943 27.3964 37.766 27.4325V28.6H37.3339V27.8207C37.3339 27.726 37.3202 27.6415 37.2929 27.5673C37.2665 27.4921 37.2289 27.4291 37.1801 27.3783C37.1322 27.3266 37.0741 27.2875 37.0058 27.2611C36.9384 27.2338 36.8642 27.2201 36.7831 27.2201C36.7333 27.2201 36.683 27.2255 36.6322 27.2362C36.5824 27.246 36.5341 27.2602 36.4872 27.2787C36.4413 27.2973 36.3979 27.3197 36.3568 27.3461C36.3168 27.3725 36.2807 27.4023 36.2484 27.4355V28.6H35.8148V26.8715ZM39.6996 27.7299C39.6996 27.6127 39.7235 27.5009 39.7714 27.3944C39.8192 27.287 39.8881 27.1923 39.9779 27.1103C40.0678 27.0282 40.1776 26.9628 40.3075 26.914C40.4384 26.8651 40.5868 26.8407 40.7528 26.8407C40.9179 26.8407 41.0663 26.8656 41.1981 26.9154C41.331 26.9643 41.4433 27.0316 41.5351 27.1176C41.6278 27.2035 41.6986 27.3046 41.7475 27.4208C41.7973 27.537 41.8222 27.6615 41.8222 27.7943C41.8222 27.8109 41.8217 27.829 41.8207 27.8485C41.8207 27.8671 41.8197 27.8842 41.8178 27.8998H40.183C40.2016 27.9516 40.2313 27.9989 40.2724 28.0419C40.3144 28.0849 40.3666 28.122 40.4291 28.1532C40.4916 28.1845 40.5639 28.2089 40.6459 28.2265C40.7279 28.2431 40.8187 28.2514 40.9184 28.2514C41.018 28.2514 41.1171 28.2411 41.2157 28.2206C41.3144 28.1991 41.4086 28.1723 41.4984 28.14L41.6449 28.4711C41.5883 28.4975 41.5307 28.5209 41.4721 28.5414C41.4145 28.5609 41.3539 28.5775 41.2904 28.5912C41.2279 28.6039 41.162 28.6137 41.0927 28.6205C41.0243 28.6273 40.9521 28.6308 40.8759 28.6308C40.6815 28.6308 40.5111 28.6073 40.3646 28.5605C40.2182 28.5136 40.0956 28.4496 39.997 28.3686C39.8983 28.2875 39.8241 28.1923 39.7743 28.0829C39.7245 27.9735 39.6996 27.8559 39.6996 27.7299ZM41.3622 27.5614C41.3466 27.5136 41.3222 27.4691 41.289 27.4281C41.2567 27.3861 41.2162 27.35 41.1674 27.3197C41.1186 27.2885 41.0619 27.2641 40.9975 27.2465C40.933 27.2289 40.8622 27.2201 40.7851 27.2201C40.703 27.2201 40.6283 27.2294 40.5609 27.248C40.4936 27.2665 40.4345 27.2914 40.3837 27.3227C40.3329 27.3539 40.2904 27.39 40.2562 27.4311C40.223 27.4721 40.1986 27.5155 40.183 27.5614H41.3622ZM40.0702 26.3515L40.7602 25.8315L41.4501 26.3515L41.245 26.621L40.7602 26.2548L40.2753 26.621L40.0702 26.3515ZM42.3583 28.0697C42.4755 28.14 42.6044 28.1918 42.745 28.225C42.8856 28.2582 43.0297 28.2748 43.1771 28.2748C43.2768 28.2748 43.3598 28.268 43.4262 28.2543C43.4926 28.2406 43.5458 28.2231 43.5858 28.2016C43.6259 28.1801 43.6542 28.1557 43.6708 28.1283C43.6874 28.101 43.6957 28.0732 43.6957 28.0448C43.6957 28.0038 43.6776 27.9687 43.6415 27.9394C43.6063 27.9101 43.5478 27.8954 43.4657 27.8954C43.4276 27.8954 43.3866 27.8979 43.3427 27.9027C43.2987 27.9076 43.2523 27.913 43.2035 27.9189C43.1557 27.9237 43.1054 27.9286 43.0526 27.9335C43.0009 27.9384 42.9481 27.9408 42.8944 27.9408C42.7772 27.9408 42.6771 27.9281 42.5941 27.9027C42.5121 27.8773 42.4452 27.8427 42.3935 27.7987C42.3417 27.7548 42.3041 27.703 42.2807 27.6435C42.2572 27.5829 42.2455 27.518 42.2455 27.4486C42.2455 27.3607 42.266 27.2797 42.307 27.2055C42.348 27.1313 42.4066 27.0673 42.4828 27.0136C42.559 26.9589 42.6508 26.9164 42.7582 26.8861C42.8666 26.8559 42.9872 26.8407 43.12 26.8407C43.1894 26.8407 43.2616 26.8451 43.3368 26.8539C43.413 26.8617 43.4877 26.8725 43.5609 26.8861C43.6342 26.8998 43.7045 26.9159 43.7719 26.9345C43.8393 26.9521 43.8988 26.9711 43.9506 26.9916L43.8144 27.3285C43.704 27.2875 43.5937 27.2553 43.4833 27.2318C43.3739 27.2074 43.2611 27.1952 43.1449 27.1952C43.0639 27.1952 42.995 27.2016 42.9384 27.2143C42.8827 27.226 42.8373 27.2421 42.8021 27.2626C42.767 27.2821 42.7411 27.3051 42.7245 27.3315C42.7089 27.3568 42.7011 27.3837 42.7011 27.412C42.7011 27.4325 42.705 27.4511 42.7128 27.4677C42.7216 27.4843 42.7353 27.4989 42.7538 27.5116C42.7733 27.5233 42.7982 27.5326 42.8285 27.5395C42.8598 27.5453 42.8979 27.5482 42.9428 27.5482C42.9838 27.5482 43.0272 27.5458 43.0731 27.5409C43.119 27.536 43.1669 27.5312 43.2167 27.5263C43.2665 27.5204 43.3178 27.515 43.3705 27.5102C43.4242 27.5053 43.4789 27.5028 43.5346 27.5028C43.6381 27.5028 43.7284 27.515 43.8056 27.5395C43.8837 27.5639 43.9481 27.5981 43.9989 27.642C44.0497 27.6859 44.0878 27.7377 44.1132 27.7973C44.1386 27.8568 44.1513 27.9218 44.1513 27.9921C44.1513 28.0829 44.1303 28.1674 44.0883 28.2455C44.0463 28.3236 43.9838 28.3915 43.9008 28.4491C43.8178 28.5058 43.7143 28.5502 43.5902 28.5824C43.4672 28.6147 43.3246 28.6308 43.1625 28.6308C43.0629 28.6308 42.9667 28.6244 42.8739 28.6117C42.7812 28.6 42.6928 28.5839 42.6088 28.5634C42.5248 28.5419 42.4457 28.517 42.3715 28.4887C42.2982 28.4604 42.2313 28.4301 42.1708 28.3979L42.3583 28.0697Z" fill="white"/>
<defs>
<filter id="filter0_dd_37_6" x="0.696014" y="4.7" width="52.6079" height="31.6" filterUnits="userSpaceOnUse" color-interpolation-filters="sRGB">
<feFlood flood-opacity="0" result="BackgroundImageFix"/>
<feColorMatrix in="SourceAlpha" type="matrix" values="0 0 0 0 0 0 0 0 0 0 0 0 0 0 0 0 0 0 127 0" result="hardAlpha"/>
<feOffset dy="4"/>
<feGaussianBlur stdDeviation="2"/>
<feComposite in2="hardAlpha" operator="out"/>
<feColorMatrix type="matrix" values="0 0 0 0 0 0 0 0 0 0 0 0 0 0 0 0 0 0 0.25 0"/>
<feBlend mode="normal" in2="BackgroundImageFix" result="effect1_dropShadow_37_6"/>
<feColorMatrix in="SourceAlpha" type="matrix" values="0 0 0 0 0 0 0 0 0 0 0 0 0 0 0 0 0 0 127 0" result="hardAlpha"/>
<feOffset dy="4"/>
<feGaussianBlur stdDeviation="2"/>
<feComposite in2="hardAlpha" operator="out"/>
<feColorMatrix type="matrix" values="0 0 0 0 0 0 0 0 0 0 0 0 0 0 0 0 0 0 0.25 0"/>
<feBlend mode="normal" in2="effect1_dropShadow_37_6" result="effect2_dropShadow_37_6"/>
<feBlend mode="normal" in="SourceGraphic" in2="effect2_dropShadow_37_6" result="shape"/>
</filter>
</defs>
</svg>
