<svg id="visual" viewBox="0 0 1920 80" width="1920" height="80" xmlns="http://www.w3.org/2000/svg" xmlns:xlink="http://www.w3.org/1999/xlink" version="1.1"><path d="M0 4L160 4.2C320 4.3 640 4.7 960 4.8C1280 5 1600 5 1760 5L1920 5L1920 0L1760 0C1600 0 1280 0 960 0C640 0 320 0 160 0L0 0Z" fill="#000812"></path><path d="M0 14L160 14C320 14 640 14 960 14C1280 14 1600 14 1760 14L1920 14L1920 3L1760 3C1600 3 1280 3 960 2.8C640 2.7 320 2.3 160 2.2L0 2Z" fill="#000913"></path><path d="M0 19L160 19.2C320 19.3 640 19.7 960 19.8C1280 20 1600 20 1760 20L1920 20L1920 12L1760 12C1600 12 1280 12 960 12C640 12 320 12 160 12L0 12Z" fill="#000914"></path><path d="M0 23L160 23C320 23 640 23 960 23C1280 23 1600 23 1760 23L1920 23L1920 18L1760 18C1600 18 1280 18 960 17.8C640 17.7 320 17.3 160 17.2L0 17Z" fill="#000a15"></path><path d="M0 38L160 37.8C320 37.7 640 37.3 960 37.2C1280 37 1600 37 1760 37L1920 37L1920 21L1760 21C1600 21 1280 21 960 21C640 21 320 21 160 21L0 21Z" fill="#000b16"></path><path d="M0 41L160 40.8C320 40.7 640 40.3 960 40.2C1280 40 1600 40 1760 40L1920 40L1920 35L1760 35C1600 35 1280 35 960 35.2C640 35.3 320 35.7 160 35.8L0 36Z" fill="#000c18"></path><path d="M0 46L160 45.8C320 45.7 640 45.3 960 45.2C1280 45 1600 45 1760 45L1920 45L1920 38L1760 38C1600 38 1280 38 960 38.2C640 38.3 320 38.7 160 38.8L0 39Z" fill="#000c19"></path><path d="M0 54L160 53.7C320 53.3 640 52.7 960 52.3C1280 52 1600 52 1760 52L1920 52L1920 43L1760 43C1600 43 1280 43 960 43.2C640 43.3 320 43.7 160 43.8L0 44Z" fill="#000d1a"></path><path d="M0 69L160 69C320 69 640 69 960 69C1280 69 1600 69 1760 69L1920 69L1920 50L1760 50C1600 50 1280 50 960 50.3C640 50.7 320 51.3 160 51.7L0 52Z" fill="#000d1b"></path><path d="M0 72L160 72C320 72 640 72 960 72C1280 72 1600 72 1760 72L1920 72L1920 67L1760 67C1600 67 1280 67 960 67C640 67 320 67 160 67L0 67Z" fill="#010e1c"></path><path d="M0 76L160 76C320 76 640 76 960 76C1280 76 1600 76 1760 76L1920 76L1920 70L1760 70C1600 70 1280 70 960 70C640 70 320 70 160 70L0 70Z" fill="#010f1d"></path><path d="M0 81L160 81C320 81 640 81 960 81C1280 81 1600 81 1760 81L1920 81L1920 74L1760 74C1600 74 1280 74 960 74C640 74 320 74 160 74L0 74Z" fill="#010f1e"></path></svg>