<svg id="visual" viewBox="0 0 2200 80" width="2200" height="80" xmlns="http://www.w3.org/2000/svg" xmlns:xlink="http://www.w3.org/1999/xlink" version="1.1"><rect x="0" y="0" width="2200" height="80" fill="#010101"></rect><path d="M0 34L16 31.7C32 29.3 64 24.7 95.8 22.8C127.7 21 159.3 22 191.2 22.7C223 23.3 255 23.7 287 24.2C319 24.7 351 25.3 382.8 26C414.7 26.7 446.3 27.3 478.2 28.5C510 29.7 542 31.3 574 32.2C606 33 638 33 669.8 32.5C701.7 32 733.3 31 765.2 29.3C797 27.7 829 25.3 861 24.2C893 23 925 23 956.8 23.5C988.7 24 1020.3 25 1052.2 26C1084 27 1116 28 1147.8 27.2C1179.7 26.3 1211.3 23.7 1243.2 24.2C1275 24.7 1307 28.3 1339 30.2C1371 32 1403 32 1434.8 30.5C1466.7 29 1498.3 26 1530.2 24.8C1562 23.7 1594 24.3 1626 26.2C1658 28 1690 31 1721.8 30.3C1753.7 29.7 1785.3 25.3 1817.2 23.8C1849 22.3 1881 23.7 1913 23.5C1945 23.3 1977 21.7 2008.8 20.7C2040.7 19.7 2072.3 19.3 2104.2 19.8C2136 20.3 2168 21.7 2184 22.3L2200 23L2200 81L2184 81C2168 81 2136 81 2104.2 81C2072.3 81 2040.7 81 2008.8 81C1977 81 1945 81 1913 81C1881 81 1849 81 1817.2 81C1785.3 81 1753.7 81 1721.8 81C1690 81 1658 81 1626 81C1594 81 1562 81 1530.2 81C1498.3 81 1466.7 81 1434.8 81C1403 81 1371 81 1339 81C1307 81 1275 81 1243.2 81C1211.3 81 1179.7 81 1147.8 81C1116 81 1084 81 1052.2 81C1020.3 81 988.7 81 956.8 81C925 81 893 81 861 81C829 81 797 81 765.2 81C733.3 81 701.7 81 669.8 81C638 81 606 81 574 81C542 81 510 81 478.2 81C446.3 81 414.7 81 382.8 81C351 81 319 81 287 81C255 81 223 81 191.2 81C159.3 81 127.7 81 95.8 81C64 81 32 81 16 81L0 81Z" fill="#04060b"></path><path d="M0 39L16 38.7C32 38.3 64 37.7 95.8 36.5C127.7 35.3 159.3 33.7 191.2 32.2C223 30.7 255 29.3 287 29.2C319 29 351 30 382.8 30.7C414.7 31.3 446.3 31.7 478.2 32.2C510 32.7 542 33.3 574 32.8C606 32.3 638 30.7 669.8 29.7C701.7 28.7 733.3 28.3 765.2 28.2C797 28 829 28 861 29.5C893 31 925 34 956.8 35C988.7 36 1020.3 35 1052.2 34.2C1084 33.3 1116 32.7 1147.8 31.5C1179.7 30.3 1211.3 28.7 1243.2 28.5C1275 28.3 1307 29.7 1339 31.7C1371 33.7 1403 36.3 1434.8 38C1466.7 39.7 1498.3 40.3 1530.2 38.5C1562 36.7 1594 32.3 1626 30.2C1658 28 1690 28 1721.8 28.3C1753.7 28.7 1785.3 29.3 1817.2 30.3C1849 31.3 1881 32.7 1913 34.2C1945 35.7 1977 37.3 2008.8 37.7C2040.7 38 2072.3 37 2104.2 36.7C2136 36.3 2168 36.7 2184 36.8L2200 37L2200 81L2184 81C2168 81 2136 81 2104.2 81C2072.3 81 2040.7 81 2008.8 81C1977 81 1945 81 1913 81C1881 81 1849 81 1817.2 81C1785.3 81 1753.7 81 1721.8 81C1690 81 1658 81 1626 81C1594 81 1562 81 1530.2 81C1498.3 81 1466.7 81 1434.8 81C1403 81 1371 81 1339 81C1307 81 1275 81 1243.2 81C1211.3 81 1179.7 81 1147.8 81C1116 81 1084 81 1052.2 81C1020.3 81 988.7 81 956.8 81C925 81 893 81 861 81C829 81 797 81 765.2 81C733.3 81 701.7 81 669.8 81C638 81 606 81 574 81C542 81 510 81 478.2 81C446.3 81 414.7 81 382.8 81C351 81 319 81 287 81C255 81 223 81 191.2 81C159.3 81 127.7 81 95.8 81C64 81 32 81 16 81L0 81Z" fill="#05070d"></path><path d="M0 46L16 44.5C32 43 64 40 95.8 38.2C127.7 36.3 159.3 35.7 191.2 35.8C223 36 255 37 287 39C319 41 351 44 382.8 45.7C414.7 47.3 446.3 47.7 478.2 46.2C510 44.7 542 41.3 574 39.8C606 38.3 638 38.7 669.8 38.3C701.7 38 733.3 37 765.2 38.3C797 39.7 829 43.3 861 44.2C893 45 925 43 956.8 43.2C988.7 43.3 1020.3 45.7 1052.2 44.8C1084 44 1116 40 1147.8 38.2C1179.7 36.3 1211.3 36.7 1243.2 37.3C1275 38 1307 39 1339 40.2C1371 41.3 1403 42.7 1434.8 42.5C1466.7 42.3 1498.3 40.7 1530.2 39.2C1562 37.7 1594 36.3 1626 36.2C1658 36 1690 37 1721.8 38.5C1753.7 40 1785.3 42 1817.2 42.7C1849 43.3 1881 42.7 1913 42.7C1945 42.7 1977 43.3 2008.8 44C2040.7 44.7 2072.3 45.3 2104.2 45.7C2136 46 2168 46 2184 46L2200 46L2200 81L2184 81C2168 81 2136 81 2104.2 81C2072.3 81 2040.7 81 2008.8 81C1977 81 1945 81 1913 81C1881 81 1849 81 1817.2 81C1785.3 81 1753.7 81 1721.8 81C1690 81 1658 81 1626 81C1594 81 1562 81 1530.2 81C1498.3 81 1466.7 81 1434.8 81C1403 81 1371 81 1339 81C1307 81 1275 81 1243.2 81C1211.3 81 1179.7 81 1147.8 81C1116 81 1084 81 1052.2 81C1020.3 81 988.7 81 956.8 81C925 81 893 81 861 81C829 81 797 81 765.2 81C733.3 81 701.7 81 669.8 81C638 81 606 81 574 81C542 81 510 81 478.2 81C446.3 81 414.7 81 382.8 81C351 81 319 81 287 81C255 81 223 81 191.2 81C159.3 81 127.7 81 95.8 81C64 81 32 81 16 81L0 81Z" fill="#05090f"></path><path d="M0 45L16 45.3C32 45.7 64 46.3 95.8 46C127.7 45.7 159.3 44.3 191.2 44.8C223 45.3 255 47.7 287 49.3C319 51 351 52 382.8 51.5C414.7 51 446.3 49 478.2 49.2C510 49.3 542 51.7 574 52.2C606 52.7 638 51.3 669.8 51.2C701.7 51 733.3 52 765.2 51.5C797 51 829 49 861 47.8C893 46.7 925 46.3 956.8 46.7C988.7 47 1020.3 48 1052.2 48C1084 48 1116 47 1147.8 46.7C1179.7 46.3 1211.3 46.7 1243.2 46.3C1275 46 1307 45 1339 45.8C1371 46.7 1403 49.3 1434.8 50.3C1466.7 51.3 1498.3 50.7 1530.2 49.3C1562 48 1594 46 1626 46.3C1658 46.7 1690 49.3 1721.8 49.5C1753.7 49.7 1785.3 47.3 1817.2 45.8C1849 44.3 1881 43.7 1913 43.8C1945 44 1977 45 2008.8 45.2C2040.7 45.3 2072.3 44.7 2104.2 45.3C2136 46 2168 48 2184 49L2200 50L2200 81L2184 81C2168 81 2136 81 2104.2 81C2072.3 81 2040.7 81 2008.8 81C1977 81 1945 81 1913 81C1881 81 1849 81 1817.2 81C1785.3 81 1753.7 81 1721.8 81C1690 81 1658 81 1626 81C1594 81 1562 81 1530.2 81C1498.3 81 1466.7 81 1434.8 81C1403 81 1371 81 1339 81C1307 81 1275 81 1243.2 81C1211.3 81 1179.7 81 1147.8 81C1116 81 1084 81 1052.2 81C1020.3 81 988.7 81 956.8 81C925 81 893 81 861 81C829 81 797 81 765.2 81C733.3 81 701.7 81 669.8 81C638 81 606 81 574 81C542 81 510 81 478.2 81C446.3 81 414.7 81 382.8 81C351 81 319 81 287 81C255 81 223 81 191.2 81C159.3 81 127.7 81 95.8 81C64 81 32 81 16 81L0 81Z" fill="#060a11"></path><path d="M0 60L16 59.7C32 59.3 64 58.7 95.8 58C127.7 57.3 159.3 56.7 191.2 56.7C223 56.7 255 57.3 287 57C319 56.7 351 55.3 382.8 55.2C414.7 55 446.3 56 478.2 55.7C510 55.3 542 53.7 574 53.7C606 53.7 638 55.3 669.8 56.3C701.7 57.3 733.3 57.7 765.2 57.3C797 57 829 56 861 56.3C893 56.7 925 58.3 956.8 58C988.7 57.7 1020.3 55.3 1052.2 55.3C1084 55.3 1116 57.7 1147.8 58.3C1179.7 59 1211.3 58 1243.2 58C1275 58 1307 59 1339 58.2C1371 57.3 1403 54.7 1434.8 53.8C1466.7 53 1498.3 54 1530.2 53.8C1562 53.7 1594 52.3 1626 52.3C1658 52.3 1690 53.7 1721.8 54.5C1753.7 55.3 1785.3 55.7 1817.2 56.3C1849 57 1881 58 1913 57.7C1945 57.3 1977 55.7 2008.8 55.8C2040.7 56 2072.3 58 2104.2 58.7C2136 59.3 2168 58.7 2184 58.3L2200 58L2200 81L2184 81C2168 81 2136 81 2104.2 81C2072.3 81 2040.7 81 2008.8 81C1977 81 1945 81 1913 81C1881 81 1849 81 1817.2 81C1785.3 81 1753.7 81 1721.8 81C1690 81 1658 81 1626 81C1594 81 1562 81 1530.2 81C1498.3 81 1466.7 81 1434.8 81C1403 81 1371 81 1339 81C1307 81 1275 81 1243.2 81C1211.3 81 1179.7 81 1147.8 81C1116 81 1084 81 1052.2 81C1020.3 81 988.7 81 956.8 81C925 81 893 81 861 81C829 81 797 81 765.2 81C733.3 81 701.7 81 669.8 81C638 81 606 81 574 81C542 81 510 81 478.2 81C446.3 81 414.7 81 382.8 81C351 81 319 81 287 81C255 81 223 81 191.2 81C159.3 81 127.7 81 95.8 81C64 81 32 81 16 81L0 81Z" fill="#070b13"></path><path d="M0 61L16 61.8C32 62.7 64 64.3 95.8 64.8C127.7 65.3 159.3 64.7 191.2 64.2C223 63.7 255 63.3 287 62.5C319 61.7 351 60.3 382.8 60C414.7 59.7 446.3 60.3 478.2 60.3C510 60.3 542 59.7 574 59.5C606 59.3 638 59.7 669.8 61C701.7 62.3 733.3 64.7 765.2 65.5C797 66.3 829 65.7 861 64.7C893 63.7 925 62.3 956.8 62.5C988.7 62.7 1020.3 64.3 1052.2 64.8C1084 65.3 1116 64.7 1147.8 63.7C1179.7 62.7 1211.3 61.3 1243.2 61.7C1275 62 1307 64 1339 64.5C1371 65 1403 64 1434.8 63.2C1466.7 62.3 1498.3 61.7 1530.2 61.7C1562 61.7 1594 62.3 1626 62.7C1658 63 1690 63 1721.8 63.3C1753.7 63.7 1785.3 64.3 1817.2 64.3C1849 64.3 1881 63.7 1913 62.8C1945 62 1977 61 2008.8 61.5C2040.7 62 2072.3 64 2104.2 65C2136 66 2168 66 2184 66L2200 66L2200 81L2184 81C2168 81 2136 81 2104.2 81C2072.3 81 2040.7 81 2008.8 81C1977 81 1945 81 1913 81C1881 81 1849 81 1817.2 81C1785.3 81 1753.7 81 1721.8 81C1690 81 1658 81 1626 81C1594 81 1562 81 1530.2 81C1498.3 81 1466.7 81 1434.8 81C1403 81 1371 81 1339 81C1307 81 1275 81 1243.2 81C1211.3 81 1179.7 81 1147.8 81C1116 81 1084 81 1052.2 81C1020.3 81 988.7 81 956.8 81C925 81 893 81 861 81C829 81 797 81 765.2 81C733.3 81 701.7 81 669.8 81C638 81 606 81 574 81C542 81 510 81 478.2 81C446.3 81 414.7 81 382.8 81C351 81 319 81 287 81C255 81 223 81 191.2 81C159.3 81 127.7 81 95.8 81C64 81 32 81 16 81L0 81Z" fill="#070c14"></path><path d="M0 73L16 72C32 71 64 69 95.8 69C127.7 69 159.3 71 191.2 71.5C223 72 255 71 287 70.7C319 70.3 351 70.7 382.8 70.3C414.7 70 446.3 69 478.2 69.3C510 69.7 542 71.3 574 72.2C606 73 638 73 669.8 72.7C701.7 72.3 733.3 71.7 765.2 70.5C797 69.3 829 67.7 861 67.8C893 68 925 70 956.8 70.7C988.7 71.3 1020.3 70.7 1052.2 69.8C1084 69 1116 68 1147.8 68.3C1179.7 68.7 1211.3 70.3 1243.2 71.2C1275 72 1307 72 1339 71.2C1371 70.3 1403 68.7 1434.8 68.2C1466.7 67.7 1498.3 68.3 1530.2 69C1562 69.7 1594 70.3 1626 70C1658 69.7 1690 68.3 1721.8 68.5C1753.7 68.7 1785.3 70.3 1817.2 70.3C1849 70.3 1881 68.7 1913 68.3C1945 68 1977 69 2008.8 69.5C2040.7 70 2072.3 70 2104.2 70.2C2136 70.3 2168 70.7 2184 70.8L2200 71L2200 81L2184 81C2168 81 2136 81 2104.2 81C2072.3 81 2040.7 81 2008.8 81C1977 81 1945 81 1913 81C1881 81 1849 81 1817.2 81C1785.3 81 1753.7 81 1721.8 81C1690 81 1658 81 1626 81C1594 81 1562 81 1530.2 81C1498.3 81 1466.7 81 1434.8 81C1403 81 1371 81 1339 81C1307 81 1275 81 1243.2 81C1211.3 81 1179.7 81 1147.8 81C1116 81 1084 81 1052.2 81C1020.3 81 988.7 81 956.8 81C925 81 893 81 861 81C829 81 797 81 765.2 81C733.3 81 701.7 81 669.8 81C638 81 606 81 574 81C542 81 510 81 478.2 81C446.3 81 414.7 81 382.8 81C351 81 319 81 287 81C255 81 223 81 191.2 81C159.3 81 127.7 81 95.8 81C64 81 32 81 16 81L0 81Z" fill="#080d16"></path></svg>