<svg id="visual" viewBox="0 0 1200 45" width="1200" height="45" xmlns="http://www.w3.org/2000/svg" xmlns:xlink="http://www.w3.org/1999/xlink" version="1.1"><path d="M0 9L9.2 9.5C18.3 10 36.7 11 54.8 11C73 11 91 10 109.2 10.2C127.3 10.3 145.7 11.7 163.8 12C182 12.3 200 11.7 218.2 11.2C236.3 10.7 254.7 10.3 272.8 10.5C291 10.7 309 11.3 327.2 11.7C345.3 12 363.7 12 381.8 11.5C400 11 418 10 436.2 9.7C454.3 9.3 472.7 9.7 490.8 10.2C509 10.7 527 11.3 545.2 12C563.3 12.7 581.7 13.3 600 13.5C618.3 13.7 636.7 13.3 654.8 13C673 12.7 691 12.3 709.2 12.2C727.3 12 745.7 12 763.8 12C782 12 800 12 818.2 12.2C836.3 12.3 854.7 12.7 872.8 12.5C891 12.3 909 11.7 927.2 11.2C945.3 10.7 963.7 10.3 981.8 10.7C1000 11 1018 12 1036.2 12.8C1054.3 13.7 1072.7 14.3 1090.8 14.2C1109 14 1127 13 1145.2 12.7C1163.3 12.3 1181.7 12.7 1190.8 12.8L1200 13L1200 0L1190.8 0C1181.7 0 1163.3 0 1145.2 0C1127 0 1109 0 1090.8 0C1072.7 0 1054.3 0 1036.2 0C1018 0 1000 0 981.8 0C963.7 0 945.3 0 927.2 0C909 0 891 0 872.8 0C854.7 0 836.3 0 818.2 0C800 0 782 0 763.8 0C745.7 0 727.3 0 709.2 0C691 0 673 0 654.8 0C636.7 0 618.3 0 600 0C581.7 0 563.3 0 545.2 0C527 0 509 0 490.8 0C472.7 0 454.3 0 436.2 0C418 0 400 0 381.8 0C363.7 0 345.3 0 327.2 0C309 0 291 0 272.8 0C254.7 0 236.3 0 218.2 0C200 0 182 0 163.8 0C145.7 0 127.3 0 109.2 0C91 0 73 0 54.8 0C36.7 0 18.3 0 9.2 0L0 0Z" fill="#000712"></path><path d="M0 20L9.2 20.3C18.3 20.7 36.7 21.3 54.8 21.5C73 21.7 91 21.3 109.2 21.5C127.3 21.7 145.7 22.3 163.8 22.8C182 23.3 200 23.7 218.2 23.5C236.3 23.3 254.7 22.7 272.8 21.8C291 21 309 20 327.2 19.5C345.3 19 363.7 19 381.8 19C400 19 418 19 436.2 19.2C454.3 19.3 472.7 19.7 490.8 19.7C509 19.7 527 19.3 545.2 19.5C563.3 19.7 581.7 20.3 600 20.5C618.3 20.7 636.7 20.3 654.8 20.2C673 20 691 20 709.2 20.2C727.3 20.3 745.7 20.7 763.8 20.5C782 20.3 800 19.7 818.2 19.5C836.3 19.3 854.7 19.7 872.8 20C891 20.3 909 20.7 927.2 20.5C945.3 20.3 963.7 19.7 981.8 19.5C1000 19.3 1018 19.7 1036.2 20.2C1054.3 20.7 1072.7 21.3 1090.8 21.2C1109 21 1127 20 1145.2 20.2C1163.3 20.3 1181.7 21.7 1190.8 22.3L1200 23L1200 11L1190.8 10.8C1181.7 10.7 1163.3 10.3 1145.2 10.7C1127 11 1109 12 1090.8 12.2C1072.7 12.3 1054.3 11.7 1036.2 10.8C1018 10 1000 9 981.8 8.7C963.7 8.3 945.3 8.7 927.2 9.2C909 9.7 891 10.3 872.8 10.5C854.7 10.7 836.3 10.3 818.2 10.2C800 10 782 10 763.8 10C745.7 10 727.3 10 709.2 10.2C691 10.3 673 10.7 654.8 11C636.7 11.3 618.3 11.7 600 11.5C581.7 11.3 563.3 10.7 545.2 10C527 9.3 509 8.7 490.8 8.2C472.7 7.7 454.3 7.3 436.2 7.7C418 8 400 9 381.8 9.5C363.7 10 345.3 10 327.2 9.7C309 9.3 291 8.7 272.8 8.5C254.7 8.3 236.3 8.7 218.2 9.2C200 9.7 182 10.3 163.8 10C145.7 9.7 127.3 8.3 109.2 8.2C91 8 73 9 54.8 9C36.7 9 18.3 8 9.2 7.5L0 7Z" fill="#010813"></path><path d="M0 24L9.2 24.3C18.3 24.7 36.7 25.3 54.8 25.5C73 25.7 91 25.3 109.2 25.2C127.3 25 145.7 25 163.8 25.2C182 25.3 200 25.7 218.2 25.8C236.3 26 254.7 26 272.8 25.5C291 25 309 24 327.2 23.3C345.3 22.7 363.7 22.3 381.8 22.2C400 22 418 22 436.2 22.3C454.3 22.7 472.7 23.3 490.8 23.3C509 23.3 527 22.7 545.2 22.7C563.3 22.7 581.7 23.3 600 23.5C618.3 23.7 636.7 23.3 654.8 23C673 22.7 691 22.3 709.2 22.7C727.3 23 745.7 24 763.8 24.2C782 24.3 800 23.7 818.2 23.5C836.3 23.3 854.7 23.7 872.8 23.8C891 24 909 24 927.2 23.8C945.3 23.7 963.7 23.3 981.8 23.3C1000 23.3 1018 23.7 1036.2 24C1054.3 24.3 1072.7 24.7 1090.8 24.3C1109 24 1127 23 1145.2 23.3C1163.3 23.7 1181.7 25.3 1190.8 26.2L1200 27L1200 21L1190.8 20.3C1181.7 19.7 1163.3 18.3 1145.2 18.2C1127 18 1109 19 1090.8 19.2C1072.7 19.3 1054.3 18.7 1036.2 18.2C1018 17.7 1000 17.3 981.8 17.5C963.7 17.7 945.3 18.3 927.2 18.5C909 18.7 891 18.3 872.8 18C854.7 17.7 836.3 17.3 818.2 17.5C800 17.7 782 18.3 763.8 18.5C745.7 18.7 727.3 18.3 709.2 18.2C691 18 673 18 654.8 18.2C636.7 18.3 618.3 18.7 600 18.5C581.7 18.3 563.3 17.7 545.2 17.5C527 17.3 509 17.7 490.8 17.7C472.7 17.7 454.3 17.3 436.2 17.2C418 17 400 17 381.8 17C363.7 17 345.3 17 327.2 17.5C309 18 291 19 272.8 19.8C254.7 20.7 236.3 21.3 218.2 21.5C200 21.7 182 21.3 163.8 20.8C145.7 20.3 127.3 19.7 109.2 19.5C91 19.3 73 19.7 54.8 19.5C36.7 19.3 18.3 18.7 9.2 18.3L0 18Z" fill="#020813"></path><path d="M0 29L9.2 29C18.3 29 36.7 29 54.8 29.2C73 29.3 91 29.7 109.2 29.7C127.3 29.7 145.7 29.3 163.8 29.2C182 29 200 29 218.2 29.2C236.3 29.3 254.7 29.7 272.8 29.3C291 29 309 28 327.2 27.5C345.3 27 363.7 27 381.8 26.8C400 26.7 418 26.3 436.2 26.7C454.3 27 472.7 28 490.8 28C509 28 527 27 545.2 27.2C563.3 27.3 581.7 28.7 600 29C618.3 29.3 636.7 28.7 654.8 28.2C673 27.7 691 27.3 709.2 27.3C727.3 27.3 745.7 27.7 763.8 27.8C782 28 800 28 818.2 28C836.3 28 854.7 28 872.8 28C891 28 909 28 927.2 27.8C945.3 27.7 963.7 27.3 981.8 27.5C1000 27.7 1018 28.3 1036.2 28.5C1054.3 28.7 1072.7 28.3 1090.8 28.2C1109 28 1127 28 1145.2 28.3C1163.3 28.7 1181.7 29.3 1190.8 29.7L1200 30L1200 25L1190.8 24.2C1181.7 23.3 1163.3 21.7 1145.2 21.3C1127 21 1109 22 1090.8 22.3C1072.7 22.7 1054.3 22.3 1036.2 22C1018 21.7 1000 21.3 981.8 21.3C963.7 21.3 945.3 21.7 927.2 21.8C909 22 891 22 872.8 21.8C854.7 21.7 836.3 21.3 818.2 21.5C800 21.7 782 22.3 763.8 22.2C745.7 22 727.3 21 709.2 20.7C691 20.3 673 20.7 654.8 21C636.7 21.3 618.3 21.7 600 21.5C581.7 21.3 563.3 20.7 545.2 20.7C527 20.7 509 21.3 490.8 21.3C472.7 21.3 454.3 20.7 436.2 20.3C418 20 400 20 381.8 20.2C363.7 20.3 345.3 20.7 327.2 21.3C309 22 291 23 272.8 23.5C254.7 24 236.3 24 218.2 23.8C200 23.7 182 23.3 163.8 23.2C145.7 23 127.3 23 109.2 23.2C91 23.3 73 23.7 54.8 23.5C36.7 23.3 18.3 22.7 9.2 22.3L0 22Z" fill="#030914"></path><path d="M0 33L9.2 33.2C18.3 33.3 36.7 33.7 54.8 33.8C73 34 91 34 109.2 34.2C127.3 34.3 145.7 34.7 163.8 34.7C182 34.7 200 34.3 218.2 34.3C236.3 34.3 254.7 34.7 272.8 34.5C291 34.3 309 33.7 327.2 33.5C345.3 33.3 363.7 33.7 381.8 33.8C400 34 418 34 436.2 34C454.3 34 472.7 34 490.8 33.7C509 33.3 527 32.7 545.2 32.7C563.3 32.7 581.7 33.3 600 33.5C618.3 33.7 636.7 33.3 654.8 33.2C673 33 691 33 709.2 33.2C727.3 33.3 745.7 33.7 763.8 34C782 34.3 800 34.7 818.2 34.7C836.3 34.7 854.7 34.3 872.8 34.5C891 34.7 909 35.3 927.2 35.5C945.3 35.7 963.7 35.3 981.8 34.7C1000 34 1018 33 1036.2 33C1054.3 33 1072.7 34 1090.8 34C1109 34 1127 33 1145.2 32.8C1163.3 32.7 1181.7 33.3 1190.8 33.7L1200 34L1200 28L1190.8 27.7C1181.7 27.3 1163.3 26.7 1145.2 26.3C1127 26 1109 26 1090.8 26.2C1072.7 26.3 1054.3 26.7 1036.2 26.5C1018 26.3 1000 25.7 981.8 25.5C963.7 25.3 945.3 25.7 927.2 25.8C909 26 891 26 872.8 26C854.7 26 836.3 26 818.2 26C800 26 782 26 763.8 25.8C745.7 25.7 727.3 25.3 709.2 25.3C691 25.3 673 25.7 654.8 26.2C636.7 26.7 618.3 27.3 600 27C581.7 26.7 563.3 25.3 545.2 25.2C527 25 509 26 490.8 26C472.7 26 454.3 25 436.2 24.7C418 24.3 400 24.7 381.8 24.8C363.7 25 345.3 25 327.2 25.5C309 26 291 27 272.8 27.3C254.7 27.7 236.3 27.3 218.2 27.2C200 27 182 27 163.8 27.2C145.7 27.3 127.3 27.7 109.2 27.7C91 27.7 73 27.3 54.8 27.2C36.7 27 18.3 27 9.2 27L0 27Z" fill="#040a14"></path><path d="M0 36L9.2 36.2C18.3 36.3 36.7 36.7 54.8 36.8C73 37 91 37 109.2 37.2C127.3 37.3 145.7 37.7 163.8 37.7C182 37.7 200 37.3 218.2 37.2C236.3 37 254.7 37 272.8 36.8C291 36.7 309 36.3 327.2 36.3C345.3 36.3 363.7 36.7 381.8 36.8C400 37 418 37 436.2 37C454.3 37 472.7 37 490.8 36.8C509 36.7 527 36.3 545.2 36.3C563.3 36.3 581.7 36.7 600 36.5C618.3 36.3 636.7 35.7 654.8 35.5C673 35.3 691 35.7 709.2 35.8C727.3 36 745.7 36 763.8 36.2C782 36.3 800 36.7 818.2 36.8C836.3 37 854.7 37 872.8 37.2C891 37.3 909 37.7 927.2 37.7C945.3 37.7 963.7 37.3 981.8 36.8C1000 36.3 1018 35.7 1036.2 35.7C1054.3 35.7 1072.7 36.3 1090.8 36.3C1109 36.3 1127 35.7 1145.2 35.7C1163.3 35.7 1181.7 36.3 1190.8 36.7L1200 37L1200 32L1190.8 31.7C1181.7 31.3 1163.3 30.7 1145.2 30.8C1127 31 1109 32 1090.8 32C1072.7 32 1054.3 31 1036.2 31C1018 31 1000 32 981.8 32.7C963.7 33.3 945.3 33.7 927.2 33.5C909 33.3 891 32.7 872.8 32.5C854.7 32.3 836.3 32.7 818.2 32.7C800 32.7 782 32.3 763.8 32C745.7 31.7 727.3 31.3 709.2 31.2C691 31 673 31 654.8 31.2C636.7 31.3 618.3 31.7 600 31.5C581.7 31.3 563.3 30.7 545.2 30.7C527 30.7 509 31.3 490.8 31.7C472.7 32 454.3 32 436.2 32C418 32 400 32 381.8 31.8C363.7 31.7 345.3 31.3 327.2 31.5C309 31.7 291 32.3 272.8 32.5C254.7 32.7 236.3 32.3 218.2 32.3C200 32.3 182 32.7 163.8 32.7C145.7 32.7 127.3 32.3 109.2 32.2C91 32 73 32 54.8 31.8C36.7 31.7 18.3 31.3 9.2 31.2L0 31Z" fill="#050b15"></path><path d="M0 39L9.2 39.2C18.3 39.3 36.7 39.7 54.8 39.8C73 40 91 40 109.2 40.2C127.3 40.3 145.7 40.7 163.8 40.7C182 40.7 200 40.3 218.2 40.3C236.3 40.3 254.7 40.7 272.8 40.5C291 40.3 309 39.7 327.2 39.5C345.3 39.3 363.7 39.7 381.8 39.7C400 39.7 418 39.3 436.2 39.5C454.3 39.7 472.7 40.3 490.8 40.3C509 40.3 527 39.7 545.2 39.5C563.3 39.3 581.7 39.7 600 39.7C618.3 39.7 636.7 39.3 654.8 39.2C673 39 691 39 709.2 38.8C727.3 38.7 745.7 38.3 763.8 38.5C782 38.7 800 39.3 818.2 39.7C836.3 40 854.7 40 872.8 40.2C891 40.3 909 40.7 927.2 40.7C945.3 40.7 963.7 40.3 981.8 39.8C1000 39.3 1018 38.7 1036.2 38.7C1054.3 38.7 1072.7 39.3 1090.8 39.3C1109 39.3 1127 38.7 1145.2 38.7C1163.3 38.7 1181.7 39.3 1190.8 39.7L1200 40L1200 35L1190.8 34.7C1181.7 34.3 1163.3 33.7 1145.2 33.7C1127 33.7 1109 34.3 1090.8 34.3C1072.7 34.3 1054.3 33.7 1036.2 33.7C1018 33.7 1000 34.3 981.8 34.8C963.7 35.3 945.3 35.7 927.2 35.7C909 35.7 891 35.3 872.8 35.2C854.7 35 836.3 35 818.2 34.8C800 34.7 782 34.3 763.8 34.2C745.7 34 727.3 34 709.2 33.8C691 33.7 673 33.3 654.8 33.5C636.7 33.7 618.3 34.3 600 34.5C581.7 34.7 563.3 34.3 545.2 34.3C527 34.3 509 34.7 490.8 34.8C472.7 35 454.3 35 436.2 35C418 35 400 35 381.8 34.8C363.7 34.7 345.3 34.3 327.2 34.3C309 34.3 291 34.7 272.8 34.8C254.7 35 236.3 35 218.2 35.2C200 35.3 182 35.7 163.8 35.7C145.7 35.7 127.3 35.3 109.2 35.2C91 35 73 35 54.8 34.8C36.7 34.7 18.3 34.3 9.2 34.2L0 34Z" fill="#060c15"></path><path d="M0 41L9.2 41.3C18.3 41.7 36.7 42.3 54.8 42.5C73 42.7 91 42.3 109.2 42.3C127.3 42.3 145.7 42.7 163.8 42.8C182 43 200 43 218.2 43C236.3 43 254.7 43 272.8 42.8C291 42.7 309 42.3 327.2 42.2C345.3 42 363.7 42 381.8 42C400 42 418 42 436.2 42C454.3 42 472.7 42 490.8 41.8C509 41.7 527 41.3 545.2 41.5C563.3 41.7 581.7 42.3 600 42.5C618.3 42.7 636.7 42.3 654.8 42.2C673 42 691 42 709.2 42C727.3 42 745.7 42 763.8 42.2C782 42.3 800 42.7 818.2 42.7C836.3 42.7 854.7 42.3 872.8 42.3C891 42.3 909 42.7 927.2 42.8C945.3 43 963.7 43 981.8 42.7C1000 42.3 1018 41.7 1036.2 41.5C1054.3 41.3 1072.7 41.7 1090.8 41.7C1109 41.7 1127 41.3 1145.2 41.5C1163.3 41.7 1181.7 42.3 1190.8 42.7L1200 43L1200 38L1190.8 37.7C1181.7 37.3 1163.3 36.7 1145.2 36.7C1127 36.7 1109 37.3 1090.8 37.3C1072.7 37.3 1054.3 36.7 1036.2 36.7C1018 36.7 1000 37.3 981.8 37.8C963.7 38.3 945.3 38.7 927.2 38.7C909 38.7 891 38.3 872.8 38.2C854.7 38 836.3 38 818.2 37.7C800 37.3 782 36.7 763.8 36.5C745.7 36.3 727.3 36.7 709.2 36.8C691 37 673 37 654.8 37.2C636.7 37.3 618.3 37.7 600 37.7C581.7 37.7 563.3 37.3 545.2 37.5C527 37.7 509 38.3 490.8 38.3C472.7 38.3 454.3 37.7 436.2 37.5C418 37.3 400 37.7 381.8 37.7C363.7 37.7 345.3 37.3 327.2 37.5C309 37.7 291 38.3 272.8 38.5C254.7 38.7 236.3 38.3 218.2 38.3C200 38.3 182 38.7 163.8 38.7C145.7 38.7 127.3 38.3 109.2 38.2C91 38 73 38 54.8 37.8C36.7 37.7 18.3 37.3 9.2 37.2L0 37Z" fill="#070c16"></path><path d="M0 46L9.2 46C18.3 46 36.7 46 54.8 46C73 46 91 46 109.2 46C127.3 46 145.7 46 163.8 46C182 46 200 46 218.2 46C236.3 46 254.7 46 272.8 46C291 46 309 46 327.2 46C345.3 46 363.7 46 381.8 46C400 46 418 46 436.2 46C454.3 46 472.7 46 490.8 46C509 46 527 46 545.2 46C563.3 46 581.7 46 600 46C618.3 46 636.7 46 654.8 46C673 46 691 46 709.2 46C727.3 46 745.7 46 763.8 46C782 46 800 46 818.2 46C836.3 46 854.7 46 872.8 46C891 46 909 46 927.2 46C945.3 46 963.7 46 981.8 46C1000 46 1018 46 1036.2 46C1054.3 46 1072.7 46 1090.8 46C1109 46 1127 46 1145.2 46C1163.3 46 1181.7 46 1190.8 46L1200 46L1200 41L1190.8 40.7C1181.7 40.3 1163.3 39.7 1145.2 39.5C1127 39.3 1109 39.7 1090.8 39.7C1072.7 39.7 1054.3 39.3 1036.2 39.5C1018 39.7 1000 40.3 981.8 40.7C963.7 41 945.3 41 927.2 40.8C909 40.7 891 40.3 872.8 40.3C854.7 40.3 836.3 40.7 818.2 40.7C800 40.7 782 40.3 763.8 40.2C745.7 40 727.3 40 709.2 40C691 40 673 40 654.8 40.2C636.7 40.3 618.3 40.7 600 40.5C581.7 40.3 563.3 39.7 545.2 39.5C527 39.3 509 39.7 490.8 39.8C472.7 40 454.3 40 436.2 40C418 40 400 40 381.8 40C363.7 40 345.3 40 327.2 40.2C309 40.3 291 40.7 272.8 40.8C254.7 41 236.3 41 218.2 41C200 41 182 41 163.8 40.8C145.7 40.7 127.3 40.3 109.2 40.3C91 40.3 73 40.7 54.8 40.5C36.7 40.3 18.3 39.7 9.2 39.3L0 39Z" fill="#080d16"></path></svg>